%TF.GenerationSoftware,KiCad,Pcbnew,5.1.8-1.fc33*%
%TF.CreationDate,2020-11-22T11:34:43-03:00*%
%TF.ProjectId,badge_natal,62616467-655f-46e6-9174-616c2e6b6963,rev?*%
%TF.SameCoordinates,Original*%
%TF.FileFunction,Copper,L1,Top*%
%TF.FilePolarity,Positive*%
%FSLAX46Y46*%
G04 Gerber Fmt 4.6, Leading zero omitted, Abs format (unit mm)*
G04 Created by KiCad (PCBNEW 5.1.8-1.fc33) date 2020-11-22 11:34:43*
%MOMM*%
%LPD*%
G01*
G04 APERTURE LIST*
%TA.AperFunction,ComponentPad*%
%ADD10C,1.524000*%
%TD*%
%TA.AperFunction,ComponentPad*%
%ADD11O,1.524000X1.524000*%
%TD*%
%TA.AperFunction,ComponentPad*%
%ADD12C,2.100000*%
%TD*%
%TA.AperFunction,ComponentPad*%
%ADD13R,2.100000X2.100000*%
%TD*%
%TA.AperFunction,ViaPad*%
%ADD14C,3.800000*%
%TD*%
%TA.AperFunction,ViaPad*%
%ADD15C,0.400000*%
%TD*%
%TA.AperFunction,Conductor*%
%ADD16C,0.300000*%
%TD*%
%TA.AperFunction,Conductor*%
%ADD17C,0.254000*%
%TD*%
%TA.AperFunction,Conductor*%
%ADD18C,0.150000*%
%TD*%
G04 APERTURE END LIST*
D10*
%TO.P,SW1,4*%
%TO.N,N/C*%
X148821000Y-83546000D03*
%TO.P,SW1,6*%
X151321000Y-83546000D03*
%TO.P,SW1,5*%
X153821000Y-83546000D03*
%TO.P,SW1,1*%
%TO.N,Net-(SW1-Pad1)*%
X148821000Y-89046000D03*
%TO.P,SW1,3*%
%TO.N,+BATT*%
X151321000Y-89046000D03*
D11*
%TO.P,SW1,2*%
%TO.N,Net-(BT1-Pad1)*%
X153821000Y-89046000D03*
%TD*%
%TO.P,D15,2*%
%TO.N,Net-(D15-Pad2)*%
%TA.AperFunction,SMDPad,CuDef*%
G36*
G01*
X159454000Y-105860001D02*
X159454000Y-104959999D01*
G75*
G02*
X159703999Y-104710000I249999J0D01*
G01*
X160354001Y-104710000D01*
G75*
G02*
X160604000Y-104959999I0J-249999D01*
G01*
X160604000Y-105860001D01*
G75*
G02*
X160354001Y-106110000I-249999J0D01*
G01*
X159703999Y-106110000D01*
G75*
G02*
X159454000Y-105860001I0J249999D01*
G01*
G37*
%TD.AperFunction*%
%TO.P,D15,1*%
%TO.N,GND*%
%TA.AperFunction,SMDPad,CuDef*%
G36*
G01*
X157404000Y-105860001D02*
X157404000Y-104959999D01*
G75*
G02*
X157653999Y-104710000I249999J0D01*
G01*
X158304001Y-104710000D01*
G75*
G02*
X158554000Y-104959999I0J-249999D01*
G01*
X158554000Y-105860001D01*
G75*
G02*
X158304001Y-106110000I-249999J0D01*
G01*
X157653999Y-106110000D01*
G75*
G02*
X157404000Y-105860001I0J249999D01*
G01*
G37*
%TD.AperFunction*%
%TD*%
%TO.P,D14,2*%
%TO.N,Net-(D14-Pad2)*%
%TA.AperFunction,SMDPad,CuDef*%
G36*
G01*
X154369198Y-105199136D02*
X154602136Y-104329801D01*
G75*
G02*
X154908321Y-104153026I241480J-64705D01*
G01*
X155536175Y-104321259D01*
G75*
G02*
X155712950Y-104627444I-64705J-241480D01*
G01*
X155480012Y-105496779D01*
G75*
G02*
X155173827Y-105673554I-241480J64705D01*
G01*
X154545973Y-105505321D01*
G75*
G02*
X154369198Y-105199136I64705J241480D01*
G01*
G37*
%TD.AperFunction*%
%TO.P,D14,1*%
%TO.N,GND*%
%TA.AperFunction,SMDPad,CuDef*%
G36*
G01*
X152389050Y-104668556D02*
X152621988Y-103799221D01*
G75*
G02*
X152928173Y-103622446I241480J-64705D01*
G01*
X153556027Y-103790679D01*
G75*
G02*
X153732802Y-104096864I-64705J-241480D01*
G01*
X153499864Y-104966199D01*
G75*
G02*
X153193679Y-105142974I-241480J64705D01*
G01*
X152565825Y-104974741D01*
G75*
G02*
X152389050Y-104668556I64705J241480D01*
G01*
G37*
%TD.AperFunction*%
%TD*%
%TO.P,D13,2*%
%TO.N,Net-(D13-Pad2)*%
%TA.AperFunction,SMDPad,CuDef*%
G36*
G01*
X148350953Y-103319772D02*
X148658771Y-102474046D01*
G75*
G02*
X148979198Y-102324629I234922J-85505D01*
G01*
X149590000Y-102546943D01*
G75*
G02*
X149739417Y-102867370I-85505J-234922D01*
G01*
X149431599Y-103713096D01*
G75*
G02*
X149111172Y-103862513I-234922J85505D01*
G01*
X148500370Y-103640199D01*
G75*
G02*
X148350953Y-103319772I85505J234922D01*
G01*
G37*
%TD.AperFunction*%
%TO.P,D13,1*%
%TO.N,GND*%
%TA.AperFunction,SMDPad,CuDef*%
G36*
G01*
X146424583Y-102618630D02*
X146732401Y-101772904D01*
G75*
G02*
X147052828Y-101623487I234922J-85505D01*
G01*
X147663630Y-101845801D01*
G75*
G02*
X147813047Y-102166228I-85505J-234922D01*
G01*
X147505229Y-103011954D01*
G75*
G02*
X147184802Y-103161371I-234922J85505D01*
G01*
X146574000Y-102939057D01*
G75*
G02*
X146424583Y-102618630I85505J234922D01*
G01*
G37*
%TD.AperFunction*%
%TD*%
%TO.P,D12,2*%
%TO.N,Net-(D12-Pad2)*%
%TA.AperFunction,SMDPad,CuDef*%
G36*
G01*
X141896711Y-100436713D02*
X142346712Y-99657288D01*
G75*
G02*
X142688217Y-99565782I216505J-124999D01*
G01*
X143251136Y-99890783D01*
G75*
G02*
X143342641Y-100232287I-125000J-216505D01*
G01*
X142892640Y-101011712D01*
G75*
G02*
X142551135Y-101103218I-216505J124999D01*
G01*
X141988216Y-100778217D01*
G75*
G02*
X141896711Y-100436713I125000J216505D01*
G01*
G37*
%TD.AperFunction*%
%TO.P,D12,1*%
%TO.N,GND*%
%TA.AperFunction,SMDPad,CuDef*%
G36*
G01*
X140121359Y-99411713D02*
X140571360Y-98632288D01*
G75*
G02*
X140912865Y-98540782I216505J-124999D01*
G01*
X141475784Y-98865783D01*
G75*
G02*
X141567289Y-99207287I-125000J-216505D01*
G01*
X141117288Y-99986712D01*
G75*
G02*
X140775783Y-100078218I-216505J124999D01*
G01*
X140212864Y-99753217D01*
G75*
G02*
X140121359Y-99411713I125000J216505D01*
G01*
G37*
%TD.AperFunction*%
%TD*%
%TO.P,D11,2*%
%TO.N,Net-(D11-Pad2)*%
%TA.AperFunction,SMDPad,CuDef*%
G36*
G01*
X136381509Y-97146728D02*
X136897729Y-96409490D01*
G75*
G02*
X137245910Y-96348097I204787J-143394D01*
G01*
X137778360Y-96720923D01*
G75*
G02*
X137839753Y-97069104I-143394J-204787D01*
G01*
X137323533Y-97806342D01*
G75*
G02*
X136975352Y-97867735I-204787J143394D01*
G01*
X136442902Y-97494909D01*
G75*
G02*
X136381509Y-97146728I143394J204787D01*
G01*
G37*
%TD.AperFunction*%
%TO.P,D11,1*%
%TO.N,GND*%
%TA.AperFunction,SMDPad,CuDef*%
G36*
G01*
X134702247Y-95970896D02*
X135218467Y-95233658D01*
G75*
G02*
X135566648Y-95172265I204787J-143394D01*
G01*
X136099098Y-95545091D01*
G75*
G02*
X136160491Y-95893272I-143394J-204787D01*
G01*
X135644271Y-96630510D01*
G75*
G02*
X135296090Y-96691903I-204787J143394D01*
G01*
X134763640Y-96319077D01*
G75*
G02*
X134702247Y-95970896I143394J204787D01*
G01*
G37*
%TD.AperFunction*%
%TD*%
%TO.P,D10,2*%
%TO.N,Net-(D10-Pad2)*%
%TA.AperFunction,SMDPad,CuDef*%
G36*
G01*
X146317306Y-108854978D02*
X145430977Y-108698695D01*
G75*
G02*
X145228188Y-108409082I43412J246201D01*
G01*
X145341059Y-107768955D01*
G75*
G02*
X145630672Y-107566166I246201J-43412D01*
G01*
X146517001Y-107722449D01*
G75*
G02*
X146719790Y-108012062I-43412J-246201D01*
G01*
X146606919Y-108652189D01*
G75*
G02*
X146317306Y-108854978I-246201J43412D01*
G01*
G37*
%TD.AperFunction*%
%TO.P,D10,1*%
%TO.N,GND*%
%TA.AperFunction,SMDPad,CuDef*%
G36*
G01*
X145961328Y-110873834D02*
X145074999Y-110717551D01*
G75*
G02*
X144872210Y-110427938I43412J246201D01*
G01*
X144985081Y-109787811D01*
G75*
G02*
X145274694Y-109585022I246201J-43412D01*
G01*
X146161023Y-109741305D01*
G75*
G02*
X146363812Y-110030918I-43412J-246201D01*
G01*
X146250941Y-110671045D01*
G75*
G02*
X145961328Y-110873834I-246201J43412D01*
G01*
G37*
%TD.AperFunction*%
%TD*%
%TO.P,D9,2*%
%TO.N,Net-(D9-Pad2)*%
%TA.AperFunction,SMDPad,CuDef*%
G36*
G01*
X151706771Y-120918954D02*
X151398953Y-120073228D01*
G75*
G02*
X151548370Y-119752801I234922J85505D01*
G01*
X152159172Y-119530487D01*
G75*
G02*
X152479599Y-119679904I85505J-234922D01*
G01*
X152787417Y-120525630D01*
G75*
G02*
X152638000Y-120846057I-234922J-85505D01*
G01*
X152027198Y-121068371D01*
G75*
G02*
X151706771Y-120918954I-85505J234922D01*
G01*
G37*
%TD.AperFunction*%
%TO.P,D9,1*%
%TO.N,GND*%
%TA.AperFunction,SMDPad,CuDef*%
G36*
G01*
X149780401Y-121620096D02*
X149472583Y-120774370D01*
G75*
G02*
X149622000Y-120453943I234922J85505D01*
G01*
X150232802Y-120231629D01*
G75*
G02*
X150553229Y-120381046I85505J-234922D01*
G01*
X150861047Y-121226772D01*
G75*
G02*
X150711630Y-121547199I-234922J-85505D01*
G01*
X150100828Y-121769513D01*
G75*
G02*
X149780401Y-121620096I-85505J234922D01*
G01*
G37*
%TD.AperFunction*%
%TD*%
%TO.P,D8,2*%
%TO.N,Net-(D8-Pad2)*%
%TA.AperFunction,SMDPad,CuDef*%
G36*
G01*
X143000976Y-114101466D02*
X142422466Y-113412025D01*
G75*
G02*
X142453280Y-113059819I191510J160696D01*
G01*
X142951210Y-112642006D01*
G75*
G02*
X143303416Y-112672820I160696J-191510D01*
G01*
X143881926Y-113362261D01*
G75*
G02*
X143851112Y-113714467I-191510J-160696D01*
G01*
X143353182Y-114132280D01*
G75*
G02*
X143000976Y-114101466I-160696J191510D01*
G01*
G37*
%TD.AperFunction*%
%TO.P,D8,1*%
%TO.N,GND*%
%TA.AperFunction,SMDPad,CuDef*%
G36*
G01*
X141430584Y-115419180D02*
X140852074Y-114729739D01*
G75*
G02*
X140882888Y-114377533I191510J160696D01*
G01*
X141380818Y-113959720D01*
G75*
G02*
X141733024Y-113990534I160696J-191510D01*
G01*
X142311534Y-114679975D01*
G75*
G02*
X142280720Y-115032181I-191510J-160696D01*
G01*
X141782790Y-115449994D01*
G75*
G02*
X141430584Y-115419180I-160696J191510D01*
G01*
G37*
%TD.AperFunction*%
%TD*%
%TO.P,D7,2*%
%TO.N,Net-(D7-Pad2)*%
%TA.AperFunction,SMDPad,CuDef*%
G36*
G01*
X146357905Y-122853771D02*
X146094769Y-121993095D01*
G75*
G02*
X146260751Y-121680927I239075J73093D01*
G01*
X146882351Y-121490885D01*
G75*
G02*
X147194519Y-121656867I73093J-239075D01*
G01*
X147457655Y-122517543D01*
G75*
G02*
X147291673Y-122829711I-239075J-73093D01*
G01*
X146670073Y-123019753D01*
G75*
G02*
X146357905Y-122853771I-73093J239075D01*
G01*
G37*
%TD.AperFunction*%
%TO.P,D7,1*%
%TO.N,GND*%
%TA.AperFunction,SMDPad,CuDef*%
G36*
G01*
X144397481Y-123453133D02*
X144134345Y-122592457D01*
G75*
G02*
X144300327Y-122280289I239075J73093D01*
G01*
X144921927Y-122090247D01*
G75*
G02*
X145234095Y-122256229I73093J-239075D01*
G01*
X145497231Y-123116905D01*
G75*
G02*
X145331249Y-123429073I-239075J-73093D01*
G01*
X144709649Y-123619115D01*
G75*
G02*
X144397481Y-123453133I-73093J239075D01*
G01*
G37*
%TD.AperFunction*%
%TD*%
%TO.P,D6,2*%
%TO.N,Net-(D6-Pad2)*%
%TA.AperFunction,SMDPad,CuDef*%
G36*
G01*
X134303198Y-116121136D02*
X134536136Y-115251801D01*
G75*
G02*
X134842321Y-115075026I241480J-64705D01*
G01*
X135470175Y-115243259D01*
G75*
G02*
X135646950Y-115549444I-64705J-241480D01*
G01*
X135414012Y-116418779D01*
G75*
G02*
X135107827Y-116595554I-241480J64705D01*
G01*
X134479973Y-116427321D01*
G75*
G02*
X134303198Y-116121136I64705J241480D01*
G01*
G37*
%TD.AperFunction*%
%TO.P,D6,1*%
%TO.N,GND*%
%TA.AperFunction,SMDPad,CuDef*%
G36*
G01*
X132323050Y-115590556D02*
X132555988Y-114721221D01*
G75*
G02*
X132862173Y-114544446I241480J-64705D01*
G01*
X133490027Y-114712679D01*
G75*
G02*
X133666802Y-115018864I-64705J-241480D01*
G01*
X133433864Y-115888199D01*
G75*
G02*
X133127679Y-116064974I-241480J64705D01*
G01*
X132499825Y-115896741D01*
G75*
G02*
X132323050Y-115590556I64705J241480D01*
G01*
G37*
%TD.AperFunction*%
%TD*%
%TO.P,D5,2*%
%TO.N,Net-(D5-Pad2)*%
%TA.AperFunction,SMDPad,CuDef*%
G36*
G01*
X139753905Y-124885771D02*
X139490769Y-124025095D01*
G75*
G02*
X139656751Y-123712927I239075J73093D01*
G01*
X140278351Y-123522885D01*
G75*
G02*
X140590519Y-123688867I73093J-239075D01*
G01*
X140853655Y-124549543D01*
G75*
G02*
X140687673Y-124861711I-239075J-73093D01*
G01*
X140066073Y-125051753D01*
G75*
G02*
X139753905Y-124885771I-73093J239075D01*
G01*
G37*
%TD.AperFunction*%
%TO.P,D5,1*%
%TO.N,GND*%
%TA.AperFunction,SMDPad,CuDef*%
G36*
G01*
X137793481Y-125485133D02*
X137530345Y-124624457D01*
G75*
G02*
X137696327Y-124312289I239075J73093D01*
G01*
X138317927Y-124122247D01*
G75*
G02*
X138630095Y-124288229I73093J-239075D01*
G01*
X138893231Y-125148905D01*
G75*
G02*
X138727249Y-125461073I-239075J-73093D01*
G01*
X138105649Y-125651115D01*
G75*
G02*
X137793481Y-125485133I-73093J239075D01*
G01*
G37*
%TD.AperFunction*%
%TD*%
%TO.P,D4,2*%
%TO.N,Net-(D4-Pad2)*%
%TA.AperFunction,SMDPad,CuDef*%
G36*
G01*
X126545905Y-112566771D02*
X126282769Y-111706095D01*
G75*
G02*
X126448751Y-111393927I239075J73093D01*
G01*
X127070351Y-111203885D01*
G75*
G02*
X127382519Y-111369867I73093J-239075D01*
G01*
X127645655Y-112230543D01*
G75*
G02*
X127479673Y-112542711I-239075J-73093D01*
G01*
X126858073Y-112732753D01*
G75*
G02*
X126545905Y-112566771I-73093J239075D01*
G01*
G37*
%TD.AperFunction*%
%TO.P,D4,1*%
%TO.N,GND*%
%TA.AperFunction,SMDPad,CuDef*%
G36*
G01*
X124585481Y-113166133D02*
X124322345Y-112305457D01*
G75*
G02*
X124488327Y-111993289I239075J73093D01*
G01*
X125109927Y-111803247D01*
G75*
G02*
X125422095Y-111969229I73093J-239075D01*
G01*
X125685231Y-112829905D01*
G75*
G02*
X125519249Y-113142073I-239075J-73093D01*
G01*
X124897649Y-113332115D01*
G75*
G02*
X124585481Y-113166133I-73093J239075D01*
G01*
G37*
%TD.AperFunction*%
%TD*%
%TO.P,D3,2*%
%TO.N,Net-(D3-Pad2)*%
%TA.AperFunction,SMDPad,CuDef*%
G36*
G01*
X133149905Y-126917771D02*
X132886769Y-126057095D01*
G75*
G02*
X133052751Y-125744927I239075J73093D01*
G01*
X133674351Y-125554885D01*
G75*
G02*
X133986519Y-125720867I73093J-239075D01*
G01*
X134249655Y-126581543D01*
G75*
G02*
X134083673Y-126893711I-239075J-73093D01*
G01*
X133462073Y-127083753D01*
G75*
G02*
X133149905Y-126917771I-73093J239075D01*
G01*
G37*
%TD.AperFunction*%
%TO.P,D3,1*%
%TO.N,GND*%
%TA.AperFunction,SMDPad,CuDef*%
G36*
G01*
X131189481Y-127517133D02*
X130926345Y-126656457D01*
G75*
G02*
X131092327Y-126344289I239075J73093D01*
G01*
X131713927Y-126154247D01*
G75*
G02*
X132026095Y-126320229I73093J-239075D01*
G01*
X132289231Y-127180905D01*
G75*
G02*
X132123249Y-127493073I-239075J-73093D01*
G01*
X131501649Y-127683115D01*
G75*
G02*
X131189481Y-127517133I-73093J239075D01*
G01*
G37*
%TD.AperFunction*%
%TD*%
%TO.P,D2,2*%
%TO.N,Net-(D2-Pad2)*%
%TA.AperFunction,SMDPad,CuDef*%
G36*
G01*
X118417905Y-113074771D02*
X118154769Y-112214095D01*
G75*
G02*
X118320751Y-111901927I239075J73093D01*
G01*
X118942351Y-111711885D01*
G75*
G02*
X119254519Y-111877867I73093J-239075D01*
G01*
X119517655Y-112738543D01*
G75*
G02*
X119351673Y-113050711I-239075J-73093D01*
G01*
X118730073Y-113240753D01*
G75*
G02*
X118417905Y-113074771I-73093J239075D01*
G01*
G37*
%TD.AperFunction*%
%TO.P,D2,1*%
%TO.N,GND*%
%TA.AperFunction,SMDPad,CuDef*%
G36*
G01*
X116457481Y-113674133D02*
X116194345Y-112813457D01*
G75*
G02*
X116360327Y-112501289I239075J73093D01*
G01*
X116981927Y-112311247D01*
G75*
G02*
X117294095Y-112477229I73093J-239075D01*
G01*
X117557231Y-113337905D01*
G75*
G02*
X117391249Y-113650073I-239075J-73093D01*
G01*
X116769649Y-113840115D01*
G75*
G02*
X116457481Y-113674133I-73093J239075D01*
G01*
G37*
%TD.AperFunction*%
%TD*%
%TO.P,D1,2*%
%TO.N,Net-(D1-Pad2)*%
%TA.AperFunction,SMDPad,CuDef*%
G36*
G01*
X126037905Y-129330771D02*
X125774769Y-128470095D01*
G75*
G02*
X125940751Y-128157927I239075J73093D01*
G01*
X126562351Y-127967885D01*
G75*
G02*
X126874519Y-128133867I73093J-239075D01*
G01*
X127137655Y-128994543D01*
G75*
G02*
X126971673Y-129306711I-239075J-73093D01*
G01*
X126350073Y-129496753D01*
G75*
G02*
X126037905Y-129330771I-73093J239075D01*
G01*
G37*
%TD.AperFunction*%
%TO.P,D1,1*%
%TO.N,GND*%
%TA.AperFunction,SMDPad,CuDef*%
G36*
G01*
X124077481Y-129930133D02*
X123814345Y-129069457D01*
G75*
G02*
X123980327Y-128757289I239075J73093D01*
G01*
X124601927Y-128567247D01*
G75*
G02*
X124914095Y-128733229I73093J-239075D01*
G01*
X125177231Y-129593905D01*
G75*
G02*
X125011249Y-129906073I-239075J-73093D01*
G01*
X124389649Y-130096115D01*
G75*
G02*
X124077481Y-129930133I-73093J239075D01*
G01*
G37*
%TD.AperFunction*%
%TD*%
D12*
%TO.P,BT1,2*%
%TO.N,GND*%
X176022000Y-105664000D03*
D13*
%TO.P,BT1,1*%
%TO.N,Net-(BT1-Pad1)*%
X176022000Y-85664000D03*
%TD*%
D14*
%TO.N,*%
X102311200Y-107149900D03*
D15*
%TO.N,GND*%
X157988000Y-106680000D03*
X122936000Y-129032000D03*
%TO.N,+BATT*%
X108585000Y-117983000D03*
X112903000Y-128524000D03*
%TO.N,Net-(C2-Pad2)*%
X123190000Y-90170000D03*
X123190000Y-88773000D03*
%TO.N,Net-(D1-Pad2)*%
X126456212Y-127416788D03*
%TO.N,Net-(D2-Pad2)*%
X118836212Y-113883212D03*
%TO.N,Net-(D3-Pad2)*%
X133568212Y-125130788D03*
%TO.N,Net-(D4-Pad2)*%
X126964212Y-113248212D03*
%TO.N,Net-(D5-Pad2)*%
X140172212Y-123098788D03*
%TO.N,Net-(D6-Pad2)*%
X134975074Y-116992926D03*
%TO.N,Net-(D7-Pad2)*%
X146776212Y-120939788D03*
%TO.N,Net-(D8-Pad2)*%
X144375143Y-113387143D03*
%TO.N,Net-(D9-Pad2)*%
X153035000Y-119253000D03*
%TO.N,Net-(D10-Pad2)*%
X147313428Y-108210572D03*
%TO.N,Net-(D11-Pad2)*%
X138430000Y-96520000D03*
%TO.N,Net-(D12-Pad2)*%
X143383000Y-99571176D03*
%TO.N,Net-(D13-Pad2)*%
X149971000Y-101965000D03*
%TO.N,Net-(D14-Pad2)*%
X155041074Y-103657926D03*
%TO.N,Net-(D15-Pad2)*%
X160029000Y-103895000D03*
%TO.N,Net-(R15-Pad2)*%
X108458000Y-130302000D03*
X107696000Y-117983000D03*
X107696000Y-106870500D03*
X112395000Y-104648000D03*
%TO.N,Net-(R16-Pad2)*%
X110617000Y-106807000D03*
X112395000Y-106299000D03*
%TO.N,Net-(R17-Pad2)*%
X109601000Y-108458000D03*
X112395000Y-107569000D03*
%TO.N,Net-(R19-Pad2)*%
X145669000Y-105791000D03*
X147193000Y-106299000D03*
%TD*%
D16*
%TO.N,GND*%
X157988000Y-105419000D02*
X157979000Y-105410000D01*
X157988000Y-106680000D02*
X157988000Y-105419000D01*
X123235681Y-129331681D02*
X122936000Y-129032000D01*
X124495788Y-129331681D02*
X123235681Y-129331681D01*
%TO.N,+BATT*%
X110109000Y-128524000D02*
X108585000Y-127000000D01*
X108585000Y-127000000D02*
X108585000Y-117983000D01*
X112903000Y-128524000D02*
X110109000Y-128524000D01*
%TO.N,Net-(C2-Pad2)*%
X123190000Y-88773000D02*
X123190000Y-90170000D01*
%TO.N,Net-(D1-Pad2)*%
X126456212Y-128732319D02*
X126456212Y-127416788D01*
%TO.N,Net-(D2-Pad2)*%
X118836212Y-112476319D02*
X118836212Y-113883212D01*
%TO.N,Net-(D3-Pad2)*%
X133568212Y-126319319D02*
X133568212Y-125130788D01*
%TO.N,Net-(D4-Pad2)*%
X126964212Y-111968319D02*
X126964212Y-113248212D01*
%TO.N,Net-(D5-Pad2)*%
X140172212Y-124287319D02*
X140172212Y-123098788D01*
%TO.N,Net-(D6-Pad2)*%
X134975074Y-115835290D02*
X134975074Y-116992926D01*
%TO.N,Net-(D7-Pad2)*%
X146776212Y-122255319D02*
X146776212Y-120939788D01*
%TO.N,Net-(D8-Pad2)*%
X143152196Y-113387143D02*
X144375143Y-113387143D01*
%TO.N,Net-(D9-Pad2)*%
X153035000Y-119357614D02*
X152093185Y-120299429D01*
X153035000Y-119253000D02*
X153035000Y-119357614D01*
%TO.N,Net-(D10-Pad2)*%
X145973989Y-108210572D02*
X147313428Y-108210572D01*
%TO.N,Net-(D11-Pad2)*%
X137110631Y-97107916D02*
X137842084Y-97107916D01*
X137842084Y-97107916D02*
X138430000Y-96520000D01*
%TO.N,Net-(D12-Pad2)*%
X142619676Y-100334500D02*
X143383000Y-99571176D01*
%TO.N,Net-(D13-Pad2)*%
X149045185Y-102890815D02*
X149971000Y-101965000D01*
X149045185Y-103093571D02*
X149045185Y-102890815D01*
%TO.N,Net-(D14-Pad2)*%
X155041074Y-104913290D02*
X155041074Y-103657926D01*
%TO.N,Net-(D15-Pad2)*%
X160029000Y-105410000D02*
X160029000Y-103895000D01*
%TO.N,Net-(R15-Pad2)*%
X108458000Y-130302000D02*
X107696000Y-129540000D01*
X107696000Y-129540000D02*
X107696000Y-117983000D01*
X107696000Y-106870500D02*
X109918500Y-104648000D01*
X112395000Y-104648000D02*
X109918500Y-104648000D01*
%TO.N,Net-(R16-Pad2)*%
X111125000Y-106299000D02*
X110617000Y-106807000D01*
X112395000Y-106299000D02*
X111125000Y-106299000D01*
%TO.N,Net-(R17-Pad2)*%
X110490000Y-107569000D02*
X109601000Y-108458000D01*
X112395000Y-107569000D02*
X110490000Y-107569000D01*
%TO.N,Net-(R19-Pad2)*%
X147193000Y-106299000D02*
X146685000Y-105791000D01*
X146685000Y-105791000D02*
X145669000Y-105791000D01*
%TD*%
D17*
%TO.N,GND*%
X185724315Y-79906686D02*
X185843218Y-79911110D01*
X185961655Y-79918453D01*
X186079604Y-79928697D01*
X186197102Y-79941827D01*
X186314019Y-79957815D01*
X186430355Y-79976647D01*
X186546029Y-79998297D01*
X186661002Y-80022748D01*
X186775223Y-80049977D01*
X186888691Y-80079978D01*
X187001251Y-80112700D01*
X187112975Y-80148160D01*
X187223722Y-80186309D01*
X187333463Y-80227130D01*
X187442195Y-80270622D01*
X187549847Y-80316759D01*
X187656313Y-80365493D01*
X187761599Y-80416830D01*
X187865641Y-80470740D01*
X187968416Y-80527218D01*
X188069833Y-80586220D01*
X188169863Y-80647739D01*
X188268464Y-80711757D01*
X188365551Y-80778230D01*
X188461106Y-80847160D01*
X188555120Y-80918555D01*
X188647461Y-80992332D01*
X188738132Y-81068514D01*
X188827069Y-81147065D01*
X188914241Y-81227984D01*
X188999598Y-81311249D01*
X189082832Y-81396573D01*
X189163777Y-81483773D01*
X189242334Y-81572716D01*
X189318523Y-81663399D01*
X189392283Y-81755716D01*
X189463668Y-81849717D01*
X189532619Y-81945301D01*
X189599092Y-82042389D01*
X189663099Y-82140974D01*
X189724614Y-82240998D01*
X189783629Y-82342435D01*
X189840100Y-82445198D01*
X189894008Y-82549236D01*
X189945351Y-82654538D01*
X189994099Y-82761037D01*
X190040211Y-82868630D01*
X190083699Y-82977350D01*
X190124523Y-83087094D01*
X190162678Y-83197861D01*
X190198136Y-83309577D01*
X190230864Y-83422158D01*
X190260862Y-83535615D01*
X190288092Y-83649837D01*
X190312540Y-83764802D01*
X190334194Y-83880497D01*
X190353024Y-83996819D01*
X190369013Y-84113742D01*
X190382143Y-84231242D01*
X190392386Y-84349184D01*
X190399729Y-84467621D01*
X190404153Y-84586525D01*
X190405684Y-84709945D01*
X190405685Y-129720814D01*
X190404153Y-129844314D01*
X190399729Y-129963218D01*
X190392386Y-130081655D01*
X190382143Y-130199597D01*
X190369013Y-130317097D01*
X190353024Y-130434020D01*
X190334194Y-130550342D01*
X190312540Y-130666037D01*
X190288092Y-130781002D01*
X190260862Y-130895224D01*
X190230864Y-131008681D01*
X190198136Y-131121262D01*
X190162678Y-131232978D01*
X190124523Y-131343745D01*
X190083699Y-131453489D01*
X190040211Y-131562209D01*
X189994099Y-131669802D01*
X189945351Y-131776301D01*
X189894008Y-131881603D01*
X189840100Y-131985641D01*
X189783629Y-132088404D01*
X189724614Y-132189841D01*
X189663099Y-132289865D01*
X189599092Y-132388450D01*
X189532610Y-132485551D01*
X189463667Y-132581124D01*
X189392300Y-132675101D01*
X189318510Y-132767457D01*
X189242325Y-132858132D01*
X189163777Y-132947066D01*
X189082832Y-133034266D01*
X188999596Y-133119593D01*
X188914247Y-133202850D01*
X188827066Y-133283777D01*
X188738132Y-133362325D01*
X188647461Y-133438507D01*
X188555101Y-133512300D01*
X188461124Y-133583667D01*
X188365551Y-133652610D01*
X188268476Y-133719075D01*
X188169881Y-133783089D01*
X188069841Y-133844614D01*
X187968404Y-133903629D01*
X187865641Y-133960100D01*
X187761588Y-134014016D01*
X187656314Y-134065345D01*
X187549847Y-134114080D01*
X187442195Y-134160217D01*
X187333479Y-134203702D01*
X187223703Y-134244538D01*
X187112955Y-134282685D01*
X187001251Y-134318139D01*
X186888691Y-134350861D01*
X186775223Y-134380862D01*
X186661002Y-134408091D01*
X186546029Y-134432542D01*
X186430355Y-134454192D01*
X186314019Y-134473024D01*
X186197102Y-134489012D01*
X186079604Y-134502142D01*
X185961655Y-134512386D01*
X185843218Y-134519729D01*
X185724315Y-134524153D01*
X185600895Y-134525684D01*
X101789938Y-134525684D01*
X101666518Y-134524153D01*
X101547614Y-134519729D01*
X101429177Y-134512386D01*
X101311235Y-134502143D01*
X101193735Y-134489013D01*
X101076812Y-134473024D01*
X100960490Y-134454194D01*
X100844795Y-134432540D01*
X100729830Y-134408092D01*
X100615608Y-134380862D01*
X100502151Y-134350864D01*
X100389570Y-134318136D01*
X100277854Y-134282678D01*
X100167087Y-134244523D01*
X100057343Y-134203699D01*
X99948623Y-134160211D01*
X99841030Y-134114099D01*
X99734531Y-134065351D01*
X99629229Y-134014008D01*
X99525191Y-133960100D01*
X99422428Y-133903629D01*
X99320991Y-133844614D01*
X99220967Y-133783099D01*
X99122382Y-133719092D01*
X99025294Y-133652619D01*
X98929710Y-133583668D01*
X98835709Y-133512283D01*
X98743392Y-133438523D01*
X98652709Y-133362334D01*
X98563766Y-133283777D01*
X98476566Y-133202832D01*
X98391242Y-133119598D01*
X98307977Y-133034241D01*
X98227058Y-132947069D01*
X98148507Y-132858132D01*
X98072325Y-132767461D01*
X97998548Y-132675120D01*
X97927153Y-132581106D01*
X97858223Y-132485551D01*
X97791750Y-132388464D01*
X97727732Y-132289863D01*
X97666213Y-132189833D01*
X97607211Y-132088416D01*
X97550733Y-131985641D01*
X97496823Y-131881599D01*
X97445486Y-131776313D01*
X97396752Y-131669847D01*
X97350615Y-131562195D01*
X97307123Y-131453463D01*
X97266302Y-131343722D01*
X97228153Y-131232975D01*
X97192693Y-131121251D01*
X97159971Y-131008691D01*
X97129970Y-130895223D01*
X97102741Y-130781002D01*
X97078290Y-130666029D01*
X97056640Y-130550355D01*
X97037808Y-130434019D01*
X97021820Y-130317102D01*
X97008690Y-130199604D01*
X96998446Y-130081655D01*
X96991103Y-129963218D01*
X96986679Y-129844315D01*
X96985149Y-129720902D01*
X96985149Y-117900760D01*
X106861000Y-117900760D01*
X106861000Y-118065240D01*
X106893089Y-118226560D01*
X106911001Y-118269804D01*
X106911000Y-129501447D01*
X106907203Y-129540000D01*
X106911000Y-129578553D01*
X106911000Y-129578560D01*
X106922359Y-129693886D01*
X106967246Y-129841859D01*
X107040138Y-129978232D01*
X107138236Y-130097764D01*
X107168190Y-130122347D01*
X107700121Y-130654278D01*
X107718033Y-130697521D01*
X107809413Y-130834281D01*
X107925719Y-130950587D01*
X108062479Y-131041967D01*
X108214440Y-131104911D01*
X108375760Y-131137000D01*
X108540240Y-131137000D01*
X108701560Y-131104911D01*
X108853521Y-131041967D01*
X108990281Y-130950587D01*
X109106587Y-130834281D01*
X109197967Y-130697521D01*
X109260911Y-130545560D01*
X109293000Y-130384240D01*
X109293000Y-130219760D01*
X109260911Y-130058440D01*
X109219604Y-129958715D01*
X123422204Y-129958715D01*
X123540382Y-130355762D01*
X123588501Y-130471221D01*
X123658221Y-130575072D01*
X123746862Y-130663326D01*
X123851016Y-130732592D01*
X123966683Y-130780207D01*
X124089416Y-130804343D01*
X124214500Y-130804070D01*
X124337127Y-130779399D01*
X124612840Y-130691893D01*
X124718240Y-130493666D01*
X124411469Y-129490263D01*
X123527604Y-129760487D01*
X123422204Y-129958715D01*
X109219604Y-129958715D01*
X109197967Y-129906479D01*
X109106587Y-129769719D01*
X108990281Y-129653413D01*
X108853521Y-129562033D01*
X108810278Y-129544121D01*
X108481000Y-129214843D01*
X108481000Y-128006157D01*
X109526658Y-129051816D01*
X109551236Y-129081764D01*
X109581184Y-129106342D01*
X109581187Y-129106345D01*
X109610559Y-129130450D01*
X109670767Y-129179862D01*
X109807140Y-129252754D01*
X109920672Y-129287194D01*
X109955112Y-129297641D01*
X109969490Y-129299057D01*
X110070439Y-129309000D01*
X110070446Y-129309000D01*
X110108999Y-129312797D01*
X110147552Y-129309000D01*
X112616199Y-129309000D01*
X112659440Y-129326911D01*
X112820760Y-129359000D01*
X112985240Y-129359000D01*
X113146560Y-129326911D01*
X113298521Y-129263967D01*
X113435281Y-129172587D01*
X113551587Y-129056281D01*
X113642967Y-128919521D01*
X113705221Y-128769225D01*
X123106118Y-128769225D01*
X123106391Y-128894308D01*
X123131061Y-129016936D01*
X123255114Y-129412187D01*
X123453341Y-129517586D01*
X124337206Y-129247362D01*
X124030435Y-128243959D01*
X123890768Y-128169696D01*
X124273336Y-128169696D01*
X124580107Y-129173099D01*
X124599233Y-129167251D01*
X124673496Y-129410153D01*
X124654370Y-129416000D01*
X124961141Y-130419403D01*
X125159368Y-130524803D01*
X125436878Y-130443172D01*
X125552336Y-130395053D01*
X125656188Y-130325333D01*
X125744442Y-130236692D01*
X125813708Y-130132537D01*
X125852994Y-130037102D01*
X125860056Y-130041798D01*
X126021041Y-130108069D01*
X126191862Y-130141660D01*
X126365954Y-130141281D01*
X126536627Y-130106945D01*
X127158227Y-129916903D01*
X127318922Y-129849929D01*
X127463463Y-129752893D01*
X127586296Y-129629523D01*
X127682701Y-129484559D01*
X127748972Y-129323574D01*
X127782563Y-129152753D01*
X127782183Y-128978661D01*
X127747846Y-128807988D01*
X127484710Y-127947312D01*
X127417738Y-127786619D01*
X127320702Y-127642078D01*
X127272336Y-127593923D01*
X127281925Y-127545715D01*
X130534204Y-127545715D01*
X130652382Y-127942762D01*
X130700501Y-128058221D01*
X130770221Y-128162072D01*
X130858862Y-128250326D01*
X130963016Y-128319592D01*
X131078683Y-128367207D01*
X131201416Y-128391343D01*
X131326500Y-128391070D01*
X131449127Y-128366399D01*
X131724840Y-128278893D01*
X131830240Y-128080666D01*
X131523469Y-127077263D01*
X130639604Y-127347487D01*
X130534204Y-127545715D01*
X127281925Y-127545715D01*
X127291212Y-127499028D01*
X127291212Y-127334548D01*
X127259123Y-127173228D01*
X127196179Y-127021267D01*
X127104799Y-126884507D01*
X126988493Y-126768201D01*
X126851733Y-126676821D01*
X126699772Y-126613877D01*
X126538452Y-126581788D01*
X126373972Y-126581788D01*
X126212652Y-126613877D01*
X126060691Y-126676821D01*
X125923931Y-126768201D01*
X125807625Y-126884507D01*
X125716245Y-127021267D01*
X125653301Y-127173228D01*
X125621212Y-127334548D01*
X125621212Y-127499028D01*
X125640340Y-127595188D01*
X125593502Y-127614709D01*
X125448961Y-127711745D01*
X125326128Y-127835115D01*
X125229723Y-127980079D01*
X125226495Y-127987920D01*
X125140560Y-127930770D01*
X125024893Y-127883155D01*
X124902160Y-127859019D01*
X124777076Y-127859292D01*
X124654449Y-127883963D01*
X124378736Y-127971469D01*
X124273336Y-128169696D01*
X123890768Y-128169696D01*
X123832208Y-128138559D01*
X123554698Y-128220190D01*
X123439240Y-128268309D01*
X123335388Y-128338029D01*
X123247134Y-128426670D01*
X123177868Y-128530825D01*
X123130254Y-128646491D01*
X123106118Y-128769225D01*
X113705221Y-128769225D01*
X113705911Y-128767560D01*
X113738000Y-128606240D01*
X113738000Y-128441760D01*
X113705911Y-128280440D01*
X113642967Y-128128479D01*
X113551587Y-127991719D01*
X113435281Y-127875413D01*
X113298521Y-127784033D01*
X113146560Y-127721089D01*
X112985240Y-127689000D01*
X112820760Y-127689000D01*
X112659440Y-127721089D01*
X112616199Y-127739000D01*
X110434158Y-127739000D01*
X109370000Y-126674843D01*
X109370000Y-126356225D01*
X130218118Y-126356225D01*
X130218391Y-126481308D01*
X130243061Y-126603936D01*
X130367114Y-126999187D01*
X130565341Y-127104586D01*
X131449206Y-126834362D01*
X131142435Y-125830959D01*
X131002768Y-125756696D01*
X131385336Y-125756696D01*
X131692107Y-126760099D01*
X131711233Y-126754251D01*
X131785496Y-126997153D01*
X131766370Y-127003000D01*
X132073141Y-128006403D01*
X132271368Y-128111803D01*
X132548878Y-128030172D01*
X132664336Y-127982053D01*
X132768188Y-127912333D01*
X132856442Y-127823692D01*
X132925708Y-127719537D01*
X132964994Y-127624102D01*
X132972056Y-127628798D01*
X133133041Y-127695069D01*
X133303862Y-127728660D01*
X133477954Y-127728281D01*
X133648627Y-127693945D01*
X134270227Y-127503903D01*
X134430922Y-127436929D01*
X134575463Y-127339893D01*
X134698296Y-127216523D01*
X134794701Y-127071559D01*
X134860972Y-126910574D01*
X134894563Y-126739753D01*
X134894183Y-126565661D01*
X134859846Y-126394988D01*
X134596710Y-125534312D01*
X134588126Y-125513715D01*
X137138204Y-125513715D01*
X137256382Y-125910762D01*
X137304501Y-126026221D01*
X137374221Y-126130072D01*
X137462862Y-126218326D01*
X137567016Y-126287592D01*
X137682683Y-126335207D01*
X137805416Y-126359343D01*
X137930500Y-126359070D01*
X138053127Y-126334399D01*
X138328840Y-126246893D01*
X138434240Y-126048666D01*
X138127469Y-125045263D01*
X137243604Y-125315487D01*
X137138204Y-125513715D01*
X134588126Y-125513715D01*
X134529738Y-125373619D01*
X134432702Y-125229078D01*
X134403212Y-125199717D01*
X134403212Y-125048548D01*
X134371123Y-124887228D01*
X134308179Y-124735267D01*
X134216799Y-124598507D01*
X134100493Y-124482201D01*
X133963733Y-124390821D01*
X133811772Y-124327877D01*
X133793413Y-124324225D01*
X136822118Y-124324225D01*
X136822391Y-124449308D01*
X136847061Y-124571936D01*
X136971114Y-124967187D01*
X137169341Y-125072586D01*
X138053206Y-124802362D01*
X137746435Y-123798959D01*
X137606768Y-123724696D01*
X137989336Y-123724696D01*
X138296107Y-124728099D01*
X138315233Y-124722251D01*
X138389496Y-124965153D01*
X138370370Y-124971000D01*
X138677141Y-125974403D01*
X138875368Y-126079803D01*
X139152878Y-125998172D01*
X139268336Y-125950053D01*
X139372188Y-125880333D01*
X139460442Y-125791692D01*
X139529708Y-125687537D01*
X139568994Y-125592102D01*
X139576056Y-125596798D01*
X139737041Y-125663069D01*
X139907862Y-125696660D01*
X140081954Y-125696281D01*
X140252627Y-125661945D01*
X140874227Y-125471903D01*
X141034922Y-125404929D01*
X141179463Y-125307893D01*
X141302296Y-125184523D01*
X141398701Y-125039559D01*
X141464972Y-124878574D01*
X141498563Y-124707753D01*
X141498183Y-124533661D01*
X141463846Y-124362988D01*
X141200710Y-123502312D01*
X141192126Y-123481715D01*
X143742204Y-123481715D01*
X143860382Y-123878762D01*
X143908501Y-123994221D01*
X143978221Y-124098072D01*
X144066862Y-124186326D01*
X144171016Y-124255592D01*
X144286683Y-124303207D01*
X144409416Y-124327343D01*
X144534500Y-124327070D01*
X144657127Y-124302399D01*
X144932840Y-124214893D01*
X145038240Y-124016666D01*
X144731469Y-123013263D01*
X143847604Y-123283487D01*
X143742204Y-123481715D01*
X141192126Y-123481715D01*
X141133738Y-123341619D01*
X141036702Y-123197078D01*
X141007212Y-123167717D01*
X141007212Y-123016548D01*
X140975123Y-122855228D01*
X140912179Y-122703267D01*
X140820799Y-122566507D01*
X140704493Y-122450201D01*
X140567733Y-122358821D01*
X140415772Y-122295877D01*
X140397413Y-122292225D01*
X143426118Y-122292225D01*
X143426391Y-122417308D01*
X143451061Y-122539936D01*
X143575114Y-122935187D01*
X143773341Y-123040586D01*
X144657206Y-122770362D01*
X144350435Y-121766959D01*
X144210768Y-121692696D01*
X144593336Y-121692696D01*
X144900107Y-122696099D01*
X144919233Y-122690251D01*
X144993496Y-122933153D01*
X144974370Y-122939000D01*
X145281141Y-123942403D01*
X145479368Y-124047803D01*
X145756878Y-123966172D01*
X145872336Y-123918053D01*
X145976188Y-123848333D01*
X146064442Y-123759692D01*
X146133708Y-123655537D01*
X146172994Y-123560102D01*
X146180056Y-123564798D01*
X146341041Y-123631069D01*
X146511862Y-123664660D01*
X146685954Y-123664281D01*
X146856627Y-123629945D01*
X147478227Y-123439903D01*
X147638922Y-123372929D01*
X147783463Y-123275893D01*
X147906296Y-123152523D01*
X148002701Y-123007559D01*
X148068972Y-122846574D01*
X148102563Y-122675753D01*
X148102183Y-122501661D01*
X148067846Y-122330988D01*
X147869715Y-121682933D01*
X149127519Y-121682933D01*
X149266314Y-122073251D01*
X149320410Y-122186033D01*
X149395470Y-122286093D01*
X149488608Y-122369587D01*
X149596245Y-122433307D01*
X149714245Y-122474803D01*
X149838073Y-122492483D01*
X149962971Y-122485664D01*
X150084139Y-122454609D01*
X150354895Y-122352793D01*
X150449775Y-122149321D01*
X150090911Y-121163349D01*
X149222400Y-121479461D01*
X149127519Y-121682933D01*
X147869715Y-121682933D01*
X147804710Y-121470312D01*
X147737738Y-121309619D01*
X147640702Y-121165078D01*
X147592336Y-121116923D01*
X147611212Y-121022028D01*
X147611212Y-120857548D01*
X147579123Y-120696228D01*
X147516179Y-120544267D01*
X147494362Y-120511615D01*
X148749612Y-120511615D01*
X148756431Y-120636513D01*
X148787486Y-120757681D01*
X148932055Y-121145898D01*
X149135527Y-121240779D01*
X150004037Y-120924667D01*
X149645173Y-119938694D01*
X149458873Y-119851821D01*
X149883855Y-119851821D01*
X150242719Y-120837793D01*
X150261513Y-120830952D01*
X150348386Y-121069635D01*
X150329593Y-121076475D01*
X150688457Y-122062448D01*
X150891929Y-122157328D01*
X151164786Y-122061286D01*
X151277567Y-122007190D01*
X151377628Y-121932130D01*
X151461122Y-121838992D01*
X151524842Y-121731355D01*
X151559080Y-121633995D01*
X151566378Y-121638315D01*
X151730611Y-121696070D01*
X151902956Y-121720675D01*
X152076790Y-121711184D01*
X152245431Y-121667963D01*
X152856233Y-121445649D01*
X153013202Y-121370358D01*
X153152466Y-121265890D01*
X153268674Y-121136261D01*
X153357360Y-120986451D01*
X153415115Y-120822218D01*
X153439721Y-120649873D01*
X153430230Y-120476040D01*
X153387009Y-120307398D01*
X153335872Y-120166899D01*
X153562810Y-119939961D01*
X153592764Y-119915378D01*
X153690862Y-119795847D01*
X153744923Y-119694704D01*
X153748180Y-119688611D01*
X153774967Y-119648521D01*
X153837911Y-119496560D01*
X153870000Y-119335240D01*
X153870000Y-119170760D01*
X153837911Y-119009440D01*
X153774967Y-118857479D01*
X153683587Y-118720719D01*
X153567281Y-118604413D01*
X153430521Y-118513033D01*
X153278560Y-118450089D01*
X153117240Y-118418000D01*
X152952760Y-118418000D01*
X152791440Y-118450089D01*
X152639479Y-118513033D01*
X152502719Y-118604413D01*
X152386413Y-118720719D01*
X152295033Y-118857479D01*
X152286287Y-118878593D01*
X152283414Y-118878183D01*
X152109580Y-118887674D01*
X151940939Y-118930895D01*
X151330137Y-119153209D01*
X151173168Y-119228500D01*
X151033904Y-119332968D01*
X150917696Y-119462597D01*
X150829010Y-119612407D01*
X150826196Y-119620410D01*
X150737385Y-119567835D01*
X150619385Y-119526339D01*
X150495557Y-119508659D01*
X150370659Y-119515478D01*
X150249491Y-119546533D01*
X149978735Y-119648349D01*
X149883855Y-119851821D01*
X149458873Y-119851821D01*
X149441701Y-119843814D01*
X149168844Y-119939856D01*
X149056063Y-119993952D01*
X148956002Y-120069012D01*
X148872508Y-120162150D01*
X148808788Y-120269787D01*
X148767292Y-120387787D01*
X148749612Y-120511615D01*
X147494362Y-120511615D01*
X147424799Y-120407507D01*
X147308493Y-120291201D01*
X147171733Y-120199821D01*
X147019772Y-120136877D01*
X146858452Y-120104788D01*
X146693972Y-120104788D01*
X146532652Y-120136877D01*
X146380691Y-120199821D01*
X146243931Y-120291201D01*
X146127625Y-120407507D01*
X146036245Y-120544267D01*
X145973301Y-120696228D01*
X145941212Y-120857548D01*
X145941212Y-121022028D01*
X145960340Y-121118188D01*
X145913502Y-121137709D01*
X145768961Y-121234745D01*
X145646128Y-121358115D01*
X145549723Y-121503079D01*
X145546495Y-121510920D01*
X145460560Y-121453770D01*
X145344893Y-121406155D01*
X145222160Y-121382019D01*
X145097076Y-121382292D01*
X144974449Y-121406963D01*
X144698736Y-121494469D01*
X144593336Y-121692696D01*
X144210768Y-121692696D01*
X144152208Y-121661559D01*
X143874698Y-121743190D01*
X143759240Y-121791309D01*
X143655388Y-121861029D01*
X143567134Y-121949670D01*
X143497868Y-122053825D01*
X143450254Y-122169491D01*
X143426118Y-122292225D01*
X140397413Y-122292225D01*
X140254452Y-122263788D01*
X140089972Y-122263788D01*
X139928652Y-122295877D01*
X139776691Y-122358821D01*
X139639931Y-122450201D01*
X139523625Y-122566507D01*
X139432245Y-122703267D01*
X139369301Y-122855228D01*
X139337212Y-123016548D01*
X139337212Y-123158160D01*
X139309502Y-123169709D01*
X139164961Y-123266745D01*
X139042128Y-123390115D01*
X138945723Y-123535079D01*
X138942495Y-123542920D01*
X138856560Y-123485770D01*
X138740893Y-123438155D01*
X138618160Y-123414019D01*
X138493076Y-123414292D01*
X138370449Y-123438963D01*
X138094736Y-123526469D01*
X137989336Y-123724696D01*
X137606768Y-123724696D01*
X137548208Y-123693559D01*
X137270698Y-123775190D01*
X137155240Y-123823309D01*
X137051388Y-123893029D01*
X136963134Y-123981670D01*
X136893868Y-124085825D01*
X136846254Y-124201491D01*
X136822118Y-124324225D01*
X133793413Y-124324225D01*
X133650452Y-124295788D01*
X133485972Y-124295788D01*
X133324652Y-124327877D01*
X133172691Y-124390821D01*
X133035931Y-124482201D01*
X132919625Y-124598507D01*
X132828245Y-124735267D01*
X132765301Y-124887228D01*
X132733212Y-125048548D01*
X132733212Y-125190160D01*
X132705502Y-125201709D01*
X132560961Y-125298745D01*
X132438128Y-125422115D01*
X132341723Y-125567079D01*
X132338495Y-125574920D01*
X132252560Y-125517770D01*
X132136893Y-125470155D01*
X132014160Y-125446019D01*
X131889076Y-125446292D01*
X131766449Y-125470963D01*
X131490736Y-125558469D01*
X131385336Y-125756696D01*
X131002768Y-125756696D01*
X130944208Y-125725559D01*
X130666698Y-125807190D01*
X130551240Y-125855309D01*
X130447388Y-125925029D01*
X130359134Y-126013670D01*
X130289868Y-126117825D01*
X130242254Y-126233491D01*
X130218118Y-126356225D01*
X109370000Y-126356225D01*
X109370000Y-118269801D01*
X109387911Y-118226560D01*
X109420000Y-118065240D01*
X109420000Y-117900760D01*
X109387911Y-117739440D01*
X109324967Y-117587479D01*
X109233587Y-117450719D01*
X109117281Y-117334413D01*
X108980521Y-117243033D01*
X108828560Y-117180089D01*
X108667240Y-117148000D01*
X108502760Y-117148000D01*
X108341440Y-117180089D01*
X108189479Y-117243033D01*
X108140500Y-117275760D01*
X108091521Y-117243033D01*
X107939560Y-117180089D01*
X107778240Y-117148000D01*
X107613760Y-117148000D01*
X107452440Y-117180089D01*
X107300479Y-117243033D01*
X107163719Y-117334413D01*
X107047413Y-117450719D01*
X106956033Y-117587479D01*
X106893089Y-117739440D01*
X106861000Y-117900760D01*
X96985149Y-117900760D01*
X96985149Y-115790305D01*
X131621639Y-115790305D01*
X131625732Y-115915323D01*
X131654136Y-116037139D01*
X131705759Y-116151073D01*
X131778617Y-116252747D01*
X131869911Y-116338254D01*
X131976133Y-116404307D01*
X132093200Y-116448367D01*
X132373389Y-116520263D01*
X132453952Y-116473750D01*
X132813163Y-116473750D01*
X132925416Y-116668179D01*
X133204015Y-116746009D01*
X133327428Y-116766385D01*
X133452445Y-116762293D01*
X133574262Y-116733888D01*
X133688196Y-116682266D01*
X133772086Y-116622151D01*
X133775586Y-116629876D01*
X133876991Y-116771387D01*
X134004055Y-116890395D01*
X134140074Y-116974978D01*
X134140074Y-117075166D01*
X134172163Y-117236486D01*
X134235107Y-117388447D01*
X134326487Y-117525207D01*
X134442793Y-117641513D01*
X134579553Y-117732893D01*
X134731514Y-117795837D01*
X134892834Y-117827926D01*
X135057314Y-117827926D01*
X135218634Y-117795837D01*
X135370595Y-117732893D01*
X135507355Y-117641513D01*
X135623661Y-117525207D01*
X135715041Y-117388447D01*
X135777985Y-117236486D01*
X135810074Y-117075166D01*
X135810074Y-116966246D01*
X135877086Y-116894698D01*
X135969019Y-116746858D01*
X136030343Y-116583924D01*
X136263281Y-115714589D01*
X136265437Y-115701527D01*
X140838567Y-115701527D01*
X141102488Y-116020836D01*
X141191895Y-116108314D01*
X141296651Y-116176668D01*
X141412729Y-116223272D01*
X141535668Y-116246335D01*
X141660744Y-116244970D01*
X141783152Y-116219232D01*
X141898185Y-116170106D01*
X142001425Y-116099482D01*
X142221028Y-115911203D01*
X142240595Y-115687551D01*
X141566150Y-114883779D01*
X140858134Y-115477875D01*
X140838567Y-115701527D01*
X136265437Y-115701527D01*
X136291640Y-115542822D01*
X136285943Y-115368823D01*
X136246411Y-115199278D01*
X136174562Y-115040704D01*
X136073157Y-114899193D01*
X135946093Y-114780185D01*
X135798254Y-114688252D01*
X135635320Y-114626928D01*
X135096745Y-114482617D01*
X140055733Y-114482617D01*
X140057098Y-114607693D01*
X140082837Y-114730101D01*
X140131962Y-114845134D01*
X140202586Y-114948374D01*
X140471214Y-115263733D01*
X140694866Y-115283300D01*
X141402882Y-114689203D01*
X140728437Y-113885431D01*
X140504785Y-113865864D01*
X140281232Y-114049437D01*
X140193754Y-114138844D01*
X140125400Y-114243600D01*
X140078796Y-114359678D01*
X140055733Y-114482617D01*
X135096745Y-114482617D01*
X135007466Y-114458695D01*
X134835699Y-114430336D01*
X134661700Y-114436033D01*
X134492155Y-114475565D01*
X134333581Y-114547414D01*
X134326687Y-114552354D01*
X134284093Y-114458347D01*
X134211235Y-114356673D01*
X134119941Y-114271166D01*
X134013719Y-114205113D01*
X133896652Y-114161053D01*
X133616463Y-114089157D01*
X133422034Y-114201410D01*
X133150469Y-115214907D01*
X133169788Y-115220083D01*
X133104047Y-115465429D01*
X133084729Y-115460253D01*
X132813163Y-116473750D01*
X132453952Y-116473750D01*
X132567818Y-116408010D01*
X132839383Y-115394513D01*
X131946626Y-115155299D01*
X131752198Y-115267552D01*
X131642015Y-115666892D01*
X131621639Y-115790305D01*
X96985149Y-115790305D01*
X96985149Y-113702715D01*
X115802204Y-113702715D01*
X115920382Y-114099762D01*
X115968501Y-114215221D01*
X116038221Y-114319072D01*
X116126862Y-114407326D01*
X116231016Y-114476592D01*
X116346683Y-114524207D01*
X116469416Y-114548343D01*
X116594500Y-114548070D01*
X116717127Y-114523399D01*
X116992840Y-114435893D01*
X117098240Y-114237666D01*
X116791469Y-113234263D01*
X115907604Y-113504487D01*
X115802204Y-113702715D01*
X96985149Y-113702715D01*
X96985149Y-112513225D01*
X115486118Y-112513225D01*
X115486391Y-112638308D01*
X115511061Y-112760936D01*
X115635114Y-113156187D01*
X115833341Y-113261586D01*
X116717206Y-112991362D01*
X116410435Y-111987959D01*
X116270768Y-111913696D01*
X116653336Y-111913696D01*
X116960107Y-112917099D01*
X116979233Y-112911251D01*
X117053496Y-113154153D01*
X117034370Y-113160000D01*
X117341141Y-114163403D01*
X117539368Y-114268803D01*
X117816878Y-114187172D01*
X117932336Y-114139053D01*
X118023562Y-114077810D01*
X118033301Y-114126772D01*
X118096245Y-114278733D01*
X118187625Y-114415493D01*
X118303931Y-114531799D01*
X118440691Y-114623179D01*
X118592652Y-114686123D01*
X118753972Y-114718212D01*
X118918452Y-114718212D01*
X118931955Y-114715526D01*
X131900113Y-114715526D01*
X132012366Y-114909954D01*
X132905123Y-115149167D01*
X133176689Y-114135670D01*
X133064436Y-113941241D01*
X132785837Y-113863411D01*
X132662424Y-113843035D01*
X132537407Y-113847127D01*
X132415590Y-113875532D01*
X132301656Y-113927154D01*
X132199982Y-114000013D01*
X132114475Y-114091307D01*
X132048422Y-114197529D01*
X132004362Y-114314596D01*
X131900113Y-114715526D01*
X118931955Y-114715526D01*
X119079772Y-114686123D01*
X119231733Y-114623179D01*
X119368493Y-114531799D01*
X119484799Y-114415493D01*
X119576179Y-114278733D01*
X119639123Y-114126772D01*
X119671212Y-113965452D01*
X119671212Y-113800972D01*
X119639123Y-113639652D01*
X119631776Y-113621914D01*
X119698922Y-113593929D01*
X119843463Y-113496893D01*
X119966296Y-113373523D01*
X120062701Y-113228559D01*
X120076633Y-113194715D01*
X123930204Y-113194715D01*
X124048382Y-113591762D01*
X124096501Y-113707221D01*
X124166221Y-113811072D01*
X124254862Y-113899326D01*
X124359016Y-113968592D01*
X124474683Y-114016207D01*
X124597416Y-114040343D01*
X124722500Y-114040070D01*
X124845127Y-114015399D01*
X125120840Y-113927893D01*
X125226240Y-113729666D01*
X124919469Y-112726263D01*
X124035604Y-112996487D01*
X123930204Y-113194715D01*
X120076633Y-113194715D01*
X120128972Y-113067574D01*
X120162563Y-112896753D01*
X120162183Y-112722661D01*
X120127846Y-112551988D01*
X119960684Y-112005225D01*
X123614118Y-112005225D01*
X123614391Y-112130308D01*
X123639061Y-112252936D01*
X123763114Y-112648187D01*
X123961341Y-112753586D01*
X124845206Y-112483362D01*
X124538435Y-111479959D01*
X124398768Y-111405696D01*
X124781336Y-111405696D01*
X125088107Y-112409099D01*
X125107233Y-112403251D01*
X125181496Y-112646153D01*
X125162370Y-112652000D01*
X125469141Y-113655403D01*
X125667368Y-113760803D01*
X125944878Y-113679172D01*
X126060336Y-113631053D01*
X126164188Y-113561333D01*
X126182497Y-113542944D01*
X126224245Y-113643733D01*
X126315625Y-113780493D01*
X126431931Y-113896799D01*
X126568691Y-113988179D01*
X126720652Y-114051123D01*
X126881972Y-114083212D01*
X127046452Y-114083212D01*
X127207772Y-114051123D01*
X127359733Y-113988179D01*
X127496493Y-113896799D01*
X127612799Y-113780493D01*
X127651773Y-113722163D01*
X140923013Y-113722163D01*
X141597458Y-114525935D01*
X141612778Y-114513080D01*
X141776047Y-114707655D01*
X141760726Y-114720511D01*
X142435171Y-115524283D01*
X142658823Y-115543850D01*
X142882376Y-115360277D01*
X142969854Y-115270870D01*
X143038208Y-115166114D01*
X143084812Y-115050036D01*
X143107875Y-114927097D01*
X143106749Y-114823898D01*
X143115086Y-114825462D01*
X143289168Y-114823563D01*
X143459534Y-114787738D01*
X143619638Y-114719366D01*
X143763327Y-114621072D01*
X144249129Y-114213436D01*
X144292903Y-114222143D01*
X144457383Y-114222143D01*
X144618703Y-114190054D01*
X144770664Y-114127110D01*
X144907424Y-114035730D01*
X145023730Y-113919424D01*
X145115110Y-113782664D01*
X145178054Y-113630703D01*
X145210143Y-113469383D01*
X145210143Y-113304903D01*
X145178054Y-113143583D01*
X145115110Y-112991622D01*
X145023730Y-112854862D01*
X144907424Y-112738556D01*
X144770664Y-112647176D01*
X144618703Y-112584232D01*
X144457383Y-112552143D01*
X144292903Y-112552143D01*
X144131583Y-112584232D01*
X144088342Y-112602143D01*
X144077056Y-112602143D01*
X143792208Y-112262675D01*
X143667770Y-112140923D01*
X143521971Y-112045787D01*
X143360414Y-111980924D01*
X143189306Y-111948824D01*
X143015224Y-111950723D01*
X142844858Y-111986548D01*
X142684754Y-112054920D01*
X142541065Y-112153214D01*
X142043135Y-112571027D01*
X141921383Y-112695465D01*
X141826247Y-112841264D01*
X141761383Y-113002821D01*
X141729284Y-113173929D01*
X141729376Y-113182408D01*
X141627940Y-113163379D01*
X141502864Y-113164744D01*
X141380456Y-113190482D01*
X141265423Y-113239608D01*
X141162183Y-113310232D01*
X140942580Y-113498511D01*
X140923013Y-113722163D01*
X127651773Y-113722163D01*
X127704179Y-113643733D01*
X127767123Y-113491772D01*
X127799212Y-113330452D01*
X127799212Y-113165972D01*
X127786631Y-113102722D01*
X127826922Y-113085929D01*
X127971463Y-112988893D01*
X128094296Y-112865523D01*
X128190701Y-112720559D01*
X128256972Y-112559574D01*
X128290563Y-112388753D01*
X128290183Y-112214661D01*
X128255846Y-112043988D01*
X127992710Y-111183312D01*
X127925738Y-111022619D01*
X127828702Y-110878078D01*
X127705331Y-110755245D01*
X127604303Y-110688058D01*
X144190877Y-110688058D01*
X144205850Y-110812243D01*
X144244764Y-110931120D01*
X144306120Y-111040122D01*
X144387563Y-111135058D01*
X144485962Y-111212283D01*
X144597536Y-111268827D01*
X144717998Y-111302517D01*
X145126488Y-111371425D01*
X145247402Y-111286760D01*
X145560534Y-111286760D01*
X145689306Y-111470665D01*
X146096729Y-111545624D01*
X146221448Y-111555167D01*
X146345633Y-111540194D01*
X146464510Y-111501280D01*
X146573512Y-111439924D01*
X146668448Y-111358481D01*
X146745673Y-111260082D01*
X146802217Y-111148508D01*
X146835907Y-111028046D01*
X146883109Y-110742657D01*
X146754338Y-110558752D01*
X145721028Y-110376552D01*
X145560534Y-111286760D01*
X145247402Y-111286760D01*
X145310393Y-111242654D01*
X145470887Y-110332445D01*
X144437578Y-110150245D01*
X144253673Y-110279016D01*
X144200420Y-110563339D01*
X144190877Y-110688058D01*
X127604303Y-110688058D01*
X127560368Y-110658840D01*
X127399383Y-110592569D01*
X127228562Y-110558978D01*
X127054470Y-110559357D01*
X126883797Y-110593693D01*
X126262197Y-110783735D01*
X126101502Y-110850709D01*
X125956961Y-110947745D01*
X125834128Y-111071115D01*
X125737723Y-111216079D01*
X125734495Y-111223920D01*
X125648560Y-111166770D01*
X125532893Y-111119155D01*
X125410160Y-111095019D01*
X125285076Y-111095292D01*
X125162449Y-111119963D01*
X124886736Y-111207469D01*
X124781336Y-111405696D01*
X124398768Y-111405696D01*
X124340208Y-111374559D01*
X124062698Y-111456190D01*
X123947240Y-111504309D01*
X123843388Y-111574029D01*
X123755134Y-111662670D01*
X123685868Y-111766825D01*
X123638254Y-111882491D01*
X123614118Y-112005225D01*
X119960684Y-112005225D01*
X119864710Y-111691312D01*
X119797738Y-111530619D01*
X119700702Y-111386078D01*
X119577331Y-111263245D01*
X119432368Y-111166840D01*
X119271383Y-111100569D01*
X119100562Y-111066978D01*
X118926470Y-111067357D01*
X118755797Y-111101693D01*
X118134197Y-111291735D01*
X117973502Y-111358709D01*
X117828961Y-111455745D01*
X117706128Y-111579115D01*
X117609723Y-111724079D01*
X117606495Y-111731920D01*
X117520560Y-111674770D01*
X117404893Y-111627155D01*
X117282160Y-111603019D01*
X117157076Y-111603292D01*
X117034449Y-111627963D01*
X116758736Y-111715469D01*
X116653336Y-111913696D01*
X116270768Y-111913696D01*
X116212208Y-111882559D01*
X115934698Y-111964190D01*
X115819240Y-112012309D01*
X115715388Y-112082029D01*
X115627134Y-112170670D01*
X115557868Y-112274825D01*
X115510254Y-112390491D01*
X115486118Y-112513225D01*
X96985149Y-112513225D01*
X96985149Y-109716199D01*
X144352913Y-109716199D01*
X144481684Y-109900104D01*
X145514994Y-110082304D01*
X145518467Y-110062608D01*
X145768608Y-110106715D01*
X145765135Y-110126411D01*
X146798444Y-110308611D01*
X146982349Y-110179840D01*
X147035602Y-109895517D01*
X147045145Y-109770798D01*
X147030172Y-109646613D01*
X146991258Y-109527736D01*
X146929902Y-109418734D01*
X146862704Y-109340403D01*
X146870095Y-109336242D01*
X147002229Y-109222889D01*
X147109710Y-109085936D01*
X147139417Y-109027317D01*
X147231188Y-109045572D01*
X147395668Y-109045572D01*
X147556988Y-109013483D01*
X147708949Y-108950539D01*
X147845709Y-108859159D01*
X147962015Y-108742853D01*
X148053395Y-108606093D01*
X148116339Y-108454132D01*
X148148428Y-108292812D01*
X148148428Y-108128332D01*
X148116339Y-107967012D01*
X148053395Y-107815051D01*
X147962015Y-107678291D01*
X147845709Y-107561985D01*
X147708949Y-107470605D01*
X147556988Y-107407661D01*
X147395668Y-107375572D01*
X147231188Y-107375572D01*
X147144109Y-107392893D01*
X147087701Y-107327139D01*
X146950749Y-107219658D01*
X146795459Y-107140961D01*
X146627800Y-107094071D01*
X145741471Y-106937788D01*
X145567886Y-106924507D01*
X145395045Y-106945347D01*
X145229592Y-106999506D01*
X145077883Y-107084902D01*
X144945749Y-107198255D01*
X144838268Y-107335208D01*
X144759571Y-107490497D01*
X144712681Y-107658156D01*
X144599810Y-108298283D01*
X144586529Y-108471868D01*
X144607369Y-108644708D01*
X144661528Y-108810162D01*
X144746924Y-108961871D01*
X144752446Y-108968308D01*
X144662510Y-109018932D01*
X144567574Y-109100375D01*
X144490349Y-109198774D01*
X144433805Y-109310348D01*
X144400115Y-109430810D01*
X144352913Y-109716199D01*
X96985149Y-109716199D01*
X96985149Y-106900224D01*
X99776200Y-106900224D01*
X99776200Y-107399576D01*
X99873618Y-107889332D01*
X100064712Y-108350673D01*
X100342137Y-108765868D01*
X100695232Y-109118963D01*
X101110427Y-109396388D01*
X101571768Y-109587482D01*
X102061524Y-109684900D01*
X102560876Y-109684900D01*
X103050632Y-109587482D01*
X103511973Y-109396388D01*
X103927168Y-109118963D01*
X104280263Y-108765868D01*
X104557688Y-108350673D01*
X104748782Y-107889332D01*
X104846200Y-107399576D01*
X104846200Y-106900224D01*
X104823930Y-106788260D01*
X106861000Y-106788260D01*
X106861000Y-106952740D01*
X106893089Y-107114060D01*
X106956033Y-107266021D01*
X107047413Y-107402781D01*
X107163719Y-107519087D01*
X107300479Y-107610467D01*
X107452440Y-107673411D01*
X107613760Y-107705500D01*
X107778240Y-107705500D01*
X107939560Y-107673411D01*
X108091521Y-107610467D01*
X108228281Y-107519087D01*
X108344587Y-107402781D01*
X108435967Y-107266021D01*
X108453879Y-107222778D01*
X110243657Y-105433000D01*
X112108199Y-105433000D01*
X112151440Y-105450911D01*
X112265001Y-105473500D01*
X112151440Y-105496089D01*
X112108199Y-105514000D01*
X111163552Y-105514000D01*
X111124999Y-105510203D01*
X111086446Y-105514000D01*
X111086439Y-105514000D01*
X110985490Y-105523943D01*
X110971112Y-105525359D01*
X110936672Y-105535806D01*
X110823140Y-105570246D01*
X110686767Y-105643138D01*
X110567236Y-105741236D01*
X110542655Y-105771188D01*
X110264722Y-106049121D01*
X110221479Y-106067033D01*
X110084719Y-106158413D01*
X109968413Y-106274719D01*
X109877033Y-106411479D01*
X109814089Y-106563440D01*
X109782000Y-106724760D01*
X109782000Y-106889240D01*
X109814089Y-107050560D01*
X109838749Y-107110094D01*
X109248722Y-107700121D01*
X109205479Y-107718033D01*
X109068719Y-107809413D01*
X108952413Y-107925719D01*
X108861033Y-108062479D01*
X108798089Y-108214440D01*
X108766000Y-108375760D01*
X108766000Y-108540240D01*
X108798089Y-108701560D01*
X108861033Y-108853521D01*
X108952413Y-108990281D01*
X109068719Y-109106587D01*
X109205479Y-109197967D01*
X109357440Y-109260911D01*
X109518760Y-109293000D01*
X109683240Y-109293000D01*
X109844560Y-109260911D01*
X109996521Y-109197967D01*
X110133281Y-109106587D01*
X110249587Y-108990281D01*
X110340967Y-108853521D01*
X110358879Y-108810278D01*
X110815157Y-108354000D01*
X112108199Y-108354000D01*
X112151440Y-108371911D01*
X112312760Y-108404000D01*
X112477240Y-108404000D01*
X112638560Y-108371911D01*
X112790521Y-108308967D01*
X112927281Y-108217587D01*
X113043587Y-108101281D01*
X113134967Y-107964521D01*
X113197911Y-107812560D01*
X113230000Y-107651240D01*
X113230000Y-107486760D01*
X113197911Y-107325440D01*
X113134967Y-107173479D01*
X113043587Y-107036719D01*
X112940868Y-106934000D01*
X113043587Y-106831281D01*
X113134967Y-106694521D01*
X113197911Y-106542560D01*
X113230000Y-106381240D01*
X113230000Y-106216760D01*
X113197911Y-106055440D01*
X113134967Y-105903479D01*
X113043587Y-105766719D01*
X112985628Y-105708760D01*
X144834000Y-105708760D01*
X144834000Y-105873240D01*
X144866089Y-106034560D01*
X144929033Y-106186521D01*
X145020413Y-106323281D01*
X145136719Y-106439587D01*
X145273479Y-106530967D01*
X145425440Y-106593911D01*
X145586760Y-106626000D01*
X145751240Y-106626000D01*
X145912560Y-106593911D01*
X145955801Y-106576000D01*
X146359843Y-106576000D01*
X146435121Y-106651278D01*
X146453033Y-106694521D01*
X146544413Y-106831281D01*
X146660719Y-106947587D01*
X146797479Y-107038967D01*
X146949440Y-107101911D01*
X147110760Y-107134000D01*
X147275240Y-107134000D01*
X147436560Y-107101911D01*
X147588521Y-107038967D01*
X147725281Y-106947587D01*
X147837802Y-106835066D01*
X175030539Y-106835066D01*
X175132339Y-107104579D01*
X175430477Y-107250463D01*
X175751346Y-107335380D01*
X176082617Y-107356066D01*
X176411557Y-107311728D01*
X176725527Y-107204069D01*
X176911661Y-107104579D01*
X177013461Y-106835066D01*
X176022000Y-105843605D01*
X175030539Y-106835066D01*
X147837802Y-106835066D01*
X147841587Y-106831281D01*
X147932967Y-106694521D01*
X147995911Y-106542560D01*
X148028000Y-106381240D01*
X148028000Y-106216760D01*
X147995911Y-106055440D01*
X147932967Y-105903479D01*
X147841587Y-105766719D01*
X147725281Y-105650413D01*
X147588521Y-105559033D01*
X147545278Y-105541121D01*
X147267347Y-105263190D01*
X147242764Y-105233236D01*
X147123233Y-105135138D01*
X146986860Y-105062246D01*
X146838887Y-105017359D01*
X146723561Y-105006000D01*
X146723553Y-105006000D01*
X146685000Y-105002203D01*
X146646447Y-105006000D01*
X145955801Y-105006000D01*
X145912560Y-104988089D01*
X145751240Y-104956000D01*
X145586760Y-104956000D01*
X145425440Y-104988089D01*
X145273479Y-105051033D01*
X145136719Y-105142413D01*
X145020413Y-105258719D01*
X144929033Y-105395479D01*
X144866089Y-105547440D01*
X144834000Y-105708760D01*
X112985628Y-105708760D01*
X112927281Y-105650413D01*
X112790521Y-105559033D01*
X112638560Y-105496089D01*
X112524999Y-105473500D01*
X112638560Y-105450911D01*
X112790521Y-105387967D01*
X112927281Y-105296587D01*
X113043587Y-105180281D01*
X113134967Y-105043521D01*
X113197911Y-104891560D01*
X113202536Y-104868305D01*
X151687639Y-104868305D01*
X151691732Y-104993323D01*
X151720136Y-105115139D01*
X151771759Y-105229073D01*
X151844617Y-105330747D01*
X151935911Y-105416254D01*
X152042133Y-105482307D01*
X152159200Y-105526367D01*
X152439389Y-105598263D01*
X152519952Y-105551750D01*
X152879163Y-105551750D01*
X152991416Y-105746179D01*
X153270015Y-105824009D01*
X153393428Y-105844385D01*
X153518445Y-105840293D01*
X153640262Y-105811888D01*
X153754196Y-105760266D01*
X153838086Y-105700151D01*
X153841586Y-105707876D01*
X153942991Y-105849387D01*
X154070055Y-105968395D01*
X154217894Y-106060328D01*
X154380828Y-106121652D01*
X155008682Y-106289885D01*
X155180449Y-106318244D01*
X155354448Y-106312547D01*
X155523993Y-106273015D01*
X155682567Y-106201166D01*
X155809789Y-106110000D01*
X156765928Y-106110000D01*
X156778188Y-106234482D01*
X156814498Y-106354180D01*
X156873463Y-106464494D01*
X156952815Y-106561185D01*
X157049506Y-106640537D01*
X157159820Y-106699502D01*
X157279518Y-106735812D01*
X157404000Y-106748072D01*
X157693250Y-106745000D01*
X157852000Y-106586250D01*
X157852000Y-105537000D01*
X156927750Y-105537000D01*
X156769000Y-105695750D01*
X156765928Y-106110000D01*
X155809789Y-106110000D01*
X155824078Y-106099761D01*
X155943086Y-105972698D01*
X156035019Y-105824858D01*
X156096343Y-105661924D01*
X156329281Y-104792589D01*
X156342916Y-104710000D01*
X156765928Y-104710000D01*
X156769000Y-105124250D01*
X156927750Y-105283000D01*
X157852000Y-105283000D01*
X157852000Y-104233750D01*
X158106000Y-104233750D01*
X158106000Y-105283000D01*
X158126000Y-105283000D01*
X158126000Y-105537000D01*
X158106000Y-105537000D01*
X158106000Y-106586250D01*
X158264750Y-106745000D01*
X158554000Y-106748072D01*
X158678482Y-106735812D01*
X158798180Y-106699502D01*
X158908494Y-106640537D01*
X159005185Y-106561185D01*
X159070658Y-106481406D01*
X159076038Y-106487962D01*
X159210613Y-106598405D01*
X159364149Y-106680472D01*
X159530745Y-106731008D01*
X159703999Y-106748072D01*
X160354001Y-106748072D01*
X160527255Y-106731008D01*
X160693851Y-106680472D01*
X160847387Y-106598405D01*
X160981962Y-106487962D01*
X161092405Y-106353387D01*
X161174472Y-106199851D01*
X161225008Y-106033255D01*
X161242072Y-105860001D01*
X161242072Y-105724617D01*
X174329934Y-105724617D01*
X174374272Y-106053557D01*
X174481931Y-106367527D01*
X174581421Y-106553661D01*
X174850934Y-106655461D01*
X175842395Y-105664000D01*
X176201605Y-105664000D01*
X177193066Y-106655461D01*
X177462579Y-106553661D01*
X177608463Y-106255523D01*
X177693380Y-105934654D01*
X177714066Y-105603383D01*
X177669728Y-105274443D01*
X177562069Y-104960473D01*
X177462579Y-104774339D01*
X177193066Y-104672539D01*
X176201605Y-105664000D01*
X175842395Y-105664000D01*
X174850934Y-104672539D01*
X174581421Y-104774339D01*
X174435537Y-105072477D01*
X174350620Y-105393346D01*
X174329934Y-105724617D01*
X161242072Y-105724617D01*
X161242072Y-104959999D01*
X161225008Y-104786745D01*
X161174472Y-104620149D01*
X161106474Y-104492934D01*
X175030539Y-104492934D01*
X176022000Y-105484395D01*
X177013461Y-104492934D01*
X176911661Y-104223421D01*
X176613523Y-104077537D01*
X176292654Y-103992620D01*
X175961383Y-103971934D01*
X175632443Y-104016272D01*
X175318473Y-104123931D01*
X175132339Y-104223421D01*
X175030539Y-104492934D01*
X161106474Y-104492934D01*
X161092405Y-104466613D01*
X160981962Y-104332038D01*
X160847387Y-104221595D01*
X160814000Y-104203749D01*
X160814000Y-104181801D01*
X160831911Y-104138560D01*
X160864000Y-103977240D01*
X160864000Y-103812760D01*
X160831911Y-103651440D01*
X160768967Y-103499479D01*
X160677587Y-103362719D01*
X160561281Y-103246413D01*
X160424521Y-103155033D01*
X160272560Y-103092089D01*
X160111240Y-103060000D01*
X159946760Y-103060000D01*
X159785440Y-103092089D01*
X159633479Y-103155033D01*
X159496719Y-103246413D01*
X159380413Y-103362719D01*
X159289033Y-103499479D01*
X159226089Y-103651440D01*
X159194000Y-103812760D01*
X159194000Y-103977240D01*
X159226089Y-104138560D01*
X159244001Y-104181803D01*
X159244001Y-104203749D01*
X159210613Y-104221595D01*
X159076038Y-104332038D01*
X159070658Y-104338594D01*
X159005185Y-104258815D01*
X158908494Y-104179463D01*
X158798180Y-104120498D01*
X158678482Y-104084188D01*
X158554000Y-104071928D01*
X158264750Y-104075000D01*
X158106000Y-104233750D01*
X157852000Y-104233750D01*
X157693250Y-104075000D01*
X157404000Y-104071928D01*
X157279518Y-104084188D01*
X157159820Y-104120498D01*
X157049506Y-104179463D01*
X156952815Y-104258815D01*
X156873463Y-104355506D01*
X156814498Y-104465820D01*
X156778188Y-104585518D01*
X156765928Y-104710000D01*
X156342916Y-104710000D01*
X156357640Y-104620822D01*
X156351943Y-104446823D01*
X156312411Y-104277278D01*
X156240562Y-104118704D01*
X156139157Y-103977193D01*
X156012093Y-103858185D01*
X155870155Y-103769922D01*
X155876074Y-103740166D01*
X155876074Y-103575686D01*
X155843985Y-103414366D01*
X155781041Y-103262405D01*
X155689661Y-103125645D01*
X155573355Y-103009339D01*
X155436595Y-102917959D01*
X155284634Y-102855015D01*
X155123314Y-102822926D01*
X154958834Y-102822926D01*
X154797514Y-102855015D01*
X154645553Y-102917959D01*
X154508793Y-103009339D01*
X154392487Y-103125645D01*
X154301107Y-103262405D01*
X154243024Y-103402631D01*
X154185941Y-103349166D01*
X154079719Y-103283113D01*
X153962652Y-103239053D01*
X153682463Y-103167157D01*
X153488034Y-103279410D01*
X153216469Y-104292907D01*
X153235788Y-104298083D01*
X153170047Y-104543429D01*
X153150729Y-104538253D01*
X152879163Y-105551750D01*
X152519952Y-105551750D01*
X152633818Y-105486010D01*
X152905383Y-104472513D01*
X152012626Y-104233299D01*
X151818198Y-104345552D01*
X151708015Y-104744892D01*
X151687639Y-104868305D01*
X113202536Y-104868305D01*
X113230000Y-104730240D01*
X113230000Y-104565760D01*
X113197911Y-104404440D01*
X113134967Y-104252479D01*
X113043587Y-104115719D01*
X112927281Y-103999413D01*
X112790521Y-103908033D01*
X112638560Y-103845089D01*
X112477240Y-103813000D01*
X112312760Y-103813000D01*
X112151440Y-103845089D01*
X112108199Y-103863000D01*
X109957056Y-103863000D01*
X109918500Y-103859203D01*
X109879944Y-103863000D01*
X109879939Y-103863000D01*
X109839526Y-103866980D01*
X109764613Y-103874358D01*
X109653604Y-103908033D01*
X109616640Y-103919246D01*
X109480267Y-103992138D01*
X109360736Y-104090236D01*
X109336153Y-104120190D01*
X107343722Y-106112621D01*
X107300479Y-106130533D01*
X107163719Y-106221913D01*
X107047413Y-106338219D01*
X106956033Y-106474979D01*
X106893089Y-106626940D01*
X106861000Y-106788260D01*
X104823930Y-106788260D01*
X104748782Y-106410468D01*
X104557688Y-105949127D01*
X104280263Y-105533932D01*
X103927168Y-105180837D01*
X103511973Y-104903412D01*
X103050632Y-104712318D01*
X102560876Y-104614900D01*
X102061524Y-104614900D01*
X101571768Y-104712318D01*
X101110427Y-104903412D01*
X100695232Y-105180837D01*
X100342137Y-105533932D01*
X100064712Y-105949127D01*
X99873618Y-106410468D01*
X99776200Y-106900224D01*
X96985149Y-106900224D01*
X96985149Y-102881385D01*
X145701612Y-102881385D01*
X145719292Y-103005213D01*
X145760788Y-103123213D01*
X145824508Y-103230850D01*
X145908002Y-103323988D01*
X146008063Y-103399048D01*
X146120844Y-103453144D01*
X146393701Y-103549186D01*
X146410872Y-103541179D01*
X146835855Y-103541179D01*
X146930735Y-103744651D01*
X147201491Y-103846467D01*
X147322659Y-103877522D01*
X147447557Y-103884341D01*
X147571385Y-103866661D01*
X147689385Y-103825165D01*
X147778195Y-103772590D01*
X147781009Y-103780592D01*
X147869695Y-103930402D01*
X147985903Y-104060031D01*
X148125167Y-104164499D01*
X148282137Y-104239791D01*
X148892939Y-104462105D01*
X149061582Y-104505326D01*
X149235415Y-104514817D01*
X149407760Y-104490211D01*
X149571993Y-104432456D01*
X149721803Y-104343770D01*
X149851432Y-104227562D01*
X149955900Y-104088298D01*
X150031191Y-103931328D01*
X150081346Y-103793526D01*
X151966113Y-103793526D01*
X152078366Y-103987954D01*
X152971123Y-104227167D01*
X153242689Y-103213670D01*
X153130436Y-103019241D01*
X152851837Y-102941411D01*
X152728424Y-102921035D01*
X152603407Y-102925127D01*
X152481590Y-102953532D01*
X152367656Y-103005154D01*
X152265982Y-103078013D01*
X152180475Y-103169307D01*
X152114422Y-103275529D01*
X152070362Y-103392596D01*
X151966113Y-103793526D01*
X150081346Y-103793526D01*
X150339009Y-103085602D01*
X150382230Y-102916962D01*
X150391721Y-102743128D01*
X150384553Y-102692919D01*
X150503281Y-102613587D01*
X150619587Y-102497281D01*
X150710967Y-102360521D01*
X150773911Y-102208560D01*
X150806000Y-102047240D01*
X150806000Y-101882760D01*
X150773911Y-101721440D01*
X150710967Y-101569479D01*
X150619587Y-101432719D01*
X150503281Y-101316413D01*
X150366521Y-101225033D01*
X150214560Y-101162089D01*
X150053240Y-101130000D01*
X149888760Y-101130000D01*
X149727440Y-101162089D01*
X149575479Y-101225033D01*
X149438719Y-101316413D01*
X149322413Y-101432719D01*
X149231033Y-101569479D01*
X149213122Y-101612720D01*
X149120517Y-101705325D01*
X149028788Y-101681816D01*
X148854955Y-101672325D01*
X148682610Y-101696931D01*
X148518377Y-101754686D01*
X148511080Y-101759006D01*
X148476842Y-101661645D01*
X148413122Y-101554008D01*
X148329628Y-101460870D01*
X148229567Y-101385810D01*
X148116786Y-101331714D01*
X147843929Y-101235672D01*
X147640457Y-101330552D01*
X147281593Y-102316525D01*
X147300386Y-102323365D01*
X147213513Y-102562048D01*
X147194719Y-102555207D01*
X146835855Y-103541179D01*
X146410872Y-103541179D01*
X146597173Y-103454306D01*
X146956037Y-102468333D01*
X146087527Y-102152221D01*
X145884055Y-102247102D01*
X145739486Y-102635319D01*
X145708431Y-102756487D01*
X145701612Y-102881385D01*
X96985149Y-102881385D01*
X96985149Y-100391662D01*
X140366184Y-100391662D01*
X140424291Y-100608519D01*
X140673253Y-100755804D01*
X140787187Y-100807428D01*
X140909004Y-100835831D01*
X141034021Y-100839923D01*
X141157434Y-100819548D01*
X141254023Y-100783194D01*
X141255405Y-100791562D01*
X141316730Y-100954496D01*
X141408662Y-101102336D01*
X141527670Y-101229399D01*
X141669181Y-101330804D01*
X142232100Y-101655805D01*
X142390674Y-101727654D01*
X142560219Y-101767186D01*
X142734218Y-101772883D01*
X142905985Y-101744524D01*
X142997535Y-101710067D01*
X146079519Y-101710067D01*
X146174400Y-101913539D01*
X147042911Y-102229651D01*
X147401775Y-101243679D01*
X147306895Y-101040207D01*
X147036139Y-100938391D01*
X146914971Y-100907336D01*
X146790073Y-100900517D01*
X146666245Y-100918197D01*
X146548245Y-100959693D01*
X146440608Y-101023413D01*
X146347470Y-101106907D01*
X146272410Y-101206967D01*
X146218314Y-101319749D01*
X146079519Y-101710067D01*
X142997535Y-101710067D01*
X143068919Y-101683200D01*
X143216759Y-101591267D01*
X143343822Y-101472259D01*
X143445227Y-101330748D01*
X143895228Y-100551323D01*
X143967077Y-100392749D01*
X144006609Y-100223204D01*
X144009817Y-100125227D01*
X144031587Y-100103457D01*
X144122967Y-99966697D01*
X144185911Y-99814736D01*
X144218000Y-99653416D01*
X144218000Y-99488936D01*
X144185911Y-99327616D01*
X144122967Y-99175655D01*
X144031587Y-99038895D01*
X143915281Y-98922589D01*
X143778521Y-98831209D01*
X143626560Y-98768265D01*
X143465240Y-98736176D01*
X143300760Y-98736176D01*
X143139440Y-98768265D01*
X142987479Y-98831209D01*
X142850719Y-98922589D01*
X142835123Y-98938185D01*
X142679133Y-98901814D01*
X142505134Y-98896117D01*
X142333367Y-98924476D01*
X142325430Y-98927463D01*
X142308619Y-98825637D01*
X142264558Y-98708571D01*
X142198506Y-98602349D01*
X142112999Y-98511054D01*
X142011325Y-98438196D01*
X141759291Y-98296231D01*
X141542434Y-98354338D01*
X141017809Y-99263015D01*
X141035130Y-99273015D01*
X140908130Y-99492985D01*
X140890809Y-99482985D01*
X140366184Y-100391662D01*
X96985149Y-100391662D01*
X96985149Y-99669950D01*
X139359654Y-99669950D01*
X139380029Y-99793363D01*
X139424090Y-99910429D01*
X139490142Y-100016651D01*
X139575649Y-100107946D01*
X139677323Y-100180804D01*
X139929357Y-100322769D01*
X140146214Y-100264662D01*
X140670839Y-99355985D01*
X139870415Y-98893860D01*
X139653558Y-98951967D01*
X139443773Y-99309182D01*
X139392149Y-99423116D01*
X139363746Y-99544933D01*
X139359654Y-99669950D01*
X96985149Y-99669950D01*
X96985149Y-96968456D01*
X134860732Y-96968456D01*
X134899717Y-97189551D01*
X135134895Y-97357975D01*
X135243897Y-97419332D01*
X135362774Y-97458245D01*
X135486959Y-97473217D01*
X135611678Y-97463675D01*
X135711070Y-97435877D01*
X135711717Y-97444333D01*
X135758607Y-97611992D01*
X135837304Y-97767282D01*
X135944785Y-97904234D01*
X136076919Y-98017587D01*
X136609369Y-98390413D01*
X136761078Y-98475809D01*
X136926532Y-98529968D01*
X137099373Y-98550808D01*
X137272958Y-98537527D01*
X137440616Y-98490637D01*
X137506925Y-98457033D01*
X139939308Y-98457033D01*
X139997415Y-98673890D01*
X140797839Y-99136015D01*
X141322464Y-98227338D01*
X141264357Y-98010481D01*
X141015395Y-97863196D01*
X140901461Y-97811572D01*
X140779644Y-97783169D01*
X140654627Y-97779077D01*
X140531214Y-97799452D01*
X140414148Y-97843513D01*
X140307926Y-97909565D01*
X140216631Y-97995072D01*
X140143773Y-98096746D01*
X139939308Y-98457033D01*
X137506925Y-98457033D01*
X137595906Y-98411940D01*
X137732858Y-98304459D01*
X137846211Y-98172325D01*
X138064329Y-97860821D01*
X138143944Y-97836670D01*
X138280317Y-97763778D01*
X138399848Y-97665680D01*
X138424431Y-97635726D01*
X138782278Y-97277879D01*
X138825521Y-97259967D01*
X138962281Y-97168587D01*
X139078587Y-97052281D01*
X139169967Y-96915521D01*
X139232911Y-96763560D01*
X139265000Y-96602240D01*
X139265000Y-96437760D01*
X139232911Y-96276440D01*
X139169967Y-96124479D01*
X139078587Y-95987719D01*
X138962281Y-95871413D01*
X138825521Y-95780033D01*
X138673560Y-95717089D01*
X138512240Y-95685000D01*
X138347760Y-95685000D01*
X138186440Y-95717089D01*
X138034479Y-95780033D01*
X137897719Y-95871413D01*
X137807057Y-95962075D01*
X137611893Y-95825419D01*
X137460184Y-95740023D01*
X137294730Y-95685864D01*
X137121889Y-95665024D01*
X136948304Y-95678305D01*
X136940136Y-95680589D01*
X136932263Y-95577684D01*
X136898573Y-95457223D01*
X136842030Y-95345648D01*
X136764806Y-95247249D01*
X136669868Y-95165806D01*
X136431166Y-95002415D01*
X136210071Y-95041401D01*
X135608246Y-95900896D01*
X135624629Y-95912367D01*
X135478940Y-96120433D01*
X135462557Y-96108961D01*
X134860732Y-96968456D01*
X96985149Y-96968456D01*
X96985149Y-96161765D01*
X133920933Y-96161765D01*
X133930475Y-96286484D01*
X133964165Y-96406945D01*
X134020708Y-96518520D01*
X134097932Y-96616919D01*
X134192870Y-96698362D01*
X134431572Y-96861753D01*
X134652667Y-96822767D01*
X135254492Y-95963272D01*
X134497391Y-95433144D01*
X134276296Y-95472129D01*
X134036175Y-95809701D01*
X133974818Y-95918703D01*
X133935905Y-96037580D01*
X133920933Y-96161765D01*
X96985149Y-96161765D01*
X96985149Y-95003984D01*
X134604094Y-95003984D01*
X134643080Y-95225079D01*
X135400181Y-95755207D01*
X136002006Y-94895712D01*
X135963021Y-94674617D01*
X135727843Y-94506193D01*
X135618841Y-94444836D01*
X135499964Y-94405923D01*
X135375779Y-94390951D01*
X135251060Y-94400493D01*
X135130599Y-94434183D01*
X135019024Y-94490726D01*
X134920625Y-94567950D01*
X134839182Y-94662888D01*
X134604094Y-95003984D01*
X96985149Y-95003984D01*
X96985149Y-88690760D01*
X122355000Y-88690760D01*
X122355000Y-88855240D01*
X122387089Y-89016560D01*
X122405000Y-89059802D01*
X122405001Y-89883197D01*
X122387089Y-89926440D01*
X122355000Y-90087760D01*
X122355000Y-90252240D01*
X122387089Y-90413560D01*
X122450033Y-90565521D01*
X122541413Y-90702281D01*
X122657719Y-90818587D01*
X122794479Y-90909967D01*
X122946440Y-90972911D01*
X123107760Y-91005000D01*
X123272240Y-91005000D01*
X123433560Y-90972911D01*
X123585521Y-90909967D01*
X123722281Y-90818587D01*
X123838587Y-90702281D01*
X123929967Y-90565521D01*
X123992911Y-90413560D01*
X124025000Y-90252240D01*
X124025000Y-90087760D01*
X123992911Y-89926440D01*
X123975000Y-89883199D01*
X123975000Y-89059801D01*
X123992911Y-89016560D01*
X124014424Y-88908408D01*
X147424000Y-88908408D01*
X147424000Y-89183592D01*
X147477686Y-89453490D01*
X147582995Y-89707727D01*
X147735880Y-89936535D01*
X147930465Y-90131120D01*
X148159273Y-90284005D01*
X148413510Y-90389314D01*
X148683408Y-90443000D01*
X148958592Y-90443000D01*
X149228490Y-90389314D01*
X149482727Y-90284005D01*
X149711535Y-90131120D01*
X149906120Y-89936535D01*
X150059005Y-89707727D01*
X150071000Y-89678769D01*
X150082995Y-89707727D01*
X150235880Y-89936535D01*
X150430465Y-90131120D01*
X150659273Y-90284005D01*
X150913510Y-90389314D01*
X151183408Y-90443000D01*
X151458592Y-90443000D01*
X151728490Y-90389314D01*
X151982727Y-90284005D01*
X152211535Y-90131120D01*
X152406120Y-89936535D01*
X152559005Y-89707727D01*
X152571000Y-89678769D01*
X152582995Y-89707727D01*
X152735880Y-89936535D01*
X152930465Y-90131120D01*
X153159273Y-90284005D01*
X153413510Y-90389314D01*
X153683408Y-90443000D01*
X153958592Y-90443000D01*
X154228490Y-90389314D01*
X154482727Y-90284005D01*
X154711535Y-90131120D01*
X154906120Y-89936535D01*
X155059005Y-89707727D01*
X155164314Y-89453490D01*
X155218000Y-89183592D01*
X155218000Y-88908408D01*
X155164314Y-88638510D01*
X155059005Y-88384273D01*
X154906120Y-88155465D01*
X154711535Y-87960880D01*
X154482727Y-87807995D01*
X154228490Y-87702686D01*
X153958592Y-87649000D01*
X153683408Y-87649000D01*
X153413510Y-87702686D01*
X153159273Y-87807995D01*
X152930465Y-87960880D01*
X152735880Y-88155465D01*
X152582995Y-88384273D01*
X152571000Y-88413231D01*
X152559005Y-88384273D01*
X152406120Y-88155465D01*
X152211535Y-87960880D01*
X151982727Y-87807995D01*
X151728490Y-87702686D01*
X151458592Y-87649000D01*
X151183408Y-87649000D01*
X150913510Y-87702686D01*
X150659273Y-87807995D01*
X150430465Y-87960880D01*
X150235880Y-88155465D01*
X150082995Y-88384273D01*
X150071000Y-88413231D01*
X150059005Y-88384273D01*
X149906120Y-88155465D01*
X149711535Y-87960880D01*
X149482727Y-87807995D01*
X149228490Y-87702686D01*
X148958592Y-87649000D01*
X148683408Y-87649000D01*
X148413510Y-87702686D01*
X148159273Y-87807995D01*
X147930465Y-87960880D01*
X147735880Y-88155465D01*
X147582995Y-88384273D01*
X147477686Y-88638510D01*
X147424000Y-88908408D01*
X124014424Y-88908408D01*
X124025000Y-88855240D01*
X124025000Y-88690760D01*
X123992911Y-88529440D01*
X123929967Y-88377479D01*
X123838587Y-88240719D01*
X123722281Y-88124413D01*
X123585521Y-88033033D01*
X123433560Y-87970089D01*
X123272240Y-87938000D01*
X123107760Y-87938000D01*
X122946440Y-87970089D01*
X122794479Y-88033033D01*
X122657719Y-88124413D01*
X122541413Y-88240719D01*
X122450033Y-88377479D01*
X122387089Y-88529440D01*
X122355000Y-88690760D01*
X96985149Y-88690760D01*
X96985149Y-84709938D01*
X96986679Y-84586524D01*
X96991103Y-84467621D01*
X96998446Y-84349184D01*
X97008690Y-84231235D01*
X97021820Y-84113737D01*
X97037808Y-83996820D01*
X97056640Y-83880484D01*
X97078290Y-83764810D01*
X97102741Y-83649837D01*
X97129970Y-83535616D01*
X97159971Y-83422148D01*
X97163965Y-83408408D01*
X147424000Y-83408408D01*
X147424000Y-83683592D01*
X147477686Y-83953490D01*
X147582995Y-84207727D01*
X147735880Y-84436535D01*
X147930465Y-84631120D01*
X148159273Y-84784005D01*
X148413510Y-84889314D01*
X148683408Y-84943000D01*
X148958592Y-84943000D01*
X149228490Y-84889314D01*
X149482727Y-84784005D01*
X149711535Y-84631120D01*
X149906120Y-84436535D01*
X150059005Y-84207727D01*
X150071000Y-84178769D01*
X150082995Y-84207727D01*
X150235880Y-84436535D01*
X150430465Y-84631120D01*
X150659273Y-84784005D01*
X150913510Y-84889314D01*
X151183408Y-84943000D01*
X151458592Y-84943000D01*
X151728490Y-84889314D01*
X151982727Y-84784005D01*
X152211535Y-84631120D01*
X152406120Y-84436535D01*
X152559005Y-84207727D01*
X152571000Y-84178769D01*
X152582995Y-84207727D01*
X152735880Y-84436535D01*
X152930465Y-84631120D01*
X153159273Y-84784005D01*
X153413510Y-84889314D01*
X153683408Y-84943000D01*
X153958592Y-84943000D01*
X154228490Y-84889314D01*
X154482727Y-84784005D01*
X154711535Y-84631120D01*
X154728655Y-84614000D01*
X174333928Y-84614000D01*
X174333928Y-86714000D01*
X174346188Y-86838482D01*
X174382498Y-86958180D01*
X174441463Y-87068494D01*
X174520815Y-87165185D01*
X174617506Y-87244537D01*
X174727820Y-87303502D01*
X174847518Y-87339812D01*
X174972000Y-87352072D01*
X177072000Y-87352072D01*
X177196482Y-87339812D01*
X177316180Y-87303502D01*
X177426494Y-87244537D01*
X177523185Y-87165185D01*
X177602537Y-87068494D01*
X177661502Y-86958180D01*
X177697812Y-86838482D01*
X177710072Y-86714000D01*
X177710072Y-84614000D01*
X177697812Y-84489518D01*
X177661502Y-84369820D01*
X177602537Y-84259506D01*
X177523185Y-84162815D01*
X177426494Y-84083463D01*
X177316180Y-84024498D01*
X177196482Y-83988188D01*
X177072000Y-83975928D01*
X174972000Y-83975928D01*
X174847518Y-83988188D01*
X174727820Y-84024498D01*
X174617506Y-84083463D01*
X174520815Y-84162815D01*
X174441463Y-84259506D01*
X174382498Y-84369820D01*
X174346188Y-84489518D01*
X174333928Y-84614000D01*
X154728655Y-84614000D01*
X154906120Y-84436535D01*
X155059005Y-84207727D01*
X155164314Y-83953490D01*
X155218000Y-83683592D01*
X155218000Y-83408408D01*
X155164314Y-83138510D01*
X155059005Y-82884273D01*
X154906120Y-82655465D01*
X154711535Y-82460880D01*
X154482727Y-82307995D01*
X154228490Y-82202686D01*
X153958592Y-82149000D01*
X153683408Y-82149000D01*
X153413510Y-82202686D01*
X153159273Y-82307995D01*
X152930465Y-82460880D01*
X152735880Y-82655465D01*
X152582995Y-82884273D01*
X152571000Y-82913231D01*
X152559005Y-82884273D01*
X152406120Y-82655465D01*
X152211535Y-82460880D01*
X151982727Y-82307995D01*
X151728490Y-82202686D01*
X151458592Y-82149000D01*
X151183408Y-82149000D01*
X150913510Y-82202686D01*
X150659273Y-82307995D01*
X150430465Y-82460880D01*
X150235880Y-82655465D01*
X150082995Y-82884273D01*
X150071000Y-82913231D01*
X150059005Y-82884273D01*
X149906120Y-82655465D01*
X149711535Y-82460880D01*
X149482727Y-82307995D01*
X149228490Y-82202686D01*
X148958592Y-82149000D01*
X148683408Y-82149000D01*
X148413510Y-82202686D01*
X148159273Y-82307995D01*
X147930465Y-82460880D01*
X147735880Y-82655465D01*
X147582995Y-82884273D01*
X147477686Y-83138510D01*
X147424000Y-83408408D01*
X97163965Y-83408408D01*
X97192693Y-83309588D01*
X97228153Y-83197864D01*
X97266302Y-83087117D01*
X97307123Y-82977376D01*
X97350615Y-82868644D01*
X97396752Y-82760992D01*
X97445486Y-82654526D01*
X97496823Y-82549240D01*
X97550733Y-82445198D01*
X97607211Y-82342423D01*
X97666213Y-82241006D01*
X97727732Y-82140976D01*
X97791750Y-82042375D01*
X97858215Y-81945301D01*
X97927162Y-81849721D01*
X97998545Y-81755721D01*
X98072327Y-81663376D01*
X98148497Y-81572718D01*
X98227058Y-81483770D01*
X98307977Y-81396598D01*
X98391240Y-81311244D01*
X98476572Y-81228002D01*
X98563763Y-81147065D01*
X98652709Y-81068505D01*
X98743392Y-80992316D01*
X98835709Y-80918557D01*
X98929708Y-80847174D01*
X99025294Y-80778221D01*
X99122368Y-80711757D01*
X99220969Y-80647739D01*
X99320999Y-80586220D01*
X99422416Y-80527218D01*
X99525191Y-80470740D01*
X99629233Y-80416830D01*
X99734532Y-80365488D01*
X99841030Y-80316740D01*
X99948623Y-80270628D01*
X100057370Y-80227130D01*
X100167110Y-80186309D01*
X100277868Y-80148156D01*
X100389570Y-80112703D01*
X100502151Y-80079975D01*
X100615608Y-80049977D01*
X100729830Y-80022747D01*
X100844795Y-79998299D01*
X100960490Y-79976645D01*
X101076812Y-79957815D01*
X101193735Y-79941826D01*
X101311235Y-79928696D01*
X101429177Y-79918453D01*
X101547614Y-79911110D01*
X101666518Y-79906686D01*
X101789931Y-79905156D01*
X185600902Y-79905156D01*
X185724315Y-79906686D01*
%TA.AperFunction,Conductor*%
D18*
G36*
X185724315Y-79906686D02*
G01*
X185843218Y-79911110D01*
X185961655Y-79918453D01*
X186079604Y-79928697D01*
X186197102Y-79941827D01*
X186314019Y-79957815D01*
X186430355Y-79976647D01*
X186546029Y-79998297D01*
X186661002Y-80022748D01*
X186775223Y-80049977D01*
X186888691Y-80079978D01*
X187001251Y-80112700D01*
X187112975Y-80148160D01*
X187223722Y-80186309D01*
X187333463Y-80227130D01*
X187442195Y-80270622D01*
X187549847Y-80316759D01*
X187656313Y-80365493D01*
X187761599Y-80416830D01*
X187865641Y-80470740D01*
X187968416Y-80527218D01*
X188069833Y-80586220D01*
X188169863Y-80647739D01*
X188268464Y-80711757D01*
X188365551Y-80778230D01*
X188461106Y-80847160D01*
X188555120Y-80918555D01*
X188647461Y-80992332D01*
X188738132Y-81068514D01*
X188827069Y-81147065D01*
X188914241Y-81227984D01*
X188999598Y-81311249D01*
X189082832Y-81396573D01*
X189163777Y-81483773D01*
X189242334Y-81572716D01*
X189318523Y-81663399D01*
X189392283Y-81755716D01*
X189463668Y-81849717D01*
X189532619Y-81945301D01*
X189599092Y-82042389D01*
X189663099Y-82140974D01*
X189724614Y-82240998D01*
X189783629Y-82342435D01*
X189840100Y-82445198D01*
X189894008Y-82549236D01*
X189945351Y-82654538D01*
X189994099Y-82761037D01*
X190040211Y-82868630D01*
X190083699Y-82977350D01*
X190124523Y-83087094D01*
X190162678Y-83197861D01*
X190198136Y-83309577D01*
X190230864Y-83422158D01*
X190260862Y-83535615D01*
X190288092Y-83649837D01*
X190312540Y-83764802D01*
X190334194Y-83880497D01*
X190353024Y-83996819D01*
X190369013Y-84113742D01*
X190382143Y-84231242D01*
X190392386Y-84349184D01*
X190399729Y-84467621D01*
X190404153Y-84586525D01*
X190405684Y-84709945D01*
X190405685Y-129720814D01*
X190404153Y-129844314D01*
X190399729Y-129963218D01*
X190392386Y-130081655D01*
X190382143Y-130199597D01*
X190369013Y-130317097D01*
X190353024Y-130434020D01*
X190334194Y-130550342D01*
X190312540Y-130666037D01*
X190288092Y-130781002D01*
X190260862Y-130895224D01*
X190230864Y-131008681D01*
X190198136Y-131121262D01*
X190162678Y-131232978D01*
X190124523Y-131343745D01*
X190083699Y-131453489D01*
X190040211Y-131562209D01*
X189994099Y-131669802D01*
X189945351Y-131776301D01*
X189894008Y-131881603D01*
X189840100Y-131985641D01*
X189783629Y-132088404D01*
X189724614Y-132189841D01*
X189663099Y-132289865D01*
X189599092Y-132388450D01*
X189532610Y-132485551D01*
X189463667Y-132581124D01*
X189392300Y-132675101D01*
X189318510Y-132767457D01*
X189242325Y-132858132D01*
X189163777Y-132947066D01*
X189082832Y-133034266D01*
X188999596Y-133119593D01*
X188914247Y-133202850D01*
X188827066Y-133283777D01*
X188738132Y-133362325D01*
X188647461Y-133438507D01*
X188555101Y-133512300D01*
X188461124Y-133583667D01*
X188365551Y-133652610D01*
X188268476Y-133719075D01*
X188169881Y-133783089D01*
X188069841Y-133844614D01*
X187968404Y-133903629D01*
X187865641Y-133960100D01*
X187761588Y-134014016D01*
X187656314Y-134065345D01*
X187549847Y-134114080D01*
X187442195Y-134160217D01*
X187333479Y-134203702D01*
X187223703Y-134244538D01*
X187112955Y-134282685D01*
X187001251Y-134318139D01*
X186888691Y-134350861D01*
X186775223Y-134380862D01*
X186661002Y-134408091D01*
X186546029Y-134432542D01*
X186430355Y-134454192D01*
X186314019Y-134473024D01*
X186197102Y-134489012D01*
X186079604Y-134502142D01*
X185961655Y-134512386D01*
X185843218Y-134519729D01*
X185724315Y-134524153D01*
X185600895Y-134525684D01*
X101789938Y-134525684D01*
X101666518Y-134524153D01*
X101547614Y-134519729D01*
X101429177Y-134512386D01*
X101311235Y-134502143D01*
X101193735Y-134489013D01*
X101076812Y-134473024D01*
X100960490Y-134454194D01*
X100844795Y-134432540D01*
X100729830Y-134408092D01*
X100615608Y-134380862D01*
X100502151Y-134350864D01*
X100389570Y-134318136D01*
X100277854Y-134282678D01*
X100167087Y-134244523D01*
X100057343Y-134203699D01*
X99948623Y-134160211D01*
X99841030Y-134114099D01*
X99734531Y-134065351D01*
X99629229Y-134014008D01*
X99525191Y-133960100D01*
X99422428Y-133903629D01*
X99320991Y-133844614D01*
X99220967Y-133783099D01*
X99122382Y-133719092D01*
X99025294Y-133652619D01*
X98929710Y-133583668D01*
X98835709Y-133512283D01*
X98743392Y-133438523D01*
X98652709Y-133362334D01*
X98563766Y-133283777D01*
X98476566Y-133202832D01*
X98391242Y-133119598D01*
X98307977Y-133034241D01*
X98227058Y-132947069D01*
X98148507Y-132858132D01*
X98072325Y-132767461D01*
X97998548Y-132675120D01*
X97927153Y-132581106D01*
X97858223Y-132485551D01*
X97791750Y-132388464D01*
X97727732Y-132289863D01*
X97666213Y-132189833D01*
X97607211Y-132088416D01*
X97550733Y-131985641D01*
X97496823Y-131881599D01*
X97445486Y-131776313D01*
X97396752Y-131669847D01*
X97350615Y-131562195D01*
X97307123Y-131453463D01*
X97266302Y-131343722D01*
X97228153Y-131232975D01*
X97192693Y-131121251D01*
X97159971Y-131008691D01*
X97129970Y-130895223D01*
X97102741Y-130781002D01*
X97078290Y-130666029D01*
X97056640Y-130550355D01*
X97037808Y-130434019D01*
X97021820Y-130317102D01*
X97008690Y-130199604D01*
X96998446Y-130081655D01*
X96991103Y-129963218D01*
X96986679Y-129844315D01*
X96985149Y-129720902D01*
X96985149Y-117900760D01*
X106861000Y-117900760D01*
X106861000Y-118065240D01*
X106893089Y-118226560D01*
X106911001Y-118269804D01*
X106911000Y-129501447D01*
X106907203Y-129540000D01*
X106911000Y-129578553D01*
X106911000Y-129578560D01*
X106922359Y-129693886D01*
X106967246Y-129841859D01*
X107040138Y-129978232D01*
X107138236Y-130097764D01*
X107168190Y-130122347D01*
X107700121Y-130654278D01*
X107718033Y-130697521D01*
X107809413Y-130834281D01*
X107925719Y-130950587D01*
X108062479Y-131041967D01*
X108214440Y-131104911D01*
X108375760Y-131137000D01*
X108540240Y-131137000D01*
X108701560Y-131104911D01*
X108853521Y-131041967D01*
X108990281Y-130950587D01*
X109106587Y-130834281D01*
X109197967Y-130697521D01*
X109260911Y-130545560D01*
X109293000Y-130384240D01*
X109293000Y-130219760D01*
X109260911Y-130058440D01*
X109219604Y-129958715D01*
X123422204Y-129958715D01*
X123540382Y-130355762D01*
X123588501Y-130471221D01*
X123658221Y-130575072D01*
X123746862Y-130663326D01*
X123851016Y-130732592D01*
X123966683Y-130780207D01*
X124089416Y-130804343D01*
X124214500Y-130804070D01*
X124337127Y-130779399D01*
X124612840Y-130691893D01*
X124718240Y-130493666D01*
X124411469Y-129490263D01*
X123527604Y-129760487D01*
X123422204Y-129958715D01*
X109219604Y-129958715D01*
X109197967Y-129906479D01*
X109106587Y-129769719D01*
X108990281Y-129653413D01*
X108853521Y-129562033D01*
X108810278Y-129544121D01*
X108481000Y-129214843D01*
X108481000Y-128006157D01*
X109526658Y-129051816D01*
X109551236Y-129081764D01*
X109581184Y-129106342D01*
X109581187Y-129106345D01*
X109610559Y-129130450D01*
X109670767Y-129179862D01*
X109807140Y-129252754D01*
X109920672Y-129287194D01*
X109955112Y-129297641D01*
X109969490Y-129299057D01*
X110070439Y-129309000D01*
X110070446Y-129309000D01*
X110108999Y-129312797D01*
X110147552Y-129309000D01*
X112616199Y-129309000D01*
X112659440Y-129326911D01*
X112820760Y-129359000D01*
X112985240Y-129359000D01*
X113146560Y-129326911D01*
X113298521Y-129263967D01*
X113435281Y-129172587D01*
X113551587Y-129056281D01*
X113642967Y-128919521D01*
X113705221Y-128769225D01*
X123106118Y-128769225D01*
X123106391Y-128894308D01*
X123131061Y-129016936D01*
X123255114Y-129412187D01*
X123453341Y-129517586D01*
X124337206Y-129247362D01*
X124030435Y-128243959D01*
X123890768Y-128169696D01*
X124273336Y-128169696D01*
X124580107Y-129173099D01*
X124599233Y-129167251D01*
X124673496Y-129410153D01*
X124654370Y-129416000D01*
X124961141Y-130419403D01*
X125159368Y-130524803D01*
X125436878Y-130443172D01*
X125552336Y-130395053D01*
X125656188Y-130325333D01*
X125744442Y-130236692D01*
X125813708Y-130132537D01*
X125852994Y-130037102D01*
X125860056Y-130041798D01*
X126021041Y-130108069D01*
X126191862Y-130141660D01*
X126365954Y-130141281D01*
X126536627Y-130106945D01*
X127158227Y-129916903D01*
X127318922Y-129849929D01*
X127463463Y-129752893D01*
X127586296Y-129629523D01*
X127682701Y-129484559D01*
X127748972Y-129323574D01*
X127782563Y-129152753D01*
X127782183Y-128978661D01*
X127747846Y-128807988D01*
X127484710Y-127947312D01*
X127417738Y-127786619D01*
X127320702Y-127642078D01*
X127272336Y-127593923D01*
X127281925Y-127545715D01*
X130534204Y-127545715D01*
X130652382Y-127942762D01*
X130700501Y-128058221D01*
X130770221Y-128162072D01*
X130858862Y-128250326D01*
X130963016Y-128319592D01*
X131078683Y-128367207D01*
X131201416Y-128391343D01*
X131326500Y-128391070D01*
X131449127Y-128366399D01*
X131724840Y-128278893D01*
X131830240Y-128080666D01*
X131523469Y-127077263D01*
X130639604Y-127347487D01*
X130534204Y-127545715D01*
X127281925Y-127545715D01*
X127291212Y-127499028D01*
X127291212Y-127334548D01*
X127259123Y-127173228D01*
X127196179Y-127021267D01*
X127104799Y-126884507D01*
X126988493Y-126768201D01*
X126851733Y-126676821D01*
X126699772Y-126613877D01*
X126538452Y-126581788D01*
X126373972Y-126581788D01*
X126212652Y-126613877D01*
X126060691Y-126676821D01*
X125923931Y-126768201D01*
X125807625Y-126884507D01*
X125716245Y-127021267D01*
X125653301Y-127173228D01*
X125621212Y-127334548D01*
X125621212Y-127499028D01*
X125640340Y-127595188D01*
X125593502Y-127614709D01*
X125448961Y-127711745D01*
X125326128Y-127835115D01*
X125229723Y-127980079D01*
X125226495Y-127987920D01*
X125140560Y-127930770D01*
X125024893Y-127883155D01*
X124902160Y-127859019D01*
X124777076Y-127859292D01*
X124654449Y-127883963D01*
X124378736Y-127971469D01*
X124273336Y-128169696D01*
X123890768Y-128169696D01*
X123832208Y-128138559D01*
X123554698Y-128220190D01*
X123439240Y-128268309D01*
X123335388Y-128338029D01*
X123247134Y-128426670D01*
X123177868Y-128530825D01*
X123130254Y-128646491D01*
X123106118Y-128769225D01*
X113705221Y-128769225D01*
X113705911Y-128767560D01*
X113738000Y-128606240D01*
X113738000Y-128441760D01*
X113705911Y-128280440D01*
X113642967Y-128128479D01*
X113551587Y-127991719D01*
X113435281Y-127875413D01*
X113298521Y-127784033D01*
X113146560Y-127721089D01*
X112985240Y-127689000D01*
X112820760Y-127689000D01*
X112659440Y-127721089D01*
X112616199Y-127739000D01*
X110434158Y-127739000D01*
X109370000Y-126674843D01*
X109370000Y-126356225D01*
X130218118Y-126356225D01*
X130218391Y-126481308D01*
X130243061Y-126603936D01*
X130367114Y-126999187D01*
X130565341Y-127104586D01*
X131449206Y-126834362D01*
X131142435Y-125830959D01*
X131002768Y-125756696D01*
X131385336Y-125756696D01*
X131692107Y-126760099D01*
X131711233Y-126754251D01*
X131785496Y-126997153D01*
X131766370Y-127003000D01*
X132073141Y-128006403D01*
X132271368Y-128111803D01*
X132548878Y-128030172D01*
X132664336Y-127982053D01*
X132768188Y-127912333D01*
X132856442Y-127823692D01*
X132925708Y-127719537D01*
X132964994Y-127624102D01*
X132972056Y-127628798D01*
X133133041Y-127695069D01*
X133303862Y-127728660D01*
X133477954Y-127728281D01*
X133648627Y-127693945D01*
X134270227Y-127503903D01*
X134430922Y-127436929D01*
X134575463Y-127339893D01*
X134698296Y-127216523D01*
X134794701Y-127071559D01*
X134860972Y-126910574D01*
X134894563Y-126739753D01*
X134894183Y-126565661D01*
X134859846Y-126394988D01*
X134596710Y-125534312D01*
X134588126Y-125513715D01*
X137138204Y-125513715D01*
X137256382Y-125910762D01*
X137304501Y-126026221D01*
X137374221Y-126130072D01*
X137462862Y-126218326D01*
X137567016Y-126287592D01*
X137682683Y-126335207D01*
X137805416Y-126359343D01*
X137930500Y-126359070D01*
X138053127Y-126334399D01*
X138328840Y-126246893D01*
X138434240Y-126048666D01*
X138127469Y-125045263D01*
X137243604Y-125315487D01*
X137138204Y-125513715D01*
X134588126Y-125513715D01*
X134529738Y-125373619D01*
X134432702Y-125229078D01*
X134403212Y-125199717D01*
X134403212Y-125048548D01*
X134371123Y-124887228D01*
X134308179Y-124735267D01*
X134216799Y-124598507D01*
X134100493Y-124482201D01*
X133963733Y-124390821D01*
X133811772Y-124327877D01*
X133793413Y-124324225D01*
X136822118Y-124324225D01*
X136822391Y-124449308D01*
X136847061Y-124571936D01*
X136971114Y-124967187D01*
X137169341Y-125072586D01*
X138053206Y-124802362D01*
X137746435Y-123798959D01*
X137606768Y-123724696D01*
X137989336Y-123724696D01*
X138296107Y-124728099D01*
X138315233Y-124722251D01*
X138389496Y-124965153D01*
X138370370Y-124971000D01*
X138677141Y-125974403D01*
X138875368Y-126079803D01*
X139152878Y-125998172D01*
X139268336Y-125950053D01*
X139372188Y-125880333D01*
X139460442Y-125791692D01*
X139529708Y-125687537D01*
X139568994Y-125592102D01*
X139576056Y-125596798D01*
X139737041Y-125663069D01*
X139907862Y-125696660D01*
X140081954Y-125696281D01*
X140252627Y-125661945D01*
X140874227Y-125471903D01*
X141034922Y-125404929D01*
X141179463Y-125307893D01*
X141302296Y-125184523D01*
X141398701Y-125039559D01*
X141464972Y-124878574D01*
X141498563Y-124707753D01*
X141498183Y-124533661D01*
X141463846Y-124362988D01*
X141200710Y-123502312D01*
X141192126Y-123481715D01*
X143742204Y-123481715D01*
X143860382Y-123878762D01*
X143908501Y-123994221D01*
X143978221Y-124098072D01*
X144066862Y-124186326D01*
X144171016Y-124255592D01*
X144286683Y-124303207D01*
X144409416Y-124327343D01*
X144534500Y-124327070D01*
X144657127Y-124302399D01*
X144932840Y-124214893D01*
X145038240Y-124016666D01*
X144731469Y-123013263D01*
X143847604Y-123283487D01*
X143742204Y-123481715D01*
X141192126Y-123481715D01*
X141133738Y-123341619D01*
X141036702Y-123197078D01*
X141007212Y-123167717D01*
X141007212Y-123016548D01*
X140975123Y-122855228D01*
X140912179Y-122703267D01*
X140820799Y-122566507D01*
X140704493Y-122450201D01*
X140567733Y-122358821D01*
X140415772Y-122295877D01*
X140397413Y-122292225D01*
X143426118Y-122292225D01*
X143426391Y-122417308D01*
X143451061Y-122539936D01*
X143575114Y-122935187D01*
X143773341Y-123040586D01*
X144657206Y-122770362D01*
X144350435Y-121766959D01*
X144210768Y-121692696D01*
X144593336Y-121692696D01*
X144900107Y-122696099D01*
X144919233Y-122690251D01*
X144993496Y-122933153D01*
X144974370Y-122939000D01*
X145281141Y-123942403D01*
X145479368Y-124047803D01*
X145756878Y-123966172D01*
X145872336Y-123918053D01*
X145976188Y-123848333D01*
X146064442Y-123759692D01*
X146133708Y-123655537D01*
X146172994Y-123560102D01*
X146180056Y-123564798D01*
X146341041Y-123631069D01*
X146511862Y-123664660D01*
X146685954Y-123664281D01*
X146856627Y-123629945D01*
X147478227Y-123439903D01*
X147638922Y-123372929D01*
X147783463Y-123275893D01*
X147906296Y-123152523D01*
X148002701Y-123007559D01*
X148068972Y-122846574D01*
X148102563Y-122675753D01*
X148102183Y-122501661D01*
X148067846Y-122330988D01*
X147869715Y-121682933D01*
X149127519Y-121682933D01*
X149266314Y-122073251D01*
X149320410Y-122186033D01*
X149395470Y-122286093D01*
X149488608Y-122369587D01*
X149596245Y-122433307D01*
X149714245Y-122474803D01*
X149838073Y-122492483D01*
X149962971Y-122485664D01*
X150084139Y-122454609D01*
X150354895Y-122352793D01*
X150449775Y-122149321D01*
X150090911Y-121163349D01*
X149222400Y-121479461D01*
X149127519Y-121682933D01*
X147869715Y-121682933D01*
X147804710Y-121470312D01*
X147737738Y-121309619D01*
X147640702Y-121165078D01*
X147592336Y-121116923D01*
X147611212Y-121022028D01*
X147611212Y-120857548D01*
X147579123Y-120696228D01*
X147516179Y-120544267D01*
X147494362Y-120511615D01*
X148749612Y-120511615D01*
X148756431Y-120636513D01*
X148787486Y-120757681D01*
X148932055Y-121145898D01*
X149135527Y-121240779D01*
X150004037Y-120924667D01*
X149645173Y-119938694D01*
X149458873Y-119851821D01*
X149883855Y-119851821D01*
X150242719Y-120837793D01*
X150261513Y-120830952D01*
X150348386Y-121069635D01*
X150329593Y-121076475D01*
X150688457Y-122062448D01*
X150891929Y-122157328D01*
X151164786Y-122061286D01*
X151277567Y-122007190D01*
X151377628Y-121932130D01*
X151461122Y-121838992D01*
X151524842Y-121731355D01*
X151559080Y-121633995D01*
X151566378Y-121638315D01*
X151730611Y-121696070D01*
X151902956Y-121720675D01*
X152076790Y-121711184D01*
X152245431Y-121667963D01*
X152856233Y-121445649D01*
X153013202Y-121370358D01*
X153152466Y-121265890D01*
X153268674Y-121136261D01*
X153357360Y-120986451D01*
X153415115Y-120822218D01*
X153439721Y-120649873D01*
X153430230Y-120476040D01*
X153387009Y-120307398D01*
X153335872Y-120166899D01*
X153562810Y-119939961D01*
X153592764Y-119915378D01*
X153690862Y-119795847D01*
X153744923Y-119694704D01*
X153748180Y-119688611D01*
X153774967Y-119648521D01*
X153837911Y-119496560D01*
X153870000Y-119335240D01*
X153870000Y-119170760D01*
X153837911Y-119009440D01*
X153774967Y-118857479D01*
X153683587Y-118720719D01*
X153567281Y-118604413D01*
X153430521Y-118513033D01*
X153278560Y-118450089D01*
X153117240Y-118418000D01*
X152952760Y-118418000D01*
X152791440Y-118450089D01*
X152639479Y-118513033D01*
X152502719Y-118604413D01*
X152386413Y-118720719D01*
X152295033Y-118857479D01*
X152286287Y-118878593D01*
X152283414Y-118878183D01*
X152109580Y-118887674D01*
X151940939Y-118930895D01*
X151330137Y-119153209D01*
X151173168Y-119228500D01*
X151033904Y-119332968D01*
X150917696Y-119462597D01*
X150829010Y-119612407D01*
X150826196Y-119620410D01*
X150737385Y-119567835D01*
X150619385Y-119526339D01*
X150495557Y-119508659D01*
X150370659Y-119515478D01*
X150249491Y-119546533D01*
X149978735Y-119648349D01*
X149883855Y-119851821D01*
X149458873Y-119851821D01*
X149441701Y-119843814D01*
X149168844Y-119939856D01*
X149056063Y-119993952D01*
X148956002Y-120069012D01*
X148872508Y-120162150D01*
X148808788Y-120269787D01*
X148767292Y-120387787D01*
X148749612Y-120511615D01*
X147494362Y-120511615D01*
X147424799Y-120407507D01*
X147308493Y-120291201D01*
X147171733Y-120199821D01*
X147019772Y-120136877D01*
X146858452Y-120104788D01*
X146693972Y-120104788D01*
X146532652Y-120136877D01*
X146380691Y-120199821D01*
X146243931Y-120291201D01*
X146127625Y-120407507D01*
X146036245Y-120544267D01*
X145973301Y-120696228D01*
X145941212Y-120857548D01*
X145941212Y-121022028D01*
X145960340Y-121118188D01*
X145913502Y-121137709D01*
X145768961Y-121234745D01*
X145646128Y-121358115D01*
X145549723Y-121503079D01*
X145546495Y-121510920D01*
X145460560Y-121453770D01*
X145344893Y-121406155D01*
X145222160Y-121382019D01*
X145097076Y-121382292D01*
X144974449Y-121406963D01*
X144698736Y-121494469D01*
X144593336Y-121692696D01*
X144210768Y-121692696D01*
X144152208Y-121661559D01*
X143874698Y-121743190D01*
X143759240Y-121791309D01*
X143655388Y-121861029D01*
X143567134Y-121949670D01*
X143497868Y-122053825D01*
X143450254Y-122169491D01*
X143426118Y-122292225D01*
X140397413Y-122292225D01*
X140254452Y-122263788D01*
X140089972Y-122263788D01*
X139928652Y-122295877D01*
X139776691Y-122358821D01*
X139639931Y-122450201D01*
X139523625Y-122566507D01*
X139432245Y-122703267D01*
X139369301Y-122855228D01*
X139337212Y-123016548D01*
X139337212Y-123158160D01*
X139309502Y-123169709D01*
X139164961Y-123266745D01*
X139042128Y-123390115D01*
X138945723Y-123535079D01*
X138942495Y-123542920D01*
X138856560Y-123485770D01*
X138740893Y-123438155D01*
X138618160Y-123414019D01*
X138493076Y-123414292D01*
X138370449Y-123438963D01*
X138094736Y-123526469D01*
X137989336Y-123724696D01*
X137606768Y-123724696D01*
X137548208Y-123693559D01*
X137270698Y-123775190D01*
X137155240Y-123823309D01*
X137051388Y-123893029D01*
X136963134Y-123981670D01*
X136893868Y-124085825D01*
X136846254Y-124201491D01*
X136822118Y-124324225D01*
X133793413Y-124324225D01*
X133650452Y-124295788D01*
X133485972Y-124295788D01*
X133324652Y-124327877D01*
X133172691Y-124390821D01*
X133035931Y-124482201D01*
X132919625Y-124598507D01*
X132828245Y-124735267D01*
X132765301Y-124887228D01*
X132733212Y-125048548D01*
X132733212Y-125190160D01*
X132705502Y-125201709D01*
X132560961Y-125298745D01*
X132438128Y-125422115D01*
X132341723Y-125567079D01*
X132338495Y-125574920D01*
X132252560Y-125517770D01*
X132136893Y-125470155D01*
X132014160Y-125446019D01*
X131889076Y-125446292D01*
X131766449Y-125470963D01*
X131490736Y-125558469D01*
X131385336Y-125756696D01*
X131002768Y-125756696D01*
X130944208Y-125725559D01*
X130666698Y-125807190D01*
X130551240Y-125855309D01*
X130447388Y-125925029D01*
X130359134Y-126013670D01*
X130289868Y-126117825D01*
X130242254Y-126233491D01*
X130218118Y-126356225D01*
X109370000Y-126356225D01*
X109370000Y-118269801D01*
X109387911Y-118226560D01*
X109420000Y-118065240D01*
X109420000Y-117900760D01*
X109387911Y-117739440D01*
X109324967Y-117587479D01*
X109233587Y-117450719D01*
X109117281Y-117334413D01*
X108980521Y-117243033D01*
X108828560Y-117180089D01*
X108667240Y-117148000D01*
X108502760Y-117148000D01*
X108341440Y-117180089D01*
X108189479Y-117243033D01*
X108140500Y-117275760D01*
X108091521Y-117243033D01*
X107939560Y-117180089D01*
X107778240Y-117148000D01*
X107613760Y-117148000D01*
X107452440Y-117180089D01*
X107300479Y-117243033D01*
X107163719Y-117334413D01*
X107047413Y-117450719D01*
X106956033Y-117587479D01*
X106893089Y-117739440D01*
X106861000Y-117900760D01*
X96985149Y-117900760D01*
X96985149Y-115790305D01*
X131621639Y-115790305D01*
X131625732Y-115915323D01*
X131654136Y-116037139D01*
X131705759Y-116151073D01*
X131778617Y-116252747D01*
X131869911Y-116338254D01*
X131976133Y-116404307D01*
X132093200Y-116448367D01*
X132373389Y-116520263D01*
X132453952Y-116473750D01*
X132813163Y-116473750D01*
X132925416Y-116668179D01*
X133204015Y-116746009D01*
X133327428Y-116766385D01*
X133452445Y-116762293D01*
X133574262Y-116733888D01*
X133688196Y-116682266D01*
X133772086Y-116622151D01*
X133775586Y-116629876D01*
X133876991Y-116771387D01*
X134004055Y-116890395D01*
X134140074Y-116974978D01*
X134140074Y-117075166D01*
X134172163Y-117236486D01*
X134235107Y-117388447D01*
X134326487Y-117525207D01*
X134442793Y-117641513D01*
X134579553Y-117732893D01*
X134731514Y-117795837D01*
X134892834Y-117827926D01*
X135057314Y-117827926D01*
X135218634Y-117795837D01*
X135370595Y-117732893D01*
X135507355Y-117641513D01*
X135623661Y-117525207D01*
X135715041Y-117388447D01*
X135777985Y-117236486D01*
X135810074Y-117075166D01*
X135810074Y-116966246D01*
X135877086Y-116894698D01*
X135969019Y-116746858D01*
X136030343Y-116583924D01*
X136263281Y-115714589D01*
X136265437Y-115701527D01*
X140838567Y-115701527D01*
X141102488Y-116020836D01*
X141191895Y-116108314D01*
X141296651Y-116176668D01*
X141412729Y-116223272D01*
X141535668Y-116246335D01*
X141660744Y-116244970D01*
X141783152Y-116219232D01*
X141898185Y-116170106D01*
X142001425Y-116099482D01*
X142221028Y-115911203D01*
X142240595Y-115687551D01*
X141566150Y-114883779D01*
X140858134Y-115477875D01*
X140838567Y-115701527D01*
X136265437Y-115701527D01*
X136291640Y-115542822D01*
X136285943Y-115368823D01*
X136246411Y-115199278D01*
X136174562Y-115040704D01*
X136073157Y-114899193D01*
X135946093Y-114780185D01*
X135798254Y-114688252D01*
X135635320Y-114626928D01*
X135096745Y-114482617D01*
X140055733Y-114482617D01*
X140057098Y-114607693D01*
X140082837Y-114730101D01*
X140131962Y-114845134D01*
X140202586Y-114948374D01*
X140471214Y-115263733D01*
X140694866Y-115283300D01*
X141402882Y-114689203D01*
X140728437Y-113885431D01*
X140504785Y-113865864D01*
X140281232Y-114049437D01*
X140193754Y-114138844D01*
X140125400Y-114243600D01*
X140078796Y-114359678D01*
X140055733Y-114482617D01*
X135096745Y-114482617D01*
X135007466Y-114458695D01*
X134835699Y-114430336D01*
X134661700Y-114436033D01*
X134492155Y-114475565D01*
X134333581Y-114547414D01*
X134326687Y-114552354D01*
X134284093Y-114458347D01*
X134211235Y-114356673D01*
X134119941Y-114271166D01*
X134013719Y-114205113D01*
X133896652Y-114161053D01*
X133616463Y-114089157D01*
X133422034Y-114201410D01*
X133150469Y-115214907D01*
X133169788Y-115220083D01*
X133104047Y-115465429D01*
X133084729Y-115460253D01*
X132813163Y-116473750D01*
X132453952Y-116473750D01*
X132567818Y-116408010D01*
X132839383Y-115394513D01*
X131946626Y-115155299D01*
X131752198Y-115267552D01*
X131642015Y-115666892D01*
X131621639Y-115790305D01*
X96985149Y-115790305D01*
X96985149Y-113702715D01*
X115802204Y-113702715D01*
X115920382Y-114099762D01*
X115968501Y-114215221D01*
X116038221Y-114319072D01*
X116126862Y-114407326D01*
X116231016Y-114476592D01*
X116346683Y-114524207D01*
X116469416Y-114548343D01*
X116594500Y-114548070D01*
X116717127Y-114523399D01*
X116992840Y-114435893D01*
X117098240Y-114237666D01*
X116791469Y-113234263D01*
X115907604Y-113504487D01*
X115802204Y-113702715D01*
X96985149Y-113702715D01*
X96985149Y-112513225D01*
X115486118Y-112513225D01*
X115486391Y-112638308D01*
X115511061Y-112760936D01*
X115635114Y-113156187D01*
X115833341Y-113261586D01*
X116717206Y-112991362D01*
X116410435Y-111987959D01*
X116270768Y-111913696D01*
X116653336Y-111913696D01*
X116960107Y-112917099D01*
X116979233Y-112911251D01*
X117053496Y-113154153D01*
X117034370Y-113160000D01*
X117341141Y-114163403D01*
X117539368Y-114268803D01*
X117816878Y-114187172D01*
X117932336Y-114139053D01*
X118023562Y-114077810D01*
X118033301Y-114126772D01*
X118096245Y-114278733D01*
X118187625Y-114415493D01*
X118303931Y-114531799D01*
X118440691Y-114623179D01*
X118592652Y-114686123D01*
X118753972Y-114718212D01*
X118918452Y-114718212D01*
X118931955Y-114715526D01*
X131900113Y-114715526D01*
X132012366Y-114909954D01*
X132905123Y-115149167D01*
X133176689Y-114135670D01*
X133064436Y-113941241D01*
X132785837Y-113863411D01*
X132662424Y-113843035D01*
X132537407Y-113847127D01*
X132415590Y-113875532D01*
X132301656Y-113927154D01*
X132199982Y-114000013D01*
X132114475Y-114091307D01*
X132048422Y-114197529D01*
X132004362Y-114314596D01*
X131900113Y-114715526D01*
X118931955Y-114715526D01*
X119079772Y-114686123D01*
X119231733Y-114623179D01*
X119368493Y-114531799D01*
X119484799Y-114415493D01*
X119576179Y-114278733D01*
X119639123Y-114126772D01*
X119671212Y-113965452D01*
X119671212Y-113800972D01*
X119639123Y-113639652D01*
X119631776Y-113621914D01*
X119698922Y-113593929D01*
X119843463Y-113496893D01*
X119966296Y-113373523D01*
X120062701Y-113228559D01*
X120076633Y-113194715D01*
X123930204Y-113194715D01*
X124048382Y-113591762D01*
X124096501Y-113707221D01*
X124166221Y-113811072D01*
X124254862Y-113899326D01*
X124359016Y-113968592D01*
X124474683Y-114016207D01*
X124597416Y-114040343D01*
X124722500Y-114040070D01*
X124845127Y-114015399D01*
X125120840Y-113927893D01*
X125226240Y-113729666D01*
X124919469Y-112726263D01*
X124035604Y-112996487D01*
X123930204Y-113194715D01*
X120076633Y-113194715D01*
X120128972Y-113067574D01*
X120162563Y-112896753D01*
X120162183Y-112722661D01*
X120127846Y-112551988D01*
X119960684Y-112005225D01*
X123614118Y-112005225D01*
X123614391Y-112130308D01*
X123639061Y-112252936D01*
X123763114Y-112648187D01*
X123961341Y-112753586D01*
X124845206Y-112483362D01*
X124538435Y-111479959D01*
X124398768Y-111405696D01*
X124781336Y-111405696D01*
X125088107Y-112409099D01*
X125107233Y-112403251D01*
X125181496Y-112646153D01*
X125162370Y-112652000D01*
X125469141Y-113655403D01*
X125667368Y-113760803D01*
X125944878Y-113679172D01*
X126060336Y-113631053D01*
X126164188Y-113561333D01*
X126182497Y-113542944D01*
X126224245Y-113643733D01*
X126315625Y-113780493D01*
X126431931Y-113896799D01*
X126568691Y-113988179D01*
X126720652Y-114051123D01*
X126881972Y-114083212D01*
X127046452Y-114083212D01*
X127207772Y-114051123D01*
X127359733Y-113988179D01*
X127496493Y-113896799D01*
X127612799Y-113780493D01*
X127651773Y-113722163D01*
X140923013Y-113722163D01*
X141597458Y-114525935D01*
X141612778Y-114513080D01*
X141776047Y-114707655D01*
X141760726Y-114720511D01*
X142435171Y-115524283D01*
X142658823Y-115543850D01*
X142882376Y-115360277D01*
X142969854Y-115270870D01*
X143038208Y-115166114D01*
X143084812Y-115050036D01*
X143107875Y-114927097D01*
X143106749Y-114823898D01*
X143115086Y-114825462D01*
X143289168Y-114823563D01*
X143459534Y-114787738D01*
X143619638Y-114719366D01*
X143763327Y-114621072D01*
X144249129Y-114213436D01*
X144292903Y-114222143D01*
X144457383Y-114222143D01*
X144618703Y-114190054D01*
X144770664Y-114127110D01*
X144907424Y-114035730D01*
X145023730Y-113919424D01*
X145115110Y-113782664D01*
X145178054Y-113630703D01*
X145210143Y-113469383D01*
X145210143Y-113304903D01*
X145178054Y-113143583D01*
X145115110Y-112991622D01*
X145023730Y-112854862D01*
X144907424Y-112738556D01*
X144770664Y-112647176D01*
X144618703Y-112584232D01*
X144457383Y-112552143D01*
X144292903Y-112552143D01*
X144131583Y-112584232D01*
X144088342Y-112602143D01*
X144077056Y-112602143D01*
X143792208Y-112262675D01*
X143667770Y-112140923D01*
X143521971Y-112045787D01*
X143360414Y-111980924D01*
X143189306Y-111948824D01*
X143015224Y-111950723D01*
X142844858Y-111986548D01*
X142684754Y-112054920D01*
X142541065Y-112153214D01*
X142043135Y-112571027D01*
X141921383Y-112695465D01*
X141826247Y-112841264D01*
X141761383Y-113002821D01*
X141729284Y-113173929D01*
X141729376Y-113182408D01*
X141627940Y-113163379D01*
X141502864Y-113164744D01*
X141380456Y-113190482D01*
X141265423Y-113239608D01*
X141162183Y-113310232D01*
X140942580Y-113498511D01*
X140923013Y-113722163D01*
X127651773Y-113722163D01*
X127704179Y-113643733D01*
X127767123Y-113491772D01*
X127799212Y-113330452D01*
X127799212Y-113165972D01*
X127786631Y-113102722D01*
X127826922Y-113085929D01*
X127971463Y-112988893D01*
X128094296Y-112865523D01*
X128190701Y-112720559D01*
X128256972Y-112559574D01*
X128290563Y-112388753D01*
X128290183Y-112214661D01*
X128255846Y-112043988D01*
X127992710Y-111183312D01*
X127925738Y-111022619D01*
X127828702Y-110878078D01*
X127705331Y-110755245D01*
X127604303Y-110688058D01*
X144190877Y-110688058D01*
X144205850Y-110812243D01*
X144244764Y-110931120D01*
X144306120Y-111040122D01*
X144387563Y-111135058D01*
X144485962Y-111212283D01*
X144597536Y-111268827D01*
X144717998Y-111302517D01*
X145126488Y-111371425D01*
X145247402Y-111286760D01*
X145560534Y-111286760D01*
X145689306Y-111470665D01*
X146096729Y-111545624D01*
X146221448Y-111555167D01*
X146345633Y-111540194D01*
X146464510Y-111501280D01*
X146573512Y-111439924D01*
X146668448Y-111358481D01*
X146745673Y-111260082D01*
X146802217Y-111148508D01*
X146835907Y-111028046D01*
X146883109Y-110742657D01*
X146754338Y-110558752D01*
X145721028Y-110376552D01*
X145560534Y-111286760D01*
X145247402Y-111286760D01*
X145310393Y-111242654D01*
X145470887Y-110332445D01*
X144437578Y-110150245D01*
X144253673Y-110279016D01*
X144200420Y-110563339D01*
X144190877Y-110688058D01*
X127604303Y-110688058D01*
X127560368Y-110658840D01*
X127399383Y-110592569D01*
X127228562Y-110558978D01*
X127054470Y-110559357D01*
X126883797Y-110593693D01*
X126262197Y-110783735D01*
X126101502Y-110850709D01*
X125956961Y-110947745D01*
X125834128Y-111071115D01*
X125737723Y-111216079D01*
X125734495Y-111223920D01*
X125648560Y-111166770D01*
X125532893Y-111119155D01*
X125410160Y-111095019D01*
X125285076Y-111095292D01*
X125162449Y-111119963D01*
X124886736Y-111207469D01*
X124781336Y-111405696D01*
X124398768Y-111405696D01*
X124340208Y-111374559D01*
X124062698Y-111456190D01*
X123947240Y-111504309D01*
X123843388Y-111574029D01*
X123755134Y-111662670D01*
X123685868Y-111766825D01*
X123638254Y-111882491D01*
X123614118Y-112005225D01*
X119960684Y-112005225D01*
X119864710Y-111691312D01*
X119797738Y-111530619D01*
X119700702Y-111386078D01*
X119577331Y-111263245D01*
X119432368Y-111166840D01*
X119271383Y-111100569D01*
X119100562Y-111066978D01*
X118926470Y-111067357D01*
X118755797Y-111101693D01*
X118134197Y-111291735D01*
X117973502Y-111358709D01*
X117828961Y-111455745D01*
X117706128Y-111579115D01*
X117609723Y-111724079D01*
X117606495Y-111731920D01*
X117520560Y-111674770D01*
X117404893Y-111627155D01*
X117282160Y-111603019D01*
X117157076Y-111603292D01*
X117034449Y-111627963D01*
X116758736Y-111715469D01*
X116653336Y-111913696D01*
X116270768Y-111913696D01*
X116212208Y-111882559D01*
X115934698Y-111964190D01*
X115819240Y-112012309D01*
X115715388Y-112082029D01*
X115627134Y-112170670D01*
X115557868Y-112274825D01*
X115510254Y-112390491D01*
X115486118Y-112513225D01*
X96985149Y-112513225D01*
X96985149Y-109716199D01*
X144352913Y-109716199D01*
X144481684Y-109900104D01*
X145514994Y-110082304D01*
X145518467Y-110062608D01*
X145768608Y-110106715D01*
X145765135Y-110126411D01*
X146798444Y-110308611D01*
X146982349Y-110179840D01*
X147035602Y-109895517D01*
X147045145Y-109770798D01*
X147030172Y-109646613D01*
X146991258Y-109527736D01*
X146929902Y-109418734D01*
X146862704Y-109340403D01*
X146870095Y-109336242D01*
X147002229Y-109222889D01*
X147109710Y-109085936D01*
X147139417Y-109027317D01*
X147231188Y-109045572D01*
X147395668Y-109045572D01*
X147556988Y-109013483D01*
X147708949Y-108950539D01*
X147845709Y-108859159D01*
X147962015Y-108742853D01*
X148053395Y-108606093D01*
X148116339Y-108454132D01*
X148148428Y-108292812D01*
X148148428Y-108128332D01*
X148116339Y-107967012D01*
X148053395Y-107815051D01*
X147962015Y-107678291D01*
X147845709Y-107561985D01*
X147708949Y-107470605D01*
X147556988Y-107407661D01*
X147395668Y-107375572D01*
X147231188Y-107375572D01*
X147144109Y-107392893D01*
X147087701Y-107327139D01*
X146950749Y-107219658D01*
X146795459Y-107140961D01*
X146627800Y-107094071D01*
X145741471Y-106937788D01*
X145567886Y-106924507D01*
X145395045Y-106945347D01*
X145229592Y-106999506D01*
X145077883Y-107084902D01*
X144945749Y-107198255D01*
X144838268Y-107335208D01*
X144759571Y-107490497D01*
X144712681Y-107658156D01*
X144599810Y-108298283D01*
X144586529Y-108471868D01*
X144607369Y-108644708D01*
X144661528Y-108810162D01*
X144746924Y-108961871D01*
X144752446Y-108968308D01*
X144662510Y-109018932D01*
X144567574Y-109100375D01*
X144490349Y-109198774D01*
X144433805Y-109310348D01*
X144400115Y-109430810D01*
X144352913Y-109716199D01*
X96985149Y-109716199D01*
X96985149Y-106900224D01*
X99776200Y-106900224D01*
X99776200Y-107399576D01*
X99873618Y-107889332D01*
X100064712Y-108350673D01*
X100342137Y-108765868D01*
X100695232Y-109118963D01*
X101110427Y-109396388D01*
X101571768Y-109587482D01*
X102061524Y-109684900D01*
X102560876Y-109684900D01*
X103050632Y-109587482D01*
X103511973Y-109396388D01*
X103927168Y-109118963D01*
X104280263Y-108765868D01*
X104557688Y-108350673D01*
X104748782Y-107889332D01*
X104846200Y-107399576D01*
X104846200Y-106900224D01*
X104823930Y-106788260D01*
X106861000Y-106788260D01*
X106861000Y-106952740D01*
X106893089Y-107114060D01*
X106956033Y-107266021D01*
X107047413Y-107402781D01*
X107163719Y-107519087D01*
X107300479Y-107610467D01*
X107452440Y-107673411D01*
X107613760Y-107705500D01*
X107778240Y-107705500D01*
X107939560Y-107673411D01*
X108091521Y-107610467D01*
X108228281Y-107519087D01*
X108344587Y-107402781D01*
X108435967Y-107266021D01*
X108453879Y-107222778D01*
X110243657Y-105433000D01*
X112108199Y-105433000D01*
X112151440Y-105450911D01*
X112265001Y-105473500D01*
X112151440Y-105496089D01*
X112108199Y-105514000D01*
X111163552Y-105514000D01*
X111124999Y-105510203D01*
X111086446Y-105514000D01*
X111086439Y-105514000D01*
X110985490Y-105523943D01*
X110971112Y-105525359D01*
X110936672Y-105535806D01*
X110823140Y-105570246D01*
X110686767Y-105643138D01*
X110567236Y-105741236D01*
X110542655Y-105771188D01*
X110264722Y-106049121D01*
X110221479Y-106067033D01*
X110084719Y-106158413D01*
X109968413Y-106274719D01*
X109877033Y-106411479D01*
X109814089Y-106563440D01*
X109782000Y-106724760D01*
X109782000Y-106889240D01*
X109814089Y-107050560D01*
X109838749Y-107110094D01*
X109248722Y-107700121D01*
X109205479Y-107718033D01*
X109068719Y-107809413D01*
X108952413Y-107925719D01*
X108861033Y-108062479D01*
X108798089Y-108214440D01*
X108766000Y-108375760D01*
X108766000Y-108540240D01*
X108798089Y-108701560D01*
X108861033Y-108853521D01*
X108952413Y-108990281D01*
X109068719Y-109106587D01*
X109205479Y-109197967D01*
X109357440Y-109260911D01*
X109518760Y-109293000D01*
X109683240Y-109293000D01*
X109844560Y-109260911D01*
X109996521Y-109197967D01*
X110133281Y-109106587D01*
X110249587Y-108990281D01*
X110340967Y-108853521D01*
X110358879Y-108810278D01*
X110815157Y-108354000D01*
X112108199Y-108354000D01*
X112151440Y-108371911D01*
X112312760Y-108404000D01*
X112477240Y-108404000D01*
X112638560Y-108371911D01*
X112790521Y-108308967D01*
X112927281Y-108217587D01*
X113043587Y-108101281D01*
X113134967Y-107964521D01*
X113197911Y-107812560D01*
X113230000Y-107651240D01*
X113230000Y-107486760D01*
X113197911Y-107325440D01*
X113134967Y-107173479D01*
X113043587Y-107036719D01*
X112940868Y-106934000D01*
X113043587Y-106831281D01*
X113134967Y-106694521D01*
X113197911Y-106542560D01*
X113230000Y-106381240D01*
X113230000Y-106216760D01*
X113197911Y-106055440D01*
X113134967Y-105903479D01*
X113043587Y-105766719D01*
X112985628Y-105708760D01*
X144834000Y-105708760D01*
X144834000Y-105873240D01*
X144866089Y-106034560D01*
X144929033Y-106186521D01*
X145020413Y-106323281D01*
X145136719Y-106439587D01*
X145273479Y-106530967D01*
X145425440Y-106593911D01*
X145586760Y-106626000D01*
X145751240Y-106626000D01*
X145912560Y-106593911D01*
X145955801Y-106576000D01*
X146359843Y-106576000D01*
X146435121Y-106651278D01*
X146453033Y-106694521D01*
X146544413Y-106831281D01*
X146660719Y-106947587D01*
X146797479Y-107038967D01*
X146949440Y-107101911D01*
X147110760Y-107134000D01*
X147275240Y-107134000D01*
X147436560Y-107101911D01*
X147588521Y-107038967D01*
X147725281Y-106947587D01*
X147837802Y-106835066D01*
X175030539Y-106835066D01*
X175132339Y-107104579D01*
X175430477Y-107250463D01*
X175751346Y-107335380D01*
X176082617Y-107356066D01*
X176411557Y-107311728D01*
X176725527Y-107204069D01*
X176911661Y-107104579D01*
X177013461Y-106835066D01*
X176022000Y-105843605D01*
X175030539Y-106835066D01*
X147837802Y-106835066D01*
X147841587Y-106831281D01*
X147932967Y-106694521D01*
X147995911Y-106542560D01*
X148028000Y-106381240D01*
X148028000Y-106216760D01*
X147995911Y-106055440D01*
X147932967Y-105903479D01*
X147841587Y-105766719D01*
X147725281Y-105650413D01*
X147588521Y-105559033D01*
X147545278Y-105541121D01*
X147267347Y-105263190D01*
X147242764Y-105233236D01*
X147123233Y-105135138D01*
X146986860Y-105062246D01*
X146838887Y-105017359D01*
X146723561Y-105006000D01*
X146723553Y-105006000D01*
X146685000Y-105002203D01*
X146646447Y-105006000D01*
X145955801Y-105006000D01*
X145912560Y-104988089D01*
X145751240Y-104956000D01*
X145586760Y-104956000D01*
X145425440Y-104988089D01*
X145273479Y-105051033D01*
X145136719Y-105142413D01*
X145020413Y-105258719D01*
X144929033Y-105395479D01*
X144866089Y-105547440D01*
X144834000Y-105708760D01*
X112985628Y-105708760D01*
X112927281Y-105650413D01*
X112790521Y-105559033D01*
X112638560Y-105496089D01*
X112524999Y-105473500D01*
X112638560Y-105450911D01*
X112790521Y-105387967D01*
X112927281Y-105296587D01*
X113043587Y-105180281D01*
X113134967Y-105043521D01*
X113197911Y-104891560D01*
X113202536Y-104868305D01*
X151687639Y-104868305D01*
X151691732Y-104993323D01*
X151720136Y-105115139D01*
X151771759Y-105229073D01*
X151844617Y-105330747D01*
X151935911Y-105416254D01*
X152042133Y-105482307D01*
X152159200Y-105526367D01*
X152439389Y-105598263D01*
X152519952Y-105551750D01*
X152879163Y-105551750D01*
X152991416Y-105746179D01*
X153270015Y-105824009D01*
X153393428Y-105844385D01*
X153518445Y-105840293D01*
X153640262Y-105811888D01*
X153754196Y-105760266D01*
X153838086Y-105700151D01*
X153841586Y-105707876D01*
X153942991Y-105849387D01*
X154070055Y-105968395D01*
X154217894Y-106060328D01*
X154380828Y-106121652D01*
X155008682Y-106289885D01*
X155180449Y-106318244D01*
X155354448Y-106312547D01*
X155523993Y-106273015D01*
X155682567Y-106201166D01*
X155809789Y-106110000D01*
X156765928Y-106110000D01*
X156778188Y-106234482D01*
X156814498Y-106354180D01*
X156873463Y-106464494D01*
X156952815Y-106561185D01*
X157049506Y-106640537D01*
X157159820Y-106699502D01*
X157279518Y-106735812D01*
X157404000Y-106748072D01*
X157693250Y-106745000D01*
X157852000Y-106586250D01*
X157852000Y-105537000D01*
X156927750Y-105537000D01*
X156769000Y-105695750D01*
X156765928Y-106110000D01*
X155809789Y-106110000D01*
X155824078Y-106099761D01*
X155943086Y-105972698D01*
X156035019Y-105824858D01*
X156096343Y-105661924D01*
X156329281Y-104792589D01*
X156342916Y-104710000D01*
X156765928Y-104710000D01*
X156769000Y-105124250D01*
X156927750Y-105283000D01*
X157852000Y-105283000D01*
X157852000Y-104233750D01*
X158106000Y-104233750D01*
X158106000Y-105283000D01*
X158126000Y-105283000D01*
X158126000Y-105537000D01*
X158106000Y-105537000D01*
X158106000Y-106586250D01*
X158264750Y-106745000D01*
X158554000Y-106748072D01*
X158678482Y-106735812D01*
X158798180Y-106699502D01*
X158908494Y-106640537D01*
X159005185Y-106561185D01*
X159070658Y-106481406D01*
X159076038Y-106487962D01*
X159210613Y-106598405D01*
X159364149Y-106680472D01*
X159530745Y-106731008D01*
X159703999Y-106748072D01*
X160354001Y-106748072D01*
X160527255Y-106731008D01*
X160693851Y-106680472D01*
X160847387Y-106598405D01*
X160981962Y-106487962D01*
X161092405Y-106353387D01*
X161174472Y-106199851D01*
X161225008Y-106033255D01*
X161242072Y-105860001D01*
X161242072Y-105724617D01*
X174329934Y-105724617D01*
X174374272Y-106053557D01*
X174481931Y-106367527D01*
X174581421Y-106553661D01*
X174850934Y-106655461D01*
X175842395Y-105664000D01*
X176201605Y-105664000D01*
X177193066Y-106655461D01*
X177462579Y-106553661D01*
X177608463Y-106255523D01*
X177693380Y-105934654D01*
X177714066Y-105603383D01*
X177669728Y-105274443D01*
X177562069Y-104960473D01*
X177462579Y-104774339D01*
X177193066Y-104672539D01*
X176201605Y-105664000D01*
X175842395Y-105664000D01*
X174850934Y-104672539D01*
X174581421Y-104774339D01*
X174435537Y-105072477D01*
X174350620Y-105393346D01*
X174329934Y-105724617D01*
X161242072Y-105724617D01*
X161242072Y-104959999D01*
X161225008Y-104786745D01*
X161174472Y-104620149D01*
X161106474Y-104492934D01*
X175030539Y-104492934D01*
X176022000Y-105484395D01*
X177013461Y-104492934D01*
X176911661Y-104223421D01*
X176613523Y-104077537D01*
X176292654Y-103992620D01*
X175961383Y-103971934D01*
X175632443Y-104016272D01*
X175318473Y-104123931D01*
X175132339Y-104223421D01*
X175030539Y-104492934D01*
X161106474Y-104492934D01*
X161092405Y-104466613D01*
X160981962Y-104332038D01*
X160847387Y-104221595D01*
X160814000Y-104203749D01*
X160814000Y-104181801D01*
X160831911Y-104138560D01*
X160864000Y-103977240D01*
X160864000Y-103812760D01*
X160831911Y-103651440D01*
X160768967Y-103499479D01*
X160677587Y-103362719D01*
X160561281Y-103246413D01*
X160424521Y-103155033D01*
X160272560Y-103092089D01*
X160111240Y-103060000D01*
X159946760Y-103060000D01*
X159785440Y-103092089D01*
X159633479Y-103155033D01*
X159496719Y-103246413D01*
X159380413Y-103362719D01*
X159289033Y-103499479D01*
X159226089Y-103651440D01*
X159194000Y-103812760D01*
X159194000Y-103977240D01*
X159226089Y-104138560D01*
X159244001Y-104181803D01*
X159244001Y-104203749D01*
X159210613Y-104221595D01*
X159076038Y-104332038D01*
X159070658Y-104338594D01*
X159005185Y-104258815D01*
X158908494Y-104179463D01*
X158798180Y-104120498D01*
X158678482Y-104084188D01*
X158554000Y-104071928D01*
X158264750Y-104075000D01*
X158106000Y-104233750D01*
X157852000Y-104233750D01*
X157693250Y-104075000D01*
X157404000Y-104071928D01*
X157279518Y-104084188D01*
X157159820Y-104120498D01*
X157049506Y-104179463D01*
X156952815Y-104258815D01*
X156873463Y-104355506D01*
X156814498Y-104465820D01*
X156778188Y-104585518D01*
X156765928Y-104710000D01*
X156342916Y-104710000D01*
X156357640Y-104620822D01*
X156351943Y-104446823D01*
X156312411Y-104277278D01*
X156240562Y-104118704D01*
X156139157Y-103977193D01*
X156012093Y-103858185D01*
X155870155Y-103769922D01*
X155876074Y-103740166D01*
X155876074Y-103575686D01*
X155843985Y-103414366D01*
X155781041Y-103262405D01*
X155689661Y-103125645D01*
X155573355Y-103009339D01*
X155436595Y-102917959D01*
X155284634Y-102855015D01*
X155123314Y-102822926D01*
X154958834Y-102822926D01*
X154797514Y-102855015D01*
X154645553Y-102917959D01*
X154508793Y-103009339D01*
X154392487Y-103125645D01*
X154301107Y-103262405D01*
X154243024Y-103402631D01*
X154185941Y-103349166D01*
X154079719Y-103283113D01*
X153962652Y-103239053D01*
X153682463Y-103167157D01*
X153488034Y-103279410D01*
X153216469Y-104292907D01*
X153235788Y-104298083D01*
X153170047Y-104543429D01*
X153150729Y-104538253D01*
X152879163Y-105551750D01*
X152519952Y-105551750D01*
X152633818Y-105486010D01*
X152905383Y-104472513D01*
X152012626Y-104233299D01*
X151818198Y-104345552D01*
X151708015Y-104744892D01*
X151687639Y-104868305D01*
X113202536Y-104868305D01*
X113230000Y-104730240D01*
X113230000Y-104565760D01*
X113197911Y-104404440D01*
X113134967Y-104252479D01*
X113043587Y-104115719D01*
X112927281Y-103999413D01*
X112790521Y-103908033D01*
X112638560Y-103845089D01*
X112477240Y-103813000D01*
X112312760Y-103813000D01*
X112151440Y-103845089D01*
X112108199Y-103863000D01*
X109957056Y-103863000D01*
X109918500Y-103859203D01*
X109879944Y-103863000D01*
X109879939Y-103863000D01*
X109839526Y-103866980D01*
X109764613Y-103874358D01*
X109653604Y-103908033D01*
X109616640Y-103919246D01*
X109480267Y-103992138D01*
X109360736Y-104090236D01*
X109336153Y-104120190D01*
X107343722Y-106112621D01*
X107300479Y-106130533D01*
X107163719Y-106221913D01*
X107047413Y-106338219D01*
X106956033Y-106474979D01*
X106893089Y-106626940D01*
X106861000Y-106788260D01*
X104823930Y-106788260D01*
X104748782Y-106410468D01*
X104557688Y-105949127D01*
X104280263Y-105533932D01*
X103927168Y-105180837D01*
X103511973Y-104903412D01*
X103050632Y-104712318D01*
X102560876Y-104614900D01*
X102061524Y-104614900D01*
X101571768Y-104712318D01*
X101110427Y-104903412D01*
X100695232Y-105180837D01*
X100342137Y-105533932D01*
X100064712Y-105949127D01*
X99873618Y-106410468D01*
X99776200Y-106900224D01*
X96985149Y-106900224D01*
X96985149Y-102881385D01*
X145701612Y-102881385D01*
X145719292Y-103005213D01*
X145760788Y-103123213D01*
X145824508Y-103230850D01*
X145908002Y-103323988D01*
X146008063Y-103399048D01*
X146120844Y-103453144D01*
X146393701Y-103549186D01*
X146410872Y-103541179D01*
X146835855Y-103541179D01*
X146930735Y-103744651D01*
X147201491Y-103846467D01*
X147322659Y-103877522D01*
X147447557Y-103884341D01*
X147571385Y-103866661D01*
X147689385Y-103825165D01*
X147778195Y-103772590D01*
X147781009Y-103780592D01*
X147869695Y-103930402D01*
X147985903Y-104060031D01*
X148125167Y-104164499D01*
X148282137Y-104239791D01*
X148892939Y-104462105D01*
X149061582Y-104505326D01*
X149235415Y-104514817D01*
X149407760Y-104490211D01*
X149571993Y-104432456D01*
X149721803Y-104343770D01*
X149851432Y-104227562D01*
X149955900Y-104088298D01*
X150031191Y-103931328D01*
X150081346Y-103793526D01*
X151966113Y-103793526D01*
X152078366Y-103987954D01*
X152971123Y-104227167D01*
X153242689Y-103213670D01*
X153130436Y-103019241D01*
X152851837Y-102941411D01*
X152728424Y-102921035D01*
X152603407Y-102925127D01*
X152481590Y-102953532D01*
X152367656Y-103005154D01*
X152265982Y-103078013D01*
X152180475Y-103169307D01*
X152114422Y-103275529D01*
X152070362Y-103392596D01*
X151966113Y-103793526D01*
X150081346Y-103793526D01*
X150339009Y-103085602D01*
X150382230Y-102916962D01*
X150391721Y-102743128D01*
X150384553Y-102692919D01*
X150503281Y-102613587D01*
X150619587Y-102497281D01*
X150710967Y-102360521D01*
X150773911Y-102208560D01*
X150806000Y-102047240D01*
X150806000Y-101882760D01*
X150773911Y-101721440D01*
X150710967Y-101569479D01*
X150619587Y-101432719D01*
X150503281Y-101316413D01*
X150366521Y-101225033D01*
X150214560Y-101162089D01*
X150053240Y-101130000D01*
X149888760Y-101130000D01*
X149727440Y-101162089D01*
X149575479Y-101225033D01*
X149438719Y-101316413D01*
X149322413Y-101432719D01*
X149231033Y-101569479D01*
X149213122Y-101612720D01*
X149120517Y-101705325D01*
X149028788Y-101681816D01*
X148854955Y-101672325D01*
X148682610Y-101696931D01*
X148518377Y-101754686D01*
X148511080Y-101759006D01*
X148476842Y-101661645D01*
X148413122Y-101554008D01*
X148329628Y-101460870D01*
X148229567Y-101385810D01*
X148116786Y-101331714D01*
X147843929Y-101235672D01*
X147640457Y-101330552D01*
X147281593Y-102316525D01*
X147300386Y-102323365D01*
X147213513Y-102562048D01*
X147194719Y-102555207D01*
X146835855Y-103541179D01*
X146410872Y-103541179D01*
X146597173Y-103454306D01*
X146956037Y-102468333D01*
X146087527Y-102152221D01*
X145884055Y-102247102D01*
X145739486Y-102635319D01*
X145708431Y-102756487D01*
X145701612Y-102881385D01*
X96985149Y-102881385D01*
X96985149Y-100391662D01*
X140366184Y-100391662D01*
X140424291Y-100608519D01*
X140673253Y-100755804D01*
X140787187Y-100807428D01*
X140909004Y-100835831D01*
X141034021Y-100839923D01*
X141157434Y-100819548D01*
X141254023Y-100783194D01*
X141255405Y-100791562D01*
X141316730Y-100954496D01*
X141408662Y-101102336D01*
X141527670Y-101229399D01*
X141669181Y-101330804D01*
X142232100Y-101655805D01*
X142390674Y-101727654D01*
X142560219Y-101767186D01*
X142734218Y-101772883D01*
X142905985Y-101744524D01*
X142997535Y-101710067D01*
X146079519Y-101710067D01*
X146174400Y-101913539D01*
X147042911Y-102229651D01*
X147401775Y-101243679D01*
X147306895Y-101040207D01*
X147036139Y-100938391D01*
X146914971Y-100907336D01*
X146790073Y-100900517D01*
X146666245Y-100918197D01*
X146548245Y-100959693D01*
X146440608Y-101023413D01*
X146347470Y-101106907D01*
X146272410Y-101206967D01*
X146218314Y-101319749D01*
X146079519Y-101710067D01*
X142997535Y-101710067D01*
X143068919Y-101683200D01*
X143216759Y-101591267D01*
X143343822Y-101472259D01*
X143445227Y-101330748D01*
X143895228Y-100551323D01*
X143967077Y-100392749D01*
X144006609Y-100223204D01*
X144009817Y-100125227D01*
X144031587Y-100103457D01*
X144122967Y-99966697D01*
X144185911Y-99814736D01*
X144218000Y-99653416D01*
X144218000Y-99488936D01*
X144185911Y-99327616D01*
X144122967Y-99175655D01*
X144031587Y-99038895D01*
X143915281Y-98922589D01*
X143778521Y-98831209D01*
X143626560Y-98768265D01*
X143465240Y-98736176D01*
X143300760Y-98736176D01*
X143139440Y-98768265D01*
X142987479Y-98831209D01*
X142850719Y-98922589D01*
X142835123Y-98938185D01*
X142679133Y-98901814D01*
X142505134Y-98896117D01*
X142333367Y-98924476D01*
X142325430Y-98927463D01*
X142308619Y-98825637D01*
X142264558Y-98708571D01*
X142198506Y-98602349D01*
X142112999Y-98511054D01*
X142011325Y-98438196D01*
X141759291Y-98296231D01*
X141542434Y-98354338D01*
X141017809Y-99263015D01*
X141035130Y-99273015D01*
X140908130Y-99492985D01*
X140890809Y-99482985D01*
X140366184Y-100391662D01*
X96985149Y-100391662D01*
X96985149Y-99669950D01*
X139359654Y-99669950D01*
X139380029Y-99793363D01*
X139424090Y-99910429D01*
X139490142Y-100016651D01*
X139575649Y-100107946D01*
X139677323Y-100180804D01*
X139929357Y-100322769D01*
X140146214Y-100264662D01*
X140670839Y-99355985D01*
X139870415Y-98893860D01*
X139653558Y-98951967D01*
X139443773Y-99309182D01*
X139392149Y-99423116D01*
X139363746Y-99544933D01*
X139359654Y-99669950D01*
X96985149Y-99669950D01*
X96985149Y-96968456D01*
X134860732Y-96968456D01*
X134899717Y-97189551D01*
X135134895Y-97357975D01*
X135243897Y-97419332D01*
X135362774Y-97458245D01*
X135486959Y-97473217D01*
X135611678Y-97463675D01*
X135711070Y-97435877D01*
X135711717Y-97444333D01*
X135758607Y-97611992D01*
X135837304Y-97767282D01*
X135944785Y-97904234D01*
X136076919Y-98017587D01*
X136609369Y-98390413D01*
X136761078Y-98475809D01*
X136926532Y-98529968D01*
X137099373Y-98550808D01*
X137272958Y-98537527D01*
X137440616Y-98490637D01*
X137506925Y-98457033D01*
X139939308Y-98457033D01*
X139997415Y-98673890D01*
X140797839Y-99136015D01*
X141322464Y-98227338D01*
X141264357Y-98010481D01*
X141015395Y-97863196D01*
X140901461Y-97811572D01*
X140779644Y-97783169D01*
X140654627Y-97779077D01*
X140531214Y-97799452D01*
X140414148Y-97843513D01*
X140307926Y-97909565D01*
X140216631Y-97995072D01*
X140143773Y-98096746D01*
X139939308Y-98457033D01*
X137506925Y-98457033D01*
X137595906Y-98411940D01*
X137732858Y-98304459D01*
X137846211Y-98172325D01*
X138064329Y-97860821D01*
X138143944Y-97836670D01*
X138280317Y-97763778D01*
X138399848Y-97665680D01*
X138424431Y-97635726D01*
X138782278Y-97277879D01*
X138825521Y-97259967D01*
X138962281Y-97168587D01*
X139078587Y-97052281D01*
X139169967Y-96915521D01*
X139232911Y-96763560D01*
X139265000Y-96602240D01*
X139265000Y-96437760D01*
X139232911Y-96276440D01*
X139169967Y-96124479D01*
X139078587Y-95987719D01*
X138962281Y-95871413D01*
X138825521Y-95780033D01*
X138673560Y-95717089D01*
X138512240Y-95685000D01*
X138347760Y-95685000D01*
X138186440Y-95717089D01*
X138034479Y-95780033D01*
X137897719Y-95871413D01*
X137807057Y-95962075D01*
X137611893Y-95825419D01*
X137460184Y-95740023D01*
X137294730Y-95685864D01*
X137121889Y-95665024D01*
X136948304Y-95678305D01*
X136940136Y-95680589D01*
X136932263Y-95577684D01*
X136898573Y-95457223D01*
X136842030Y-95345648D01*
X136764806Y-95247249D01*
X136669868Y-95165806D01*
X136431166Y-95002415D01*
X136210071Y-95041401D01*
X135608246Y-95900896D01*
X135624629Y-95912367D01*
X135478940Y-96120433D01*
X135462557Y-96108961D01*
X134860732Y-96968456D01*
X96985149Y-96968456D01*
X96985149Y-96161765D01*
X133920933Y-96161765D01*
X133930475Y-96286484D01*
X133964165Y-96406945D01*
X134020708Y-96518520D01*
X134097932Y-96616919D01*
X134192870Y-96698362D01*
X134431572Y-96861753D01*
X134652667Y-96822767D01*
X135254492Y-95963272D01*
X134497391Y-95433144D01*
X134276296Y-95472129D01*
X134036175Y-95809701D01*
X133974818Y-95918703D01*
X133935905Y-96037580D01*
X133920933Y-96161765D01*
X96985149Y-96161765D01*
X96985149Y-95003984D01*
X134604094Y-95003984D01*
X134643080Y-95225079D01*
X135400181Y-95755207D01*
X136002006Y-94895712D01*
X135963021Y-94674617D01*
X135727843Y-94506193D01*
X135618841Y-94444836D01*
X135499964Y-94405923D01*
X135375779Y-94390951D01*
X135251060Y-94400493D01*
X135130599Y-94434183D01*
X135019024Y-94490726D01*
X134920625Y-94567950D01*
X134839182Y-94662888D01*
X134604094Y-95003984D01*
X96985149Y-95003984D01*
X96985149Y-88690760D01*
X122355000Y-88690760D01*
X122355000Y-88855240D01*
X122387089Y-89016560D01*
X122405000Y-89059802D01*
X122405001Y-89883197D01*
X122387089Y-89926440D01*
X122355000Y-90087760D01*
X122355000Y-90252240D01*
X122387089Y-90413560D01*
X122450033Y-90565521D01*
X122541413Y-90702281D01*
X122657719Y-90818587D01*
X122794479Y-90909967D01*
X122946440Y-90972911D01*
X123107760Y-91005000D01*
X123272240Y-91005000D01*
X123433560Y-90972911D01*
X123585521Y-90909967D01*
X123722281Y-90818587D01*
X123838587Y-90702281D01*
X123929967Y-90565521D01*
X123992911Y-90413560D01*
X124025000Y-90252240D01*
X124025000Y-90087760D01*
X123992911Y-89926440D01*
X123975000Y-89883199D01*
X123975000Y-89059801D01*
X123992911Y-89016560D01*
X124014424Y-88908408D01*
X147424000Y-88908408D01*
X147424000Y-89183592D01*
X147477686Y-89453490D01*
X147582995Y-89707727D01*
X147735880Y-89936535D01*
X147930465Y-90131120D01*
X148159273Y-90284005D01*
X148413510Y-90389314D01*
X148683408Y-90443000D01*
X148958592Y-90443000D01*
X149228490Y-90389314D01*
X149482727Y-90284005D01*
X149711535Y-90131120D01*
X149906120Y-89936535D01*
X150059005Y-89707727D01*
X150071000Y-89678769D01*
X150082995Y-89707727D01*
X150235880Y-89936535D01*
X150430465Y-90131120D01*
X150659273Y-90284005D01*
X150913510Y-90389314D01*
X151183408Y-90443000D01*
X151458592Y-90443000D01*
X151728490Y-90389314D01*
X151982727Y-90284005D01*
X152211535Y-90131120D01*
X152406120Y-89936535D01*
X152559005Y-89707727D01*
X152571000Y-89678769D01*
X152582995Y-89707727D01*
X152735880Y-89936535D01*
X152930465Y-90131120D01*
X153159273Y-90284005D01*
X153413510Y-90389314D01*
X153683408Y-90443000D01*
X153958592Y-90443000D01*
X154228490Y-90389314D01*
X154482727Y-90284005D01*
X154711535Y-90131120D01*
X154906120Y-89936535D01*
X155059005Y-89707727D01*
X155164314Y-89453490D01*
X155218000Y-89183592D01*
X155218000Y-88908408D01*
X155164314Y-88638510D01*
X155059005Y-88384273D01*
X154906120Y-88155465D01*
X154711535Y-87960880D01*
X154482727Y-87807995D01*
X154228490Y-87702686D01*
X153958592Y-87649000D01*
X153683408Y-87649000D01*
X153413510Y-87702686D01*
X153159273Y-87807995D01*
X152930465Y-87960880D01*
X152735880Y-88155465D01*
X152582995Y-88384273D01*
X152571000Y-88413231D01*
X152559005Y-88384273D01*
X152406120Y-88155465D01*
X152211535Y-87960880D01*
X151982727Y-87807995D01*
X151728490Y-87702686D01*
X151458592Y-87649000D01*
X151183408Y-87649000D01*
X150913510Y-87702686D01*
X150659273Y-87807995D01*
X150430465Y-87960880D01*
X150235880Y-88155465D01*
X150082995Y-88384273D01*
X150071000Y-88413231D01*
X150059005Y-88384273D01*
X149906120Y-88155465D01*
X149711535Y-87960880D01*
X149482727Y-87807995D01*
X149228490Y-87702686D01*
X148958592Y-87649000D01*
X148683408Y-87649000D01*
X148413510Y-87702686D01*
X148159273Y-87807995D01*
X147930465Y-87960880D01*
X147735880Y-88155465D01*
X147582995Y-88384273D01*
X147477686Y-88638510D01*
X147424000Y-88908408D01*
X124014424Y-88908408D01*
X124025000Y-88855240D01*
X124025000Y-88690760D01*
X123992911Y-88529440D01*
X123929967Y-88377479D01*
X123838587Y-88240719D01*
X123722281Y-88124413D01*
X123585521Y-88033033D01*
X123433560Y-87970089D01*
X123272240Y-87938000D01*
X123107760Y-87938000D01*
X122946440Y-87970089D01*
X122794479Y-88033033D01*
X122657719Y-88124413D01*
X122541413Y-88240719D01*
X122450033Y-88377479D01*
X122387089Y-88529440D01*
X122355000Y-88690760D01*
X96985149Y-88690760D01*
X96985149Y-84709938D01*
X96986679Y-84586524D01*
X96991103Y-84467621D01*
X96998446Y-84349184D01*
X97008690Y-84231235D01*
X97021820Y-84113737D01*
X97037808Y-83996820D01*
X97056640Y-83880484D01*
X97078290Y-83764810D01*
X97102741Y-83649837D01*
X97129970Y-83535616D01*
X97159971Y-83422148D01*
X97163965Y-83408408D01*
X147424000Y-83408408D01*
X147424000Y-83683592D01*
X147477686Y-83953490D01*
X147582995Y-84207727D01*
X147735880Y-84436535D01*
X147930465Y-84631120D01*
X148159273Y-84784005D01*
X148413510Y-84889314D01*
X148683408Y-84943000D01*
X148958592Y-84943000D01*
X149228490Y-84889314D01*
X149482727Y-84784005D01*
X149711535Y-84631120D01*
X149906120Y-84436535D01*
X150059005Y-84207727D01*
X150071000Y-84178769D01*
X150082995Y-84207727D01*
X150235880Y-84436535D01*
X150430465Y-84631120D01*
X150659273Y-84784005D01*
X150913510Y-84889314D01*
X151183408Y-84943000D01*
X151458592Y-84943000D01*
X151728490Y-84889314D01*
X151982727Y-84784005D01*
X152211535Y-84631120D01*
X152406120Y-84436535D01*
X152559005Y-84207727D01*
X152571000Y-84178769D01*
X152582995Y-84207727D01*
X152735880Y-84436535D01*
X152930465Y-84631120D01*
X153159273Y-84784005D01*
X153413510Y-84889314D01*
X153683408Y-84943000D01*
X153958592Y-84943000D01*
X154228490Y-84889314D01*
X154482727Y-84784005D01*
X154711535Y-84631120D01*
X154728655Y-84614000D01*
X174333928Y-84614000D01*
X174333928Y-86714000D01*
X174346188Y-86838482D01*
X174382498Y-86958180D01*
X174441463Y-87068494D01*
X174520815Y-87165185D01*
X174617506Y-87244537D01*
X174727820Y-87303502D01*
X174847518Y-87339812D01*
X174972000Y-87352072D01*
X177072000Y-87352072D01*
X177196482Y-87339812D01*
X177316180Y-87303502D01*
X177426494Y-87244537D01*
X177523185Y-87165185D01*
X177602537Y-87068494D01*
X177661502Y-86958180D01*
X177697812Y-86838482D01*
X177710072Y-86714000D01*
X177710072Y-84614000D01*
X177697812Y-84489518D01*
X177661502Y-84369820D01*
X177602537Y-84259506D01*
X177523185Y-84162815D01*
X177426494Y-84083463D01*
X177316180Y-84024498D01*
X177196482Y-83988188D01*
X177072000Y-83975928D01*
X174972000Y-83975928D01*
X174847518Y-83988188D01*
X174727820Y-84024498D01*
X174617506Y-84083463D01*
X174520815Y-84162815D01*
X174441463Y-84259506D01*
X174382498Y-84369820D01*
X174346188Y-84489518D01*
X174333928Y-84614000D01*
X154728655Y-84614000D01*
X154906120Y-84436535D01*
X155059005Y-84207727D01*
X155164314Y-83953490D01*
X155218000Y-83683592D01*
X155218000Y-83408408D01*
X155164314Y-83138510D01*
X155059005Y-82884273D01*
X154906120Y-82655465D01*
X154711535Y-82460880D01*
X154482727Y-82307995D01*
X154228490Y-82202686D01*
X153958592Y-82149000D01*
X153683408Y-82149000D01*
X153413510Y-82202686D01*
X153159273Y-82307995D01*
X152930465Y-82460880D01*
X152735880Y-82655465D01*
X152582995Y-82884273D01*
X152571000Y-82913231D01*
X152559005Y-82884273D01*
X152406120Y-82655465D01*
X152211535Y-82460880D01*
X151982727Y-82307995D01*
X151728490Y-82202686D01*
X151458592Y-82149000D01*
X151183408Y-82149000D01*
X150913510Y-82202686D01*
X150659273Y-82307995D01*
X150430465Y-82460880D01*
X150235880Y-82655465D01*
X150082995Y-82884273D01*
X150071000Y-82913231D01*
X150059005Y-82884273D01*
X149906120Y-82655465D01*
X149711535Y-82460880D01*
X149482727Y-82307995D01*
X149228490Y-82202686D01*
X148958592Y-82149000D01*
X148683408Y-82149000D01*
X148413510Y-82202686D01*
X148159273Y-82307995D01*
X147930465Y-82460880D01*
X147735880Y-82655465D01*
X147582995Y-82884273D01*
X147477686Y-83138510D01*
X147424000Y-83408408D01*
X97163965Y-83408408D01*
X97192693Y-83309588D01*
X97228153Y-83197864D01*
X97266302Y-83087117D01*
X97307123Y-82977376D01*
X97350615Y-82868644D01*
X97396752Y-82760992D01*
X97445486Y-82654526D01*
X97496823Y-82549240D01*
X97550733Y-82445198D01*
X97607211Y-82342423D01*
X97666213Y-82241006D01*
X97727732Y-82140976D01*
X97791750Y-82042375D01*
X97858215Y-81945301D01*
X97927162Y-81849721D01*
X97998545Y-81755721D01*
X98072327Y-81663376D01*
X98148497Y-81572718D01*
X98227058Y-81483770D01*
X98307977Y-81396598D01*
X98391240Y-81311244D01*
X98476572Y-81228002D01*
X98563763Y-81147065D01*
X98652709Y-81068505D01*
X98743392Y-80992316D01*
X98835709Y-80918557D01*
X98929708Y-80847174D01*
X99025294Y-80778221D01*
X99122368Y-80711757D01*
X99220969Y-80647739D01*
X99320999Y-80586220D01*
X99422416Y-80527218D01*
X99525191Y-80470740D01*
X99629233Y-80416830D01*
X99734532Y-80365488D01*
X99841030Y-80316740D01*
X99948623Y-80270628D01*
X100057370Y-80227130D01*
X100167110Y-80186309D01*
X100277868Y-80148156D01*
X100389570Y-80112703D01*
X100502151Y-80079975D01*
X100615608Y-80049977D01*
X100729830Y-80022747D01*
X100844795Y-79998299D01*
X100960490Y-79976645D01*
X101076812Y-79957815D01*
X101193735Y-79941826D01*
X101311235Y-79928696D01*
X101429177Y-79918453D01*
X101547614Y-79911110D01*
X101666518Y-79906686D01*
X101789931Y-79905156D01*
X185600902Y-79905156D01*
X185724315Y-79906686D01*
G37*
%TD.AperFunction*%
%TD*%
M02*
