%TF.GenerationSoftware,KiCad,Pcbnew,5.1.8-1.fc33*%
%TF.CreationDate,2020-11-22T11:34:43-03:00*%
%TF.ProjectId,badge_natal,62616467-655f-46e6-9174-616c2e6b6963,rev?*%
%TF.SameCoordinates,Original*%
%TF.FileFunction,Paste,Top*%
%TF.FilePolarity,Positive*%
%FSLAX46Y46*%
G04 Gerber Fmt 4.6, Leading zero omitted, Abs format (unit mm)*
G04 Created by KiCad (PCBNEW 5.1.8-1.fc33) date 2020-11-22 11:34:43*
%MOMM*%
%LPD*%
G01*
G04 APERTURE LIST*
G04 APERTURE END LIST*
%TO.C,D15*%
G36*
G01*
X159454000Y-105860001D02*
X159454000Y-104959999D01*
G75*
G02*
X159703999Y-104710000I249999J0D01*
G01*
X160354001Y-104710000D01*
G75*
G02*
X160604000Y-104959999I0J-249999D01*
G01*
X160604000Y-105860001D01*
G75*
G02*
X160354001Y-106110000I-249999J0D01*
G01*
X159703999Y-106110000D01*
G75*
G02*
X159454000Y-105860001I0J249999D01*
G01*
G37*
G36*
G01*
X157404000Y-105860001D02*
X157404000Y-104959999D01*
G75*
G02*
X157653999Y-104710000I249999J0D01*
G01*
X158304001Y-104710000D01*
G75*
G02*
X158554000Y-104959999I0J-249999D01*
G01*
X158554000Y-105860001D01*
G75*
G02*
X158304001Y-106110000I-249999J0D01*
G01*
X157653999Y-106110000D01*
G75*
G02*
X157404000Y-105860001I0J249999D01*
G01*
G37*
%TD*%
%TO.C,D14*%
G36*
G01*
X154369198Y-105199136D02*
X154602136Y-104329801D01*
G75*
G02*
X154908321Y-104153026I241480J-64705D01*
G01*
X155536175Y-104321259D01*
G75*
G02*
X155712950Y-104627444I-64705J-241480D01*
G01*
X155480012Y-105496779D01*
G75*
G02*
X155173827Y-105673554I-241480J64705D01*
G01*
X154545973Y-105505321D01*
G75*
G02*
X154369198Y-105199136I64705J241480D01*
G01*
G37*
G36*
G01*
X152389050Y-104668556D02*
X152621988Y-103799221D01*
G75*
G02*
X152928173Y-103622446I241480J-64705D01*
G01*
X153556027Y-103790679D01*
G75*
G02*
X153732802Y-104096864I-64705J-241480D01*
G01*
X153499864Y-104966199D01*
G75*
G02*
X153193679Y-105142974I-241480J64705D01*
G01*
X152565825Y-104974741D01*
G75*
G02*
X152389050Y-104668556I64705J241480D01*
G01*
G37*
%TD*%
%TO.C,D13*%
G36*
G01*
X148350953Y-103319772D02*
X148658771Y-102474046D01*
G75*
G02*
X148979198Y-102324629I234922J-85505D01*
G01*
X149590000Y-102546943D01*
G75*
G02*
X149739417Y-102867370I-85505J-234922D01*
G01*
X149431599Y-103713096D01*
G75*
G02*
X149111172Y-103862513I-234922J85505D01*
G01*
X148500370Y-103640199D01*
G75*
G02*
X148350953Y-103319772I85505J234922D01*
G01*
G37*
G36*
G01*
X146424583Y-102618630D02*
X146732401Y-101772904D01*
G75*
G02*
X147052828Y-101623487I234922J-85505D01*
G01*
X147663630Y-101845801D01*
G75*
G02*
X147813047Y-102166228I-85505J-234922D01*
G01*
X147505229Y-103011954D01*
G75*
G02*
X147184802Y-103161371I-234922J85505D01*
G01*
X146574000Y-102939057D01*
G75*
G02*
X146424583Y-102618630I85505J234922D01*
G01*
G37*
%TD*%
%TO.C,D12*%
G36*
G01*
X141896711Y-100436713D02*
X142346712Y-99657288D01*
G75*
G02*
X142688217Y-99565782I216505J-124999D01*
G01*
X143251136Y-99890783D01*
G75*
G02*
X143342641Y-100232287I-125000J-216505D01*
G01*
X142892640Y-101011712D01*
G75*
G02*
X142551135Y-101103218I-216505J124999D01*
G01*
X141988216Y-100778217D01*
G75*
G02*
X141896711Y-100436713I125000J216505D01*
G01*
G37*
G36*
G01*
X140121359Y-99411713D02*
X140571360Y-98632288D01*
G75*
G02*
X140912865Y-98540782I216505J-124999D01*
G01*
X141475784Y-98865783D01*
G75*
G02*
X141567289Y-99207287I-125000J-216505D01*
G01*
X141117288Y-99986712D01*
G75*
G02*
X140775783Y-100078218I-216505J124999D01*
G01*
X140212864Y-99753217D01*
G75*
G02*
X140121359Y-99411713I125000J216505D01*
G01*
G37*
%TD*%
%TO.C,D11*%
G36*
G01*
X136381509Y-97146728D02*
X136897729Y-96409490D01*
G75*
G02*
X137245910Y-96348097I204787J-143394D01*
G01*
X137778360Y-96720923D01*
G75*
G02*
X137839753Y-97069104I-143394J-204787D01*
G01*
X137323533Y-97806342D01*
G75*
G02*
X136975352Y-97867735I-204787J143394D01*
G01*
X136442902Y-97494909D01*
G75*
G02*
X136381509Y-97146728I143394J204787D01*
G01*
G37*
G36*
G01*
X134702247Y-95970896D02*
X135218467Y-95233658D01*
G75*
G02*
X135566648Y-95172265I204787J-143394D01*
G01*
X136099098Y-95545091D01*
G75*
G02*
X136160491Y-95893272I-143394J-204787D01*
G01*
X135644271Y-96630510D01*
G75*
G02*
X135296090Y-96691903I-204787J143394D01*
G01*
X134763640Y-96319077D01*
G75*
G02*
X134702247Y-95970896I143394J204787D01*
G01*
G37*
%TD*%
%TO.C,D10*%
G36*
G01*
X146317306Y-108854978D02*
X145430977Y-108698695D01*
G75*
G02*
X145228188Y-108409082I43412J246201D01*
G01*
X145341059Y-107768955D01*
G75*
G02*
X145630672Y-107566166I246201J-43412D01*
G01*
X146517001Y-107722449D01*
G75*
G02*
X146719790Y-108012062I-43412J-246201D01*
G01*
X146606919Y-108652189D01*
G75*
G02*
X146317306Y-108854978I-246201J43412D01*
G01*
G37*
G36*
G01*
X145961328Y-110873834D02*
X145074999Y-110717551D01*
G75*
G02*
X144872210Y-110427938I43412J246201D01*
G01*
X144985081Y-109787811D01*
G75*
G02*
X145274694Y-109585022I246201J-43412D01*
G01*
X146161023Y-109741305D01*
G75*
G02*
X146363812Y-110030918I-43412J-246201D01*
G01*
X146250941Y-110671045D01*
G75*
G02*
X145961328Y-110873834I-246201J43412D01*
G01*
G37*
%TD*%
%TO.C,D9*%
G36*
G01*
X151706771Y-120918954D02*
X151398953Y-120073228D01*
G75*
G02*
X151548370Y-119752801I234922J85505D01*
G01*
X152159172Y-119530487D01*
G75*
G02*
X152479599Y-119679904I85505J-234922D01*
G01*
X152787417Y-120525630D01*
G75*
G02*
X152638000Y-120846057I-234922J-85505D01*
G01*
X152027198Y-121068371D01*
G75*
G02*
X151706771Y-120918954I-85505J234922D01*
G01*
G37*
G36*
G01*
X149780401Y-121620096D02*
X149472583Y-120774370D01*
G75*
G02*
X149622000Y-120453943I234922J85505D01*
G01*
X150232802Y-120231629D01*
G75*
G02*
X150553229Y-120381046I85505J-234922D01*
G01*
X150861047Y-121226772D01*
G75*
G02*
X150711630Y-121547199I-234922J-85505D01*
G01*
X150100828Y-121769513D01*
G75*
G02*
X149780401Y-121620096I-85505J234922D01*
G01*
G37*
%TD*%
%TO.C,D8*%
G36*
G01*
X143000976Y-114101466D02*
X142422466Y-113412025D01*
G75*
G02*
X142453280Y-113059819I191510J160696D01*
G01*
X142951210Y-112642006D01*
G75*
G02*
X143303416Y-112672820I160696J-191510D01*
G01*
X143881926Y-113362261D01*
G75*
G02*
X143851112Y-113714467I-191510J-160696D01*
G01*
X143353182Y-114132280D01*
G75*
G02*
X143000976Y-114101466I-160696J191510D01*
G01*
G37*
G36*
G01*
X141430584Y-115419180D02*
X140852074Y-114729739D01*
G75*
G02*
X140882888Y-114377533I191510J160696D01*
G01*
X141380818Y-113959720D01*
G75*
G02*
X141733024Y-113990534I160696J-191510D01*
G01*
X142311534Y-114679975D01*
G75*
G02*
X142280720Y-115032181I-191510J-160696D01*
G01*
X141782790Y-115449994D01*
G75*
G02*
X141430584Y-115419180I-160696J191510D01*
G01*
G37*
%TD*%
%TO.C,D7*%
G36*
G01*
X146357905Y-122853771D02*
X146094769Y-121993095D01*
G75*
G02*
X146260751Y-121680927I239075J73093D01*
G01*
X146882351Y-121490885D01*
G75*
G02*
X147194519Y-121656867I73093J-239075D01*
G01*
X147457655Y-122517543D01*
G75*
G02*
X147291673Y-122829711I-239075J-73093D01*
G01*
X146670073Y-123019753D01*
G75*
G02*
X146357905Y-122853771I-73093J239075D01*
G01*
G37*
G36*
G01*
X144397481Y-123453133D02*
X144134345Y-122592457D01*
G75*
G02*
X144300327Y-122280289I239075J73093D01*
G01*
X144921927Y-122090247D01*
G75*
G02*
X145234095Y-122256229I73093J-239075D01*
G01*
X145497231Y-123116905D01*
G75*
G02*
X145331249Y-123429073I-239075J-73093D01*
G01*
X144709649Y-123619115D01*
G75*
G02*
X144397481Y-123453133I-73093J239075D01*
G01*
G37*
%TD*%
%TO.C,D6*%
G36*
G01*
X134303198Y-116121136D02*
X134536136Y-115251801D01*
G75*
G02*
X134842321Y-115075026I241480J-64705D01*
G01*
X135470175Y-115243259D01*
G75*
G02*
X135646950Y-115549444I-64705J-241480D01*
G01*
X135414012Y-116418779D01*
G75*
G02*
X135107827Y-116595554I-241480J64705D01*
G01*
X134479973Y-116427321D01*
G75*
G02*
X134303198Y-116121136I64705J241480D01*
G01*
G37*
G36*
G01*
X132323050Y-115590556D02*
X132555988Y-114721221D01*
G75*
G02*
X132862173Y-114544446I241480J-64705D01*
G01*
X133490027Y-114712679D01*
G75*
G02*
X133666802Y-115018864I-64705J-241480D01*
G01*
X133433864Y-115888199D01*
G75*
G02*
X133127679Y-116064974I-241480J64705D01*
G01*
X132499825Y-115896741D01*
G75*
G02*
X132323050Y-115590556I64705J241480D01*
G01*
G37*
%TD*%
%TO.C,D5*%
G36*
G01*
X139753905Y-124885771D02*
X139490769Y-124025095D01*
G75*
G02*
X139656751Y-123712927I239075J73093D01*
G01*
X140278351Y-123522885D01*
G75*
G02*
X140590519Y-123688867I73093J-239075D01*
G01*
X140853655Y-124549543D01*
G75*
G02*
X140687673Y-124861711I-239075J-73093D01*
G01*
X140066073Y-125051753D01*
G75*
G02*
X139753905Y-124885771I-73093J239075D01*
G01*
G37*
G36*
G01*
X137793481Y-125485133D02*
X137530345Y-124624457D01*
G75*
G02*
X137696327Y-124312289I239075J73093D01*
G01*
X138317927Y-124122247D01*
G75*
G02*
X138630095Y-124288229I73093J-239075D01*
G01*
X138893231Y-125148905D01*
G75*
G02*
X138727249Y-125461073I-239075J-73093D01*
G01*
X138105649Y-125651115D01*
G75*
G02*
X137793481Y-125485133I-73093J239075D01*
G01*
G37*
%TD*%
%TO.C,D4*%
G36*
G01*
X126545905Y-112566771D02*
X126282769Y-111706095D01*
G75*
G02*
X126448751Y-111393927I239075J73093D01*
G01*
X127070351Y-111203885D01*
G75*
G02*
X127382519Y-111369867I73093J-239075D01*
G01*
X127645655Y-112230543D01*
G75*
G02*
X127479673Y-112542711I-239075J-73093D01*
G01*
X126858073Y-112732753D01*
G75*
G02*
X126545905Y-112566771I-73093J239075D01*
G01*
G37*
G36*
G01*
X124585481Y-113166133D02*
X124322345Y-112305457D01*
G75*
G02*
X124488327Y-111993289I239075J73093D01*
G01*
X125109927Y-111803247D01*
G75*
G02*
X125422095Y-111969229I73093J-239075D01*
G01*
X125685231Y-112829905D01*
G75*
G02*
X125519249Y-113142073I-239075J-73093D01*
G01*
X124897649Y-113332115D01*
G75*
G02*
X124585481Y-113166133I-73093J239075D01*
G01*
G37*
%TD*%
%TO.C,D3*%
G36*
G01*
X133149905Y-126917771D02*
X132886769Y-126057095D01*
G75*
G02*
X133052751Y-125744927I239075J73093D01*
G01*
X133674351Y-125554885D01*
G75*
G02*
X133986519Y-125720867I73093J-239075D01*
G01*
X134249655Y-126581543D01*
G75*
G02*
X134083673Y-126893711I-239075J-73093D01*
G01*
X133462073Y-127083753D01*
G75*
G02*
X133149905Y-126917771I-73093J239075D01*
G01*
G37*
G36*
G01*
X131189481Y-127517133D02*
X130926345Y-126656457D01*
G75*
G02*
X131092327Y-126344289I239075J73093D01*
G01*
X131713927Y-126154247D01*
G75*
G02*
X132026095Y-126320229I73093J-239075D01*
G01*
X132289231Y-127180905D01*
G75*
G02*
X132123249Y-127493073I-239075J-73093D01*
G01*
X131501649Y-127683115D01*
G75*
G02*
X131189481Y-127517133I-73093J239075D01*
G01*
G37*
%TD*%
%TO.C,D2*%
G36*
G01*
X118417905Y-113074771D02*
X118154769Y-112214095D01*
G75*
G02*
X118320751Y-111901927I239075J73093D01*
G01*
X118942351Y-111711885D01*
G75*
G02*
X119254519Y-111877867I73093J-239075D01*
G01*
X119517655Y-112738543D01*
G75*
G02*
X119351673Y-113050711I-239075J-73093D01*
G01*
X118730073Y-113240753D01*
G75*
G02*
X118417905Y-113074771I-73093J239075D01*
G01*
G37*
G36*
G01*
X116457481Y-113674133D02*
X116194345Y-112813457D01*
G75*
G02*
X116360327Y-112501289I239075J73093D01*
G01*
X116981927Y-112311247D01*
G75*
G02*
X117294095Y-112477229I73093J-239075D01*
G01*
X117557231Y-113337905D01*
G75*
G02*
X117391249Y-113650073I-239075J-73093D01*
G01*
X116769649Y-113840115D01*
G75*
G02*
X116457481Y-113674133I-73093J239075D01*
G01*
G37*
%TD*%
%TO.C,D1*%
G36*
G01*
X126037905Y-129330771D02*
X125774769Y-128470095D01*
G75*
G02*
X125940751Y-128157927I239075J73093D01*
G01*
X126562351Y-127967885D01*
G75*
G02*
X126874519Y-128133867I73093J-239075D01*
G01*
X127137655Y-128994543D01*
G75*
G02*
X126971673Y-129306711I-239075J-73093D01*
G01*
X126350073Y-129496753D01*
G75*
G02*
X126037905Y-129330771I-73093J239075D01*
G01*
G37*
G36*
G01*
X124077481Y-129930133D02*
X123814345Y-129069457D01*
G75*
G02*
X123980327Y-128757289I239075J73093D01*
G01*
X124601927Y-128567247D01*
G75*
G02*
X124914095Y-128733229I73093J-239075D01*
G01*
X125177231Y-129593905D01*
G75*
G02*
X125011249Y-129906073I-239075J-73093D01*
G01*
X124389649Y-130096115D01*
G75*
G02*
X124077481Y-129930133I-73093J239075D01*
G01*
G37*
%TD*%
M02*
