%TF.GenerationSoftware,KiCad,Pcbnew,5.1.9-1.fc33*%
%TF.CreationDate,2021-01-27T11:43:12-03:00*%
%TF.ProjectId,santas_sequencer,73616e74-6173-45f7-9365-7175656e6365,rev?*%
%TF.SameCoordinates,Original*%
%TF.FileFunction,Legend,Top*%
%TF.FilePolarity,Positive*%
%FSLAX46Y46*%
G04 Gerber Fmt 4.6, Leading zero omitted, Abs format (unit mm)*
G04 Created by KiCad (PCBNEW 5.1.9-1.fc33) date 2021-01-27 11:43:12*
%MOMM*%
%LPD*%
G01*
G04 APERTURE LIST*
%ADD10C,0.050000*%
%ADD11C,0.120000*%
G04 APERTURE END LIST*
D10*
X104389547Y-125247377D02*
X104367356Y-125149170D01*
X104367356Y-125149170D02*
X104353541Y-125060463D01*
X104353541Y-125060463D02*
X104347552Y-124980881D01*
X104347552Y-124980881D02*
X104348840Y-124910049D01*
X104348840Y-124910049D02*
X104356855Y-124847591D01*
X104356855Y-124847591D02*
X104371046Y-124793133D01*
X104371046Y-124793133D02*
X104390864Y-124746297D01*
X104390864Y-124746297D02*
X104445184Y-124673996D01*
X104445184Y-124673996D02*
X104515415Y-124627686D01*
X104515415Y-124627686D02*
X104597160Y-124604363D01*
X104597160Y-124604363D02*
X104686021Y-124601025D01*
X104686021Y-124601025D02*
X104777599Y-124614670D01*
X104777599Y-124614670D02*
X104867498Y-124642295D01*
X104867498Y-124642295D02*
X104951320Y-124680897D01*
X104951320Y-124680897D02*
X105024665Y-124727473D01*
X105024665Y-124727473D02*
X105083137Y-124779020D01*
X105083137Y-124779020D02*
X105122337Y-124832537D01*
X105122337Y-124832537D02*
X105137868Y-124885021D01*
X105137868Y-124885021D02*
X105125331Y-124933468D01*
X105125331Y-124933468D02*
X105107164Y-124955240D01*
X108848386Y-127658568D02*
X108676986Y-127605427D01*
X108676986Y-127605427D02*
X108526787Y-127546629D01*
X108526787Y-127546629D02*
X108396853Y-127482855D01*
X108396853Y-127482855D02*
X108286247Y-127414785D01*
X108286247Y-127414785D02*
X108194033Y-127343099D01*
X108194033Y-127343099D02*
X108119275Y-127268478D01*
X108119275Y-127268478D02*
X108061038Y-127191602D01*
X108061038Y-127191602D02*
X108018384Y-127113152D01*
X108018384Y-127113152D02*
X107990378Y-127033809D01*
X107990378Y-127033809D02*
X107976084Y-126954252D01*
X107976084Y-126954252D02*
X107974565Y-126875162D01*
X107974565Y-126875162D02*
X107984886Y-126797219D01*
X107984886Y-126797219D02*
X108006110Y-126721104D01*
X108006110Y-126721104D02*
X108037301Y-126647498D01*
X108037301Y-126647498D02*
X108077523Y-126577080D01*
X108077523Y-126577080D02*
X108125840Y-126510532D01*
X108125840Y-126510532D02*
X108181316Y-126448533D01*
X108181316Y-126448533D02*
X108243015Y-126391765D01*
X108243015Y-126391765D02*
X108310000Y-126340907D01*
X108310000Y-126340907D02*
X108381336Y-126296640D01*
X108381336Y-126296640D02*
X108456086Y-126259644D01*
X108456086Y-126259644D02*
X108533314Y-126230601D01*
X108533314Y-126230601D02*
X108612085Y-126210189D01*
X108612085Y-126210189D02*
X108691461Y-126199091D01*
X108691461Y-126199091D02*
X108770508Y-126197985D01*
X108770508Y-126197985D02*
X108848288Y-126207553D01*
X108848288Y-126207553D02*
X108923865Y-126228475D01*
X108923865Y-126228475D02*
X108996305Y-126261432D01*
X108996305Y-126261432D02*
X109064669Y-126307103D01*
X109064669Y-126307103D02*
X109128023Y-126366170D01*
X109128023Y-126366170D02*
X109185430Y-126439313D01*
X109185430Y-126439313D02*
X109235955Y-126527212D01*
X105889648Y-126939535D02*
X105788689Y-126935254D01*
X105788689Y-126935254D02*
X105687826Y-126931288D01*
X105687826Y-126931288D02*
X105587332Y-126927789D01*
X105587332Y-126927789D02*
X105487480Y-126924911D01*
X105487480Y-126924911D02*
X105388541Y-126922806D01*
X105388541Y-126922806D02*
X105290789Y-126921627D01*
X105290789Y-126921627D02*
X105194498Y-126921527D01*
X105194498Y-126921527D02*
X105099938Y-126922659D01*
X105099938Y-126922659D02*
X105007384Y-126925175D01*
X105007384Y-126925175D02*
X104917108Y-126929229D01*
X104917108Y-126929229D02*
X104829383Y-126934973D01*
X104829383Y-126934973D02*
X104744482Y-126942560D01*
X104744482Y-126942560D02*
X104662677Y-126952143D01*
X104662677Y-126952143D02*
X104584242Y-126963875D01*
X104584242Y-126963875D02*
X104509448Y-126977909D01*
X104509448Y-126977909D02*
X104438570Y-126994397D01*
X104438570Y-126994397D02*
X104371879Y-127013492D01*
X104371879Y-127013492D02*
X104309648Y-127035348D01*
X104309648Y-127035348D02*
X104252151Y-127060117D01*
X104252151Y-127060117D02*
X104199659Y-127087952D01*
X104199659Y-127087952D02*
X104152447Y-127119005D01*
X104152447Y-127119005D02*
X104110786Y-127153430D01*
X104110786Y-127153430D02*
X104074950Y-127191379D01*
X104074950Y-127191379D02*
X104045210Y-127233006D01*
X104045210Y-127233006D02*
X104021841Y-127278463D01*
X104021841Y-127278463D02*
X104005114Y-127327903D01*
X104005114Y-127327903D02*
X103995303Y-127381479D01*
X103995303Y-127381479D02*
X103992681Y-127439343D01*
X103992681Y-127439343D02*
X103997519Y-127501649D01*
X103997519Y-127501649D02*
X104010092Y-127568549D01*
X104010092Y-127568549D02*
X104030671Y-127640197D01*
X104030671Y-127640197D02*
X104059530Y-127716745D01*
X106338196Y-127140617D02*
X106138014Y-127239781D01*
X106138014Y-127239781D02*
X105963824Y-127337063D01*
X105963824Y-127337063D02*
X105814435Y-127432244D01*
X105814435Y-127432244D02*
X105688654Y-127525104D01*
X105688654Y-127525104D02*
X105585290Y-127615425D01*
X105585290Y-127615425D02*
X105503152Y-127702988D01*
X105503152Y-127702988D02*
X105441047Y-127787574D01*
X105441047Y-127787574D02*
X105397785Y-127868965D01*
X105397785Y-127868965D02*
X105372173Y-127946942D01*
X105372173Y-127946942D02*
X105363020Y-128021286D01*
X105363020Y-128021286D02*
X105369133Y-128091779D01*
X105369133Y-128091779D02*
X105389323Y-128158200D01*
X105389323Y-128158200D02*
X105422396Y-128220333D01*
X105422396Y-128220333D02*
X105467161Y-128277958D01*
X105467161Y-128277958D02*
X105522426Y-128330855D01*
X105522426Y-128330855D02*
X105587001Y-128378808D01*
X105587001Y-128378808D02*
X105659692Y-128421596D01*
X105659692Y-128421596D02*
X105739309Y-128459000D01*
X105739309Y-128459000D02*
X105824660Y-128490803D01*
X105824660Y-128490803D02*
X105914553Y-128516786D01*
X105914553Y-128516786D02*
X106007796Y-128536729D01*
X106007796Y-128536729D02*
X106103199Y-128550414D01*
X106103199Y-128550414D02*
X106199568Y-128557622D01*
X106199568Y-128557622D02*
X106295713Y-128558134D01*
X106295713Y-128558134D02*
X106390442Y-128551732D01*
X106390442Y-128551732D02*
X106482563Y-128538197D01*
X106482563Y-128538197D02*
X106570885Y-128517309D01*
X106570885Y-128517309D02*
X106654216Y-128488851D01*
X106654216Y-128488851D02*
X106731364Y-128452603D01*
X106731364Y-128452603D02*
X106801137Y-128408347D01*
X106801137Y-128408347D02*
X106862345Y-128355864D01*
X106862345Y-128355864D02*
X106913795Y-128294936D01*
X106913795Y-128294936D02*
X106946438Y-128244728D01*
X106946438Y-128244728D02*
X106973415Y-128194649D01*
X106973415Y-128194649D02*
X106994932Y-128144882D01*
X106994932Y-128144882D02*
X107011196Y-128095606D01*
X107011196Y-128095606D02*
X107028794Y-127999257D01*
X107028794Y-127999257D02*
X107027866Y-127907051D01*
X107027866Y-127907051D02*
X107010066Y-127820438D01*
X107010066Y-127820438D02*
X106977053Y-127740868D01*
X106977053Y-127740868D02*
X106930481Y-127669792D01*
X106930481Y-127669792D02*
X106872008Y-127608659D01*
X106872008Y-127608659D02*
X106803289Y-127558919D01*
X106803289Y-127558919D02*
X106725980Y-127522022D01*
X106725980Y-127522022D02*
X106641739Y-127499419D01*
X106641739Y-127499419D02*
X106552220Y-127492559D01*
X106552220Y-127492559D02*
X106459081Y-127502892D01*
X106459081Y-127502892D02*
X106363977Y-127531868D01*
X106363977Y-127531868D02*
X106316206Y-127553801D01*
X106316206Y-127553801D02*
X106268565Y-127580938D01*
X106268565Y-127580938D02*
X106221261Y-127613461D01*
X106221261Y-127613461D02*
X106174502Y-127651551D01*
X104059530Y-127716745D02*
X104085159Y-127768399D01*
X104085159Y-127768399D02*
X104115642Y-127813501D01*
X104115642Y-127813501D02*
X104150473Y-127852330D01*
X104150473Y-127852330D02*
X104189145Y-127885165D01*
X104189145Y-127885165D02*
X104275980Y-127933970D01*
X104275980Y-127933970D02*
X104372091Y-127962149D01*
X104372091Y-127962149D02*
X104422357Y-127969201D01*
X104422357Y-127969201D02*
X104473420Y-127971934D01*
X104473420Y-127971934D02*
X104524774Y-127970627D01*
X104524774Y-127970627D02*
X104575912Y-127965558D01*
X104575912Y-127965558D02*
X104626325Y-127957007D01*
X104626325Y-127957007D02*
X104675507Y-127945254D01*
X104675507Y-127945254D02*
X104768150Y-127913254D01*
X104768150Y-127913254D02*
X104849783Y-127871791D01*
X104849783Y-127871791D02*
X104916349Y-127823098D01*
X104916349Y-127823098D02*
X104963791Y-127769408D01*
X104963791Y-127769408D02*
X104988051Y-127712953D01*
X104988051Y-127712953D02*
X104985074Y-127655967D01*
X104985074Y-127655967D02*
X104950802Y-127600681D01*
X104950802Y-127600681D02*
X104881177Y-127549328D01*
X104881177Y-127549328D02*
X104831839Y-127525825D01*
X104831839Y-127525825D02*
X104772143Y-127504143D01*
X113375931Y-127187338D02*
X113292579Y-127239007D01*
X113292579Y-127239007D02*
X113172025Y-127291587D01*
X113172025Y-127291587D02*
X113016716Y-127344263D01*
X113016716Y-127344263D02*
X112829097Y-127396219D01*
X112829097Y-127396219D02*
X112611616Y-127446639D01*
X112611616Y-127446639D02*
X112366717Y-127494709D01*
X112366717Y-127494709D02*
X112096847Y-127539611D01*
X112096847Y-127539611D02*
X111804452Y-127580532D01*
X111804452Y-127580532D02*
X111491979Y-127616654D01*
X111491979Y-127616654D02*
X111161873Y-127647163D01*
X111161873Y-127647163D02*
X110816581Y-127671243D01*
X110816581Y-127671243D02*
X110458549Y-127688078D01*
X110458549Y-127688078D02*
X110090223Y-127696852D01*
X110090223Y-127696852D02*
X109714048Y-127696751D01*
X109714048Y-127696751D02*
X109332473Y-127686959D01*
X109332473Y-127686959D02*
X108947941Y-127666659D01*
X108947941Y-127666659D02*
X108562900Y-127635037D01*
X108562900Y-127635037D02*
X108179796Y-127591276D01*
X108179796Y-127591276D02*
X107801075Y-127534561D01*
X107801075Y-127534561D02*
X107429183Y-127464077D01*
X107429183Y-127464077D02*
X107066567Y-127379008D01*
X107066567Y-127379008D02*
X106715671Y-127278539D01*
X106715671Y-127278539D02*
X106378943Y-127161853D01*
X106378943Y-127161853D02*
X106058829Y-127028135D01*
X106058829Y-127028135D02*
X105757775Y-126876570D01*
X105757775Y-126876570D02*
X105478226Y-126706342D01*
X105478226Y-126706342D02*
X105222630Y-126516635D01*
X105222630Y-126516635D02*
X104993432Y-126306634D01*
X104993432Y-126306634D02*
X104793079Y-126075524D01*
X104793079Y-126075524D02*
X104624016Y-125822487D01*
X104624016Y-125822487D02*
X104488690Y-125546710D01*
X104488690Y-125546710D02*
X104389547Y-125247377D01*
X163895745Y-116341534D02*
X163827423Y-116267579D01*
X163827423Y-116267579D02*
X163771106Y-116197664D01*
X163771106Y-116197664D02*
X163726129Y-116131739D01*
X163726129Y-116131739D02*
X163691828Y-116069753D01*
X163691828Y-116069753D02*
X163667540Y-116011656D01*
X163667540Y-116011656D02*
X163652601Y-115957397D01*
X163652601Y-115957397D02*
X163646346Y-115906928D01*
X163646346Y-115906928D02*
X163657238Y-115817154D01*
X163657238Y-115817154D02*
X163694904Y-115741932D01*
X163694904Y-115741932D02*
X163754036Y-115680861D01*
X163754036Y-115680861D02*
X163829323Y-115633541D01*
X163829323Y-115633541D02*
X163915456Y-115599568D01*
X163915456Y-115599568D02*
X164007123Y-115578542D01*
X164007123Y-115578542D02*
X164099015Y-115570061D01*
X164099015Y-115570061D02*
X164185822Y-115573725D01*
X164185822Y-115573725D02*
X164262234Y-115589130D01*
X164262234Y-115589130D02*
X164322941Y-115615877D01*
X164322941Y-115615877D02*
X164362633Y-115653563D01*
X164362633Y-115653563D02*
X164376000Y-115701788D01*
X164376000Y-115701788D02*
X164371152Y-115729727D01*
X168962809Y-116200267D02*
X168787802Y-116239945D01*
X168787802Y-116239945D02*
X168628327Y-116264124D01*
X168628327Y-116264124D02*
X168483913Y-116273861D01*
X168483913Y-116273861D02*
X168354091Y-116270214D01*
X168354091Y-116270214D02*
X168238389Y-116254239D01*
X168238389Y-116254239D02*
X168136336Y-116226994D01*
X168136336Y-116226994D02*
X168047463Y-116189537D01*
X168047463Y-116189537D02*
X167971299Y-116142924D01*
X167971299Y-116142924D02*
X167907373Y-116088213D01*
X167907373Y-116088213D02*
X167855216Y-116026462D01*
X167855216Y-116026462D02*
X167814355Y-115958728D01*
X167814355Y-115958728D02*
X167784322Y-115886067D01*
X167784322Y-115886067D02*
X167764645Y-115809538D01*
X167764645Y-115809538D02*
X167754854Y-115730197D01*
X167754854Y-115730197D02*
X167754479Y-115649103D01*
X167754479Y-115649103D02*
X167763049Y-115567312D01*
X167763049Y-115567312D02*
X167780093Y-115485882D01*
X167780093Y-115485882D02*
X167805142Y-115405869D01*
X167805142Y-115405869D02*
X167837724Y-115328332D01*
X167837724Y-115328332D02*
X167877369Y-115254328D01*
X167877369Y-115254328D02*
X167923606Y-115184914D01*
X167923606Y-115184914D02*
X167975966Y-115121147D01*
X167975966Y-115121147D02*
X168033977Y-115064085D01*
X168033977Y-115064085D02*
X168097170Y-115014785D01*
X168097170Y-115014785D02*
X168165073Y-114974305D01*
X168165073Y-114974305D02*
X168237217Y-114943701D01*
X168237217Y-114943701D02*
X168313130Y-114924031D01*
X168313130Y-114924031D02*
X168392342Y-114916353D01*
X168392342Y-114916353D02*
X168474384Y-114921723D01*
X168474384Y-114921723D02*
X168558783Y-114941199D01*
X168558783Y-114941199D02*
X168645070Y-114975839D01*
X168645070Y-114975839D02*
X168732775Y-115026700D01*
X166040951Y-117056936D02*
X165951378Y-117103708D01*
X165951378Y-117103708D02*
X165862045Y-117150704D01*
X165862045Y-117150704D02*
X165773265Y-117197922D01*
X165773265Y-117197922D02*
X165685351Y-117245355D01*
X165685351Y-117245355D02*
X165598616Y-117293002D01*
X165598616Y-117293002D02*
X165513371Y-117340856D01*
X165513371Y-117340856D02*
X165429929Y-117388916D01*
X165429929Y-117388916D02*
X165348605Y-117437176D01*
X165348605Y-117437176D02*
X165269709Y-117485632D01*
X165269709Y-117485632D02*
X165193554Y-117534280D01*
X165193554Y-117534280D02*
X165120454Y-117583117D01*
X165120454Y-117583117D02*
X165050721Y-117632139D01*
X165050721Y-117632139D02*
X164984668Y-117681340D01*
X164984668Y-117681340D02*
X164922606Y-117730718D01*
X164922606Y-117730718D02*
X164864850Y-117780268D01*
X164864850Y-117780268D02*
X164811712Y-117829987D01*
X164811712Y-117829987D02*
X164763503Y-117879869D01*
X164763503Y-117879869D02*
X164720538Y-117929912D01*
X164720538Y-117929912D02*
X164683128Y-117980111D01*
X164683128Y-117980111D02*
X164651587Y-118030462D01*
X164651587Y-118030462D02*
X164626226Y-118080961D01*
X164626226Y-118080961D02*
X164607359Y-118131605D01*
X164607359Y-118131605D02*
X164595299Y-118182388D01*
X164595299Y-118182388D02*
X164590357Y-118233308D01*
X164590357Y-118233308D02*
X164592847Y-118284359D01*
X164592847Y-118284359D02*
X164603081Y-118335539D01*
X164603081Y-118335539D02*
X164621372Y-118386842D01*
X164621372Y-118386842D02*
X164648033Y-118438265D01*
X164648033Y-118438265D02*
X164683377Y-118489805D01*
X164683377Y-118489805D02*
X164727715Y-118541456D01*
X164727715Y-118541456D02*
X164781360Y-118593215D01*
X164781360Y-118593215D02*
X164844627Y-118645078D01*
X166529945Y-117006804D02*
X166406164Y-117192774D01*
X166406164Y-117192774D02*
X166303953Y-117364117D01*
X166303953Y-117364117D02*
X166222168Y-117521240D01*
X166222168Y-117521240D02*
X166159669Y-117664550D01*
X166159669Y-117664550D02*
X166115314Y-117794452D01*
X166115314Y-117794452D02*
X166087962Y-117911353D01*
X166087962Y-117911353D02*
X166076471Y-118015659D01*
X166076471Y-118015659D02*
X166079700Y-118107777D01*
X166079700Y-118107777D02*
X166096508Y-118188113D01*
X166096508Y-118188113D02*
X166125753Y-118257074D01*
X166125753Y-118257074D02*
X166166294Y-118315065D01*
X166166294Y-118315065D02*
X166216989Y-118362493D01*
X166216989Y-118362493D02*
X166276697Y-118399765D01*
X166276697Y-118399765D02*
X166344277Y-118427287D01*
X166344277Y-118427287D02*
X166418588Y-118445465D01*
X166418588Y-118445465D02*
X166498487Y-118454706D01*
X166498487Y-118454706D02*
X166582833Y-118455415D01*
X166582833Y-118455415D02*
X166670486Y-118448000D01*
X166670486Y-118448000D02*
X166760304Y-118432867D01*
X166760304Y-118432867D02*
X166851145Y-118410422D01*
X166851145Y-118410422D02*
X166941867Y-118381072D01*
X166941867Y-118381072D02*
X167031331Y-118345222D01*
X167031331Y-118345222D02*
X167118393Y-118303279D01*
X167118393Y-118303279D02*
X167201913Y-118255650D01*
X167201913Y-118255650D02*
X167280750Y-118202741D01*
X167280750Y-118202741D02*
X167353761Y-118144959D01*
X167353761Y-118144959D02*
X167419806Y-118082709D01*
X167419806Y-118082709D02*
X167477744Y-118016398D01*
X167477744Y-118016398D02*
X167526432Y-117946432D01*
X167526432Y-117946432D02*
X167564730Y-117873219D01*
X167564730Y-117873219D02*
X167591495Y-117797163D01*
X167591495Y-117797163D02*
X167605588Y-117718673D01*
X167605588Y-117718673D02*
X167608754Y-117658869D01*
X167608754Y-117658869D02*
X167607077Y-117602012D01*
X167607077Y-117602012D02*
X167600828Y-117548154D01*
X167600828Y-117548154D02*
X167590275Y-117497348D01*
X167590275Y-117497348D02*
X167557341Y-117405108D01*
X167557341Y-117405108D02*
X167510434Y-117325719D01*
X167510434Y-117325719D02*
X167451713Y-117259610D01*
X167451713Y-117259610D02*
X167383337Y-117207208D01*
X167383337Y-117207208D02*
X167307467Y-117168940D01*
X167307467Y-117168940D02*
X167226261Y-117145234D01*
X167226261Y-117145234D02*
X167141879Y-117136517D01*
X167141879Y-117136517D02*
X167056479Y-117143218D01*
X167056479Y-117143218D02*
X166972222Y-117165764D01*
X166972222Y-117165764D02*
X166891267Y-117204582D01*
X166891267Y-117204582D02*
X166815772Y-117260101D01*
X166815772Y-117260101D02*
X166747898Y-117332747D01*
X166747898Y-117332747D02*
X166717494Y-117375626D01*
X166717494Y-117375626D02*
X166689804Y-117422948D01*
X166689804Y-117422948D02*
X166665099Y-117474766D01*
X166665099Y-117474766D02*
X166643649Y-117531133D01*
X164844627Y-118645078D02*
X164892649Y-118676997D01*
X164892649Y-118676997D02*
X164941600Y-118700815D01*
X164941600Y-118700815D02*
X164991179Y-118717027D01*
X164991179Y-118717027D02*
X165041087Y-118726127D01*
X165041087Y-118726127D02*
X165140691Y-118724976D01*
X165140691Y-118724976D02*
X165238015Y-118701324D01*
X165238015Y-118701324D02*
X165285073Y-118682299D01*
X165285073Y-118682299D02*
X165330661Y-118659134D01*
X165330661Y-118659134D02*
X165374481Y-118632324D01*
X165374481Y-118632324D02*
X165416233Y-118602366D01*
X165416233Y-118602366D02*
X165455617Y-118569755D01*
X165455617Y-118569755D02*
X165492333Y-118534984D01*
X165492333Y-118534984D02*
X165556564Y-118460950D01*
X165556564Y-118460950D02*
X165606529Y-118384226D01*
X165606529Y-118384226D02*
X165639830Y-118308774D01*
X165639830Y-118308774D02*
X165654071Y-118238556D01*
X165654071Y-118238556D02*
X165646854Y-118177534D01*
X165646854Y-118177534D02*
X165615782Y-118129670D01*
X165615782Y-118129670D02*
X165558458Y-118098928D01*
X165558458Y-118098928D02*
X165472485Y-118089268D01*
X165472485Y-118089268D02*
X165418006Y-118093582D01*
X165418006Y-118093582D02*
X165355466Y-118104653D01*
X172648163Y-113528398D02*
X172601812Y-113614820D01*
X172601812Y-113614820D02*
X172523700Y-113720633D01*
X172523700Y-113720633D02*
X172415536Y-113843906D01*
X172415536Y-113843906D02*
X172279032Y-113982711D01*
X172279032Y-113982711D02*
X172115897Y-114135117D01*
X172115897Y-114135117D02*
X171927843Y-114299196D01*
X171927843Y-114299196D02*
X171716581Y-114473017D01*
X171716581Y-114473017D02*
X171483820Y-114654653D01*
X171483820Y-114654653D02*
X171231271Y-114842172D01*
X171231271Y-114842172D02*
X170960645Y-115033646D01*
X170960645Y-115033646D02*
X170673654Y-115227146D01*
X170673654Y-115227146D02*
X170372006Y-115420742D01*
X170372006Y-115420742D02*
X170057414Y-115612504D01*
X170057414Y-115612504D02*
X169731587Y-115800503D01*
X169731587Y-115800503D02*
X169396236Y-115982811D01*
X169396236Y-115982811D02*
X169053072Y-116157496D01*
X169053072Y-116157496D02*
X168703806Y-116322631D01*
X168703806Y-116322631D02*
X168350148Y-116476285D01*
X168350148Y-116476285D02*
X167993808Y-116616529D01*
X167993808Y-116616529D02*
X167636498Y-116741434D01*
X167636498Y-116741434D02*
X167279928Y-116849071D01*
X167279928Y-116849071D02*
X166925809Y-116937509D01*
X166925809Y-116937509D02*
X166575851Y-117004820D01*
X166575851Y-117004820D02*
X166231765Y-117049075D01*
X166231765Y-117049075D02*
X165895262Y-117068343D01*
X165895262Y-117068343D02*
X165568052Y-117060695D01*
X165568052Y-117060695D02*
X165251846Y-117024202D01*
X165251846Y-117024202D02*
X164948354Y-116956935D01*
X164948354Y-116956935D02*
X164659287Y-116856964D01*
X164659287Y-116856964D02*
X164386356Y-116722359D01*
X164386356Y-116722359D02*
X164131272Y-116551193D01*
X164131272Y-116551193D02*
X163895745Y-116341534D01*
D11*
X157144000Y-106370000D02*
X160004000Y-106370000D01*
X157144000Y-104450000D02*
X157144000Y-106370000D01*
X160004000Y-104450000D02*
X157144000Y-104450000D01*
X152005912Y-105093885D02*
X154768460Y-105834108D01*
X152502844Y-103239308D02*
X152005912Y-105093885D01*
X155265392Y-103979530D02*
X152502844Y-103239308D01*
X146005832Y-103008947D02*
X148693353Y-103987125D01*
X146662511Y-101204738D02*
X146005832Y-103008947D01*
X149350032Y-102182915D02*
X146662511Y-101204738D01*
X139641193Y-99723384D02*
X142118025Y-101153384D01*
X140601193Y-98060616D02*
X139641193Y-99723384D01*
X143078025Y-99490616D02*
X140601193Y-98060616D01*
X134196744Y-96239534D02*
X136539519Y-97879962D01*
X135298011Y-94666762D02*
X134196744Y-96239534D01*
X137640785Y-96307190D02*
X135298011Y-94666762D01*
X146418430Y-111218445D02*
X146915064Y-108401894D01*
X144527599Y-110885040D02*
X146418430Y-111218445D01*
X145024233Y-108068490D02*
X144527599Y-110885040D01*
X149710511Y-122188262D02*
X152398032Y-121210085D01*
X149053832Y-120384053D02*
X149710511Y-122188262D01*
X151741353Y-119405875D02*
X149053832Y-120384053D01*
X141559233Y-115976988D02*
X143750121Y-114138615D01*
X140325081Y-114506182D02*
X141559233Y-115976988D01*
X142515968Y-112667810D02*
X140325081Y-114506182D01*
X144297950Y-124016864D02*
X147032982Y-123180681D01*
X143736596Y-122180759D02*
X144297950Y-124016864D01*
X146471628Y-121344576D02*
X143736596Y-122180759D01*
X131939912Y-116015885D02*
X134702460Y-116756108D01*
X132436844Y-114161308D02*
X131939912Y-116015885D01*
X135199392Y-114901530D02*
X132436844Y-114161308D01*
X137693950Y-126048864D02*
X140428982Y-125212681D01*
X137132596Y-124212759D02*
X137693950Y-126048864D01*
X139867628Y-123376576D02*
X137132596Y-124212759D01*
X124485950Y-113729864D02*
X127220982Y-112893681D01*
X123924596Y-111893759D02*
X124485950Y-113729864D01*
X126659628Y-111057576D02*
X123924596Y-111893759D01*
X131089950Y-128080864D02*
X133824982Y-127244681D01*
X130528596Y-126244759D02*
X131089950Y-128080864D01*
X133263628Y-125408576D02*
X130528596Y-126244759D01*
X116357950Y-114237864D02*
X119092982Y-113401681D01*
X115796596Y-112401759D02*
X116357950Y-114237864D01*
X118531628Y-111565576D02*
X115796596Y-112401759D01*
X123977950Y-130493864D02*
X126712982Y-129657681D01*
X123416596Y-128657759D02*
X123977950Y-130493864D01*
X126151628Y-127821576D02*
X123416596Y-128657759D01*
M02*
