%TF.GenerationSoftware,KiCad,Pcbnew,5.1.9-1.fc33*%
%TF.CreationDate,2021-01-27T11:43:12-03:00*%
%TF.ProjectId,santas_sequencer,73616e74-6173-45f7-9365-7175656e6365,rev?*%
%TF.SameCoordinates,Original*%
%TF.FileFunction,Copper,L2,Bot*%
%TF.FilePolarity,Positive*%
%FSLAX46Y46*%
G04 Gerber Fmt 4.6, Leading zero omitted, Abs format (unit mm)*
G04 Created by KiCad (PCBNEW 5.1.9-1.fc33) date 2021-01-27 11:43:12*
%MOMM*%
%LPD*%
G01*
G04 APERTURE LIST*
%TA.AperFunction,ComponentPad*%
%ADD10C,1.524000*%
%TD*%
%TA.AperFunction,ComponentPad*%
%ADD11O,1.524000X1.524000*%
%TD*%
%TA.AperFunction,SMDPad,CuDef*%
%ADD12R,0.900000X0.800000*%
%TD*%
%TA.AperFunction,ComponentPad*%
%ADD13C,2.100000*%
%TD*%
%TA.AperFunction,ComponentPad*%
%ADD14R,2.100000X2.100000*%
%TD*%
%TA.AperFunction,ViaPad*%
%ADD15C,3.800000*%
%TD*%
%TA.AperFunction,ViaPad*%
%ADD16C,0.400000*%
%TD*%
%TA.AperFunction,Conductor*%
%ADD17C,0.300000*%
%TD*%
%TA.AperFunction,Conductor*%
%ADD18C,0.250000*%
%TD*%
%TA.AperFunction,Conductor*%
%ADD19C,0.254000*%
%TD*%
%TA.AperFunction,Conductor*%
%ADD20C,0.150000*%
%TD*%
G04 APERTURE END LIST*
%TA.AperFunction,SMDPad,CuDef*%
G36*
G01*
X121658000Y-102023000D02*
X121658000Y-100923000D01*
G75*
G02*
X121908000Y-100673000I250000J0D01*
G01*
X124008000Y-100673000D01*
G75*
G02*
X124258000Y-100923000I0J-250000D01*
G01*
X124258000Y-102023000D01*
G75*
G02*
X124008000Y-102273000I-250000J0D01*
G01*
X121908000Y-102273000D01*
G75*
G02*
X121658000Y-102023000I0J250000D01*
G01*
G37*
%TD.AperFunction*%
%TA.AperFunction,SMDPad,CuDef*%
G36*
G01*
X118058000Y-102023000D02*
X118058000Y-100923000D01*
G75*
G02*
X118308000Y-100673000I250000J0D01*
G01*
X120408000Y-100673000D01*
G75*
G02*
X120658000Y-100923000I0J-250000D01*
G01*
X120658000Y-102023000D01*
G75*
G02*
X120408000Y-102273000I-250000J0D01*
G01*
X118308000Y-102273000D01*
G75*
G02*
X118058000Y-102023000I0J250000D01*
G01*
G37*
%TD.AperFunction*%
%TA.AperFunction,SMDPad,CuDef*%
G36*
G01*
X121600000Y-87291000D02*
X121600000Y-86191000D01*
G75*
G02*
X121850000Y-85941000I250000J0D01*
G01*
X124850000Y-85941000D01*
G75*
G02*
X125100000Y-86191000I0J-250000D01*
G01*
X125100000Y-87291000D01*
G75*
G02*
X124850000Y-87541000I-250000J0D01*
G01*
X121850000Y-87541000D01*
G75*
G02*
X121600000Y-87291000I0J250000D01*
G01*
G37*
%TD.AperFunction*%
%TA.AperFunction,SMDPad,CuDef*%
G36*
G01*
X116200000Y-87291000D02*
X116200000Y-86191000D01*
G75*
G02*
X116450000Y-85941000I250000J0D01*
G01*
X119450000Y-85941000D01*
G75*
G02*
X119700000Y-86191000I0J-250000D01*
G01*
X119700000Y-87291000D01*
G75*
G02*
X119450000Y-87541000I-250000J0D01*
G01*
X116450000Y-87541000D01*
G75*
G02*
X116200000Y-87291000I0J250000D01*
G01*
G37*
%TD.AperFunction*%
D10*
X148821000Y-83546000D03*
X151321000Y-83546000D03*
X153821000Y-83546000D03*
X148821000Y-89046000D03*
X151321000Y-89046000D03*
D11*
X153821000Y-89046000D03*
%TA.AperFunction,SMDPad,CuDef*%
G36*
G01*
X112049000Y-92652001D02*
X112049000Y-91751999D01*
G75*
G02*
X112298999Y-91502000I249999J0D01*
G01*
X112999001Y-91502000D01*
G75*
G02*
X113249000Y-91751999I0J-249999D01*
G01*
X113249000Y-92652001D01*
G75*
G02*
X112999001Y-92902000I-249999J0D01*
G01*
X112298999Y-92902000D01*
G75*
G02*
X112049000Y-92652001I0J249999D01*
G01*
G37*
%TD.AperFunction*%
%TA.AperFunction,SMDPad,CuDef*%
G36*
G01*
X110049000Y-92652001D02*
X110049000Y-91751999D01*
G75*
G02*
X110298999Y-91502000I249999J0D01*
G01*
X110999001Y-91502000D01*
G75*
G02*
X111249000Y-91751999I0J-249999D01*
G01*
X111249000Y-92652001D01*
G75*
G02*
X110999001Y-92902000I-249999J0D01*
G01*
X110298999Y-92902000D01*
G75*
G02*
X110049000Y-92652001I0J249999D01*
G01*
G37*
%TD.AperFunction*%
%TA.AperFunction,SMDPad,CuDef*%
G36*
G01*
X113600000Y-128674000D02*
X113600000Y-128374000D01*
G75*
G02*
X113750000Y-128224000I150000J0D01*
G01*
X115425000Y-128224000D01*
G75*
G02*
X115575000Y-128374000I0J-150000D01*
G01*
X115575000Y-128674000D01*
G75*
G02*
X115425000Y-128824000I-150000J0D01*
G01*
X113750000Y-128824000D01*
G75*
G02*
X113600000Y-128674000I0J150000D01*
G01*
G37*
%TD.AperFunction*%
%TA.AperFunction,SMDPad,CuDef*%
G36*
G01*
X113600000Y-127404000D02*
X113600000Y-127104000D01*
G75*
G02*
X113750000Y-126954000I150000J0D01*
G01*
X115425000Y-126954000D01*
G75*
G02*
X115575000Y-127104000I0J-150000D01*
G01*
X115575000Y-127404000D01*
G75*
G02*
X115425000Y-127554000I-150000J0D01*
G01*
X113750000Y-127554000D01*
G75*
G02*
X113600000Y-127404000I0J150000D01*
G01*
G37*
%TD.AperFunction*%
%TA.AperFunction,SMDPad,CuDef*%
G36*
G01*
X113600000Y-126134000D02*
X113600000Y-125834000D01*
G75*
G02*
X113750000Y-125684000I150000J0D01*
G01*
X115425000Y-125684000D01*
G75*
G02*
X115575000Y-125834000I0J-150000D01*
G01*
X115575000Y-126134000D01*
G75*
G02*
X115425000Y-126284000I-150000J0D01*
G01*
X113750000Y-126284000D01*
G75*
G02*
X113600000Y-126134000I0J150000D01*
G01*
G37*
%TD.AperFunction*%
%TA.AperFunction,SMDPad,CuDef*%
G36*
G01*
X113600000Y-124864000D02*
X113600000Y-124564000D01*
G75*
G02*
X113750000Y-124414000I150000J0D01*
G01*
X115425000Y-124414000D01*
G75*
G02*
X115575000Y-124564000I0J-150000D01*
G01*
X115575000Y-124864000D01*
G75*
G02*
X115425000Y-125014000I-150000J0D01*
G01*
X113750000Y-125014000D01*
G75*
G02*
X113600000Y-124864000I0J150000D01*
G01*
G37*
%TD.AperFunction*%
%TA.AperFunction,SMDPad,CuDef*%
G36*
G01*
X113600000Y-123594000D02*
X113600000Y-123294000D01*
G75*
G02*
X113750000Y-123144000I150000J0D01*
G01*
X115425000Y-123144000D01*
G75*
G02*
X115575000Y-123294000I0J-150000D01*
G01*
X115575000Y-123594000D01*
G75*
G02*
X115425000Y-123744000I-150000J0D01*
G01*
X113750000Y-123744000D01*
G75*
G02*
X113600000Y-123594000I0J150000D01*
G01*
G37*
%TD.AperFunction*%
%TA.AperFunction,SMDPad,CuDef*%
G36*
G01*
X113600000Y-122324000D02*
X113600000Y-122024000D01*
G75*
G02*
X113750000Y-121874000I150000J0D01*
G01*
X115425000Y-121874000D01*
G75*
G02*
X115575000Y-122024000I0J-150000D01*
G01*
X115575000Y-122324000D01*
G75*
G02*
X115425000Y-122474000I-150000J0D01*
G01*
X113750000Y-122474000D01*
G75*
G02*
X113600000Y-122324000I0J150000D01*
G01*
G37*
%TD.AperFunction*%
%TA.AperFunction,SMDPad,CuDef*%
G36*
G01*
X113600000Y-121054000D02*
X113600000Y-120754000D01*
G75*
G02*
X113750000Y-120604000I150000J0D01*
G01*
X115425000Y-120604000D01*
G75*
G02*
X115575000Y-120754000I0J-150000D01*
G01*
X115575000Y-121054000D01*
G75*
G02*
X115425000Y-121204000I-150000J0D01*
G01*
X113750000Y-121204000D01*
G75*
G02*
X113600000Y-121054000I0J150000D01*
G01*
G37*
%TD.AperFunction*%
%TA.AperFunction,SMDPad,CuDef*%
G36*
G01*
X113600000Y-119784000D02*
X113600000Y-119484000D01*
G75*
G02*
X113750000Y-119334000I150000J0D01*
G01*
X115425000Y-119334000D01*
G75*
G02*
X115575000Y-119484000I0J-150000D01*
G01*
X115575000Y-119784000D01*
G75*
G02*
X115425000Y-119934000I-150000J0D01*
G01*
X113750000Y-119934000D01*
G75*
G02*
X113600000Y-119784000I0J150000D01*
G01*
G37*
%TD.AperFunction*%
%TA.AperFunction,SMDPad,CuDef*%
G36*
G01*
X106675000Y-119784000D02*
X106675000Y-119484000D01*
G75*
G02*
X106825000Y-119334000I150000J0D01*
G01*
X108500000Y-119334000D01*
G75*
G02*
X108650000Y-119484000I0J-150000D01*
G01*
X108650000Y-119784000D01*
G75*
G02*
X108500000Y-119934000I-150000J0D01*
G01*
X106825000Y-119934000D01*
G75*
G02*
X106675000Y-119784000I0J150000D01*
G01*
G37*
%TD.AperFunction*%
%TA.AperFunction,SMDPad,CuDef*%
G36*
G01*
X106675000Y-121054000D02*
X106675000Y-120754000D01*
G75*
G02*
X106825000Y-120604000I150000J0D01*
G01*
X108500000Y-120604000D01*
G75*
G02*
X108650000Y-120754000I0J-150000D01*
G01*
X108650000Y-121054000D01*
G75*
G02*
X108500000Y-121204000I-150000J0D01*
G01*
X106825000Y-121204000D01*
G75*
G02*
X106675000Y-121054000I0J150000D01*
G01*
G37*
%TD.AperFunction*%
%TA.AperFunction,SMDPad,CuDef*%
G36*
G01*
X106675000Y-122324000D02*
X106675000Y-122024000D01*
G75*
G02*
X106825000Y-121874000I150000J0D01*
G01*
X108500000Y-121874000D01*
G75*
G02*
X108650000Y-122024000I0J-150000D01*
G01*
X108650000Y-122324000D01*
G75*
G02*
X108500000Y-122474000I-150000J0D01*
G01*
X106825000Y-122474000D01*
G75*
G02*
X106675000Y-122324000I0J150000D01*
G01*
G37*
%TD.AperFunction*%
%TA.AperFunction,SMDPad,CuDef*%
G36*
G01*
X106675000Y-123594000D02*
X106675000Y-123294000D01*
G75*
G02*
X106825000Y-123144000I150000J0D01*
G01*
X108500000Y-123144000D01*
G75*
G02*
X108650000Y-123294000I0J-150000D01*
G01*
X108650000Y-123594000D01*
G75*
G02*
X108500000Y-123744000I-150000J0D01*
G01*
X106825000Y-123744000D01*
G75*
G02*
X106675000Y-123594000I0J150000D01*
G01*
G37*
%TD.AperFunction*%
%TA.AperFunction,SMDPad,CuDef*%
G36*
G01*
X106675000Y-124864000D02*
X106675000Y-124564000D01*
G75*
G02*
X106825000Y-124414000I150000J0D01*
G01*
X108500000Y-124414000D01*
G75*
G02*
X108650000Y-124564000I0J-150000D01*
G01*
X108650000Y-124864000D01*
G75*
G02*
X108500000Y-125014000I-150000J0D01*
G01*
X106825000Y-125014000D01*
G75*
G02*
X106675000Y-124864000I0J150000D01*
G01*
G37*
%TD.AperFunction*%
%TA.AperFunction,SMDPad,CuDef*%
G36*
G01*
X106675000Y-126134000D02*
X106675000Y-125834000D01*
G75*
G02*
X106825000Y-125684000I150000J0D01*
G01*
X108500000Y-125684000D01*
G75*
G02*
X108650000Y-125834000I0J-150000D01*
G01*
X108650000Y-126134000D01*
G75*
G02*
X108500000Y-126284000I-150000J0D01*
G01*
X106825000Y-126284000D01*
G75*
G02*
X106675000Y-126134000I0J150000D01*
G01*
G37*
%TD.AperFunction*%
%TA.AperFunction,SMDPad,CuDef*%
G36*
G01*
X106675000Y-127404000D02*
X106675000Y-127104000D01*
G75*
G02*
X106825000Y-126954000I150000J0D01*
G01*
X108500000Y-126954000D01*
G75*
G02*
X108650000Y-127104000I0J-150000D01*
G01*
X108650000Y-127404000D01*
G75*
G02*
X108500000Y-127554000I-150000J0D01*
G01*
X106825000Y-127554000D01*
G75*
G02*
X106675000Y-127404000I0J150000D01*
G01*
G37*
%TD.AperFunction*%
%TA.AperFunction,SMDPad,CuDef*%
G36*
G01*
X106675000Y-128674000D02*
X106675000Y-128374000D01*
G75*
G02*
X106825000Y-128224000I150000J0D01*
G01*
X108500000Y-128224000D01*
G75*
G02*
X108650000Y-128374000I0J-150000D01*
G01*
X108650000Y-128674000D01*
G75*
G02*
X108500000Y-128824000I-150000J0D01*
G01*
X106825000Y-128824000D01*
G75*
G02*
X106675000Y-128674000I0J150000D01*
G01*
G37*
%TD.AperFunction*%
%TA.AperFunction,SMDPad,CuDef*%
G36*
G01*
X158874000Y-101784999D02*
X158874000Y-102685001D01*
G75*
G02*
X158624001Y-102935000I-249999J0D01*
G01*
X157923999Y-102935000D01*
G75*
G02*
X157674000Y-102685001I0J249999D01*
G01*
X157674000Y-101784999D01*
G75*
G02*
X157923999Y-101535000I249999J0D01*
G01*
X158624001Y-101535000D01*
G75*
G02*
X158874000Y-101784999I0J-249999D01*
G01*
G37*
%TD.AperFunction*%
%TA.AperFunction,SMDPad,CuDef*%
G36*
G01*
X160874000Y-101784999D02*
X160874000Y-102685001D01*
G75*
G02*
X160624001Y-102935000I-249999J0D01*
G01*
X159923999Y-102935000D01*
G75*
G02*
X159674000Y-102685001I0J249999D01*
G01*
X159674000Y-101784999D01*
G75*
G02*
X159923999Y-101535000I249999J0D01*
G01*
X160624001Y-101535000D01*
G75*
G02*
X160874000Y-101784999I0J-249999D01*
G01*
G37*
%TD.AperFunction*%
%TA.AperFunction,SMDPad,CuDef*%
G36*
G01*
X153921000Y-100260999D02*
X153921000Y-101161001D01*
G75*
G02*
X153671001Y-101411000I-249999J0D01*
G01*
X152970999Y-101411000D01*
G75*
G02*
X152721000Y-101161001I0J249999D01*
G01*
X152721000Y-100260999D01*
G75*
G02*
X152970999Y-100011000I249999J0D01*
G01*
X153671001Y-100011000D01*
G75*
G02*
X153921000Y-100260999I0J-249999D01*
G01*
G37*
%TD.AperFunction*%
%TA.AperFunction,SMDPad,CuDef*%
G36*
G01*
X155921000Y-100260999D02*
X155921000Y-101161001D01*
G75*
G02*
X155671001Y-101411000I-249999J0D01*
G01*
X154970999Y-101411000D01*
G75*
G02*
X154721000Y-101161001I0J249999D01*
G01*
X154721000Y-100260999D01*
G75*
G02*
X154970999Y-100011000I249999J0D01*
G01*
X155671001Y-100011000D01*
G75*
G02*
X155921000Y-100260999I0J-249999D01*
G01*
G37*
%TD.AperFunction*%
%TA.AperFunction,SMDPad,CuDef*%
G36*
G01*
X148571000Y-98101999D02*
X148571000Y-99002001D01*
G75*
G02*
X148321001Y-99252000I-249999J0D01*
G01*
X147620999Y-99252000D01*
G75*
G02*
X147371000Y-99002001I0J249999D01*
G01*
X147371000Y-98101999D01*
G75*
G02*
X147620999Y-97852000I249999J0D01*
G01*
X148321001Y-97852000D01*
G75*
G02*
X148571000Y-98101999I0J-249999D01*
G01*
G37*
%TD.AperFunction*%
%TA.AperFunction,SMDPad,CuDef*%
G36*
G01*
X150571000Y-98101999D02*
X150571000Y-99002001D01*
G75*
G02*
X150321001Y-99252000I-249999J0D01*
G01*
X149620999Y-99252000D01*
G75*
G02*
X149371000Y-99002001I0J249999D01*
G01*
X149371000Y-98101999D01*
G75*
G02*
X149620999Y-97852000I249999J0D01*
G01*
X150321001Y-97852000D01*
G75*
G02*
X150571000Y-98101999I0J-249999D01*
G01*
G37*
%TD.AperFunction*%
%TA.AperFunction,SMDPad,CuDef*%
G36*
G01*
X142602000Y-95561999D02*
X142602000Y-96462001D01*
G75*
G02*
X142352001Y-96712000I-249999J0D01*
G01*
X141651999Y-96712000D01*
G75*
G02*
X141402000Y-96462001I0J249999D01*
G01*
X141402000Y-95561999D01*
G75*
G02*
X141651999Y-95312000I249999J0D01*
G01*
X142352001Y-95312000D01*
G75*
G02*
X142602000Y-95561999I0J-249999D01*
G01*
G37*
%TD.AperFunction*%
%TA.AperFunction,SMDPad,CuDef*%
G36*
G01*
X144602000Y-95561999D02*
X144602000Y-96462001D01*
G75*
G02*
X144352001Y-96712000I-249999J0D01*
G01*
X143651999Y-96712000D01*
G75*
G02*
X143402000Y-96462001I0J249999D01*
G01*
X143402000Y-95561999D01*
G75*
G02*
X143651999Y-95312000I249999J0D01*
G01*
X144352001Y-95312000D01*
G75*
G02*
X144602000Y-95561999I0J-249999D01*
G01*
G37*
%TD.AperFunction*%
%TA.AperFunction,SMDPad,CuDef*%
G36*
G01*
X137014000Y-92386999D02*
X137014000Y-93287001D01*
G75*
G02*
X136764001Y-93537000I-249999J0D01*
G01*
X136063999Y-93537000D01*
G75*
G02*
X135814000Y-93287001I0J249999D01*
G01*
X135814000Y-92386999D01*
G75*
G02*
X136063999Y-92137000I249999J0D01*
G01*
X136764001Y-92137000D01*
G75*
G02*
X137014000Y-92386999I0J-249999D01*
G01*
G37*
%TD.AperFunction*%
%TA.AperFunction,SMDPad,CuDef*%
G36*
G01*
X139014000Y-92386999D02*
X139014000Y-93287001D01*
G75*
G02*
X138764001Y-93537000I-249999J0D01*
G01*
X138063999Y-93537000D01*
G75*
G02*
X137814000Y-93287001I0J249999D01*
G01*
X137814000Y-92386999D01*
G75*
G02*
X138063999Y-92137000I249999J0D01*
G01*
X138764001Y-92137000D01*
G75*
G02*
X139014000Y-92386999I0J-249999D01*
G01*
G37*
%TD.AperFunction*%
%TA.AperFunction,SMDPad,CuDef*%
G36*
G01*
X148079000Y-111182999D02*
X148079000Y-112083001D01*
G75*
G02*
X147829001Y-112333000I-249999J0D01*
G01*
X147128999Y-112333000D01*
G75*
G02*
X146879000Y-112083001I0J249999D01*
G01*
X146879000Y-111182999D01*
G75*
G02*
X147128999Y-110933000I249999J0D01*
G01*
X147829001Y-110933000D01*
G75*
G02*
X148079000Y-111182999I0J-249999D01*
G01*
G37*
%TD.AperFunction*%
%TA.AperFunction,SMDPad,CuDef*%
G36*
G01*
X150079000Y-111182999D02*
X150079000Y-112083001D01*
G75*
G02*
X149829001Y-112333000I-249999J0D01*
G01*
X149128999Y-112333000D01*
G75*
G02*
X148879000Y-112083001I0J249999D01*
G01*
X148879000Y-111182999D01*
G75*
G02*
X149128999Y-110933000I249999J0D01*
G01*
X149829001Y-110933000D01*
G75*
G02*
X150079000Y-111182999I0J-249999D01*
G01*
G37*
%TD.AperFunction*%
%TA.AperFunction,SMDPad,CuDef*%
G36*
G01*
X149968000Y-117151999D02*
X149968000Y-118052001D01*
G75*
G02*
X149718001Y-118302000I-249999J0D01*
G01*
X149017999Y-118302000D01*
G75*
G02*
X148768000Y-118052001I0J249999D01*
G01*
X148768000Y-117151999D01*
G75*
G02*
X149017999Y-116902000I249999J0D01*
G01*
X149718001Y-116902000D01*
G75*
G02*
X149968000Y-117151999I0J-249999D01*
G01*
G37*
%TD.AperFunction*%
%TA.AperFunction,SMDPad,CuDef*%
G36*
G01*
X151968000Y-117151999D02*
X151968000Y-118052001D01*
G75*
G02*
X151718001Y-118302000I-249999J0D01*
G01*
X151017999Y-118302000D01*
G75*
G02*
X150768000Y-118052001I0J249999D01*
G01*
X150768000Y-117151999D01*
G75*
G02*
X151017999Y-116902000I249999J0D01*
G01*
X151718001Y-116902000D01*
G75*
G02*
X151968000Y-117151999I0J-249999D01*
G01*
G37*
%TD.AperFunction*%
%TA.AperFunction,SMDPad,CuDef*%
G36*
G01*
X142491000Y-115119999D02*
X142491000Y-116020001D01*
G75*
G02*
X142241001Y-116270000I-249999J0D01*
G01*
X141540999Y-116270000D01*
G75*
G02*
X141291000Y-116020001I0J249999D01*
G01*
X141291000Y-115119999D01*
G75*
G02*
X141540999Y-114870000I249999J0D01*
G01*
X142241001Y-114870000D01*
G75*
G02*
X142491000Y-115119999I0J-249999D01*
G01*
G37*
%TD.AperFunction*%
%TA.AperFunction,SMDPad,CuDef*%
G36*
G01*
X144491000Y-115119999D02*
X144491000Y-116020001D01*
G75*
G02*
X144241001Y-116270000I-249999J0D01*
G01*
X143540999Y-116270000D01*
G75*
G02*
X143291000Y-116020001I0J249999D01*
G01*
X143291000Y-115119999D01*
G75*
G02*
X143540999Y-114870000I249999J0D01*
G01*
X144241001Y-114870000D01*
G75*
G02*
X144491000Y-115119999I0J-249999D01*
G01*
G37*
%TD.AperFunction*%
%TA.AperFunction,SMDPad,CuDef*%
G36*
G01*
X145015000Y-119056999D02*
X145015000Y-119957001D01*
G75*
G02*
X144765001Y-120207000I-249999J0D01*
G01*
X144064999Y-120207000D01*
G75*
G02*
X143815000Y-119957001I0J249999D01*
G01*
X143815000Y-119056999D01*
G75*
G02*
X144064999Y-118807000I249999J0D01*
G01*
X144765001Y-118807000D01*
G75*
G02*
X145015000Y-119056999I0J-249999D01*
G01*
G37*
%TD.AperFunction*%
%TA.AperFunction,SMDPad,CuDef*%
G36*
G01*
X147015000Y-119056999D02*
X147015000Y-119957001D01*
G75*
G02*
X146765001Y-120207000I-249999J0D01*
G01*
X146064999Y-120207000D01*
G75*
G02*
X145815000Y-119957001I0J249999D01*
G01*
X145815000Y-119056999D01*
G75*
G02*
X146064999Y-118807000I249999J0D01*
G01*
X146765001Y-118807000D01*
G75*
G02*
X147015000Y-119056999I0J-249999D01*
G01*
G37*
%TD.AperFunction*%
%TA.AperFunction,SMDPad,CuDef*%
G36*
G01*
X133204000Y-118548999D02*
X133204000Y-119449001D01*
G75*
G02*
X132954001Y-119699000I-249999J0D01*
G01*
X132253999Y-119699000D01*
G75*
G02*
X132004000Y-119449001I0J249999D01*
G01*
X132004000Y-118548999D01*
G75*
G02*
X132253999Y-118299000I249999J0D01*
G01*
X132954001Y-118299000D01*
G75*
G02*
X133204000Y-118548999I0J-249999D01*
G01*
G37*
%TD.AperFunction*%
%TA.AperFunction,SMDPad,CuDef*%
G36*
G01*
X135204000Y-118548999D02*
X135204000Y-119449001D01*
G75*
G02*
X134954001Y-119699000I-249999J0D01*
G01*
X134253999Y-119699000D01*
G75*
G02*
X134004000Y-119449001I0J249999D01*
G01*
X134004000Y-118548999D01*
G75*
G02*
X134253999Y-118299000I249999J0D01*
G01*
X134954001Y-118299000D01*
G75*
G02*
X135204000Y-118548999I0J-249999D01*
G01*
G37*
%TD.AperFunction*%
%TA.AperFunction,SMDPad,CuDef*%
G36*
G01*
X138173000Y-121088999D02*
X138173000Y-121989001D01*
G75*
G02*
X137923001Y-122239000I-249999J0D01*
G01*
X137222999Y-122239000D01*
G75*
G02*
X136973000Y-121989001I0J249999D01*
G01*
X136973000Y-121088999D01*
G75*
G02*
X137222999Y-120839000I249999J0D01*
G01*
X137923001Y-120839000D01*
G75*
G02*
X138173000Y-121088999I0J-249999D01*
G01*
G37*
%TD.AperFunction*%
%TA.AperFunction,SMDPad,CuDef*%
G36*
G01*
X140173000Y-121088999D02*
X140173000Y-121989001D01*
G75*
G02*
X139923001Y-122239000I-249999J0D01*
G01*
X139222999Y-122239000D01*
G75*
G02*
X138973000Y-121989001I0J249999D01*
G01*
X138973000Y-121088999D01*
G75*
G02*
X139222999Y-120839000I249999J0D01*
G01*
X139923001Y-120839000D01*
G75*
G02*
X140173000Y-121088999I0J-249999D01*
G01*
G37*
%TD.AperFunction*%
%TA.AperFunction,SMDPad,CuDef*%
G36*
G01*
X126108000Y-114992999D02*
X126108000Y-115893001D01*
G75*
G02*
X125858001Y-116143000I-249999J0D01*
G01*
X125157999Y-116143000D01*
G75*
G02*
X124908000Y-115893001I0J249999D01*
G01*
X124908000Y-114992999D01*
G75*
G02*
X125157999Y-114743000I249999J0D01*
G01*
X125858001Y-114743000D01*
G75*
G02*
X126108000Y-114992999I0J-249999D01*
G01*
G37*
%TD.AperFunction*%
%TA.AperFunction,SMDPad,CuDef*%
G36*
G01*
X128108000Y-114992999D02*
X128108000Y-115893001D01*
G75*
G02*
X127858001Y-116143000I-249999J0D01*
G01*
X127157999Y-116143000D01*
G75*
G02*
X126908000Y-115893001I0J249999D01*
G01*
X126908000Y-114992999D01*
G75*
G02*
X127157999Y-114743000I249999J0D01*
G01*
X127858001Y-114743000D01*
G75*
G02*
X128108000Y-114992999I0J-249999D01*
G01*
G37*
%TD.AperFunction*%
%TA.AperFunction,SMDPad,CuDef*%
G36*
G01*
X131442000Y-123120999D02*
X131442000Y-124021001D01*
G75*
G02*
X131192001Y-124271000I-249999J0D01*
G01*
X130491999Y-124271000D01*
G75*
G02*
X130242000Y-124021001I0J249999D01*
G01*
X130242000Y-123120999D01*
G75*
G02*
X130491999Y-122871000I249999J0D01*
G01*
X131192001Y-122871000D01*
G75*
G02*
X131442000Y-123120999I0J-249999D01*
G01*
G37*
%TD.AperFunction*%
%TA.AperFunction,SMDPad,CuDef*%
G36*
G01*
X133442000Y-123120999D02*
X133442000Y-124021001D01*
G75*
G02*
X133192001Y-124271000I-249999J0D01*
G01*
X132491999Y-124271000D01*
G75*
G02*
X132242000Y-124021001I0J249999D01*
G01*
X132242000Y-123120999D01*
G75*
G02*
X132491999Y-122871000I249999J0D01*
G01*
X133192001Y-122871000D01*
G75*
G02*
X133442000Y-123120999I0J-249999D01*
G01*
G37*
%TD.AperFunction*%
%TA.AperFunction,SMDPad,CuDef*%
G36*
G01*
X117837000Y-114865999D02*
X117837000Y-115766001D01*
G75*
G02*
X117587001Y-116016000I-249999J0D01*
G01*
X116886999Y-116016000D01*
G75*
G02*
X116637000Y-115766001I0J249999D01*
G01*
X116637000Y-114865999D01*
G75*
G02*
X116886999Y-114616000I249999J0D01*
G01*
X117587001Y-114616000D01*
G75*
G02*
X117837000Y-114865999I0J-249999D01*
G01*
G37*
%TD.AperFunction*%
%TA.AperFunction,SMDPad,CuDef*%
G36*
G01*
X119837000Y-114865999D02*
X119837000Y-115766001D01*
G75*
G02*
X119587001Y-116016000I-249999J0D01*
G01*
X118886999Y-116016000D01*
G75*
G02*
X118637000Y-115766001I0J249999D01*
G01*
X118637000Y-114865999D01*
G75*
G02*
X118886999Y-114616000I249999J0D01*
G01*
X119587001Y-114616000D01*
G75*
G02*
X119837000Y-114865999I0J-249999D01*
G01*
G37*
%TD.AperFunction*%
%TA.AperFunction,SMDPad,CuDef*%
G36*
G01*
X124584000Y-124898999D02*
X124584000Y-125799001D01*
G75*
G02*
X124334001Y-126049000I-249999J0D01*
G01*
X123633999Y-126049000D01*
G75*
G02*
X123384000Y-125799001I0J249999D01*
G01*
X123384000Y-124898999D01*
G75*
G02*
X123633999Y-124649000I249999J0D01*
G01*
X124334001Y-124649000D01*
G75*
G02*
X124584000Y-124898999I0J-249999D01*
G01*
G37*
%TD.AperFunction*%
%TA.AperFunction,SMDPad,CuDef*%
G36*
G01*
X126584000Y-124898999D02*
X126584000Y-125799001D01*
G75*
G02*
X126334001Y-126049000I-249999J0D01*
G01*
X125633999Y-126049000D01*
G75*
G02*
X125384000Y-125799001I0J249999D01*
G01*
X125384000Y-124898999D01*
G75*
G02*
X125633999Y-124649000I249999J0D01*
G01*
X126334001Y-124649000D01*
G75*
G02*
X126584000Y-124898999I0J-249999D01*
G01*
G37*
%TD.AperFunction*%
%TA.AperFunction,SMDPad,CuDef*%
G36*
G01*
X111906000Y-87191001D02*
X111906000Y-86290999D01*
G75*
G02*
X112155999Y-86041000I249999J0D01*
G01*
X112856001Y-86041000D01*
G75*
G02*
X113106000Y-86290999I0J-249999D01*
G01*
X113106000Y-87191001D01*
G75*
G02*
X112856001Y-87441000I-249999J0D01*
G01*
X112155999Y-87441000D01*
G75*
G02*
X111906000Y-87191001I0J249999D01*
G01*
G37*
%TD.AperFunction*%
%TA.AperFunction,SMDPad,CuDef*%
G36*
G01*
X109906000Y-87191001D02*
X109906000Y-86290999D01*
G75*
G02*
X110155999Y-86041000I249999J0D01*
G01*
X110856001Y-86041000D01*
G75*
G02*
X111106000Y-86290999I0J-249999D01*
G01*
X111106000Y-87191001D01*
G75*
G02*
X110856001Y-87441000I-249999J0D01*
G01*
X110155999Y-87441000D01*
G75*
G02*
X109906000Y-87191001I0J249999D01*
G01*
G37*
%TD.AperFunction*%
%TA.AperFunction,SMDPad,CuDef*%
G36*
G01*
X131410000Y-86290999D02*
X131410000Y-87191001D01*
G75*
G02*
X131160001Y-87441000I-249999J0D01*
G01*
X130459999Y-87441000D01*
G75*
G02*
X130210000Y-87191001I0J249999D01*
G01*
X130210000Y-86290999D01*
G75*
G02*
X130459999Y-86041000I249999J0D01*
G01*
X131160001Y-86041000D01*
G75*
G02*
X131410000Y-86290999I0J-249999D01*
G01*
G37*
%TD.AperFunction*%
%TA.AperFunction,SMDPad,CuDef*%
G36*
G01*
X133410000Y-86290999D02*
X133410000Y-87191001D01*
G75*
G02*
X133160001Y-87441000I-249999J0D01*
G01*
X132459999Y-87441000D01*
G75*
G02*
X132210000Y-87191001I0J249999D01*
G01*
X132210000Y-86290999D01*
G75*
G02*
X132459999Y-86041000I249999J0D01*
G01*
X133160001Y-86041000D01*
G75*
G02*
X133410000Y-86290999I0J-249999D01*
G01*
G37*
%TD.AperFunction*%
%TA.AperFunction,SMDPad,CuDef*%
G36*
G01*
X131410000Y-101022999D02*
X131410000Y-101923001D01*
G75*
G02*
X131160001Y-102173000I-249999J0D01*
G01*
X130459999Y-102173000D01*
G75*
G02*
X130210000Y-101923001I0J249999D01*
G01*
X130210000Y-101022999D01*
G75*
G02*
X130459999Y-100773000I249999J0D01*
G01*
X131160001Y-100773000D01*
G75*
G02*
X131410000Y-101022999I0J-249999D01*
G01*
G37*
%TD.AperFunction*%
%TA.AperFunction,SMDPad,CuDef*%
G36*
G01*
X133410000Y-101022999D02*
X133410000Y-101923001D01*
G75*
G02*
X133160001Y-102173000I-249999J0D01*
G01*
X132459999Y-102173000D01*
G75*
G02*
X132210000Y-101923001I0J249999D01*
G01*
X132210000Y-101022999D01*
G75*
G02*
X132459999Y-100773000I249999J0D01*
G01*
X133160001Y-100773000D01*
G75*
G02*
X133410000Y-101022999I0J-249999D01*
G01*
G37*
%TD.AperFunction*%
D12*
X126222000Y-93787000D03*
X124222000Y-92837000D03*
X124222000Y-94737000D03*
X115332000Y-93726000D03*
X117332000Y-94676000D03*
X117332000Y-92776000D03*
D13*
X176022000Y-105664000D03*
D14*
X176022000Y-85664000D03*
D15*
X102311200Y-107149900D03*
D16*
X157988000Y-106680000D03*
X122936000Y-129032000D03*
X121666000Y-94234000D03*
X108585000Y-117983000D03*
X112903000Y-128524000D03*
X123190000Y-90170000D03*
X123190000Y-88773000D03*
X126456212Y-127416788D03*
X118836212Y-113883212D03*
X133568212Y-125130788D03*
X126964212Y-113248212D03*
X140172212Y-123098788D03*
X134975074Y-116992926D03*
X146776212Y-120939788D03*
X144375143Y-113387143D03*
X153035000Y-119253000D03*
X147313428Y-108210572D03*
X138430000Y-96520000D03*
X143383000Y-99571176D03*
X149971000Y-101965000D03*
X155041074Y-103657926D03*
X160029000Y-103895000D03*
X108458000Y-130302000D03*
X107696000Y-117983000D03*
X107696000Y-106870500D03*
X112395000Y-104648000D03*
X110617000Y-106807000D03*
X112395000Y-106299000D03*
X109601000Y-108458000D03*
X112395000Y-107569000D03*
X145669000Y-105791000D03*
X147193000Y-106299000D03*
D17*
X176022000Y-105664000D02*
X172212000Y-109474000D01*
X172212000Y-109474000D02*
X158750000Y-109474000D01*
X158750000Y-109474000D02*
X157988000Y-108712000D01*
X157988000Y-108712000D02*
X157988000Y-106680000D01*
X114587500Y-127254000D02*
X117094000Y-127254000D01*
X117094000Y-127254000D02*
X118999000Y-129159000D01*
X118999000Y-129159000D02*
X122809000Y-129159000D01*
X122809000Y-129159000D02*
X122936000Y-129032000D01*
X132810000Y-86741000D02*
X132810000Y-101473000D01*
X110506000Y-86741000D02*
X110506000Y-84439000D01*
X110506000Y-84439000D02*
X112395000Y-82550000D01*
X132810000Y-84550000D02*
X132810000Y-86741000D01*
X130810000Y-82550000D02*
X132810000Y-84550000D01*
X131064000Y-82804000D02*
X130810000Y-82550000D01*
X112395000Y-82550000D02*
X130810000Y-82550000D01*
X108585000Y-88662000D02*
X110506000Y-86741000D01*
X108585000Y-117983000D02*
X108585000Y-88662000D01*
X110649000Y-86884000D02*
X110506000Y-86741000D01*
X110649000Y-92202000D02*
X110649000Y-86884000D01*
X114587500Y-128524000D02*
X112903000Y-128524000D01*
X150495000Y-86741000D02*
X132810000Y-86741000D01*
X151321000Y-87567000D02*
X150495000Y-86741000D01*
X151321000Y-89046000D02*
X151321000Y-87567000D01*
X130810000Y-101473000D02*
X123695500Y-101473000D01*
D18*
X123695500Y-95263500D02*
X124222000Y-94737000D01*
D17*
X123695500Y-101473000D02*
X123695500Y-95263500D01*
X118620500Y-101473000D02*
X115316000Y-98168500D01*
D18*
X115316000Y-93742000D02*
X115332000Y-93726000D01*
D17*
X115316000Y-98168500D02*
X115316000Y-93742000D01*
X113808000Y-92202000D02*
X115332000Y-93726000D01*
X112649000Y-92202000D02*
X113808000Y-92202000D01*
X111633000Y-93218000D02*
X112649000Y-92202000D01*
X111633000Y-124017000D02*
X111633000Y-93218000D01*
X113600000Y-125984000D02*
X111633000Y-124017000D01*
X114587500Y-125984000D02*
X113600000Y-125984000D01*
X130810000Y-86741000D02*
X123187500Y-86741000D01*
X117332000Y-92776000D02*
X120584000Y-92776000D01*
X123190000Y-86743500D02*
X123187500Y-86741000D01*
X123190000Y-88773000D02*
X123190000Y-86743500D01*
X120584000Y-92776000D02*
X123190000Y-90170000D01*
X126222000Y-93787000D02*
X126222000Y-92218000D01*
X126222000Y-92218000D02*
X123412000Y-89408000D01*
X120779500Y-89408000D02*
X118112500Y-86741000D01*
X123412000Y-89408000D02*
X120779500Y-89408000D01*
D18*
X118112500Y-86741000D02*
X112506000Y-86741000D01*
D17*
X126456212Y-125821212D02*
X125984000Y-125349000D01*
X126456212Y-127416788D02*
X126456212Y-125821212D01*
X118836212Y-114915212D02*
X119237000Y-115316000D01*
X118836212Y-113883212D02*
X118836212Y-114915212D01*
X133568212Y-124297212D02*
X132842000Y-123571000D01*
X133568212Y-125130788D02*
X133568212Y-124297212D01*
X126964212Y-114899212D02*
X127508000Y-115443000D01*
X126964212Y-113248212D02*
X126964212Y-114899212D01*
X140172212Y-122138212D02*
X139573000Y-121539000D01*
X140172212Y-123098788D02*
X140172212Y-122138212D01*
X134604000Y-117364000D02*
X134975074Y-116992926D01*
X134604000Y-118999000D02*
X134604000Y-117364000D01*
X146776212Y-119868212D02*
X146415000Y-119507000D01*
X146776212Y-120939788D02*
X146776212Y-119868212D01*
X143891000Y-113871286D02*
X144375143Y-113387143D01*
X143891000Y-115570000D02*
X143891000Y-113871286D01*
X152093185Y-118327185D02*
X151368000Y-117602000D01*
X152093185Y-118327185D02*
X152109185Y-118327185D01*
X152109185Y-118327185D02*
X153035000Y-119253000D01*
X153035000Y-119253000D02*
X153035000Y-119253000D01*
X149479000Y-108966000D02*
X149479000Y-111633000D01*
X148723572Y-108210572D02*
X149479000Y-108966000D01*
X147313428Y-108210572D02*
X148723572Y-108210572D01*
X138430000Y-92853000D02*
X138414000Y-92837000D01*
X138430000Y-96520000D02*
X138430000Y-92853000D01*
X144018000Y-96028000D02*
X144002000Y-96012000D01*
X144018000Y-98936176D02*
X144018000Y-96028000D01*
X144018000Y-98936176D02*
X143383000Y-99571176D01*
X149971000Y-98552000D02*
X149971000Y-101965000D01*
X155041074Y-100990926D02*
X155321000Y-100711000D01*
X155041074Y-103657926D02*
X155041074Y-100990926D01*
X160029000Y-102480000D02*
X160274000Y-102235000D01*
X160029000Y-103895000D02*
X160029000Y-102480000D01*
X132604000Y-118999000D02*
X132604000Y-120888000D01*
X133255000Y-121539000D02*
X137573000Y-121539000D01*
X132604000Y-120888000D02*
X133255000Y-121539000D01*
X137573000Y-121539000D02*
X137573000Y-129254000D01*
X137573000Y-129254000D02*
X137541000Y-129286000D01*
X107442000Y-131572000D02*
X105918000Y-130048000D01*
X106675000Y-124714000D02*
X107662500Y-124714000D01*
X105918000Y-125471000D02*
X106675000Y-124714000D01*
X136398000Y-131572000D02*
X107442000Y-131572000D01*
X105918000Y-130048000D02*
X105918000Y-125471000D01*
X137573000Y-130397000D02*
X136398000Y-131572000D01*
X137573000Y-129254000D02*
X137573000Y-130397000D01*
X136414000Y-92837000D02*
X136414000Y-103489000D01*
X136414000Y-103489000D02*
X135255000Y-104648000D01*
X135255000Y-104648000D02*
X112395000Y-104648000D01*
X107662500Y-128524000D02*
X107662500Y-129506500D01*
X107662500Y-129506500D02*
X108458000Y-130302000D01*
X107696000Y-106870500D02*
X107696000Y-117983000D01*
X142002000Y-96012000D02*
X142002000Y-103743000D01*
X142002000Y-103743000D02*
X139446000Y-106299000D01*
X139446000Y-106299000D02*
X112395000Y-106299000D01*
X110617000Y-106807000D02*
X110617000Y-121666000D01*
X108839000Y-123444000D02*
X107662500Y-123444000D01*
X110617000Y-121666000D02*
X108839000Y-123444000D01*
X147971000Y-98552000D02*
X147971000Y-102854000D01*
X147971000Y-102854000D02*
X145669000Y-105156000D01*
X145669000Y-105156000D02*
X143002000Y-105156000D01*
X143002000Y-105156000D02*
X140589000Y-107569000D01*
X108650000Y-122174000D02*
X107662500Y-122174000D01*
X109601000Y-121223000D02*
X108650000Y-122174000D01*
X109601000Y-108458000D02*
X109601000Y-121223000D01*
X140589000Y-107569000D02*
X112395000Y-107569000D01*
X153321000Y-103473000D02*
X153321000Y-100711000D01*
X151130000Y-105664000D02*
X153321000Y-103473000D01*
X146812000Y-105664000D02*
X151130000Y-105664000D01*
X142367000Y-110109000D02*
X146812000Y-105664000D01*
X116967000Y-110109000D02*
X142367000Y-110109000D01*
X114587500Y-112488500D02*
X116967000Y-110109000D01*
X114587500Y-119634000D02*
X114587500Y-112488500D01*
X123984000Y-125349000D02*
X120142000Y-125349000D01*
X117237000Y-122444000D02*
X117237000Y-115316000D01*
X120142000Y-125349000D02*
X117237000Y-122444000D01*
X107662500Y-125984000D02*
X108458000Y-125984000D01*
X109220000Y-125984000D02*
X107662500Y-125984000D01*
X112903000Y-129667000D02*
X109220000Y-125984000D01*
X123444000Y-129667000D02*
X112903000Y-129667000D01*
X123984000Y-129127000D02*
X123444000Y-129667000D01*
X123984000Y-125349000D02*
X123984000Y-129127000D01*
X108087124Y-127254000D02*
X107662500Y-127254000D01*
X130842000Y-123571000D02*
X127381000Y-123571000D01*
X125508000Y-121698000D02*
X125508000Y-115443000D01*
X127381000Y-123571000D02*
X125508000Y-121698000D01*
X130842000Y-124271000D02*
X130810000Y-124303000D01*
X130842000Y-123571000D02*
X130842000Y-124271000D01*
X130810000Y-124303000D02*
X130810000Y-128524000D01*
X130810000Y-128524000D02*
X128778000Y-130556000D01*
X108650000Y-127254000D02*
X107662500Y-127254000D01*
X111952000Y-130556000D02*
X108650000Y-127254000D01*
X128778000Y-130556000D02*
X111952000Y-130556000D01*
X144415000Y-119507000D02*
X143002000Y-119507000D01*
X141891000Y-118396000D02*
X141891000Y-115570000D01*
X143002000Y-119507000D02*
X141891000Y-118396000D01*
X105029000Y-121920000D02*
X106045000Y-120904000D01*
X107696000Y-132842000D02*
X105029000Y-130175000D01*
X106045000Y-120904000D02*
X107662500Y-120904000D01*
X144415000Y-130794000D02*
X142367000Y-132842000D01*
X105029000Y-130175000D02*
X105029000Y-121920000D01*
X142367000Y-132842000D02*
X107696000Y-132842000D01*
X144415000Y-119507000D02*
X144415000Y-130794000D01*
X149368000Y-117602000D02*
X148590000Y-117602000D01*
X147479000Y-116491000D02*
X147479000Y-111633000D01*
X148590000Y-117602000D02*
X147479000Y-116491000D01*
X115316000Y-120904000D02*
X114587500Y-120904000D01*
X116078000Y-120142000D02*
X115316000Y-120904000D01*
X116078000Y-112649000D02*
X116078000Y-120142000D01*
X117094000Y-111633000D02*
X116078000Y-112649000D01*
X147479000Y-111633000D02*
X117094000Y-111633000D01*
X144526000Y-105791000D02*
X141605000Y-108712000D01*
X141605000Y-108712000D02*
X116586000Y-108712000D01*
X158274000Y-102235000D02*
X158274000Y-104616000D01*
X158274000Y-104616000D02*
X156083000Y-106807000D01*
X156083000Y-106807000D02*
X147701000Y-106807000D01*
X114587500Y-122174000D02*
X113600000Y-122174000D01*
X112649000Y-112649000D02*
X116586000Y-108712000D01*
X112649000Y-121285000D02*
X112649000Y-112649000D01*
X113538000Y-122174000D02*
X112649000Y-121285000D01*
X114587500Y-122174000D02*
X113538000Y-122174000D01*
X144526000Y-105791000D02*
X145669000Y-105791000D01*
X147701000Y-106807000D02*
X147193000Y-106299000D01*
X176022000Y-85664000D02*
X163256000Y-85664000D01*
X159874000Y-89046000D02*
X153821000Y-89046000D01*
X163256000Y-85664000D02*
X159874000Y-89046000D01*
D19*
X185724315Y-79906686D02*
X185843218Y-79911110D01*
X185961655Y-79918453D01*
X186079604Y-79928697D01*
X186197102Y-79941827D01*
X186314019Y-79957815D01*
X186430355Y-79976647D01*
X186546029Y-79998297D01*
X186661002Y-80022748D01*
X186775223Y-80049977D01*
X186888691Y-80079978D01*
X187001251Y-80112700D01*
X187112975Y-80148160D01*
X187223722Y-80186309D01*
X187333463Y-80227130D01*
X187442195Y-80270622D01*
X187549847Y-80316759D01*
X187656313Y-80365493D01*
X187761599Y-80416830D01*
X187865641Y-80470740D01*
X187968416Y-80527218D01*
X188069833Y-80586220D01*
X188169863Y-80647739D01*
X188268464Y-80711757D01*
X188365551Y-80778230D01*
X188461106Y-80847160D01*
X188555120Y-80918555D01*
X188647461Y-80992332D01*
X188738132Y-81068514D01*
X188827069Y-81147065D01*
X188914241Y-81227984D01*
X188999598Y-81311249D01*
X189082832Y-81396573D01*
X189163777Y-81483773D01*
X189242334Y-81572716D01*
X189318523Y-81663399D01*
X189392283Y-81755716D01*
X189463668Y-81849717D01*
X189532619Y-81945301D01*
X189599092Y-82042389D01*
X189663099Y-82140974D01*
X189724614Y-82240998D01*
X189783629Y-82342435D01*
X189840100Y-82445198D01*
X189894008Y-82549236D01*
X189945351Y-82654538D01*
X189994099Y-82761037D01*
X190040211Y-82868630D01*
X190083699Y-82977350D01*
X190124523Y-83087094D01*
X190162678Y-83197861D01*
X190198136Y-83309577D01*
X190230864Y-83422158D01*
X190260862Y-83535615D01*
X190288092Y-83649837D01*
X190312540Y-83764802D01*
X190334194Y-83880497D01*
X190353024Y-83996819D01*
X190369013Y-84113742D01*
X190382143Y-84231242D01*
X190392386Y-84349184D01*
X190399729Y-84467621D01*
X190404153Y-84586525D01*
X190405684Y-84709945D01*
X190405685Y-129720814D01*
X190404153Y-129844314D01*
X190399729Y-129963218D01*
X190392386Y-130081655D01*
X190382143Y-130199597D01*
X190369013Y-130317097D01*
X190353024Y-130434020D01*
X190334194Y-130550342D01*
X190312540Y-130666037D01*
X190288092Y-130781002D01*
X190260862Y-130895224D01*
X190230864Y-131008681D01*
X190198136Y-131121262D01*
X190162678Y-131232978D01*
X190124523Y-131343745D01*
X190083699Y-131453489D01*
X190040211Y-131562209D01*
X189994099Y-131669802D01*
X189945351Y-131776301D01*
X189894008Y-131881603D01*
X189840100Y-131985641D01*
X189783629Y-132088404D01*
X189724614Y-132189841D01*
X189663099Y-132289865D01*
X189599092Y-132388450D01*
X189532610Y-132485551D01*
X189463667Y-132581124D01*
X189392300Y-132675101D01*
X189318510Y-132767457D01*
X189242325Y-132858132D01*
X189163777Y-132947066D01*
X189082832Y-133034266D01*
X188999596Y-133119593D01*
X188914247Y-133202850D01*
X188827066Y-133283777D01*
X188738132Y-133362325D01*
X188647461Y-133438507D01*
X188555101Y-133512300D01*
X188461124Y-133583667D01*
X188365551Y-133652610D01*
X188268476Y-133719075D01*
X188169881Y-133783089D01*
X188069841Y-133844614D01*
X187968404Y-133903629D01*
X187865641Y-133960100D01*
X187761588Y-134014016D01*
X187656314Y-134065345D01*
X187549847Y-134114080D01*
X187442195Y-134160217D01*
X187333479Y-134203702D01*
X187223703Y-134244538D01*
X187112955Y-134282685D01*
X187001251Y-134318139D01*
X186888691Y-134350861D01*
X186775223Y-134380862D01*
X186661002Y-134408091D01*
X186546029Y-134432542D01*
X186430355Y-134454192D01*
X186314019Y-134473024D01*
X186197102Y-134489012D01*
X186079604Y-134502142D01*
X185961655Y-134512386D01*
X185843218Y-134519729D01*
X185724315Y-134524153D01*
X185600895Y-134525684D01*
X101789938Y-134525684D01*
X101666518Y-134524153D01*
X101547614Y-134519729D01*
X101429177Y-134512386D01*
X101311235Y-134502143D01*
X101193735Y-134489013D01*
X101076812Y-134473024D01*
X100960490Y-134454194D01*
X100844795Y-134432540D01*
X100729830Y-134408092D01*
X100615608Y-134380862D01*
X100502151Y-134350864D01*
X100389570Y-134318136D01*
X100277854Y-134282678D01*
X100167087Y-134244523D01*
X100057343Y-134203699D01*
X99948623Y-134160211D01*
X99841030Y-134114099D01*
X99734531Y-134065351D01*
X99629229Y-134014008D01*
X99525191Y-133960100D01*
X99422428Y-133903629D01*
X99320991Y-133844614D01*
X99220967Y-133783099D01*
X99122382Y-133719092D01*
X99025294Y-133652619D01*
X98929710Y-133583668D01*
X98835709Y-133512283D01*
X98743392Y-133438523D01*
X98652709Y-133362334D01*
X98563766Y-133283777D01*
X98476566Y-133202832D01*
X98391242Y-133119598D01*
X98307977Y-133034241D01*
X98227058Y-132947069D01*
X98148507Y-132858132D01*
X98072325Y-132767461D01*
X97998548Y-132675120D01*
X97927153Y-132581106D01*
X97858223Y-132485551D01*
X97791750Y-132388464D01*
X97727732Y-132289863D01*
X97666213Y-132189833D01*
X97607211Y-132088416D01*
X97550733Y-131985641D01*
X97496823Y-131881599D01*
X97445486Y-131776313D01*
X97396752Y-131669847D01*
X97350615Y-131562195D01*
X97307123Y-131453463D01*
X97266302Y-131343722D01*
X97228153Y-131232975D01*
X97192693Y-131121251D01*
X97159971Y-131008691D01*
X97129970Y-130895223D01*
X97102741Y-130781002D01*
X97078290Y-130666029D01*
X97056640Y-130550355D01*
X97037808Y-130434019D01*
X97021820Y-130317102D01*
X97008690Y-130199604D01*
X96998446Y-130081655D01*
X96991103Y-129963218D01*
X96986679Y-129844315D01*
X96985149Y-129720902D01*
X96985149Y-121920000D01*
X104240203Y-121920000D01*
X104244001Y-121958563D01*
X104244000Y-130136447D01*
X104240203Y-130175000D01*
X104244000Y-130213553D01*
X104244000Y-130213560D01*
X104255359Y-130328886D01*
X104300246Y-130476859D01*
X104373138Y-130613232D01*
X104471236Y-130732764D01*
X104501190Y-130757347D01*
X107113653Y-133369810D01*
X107138236Y-133399764D01*
X107257767Y-133497862D01*
X107382129Y-133564334D01*
X107394140Y-133570754D01*
X107542113Y-133615642D01*
X107617026Y-133623020D01*
X107657439Y-133627000D01*
X107657444Y-133627000D01*
X107696000Y-133630797D01*
X107734556Y-133627000D01*
X142328447Y-133627000D01*
X142367000Y-133630797D01*
X142405553Y-133627000D01*
X142405561Y-133627000D01*
X142520887Y-133615641D01*
X142668860Y-133570754D01*
X142805233Y-133497862D01*
X142924764Y-133399764D01*
X142949347Y-133369810D01*
X144942816Y-131376342D01*
X144972764Y-131351764D01*
X144999613Y-131319050D01*
X145029121Y-131283094D01*
X145070862Y-131232233D01*
X145143754Y-131095860D01*
X145181402Y-130971752D01*
X145188641Y-130947888D01*
X145191805Y-130915765D01*
X145200000Y-130832561D01*
X145200000Y-130832554D01*
X145203797Y-130794001D01*
X145200000Y-130755448D01*
X145200000Y-120726614D01*
X145258387Y-120695405D01*
X145392962Y-120584962D01*
X145415000Y-120558109D01*
X145437038Y-120584962D01*
X145571613Y-120695405D01*
X145725149Y-120777472D01*
X145891745Y-120828008D01*
X145946025Y-120833354D01*
X145941212Y-120857548D01*
X145941212Y-121022028D01*
X145973301Y-121183348D01*
X146036245Y-121335309D01*
X146127625Y-121472069D01*
X146243931Y-121588375D01*
X146380691Y-121679755D01*
X146532652Y-121742699D01*
X146693972Y-121774788D01*
X146858452Y-121774788D01*
X147019772Y-121742699D01*
X147171733Y-121679755D01*
X147308493Y-121588375D01*
X147424799Y-121472069D01*
X147516179Y-121335309D01*
X147579123Y-121183348D01*
X147611212Y-121022028D01*
X147611212Y-120857548D01*
X147579123Y-120696228D01*
X147561212Y-120652987D01*
X147561212Y-120342238D01*
X147585472Y-120296851D01*
X147636008Y-120130255D01*
X147653072Y-119957001D01*
X147653072Y-119056999D01*
X147636008Y-118883745D01*
X147585472Y-118717149D01*
X147503405Y-118563613D01*
X147392962Y-118429038D01*
X147258387Y-118318595D01*
X147104851Y-118236528D01*
X146938255Y-118185992D01*
X146765001Y-118168928D01*
X146064999Y-118168928D01*
X145891745Y-118185992D01*
X145725149Y-118236528D01*
X145571613Y-118318595D01*
X145437038Y-118429038D01*
X145415000Y-118455891D01*
X145392962Y-118429038D01*
X145258387Y-118318595D01*
X145104851Y-118236528D01*
X144938255Y-118185992D01*
X144765001Y-118168928D01*
X144064999Y-118168928D01*
X143891745Y-118185992D01*
X143725149Y-118236528D01*
X143571613Y-118318595D01*
X143437038Y-118429038D01*
X143326595Y-118563613D01*
X143271620Y-118666463D01*
X142676000Y-118070843D01*
X142676000Y-116789614D01*
X142734387Y-116758405D01*
X142868962Y-116647962D01*
X142891000Y-116621109D01*
X142913038Y-116647962D01*
X143047613Y-116758405D01*
X143201149Y-116840472D01*
X143367745Y-116891008D01*
X143540999Y-116908072D01*
X144241001Y-116908072D01*
X144414255Y-116891008D01*
X144580851Y-116840472D01*
X144734387Y-116758405D01*
X144868962Y-116647962D01*
X144979405Y-116513387D01*
X145061472Y-116359851D01*
X145112008Y-116193255D01*
X145129072Y-116020001D01*
X145129072Y-115119999D01*
X145112008Y-114946745D01*
X145061472Y-114780149D01*
X144979405Y-114626613D01*
X144868962Y-114492038D01*
X144734387Y-114381595D01*
X144676000Y-114350386D01*
X144676000Y-114196443D01*
X144727420Y-114145022D01*
X144770664Y-114127110D01*
X144907424Y-114035730D01*
X145023730Y-113919424D01*
X145115110Y-113782664D01*
X145178054Y-113630703D01*
X145210143Y-113469383D01*
X145210143Y-113304903D01*
X145178054Y-113143583D01*
X145115110Y-112991622D01*
X145023730Y-112854862D01*
X144907424Y-112738556D01*
X144770664Y-112647176D01*
X144618703Y-112584232D01*
X144457383Y-112552143D01*
X144292903Y-112552143D01*
X144131583Y-112584232D01*
X143979622Y-112647176D01*
X143842862Y-112738556D01*
X143726556Y-112854862D01*
X143635176Y-112991622D01*
X143617264Y-113034866D01*
X143363186Y-113288943D01*
X143333237Y-113313522D01*
X143308659Y-113343470D01*
X143308655Y-113343474D01*
X143280522Y-113377754D01*
X143235139Y-113433053D01*
X143196177Y-113505946D01*
X143162246Y-113569427D01*
X143117359Y-113717400D01*
X143102203Y-113871286D01*
X143106001Y-113909848D01*
X143106001Y-114350386D01*
X143047613Y-114381595D01*
X142913038Y-114492038D01*
X142891000Y-114518891D01*
X142868962Y-114492038D01*
X142734387Y-114381595D01*
X142580851Y-114299528D01*
X142414255Y-114248992D01*
X142241001Y-114231928D01*
X141540999Y-114231928D01*
X141367745Y-114248992D01*
X141201149Y-114299528D01*
X141047613Y-114381595D01*
X140913038Y-114492038D01*
X140802595Y-114626613D01*
X140720528Y-114780149D01*
X140669992Y-114946745D01*
X140652928Y-115119999D01*
X140652928Y-116020001D01*
X140669992Y-116193255D01*
X140720528Y-116359851D01*
X140802595Y-116513387D01*
X140913038Y-116647962D01*
X141047613Y-116758405D01*
X141106001Y-116789614D01*
X141106000Y-118357447D01*
X141102203Y-118396000D01*
X141106000Y-118434553D01*
X141106000Y-118434560D01*
X141117359Y-118549886D01*
X141162246Y-118697859D01*
X141235138Y-118834232D01*
X141333236Y-118953764D01*
X141363190Y-118978347D01*
X142419658Y-120034815D01*
X142444236Y-120064764D01*
X142474184Y-120089342D01*
X142474187Y-120089345D01*
X142503559Y-120113450D01*
X142563767Y-120162862D01*
X142700140Y-120235754D01*
X142808182Y-120268528D01*
X142848112Y-120280641D01*
X142862490Y-120282057D01*
X142963439Y-120292000D01*
X142963446Y-120292000D01*
X143001999Y-120295797D01*
X143040552Y-120292000D01*
X143243056Y-120292000D01*
X143244528Y-120296851D01*
X143326595Y-120450387D01*
X143437038Y-120584962D01*
X143571613Y-120695405D01*
X143630000Y-120726614D01*
X143630001Y-130468841D01*
X142041843Y-132057000D01*
X137023157Y-132057000D01*
X138100815Y-130979342D01*
X138130764Y-130954764D01*
X138159808Y-130919375D01*
X138188556Y-130884345D01*
X138228862Y-130835233D01*
X138301754Y-130698860D01*
X138306923Y-130681821D01*
X138346642Y-130550887D01*
X138354766Y-130468393D01*
X138358000Y-130435561D01*
X138358000Y-130435556D01*
X138361797Y-130397000D01*
X138358000Y-130358445D01*
X138358000Y-129292555D01*
X138361797Y-129254000D01*
X138358000Y-129215440D01*
X138358000Y-122758614D01*
X138416387Y-122727405D01*
X138550962Y-122616962D01*
X138573000Y-122590109D01*
X138595038Y-122616962D01*
X138729613Y-122727405D01*
X138883149Y-122809472D01*
X139049745Y-122860008D01*
X139222999Y-122877072D01*
X139364956Y-122877072D01*
X139337212Y-123016548D01*
X139337212Y-123181028D01*
X139369301Y-123342348D01*
X139432245Y-123494309D01*
X139523625Y-123631069D01*
X139639931Y-123747375D01*
X139776691Y-123838755D01*
X139928652Y-123901699D01*
X140089972Y-123933788D01*
X140254452Y-123933788D01*
X140415772Y-123901699D01*
X140567733Y-123838755D01*
X140704493Y-123747375D01*
X140820799Y-123631069D01*
X140912179Y-123494309D01*
X140975123Y-123342348D01*
X141007212Y-123181028D01*
X141007212Y-123016548D01*
X140975123Y-122855228D01*
X140957212Y-122811987D01*
X140957212Y-122176768D01*
X140961009Y-122138212D01*
X140957212Y-122099656D01*
X140957212Y-122099651D01*
X140949761Y-122024000D01*
X140945854Y-121984325D01*
X140900966Y-121836352D01*
X140875196Y-121788139D01*
X140828074Y-121699979D01*
X140811072Y-121679262D01*
X140811072Y-121088999D01*
X140794008Y-120915745D01*
X140743472Y-120749149D01*
X140661405Y-120595613D01*
X140550962Y-120461038D01*
X140416387Y-120350595D01*
X140262851Y-120268528D01*
X140096255Y-120217992D01*
X139923001Y-120200928D01*
X139222999Y-120200928D01*
X139049745Y-120217992D01*
X138883149Y-120268528D01*
X138729613Y-120350595D01*
X138595038Y-120461038D01*
X138573000Y-120487891D01*
X138550962Y-120461038D01*
X138416387Y-120350595D01*
X138262851Y-120268528D01*
X138096255Y-120217992D01*
X137923001Y-120200928D01*
X137222999Y-120200928D01*
X137049745Y-120217992D01*
X136883149Y-120268528D01*
X136729613Y-120350595D01*
X136595038Y-120461038D01*
X136484595Y-120595613D01*
X136402528Y-120749149D01*
X136401056Y-120754000D01*
X133580158Y-120754000D01*
X133389000Y-120562843D01*
X133389000Y-120218614D01*
X133447387Y-120187405D01*
X133581962Y-120076962D01*
X133604000Y-120050109D01*
X133626038Y-120076962D01*
X133760613Y-120187405D01*
X133914149Y-120269472D01*
X134080745Y-120320008D01*
X134253999Y-120337072D01*
X134954001Y-120337072D01*
X135127255Y-120320008D01*
X135293851Y-120269472D01*
X135447387Y-120187405D01*
X135581962Y-120076962D01*
X135692405Y-119942387D01*
X135774472Y-119788851D01*
X135825008Y-119622255D01*
X135842072Y-119449001D01*
X135842072Y-118548999D01*
X135825008Y-118375745D01*
X135774472Y-118209149D01*
X135692405Y-118055613D01*
X135581962Y-117921038D01*
X135447387Y-117810595D01*
X135389000Y-117779386D01*
X135389000Y-117720595D01*
X135507355Y-117641513D01*
X135623661Y-117525207D01*
X135715041Y-117388447D01*
X135777985Y-117236486D01*
X135810074Y-117075166D01*
X135810074Y-116910686D01*
X135777985Y-116749366D01*
X135715041Y-116597405D01*
X135623661Y-116460645D01*
X135507355Y-116344339D01*
X135370595Y-116252959D01*
X135218634Y-116190015D01*
X135057314Y-116157926D01*
X134892834Y-116157926D01*
X134731514Y-116190015D01*
X134579553Y-116252959D01*
X134442793Y-116344339D01*
X134326487Y-116460645D01*
X134235107Y-116597405D01*
X134217195Y-116640648D01*
X134076186Y-116781657D01*
X134046237Y-116806236D01*
X134021659Y-116836184D01*
X134021655Y-116836188D01*
X133988690Y-116876356D01*
X133948139Y-116925767D01*
X133937251Y-116946138D01*
X133875246Y-117062141D01*
X133830359Y-117210114D01*
X133815203Y-117364000D01*
X133819001Y-117402562D01*
X133819001Y-117779386D01*
X133760613Y-117810595D01*
X133626038Y-117921038D01*
X133604000Y-117947891D01*
X133581962Y-117921038D01*
X133447387Y-117810595D01*
X133293851Y-117728528D01*
X133127255Y-117677992D01*
X132954001Y-117660928D01*
X132253999Y-117660928D01*
X132080745Y-117677992D01*
X131914149Y-117728528D01*
X131760613Y-117810595D01*
X131626038Y-117921038D01*
X131515595Y-118055613D01*
X131433528Y-118209149D01*
X131382992Y-118375745D01*
X131365928Y-118548999D01*
X131365928Y-119449001D01*
X131382992Y-119622255D01*
X131433528Y-119788851D01*
X131515595Y-119942387D01*
X131626038Y-120076962D01*
X131760613Y-120187405D01*
X131819001Y-120218614D01*
X131819001Y-120849438D01*
X131815203Y-120888000D01*
X131830359Y-121041886D01*
X131875246Y-121189859D01*
X131900518Y-121237140D01*
X131948139Y-121326233D01*
X131979250Y-121364141D01*
X132021655Y-121415812D01*
X132021659Y-121415816D01*
X132046237Y-121445764D01*
X132076185Y-121470342D01*
X132672657Y-122066815D01*
X132697236Y-122096764D01*
X132727184Y-122121342D01*
X132727187Y-122121345D01*
X132745327Y-122136232D01*
X132816767Y-122194862D01*
X132887984Y-122232928D01*
X132491999Y-122232928D01*
X132318745Y-122249992D01*
X132152149Y-122300528D01*
X131998613Y-122382595D01*
X131864038Y-122493038D01*
X131842000Y-122519891D01*
X131819962Y-122493038D01*
X131685387Y-122382595D01*
X131531851Y-122300528D01*
X131365255Y-122249992D01*
X131192001Y-122232928D01*
X130491999Y-122232928D01*
X130318745Y-122249992D01*
X130152149Y-122300528D01*
X129998613Y-122382595D01*
X129864038Y-122493038D01*
X129753595Y-122627613D01*
X129671528Y-122781149D01*
X129670056Y-122786000D01*
X127706158Y-122786000D01*
X126293000Y-121372843D01*
X126293000Y-116662614D01*
X126351387Y-116631405D01*
X126485962Y-116520962D01*
X126508000Y-116494109D01*
X126530038Y-116520962D01*
X126664613Y-116631405D01*
X126818149Y-116713472D01*
X126984745Y-116764008D01*
X127157999Y-116781072D01*
X127858001Y-116781072D01*
X128031255Y-116764008D01*
X128197851Y-116713472D01*
X128351387Y-116631405D01*
X128485962Y-116520962D01*
X128596405Y-116386387D01*
X128678472Y-116232851D01*
X128729008Y-116066255D01*
X128746072Y-115893001D01*
X128746072Y-114992999D01*
X128729008Y-114819745D01*
X128678472Y-114653149D01*
X128596405Y-114499613D01*
X128485962Y-114365038D01*
X128351387Y-114254595D01*
X128197851Y-114172528D01*
X128031255Y-114121992D01*
X127858001Y-114104928D01*
X127749212Y-114104928D01*
X127749212Y-113535013D01*
X127767123Y-113491772D01*
X127799212Y-113330452D01*
X127799212Y-113165972D01*
X127767123Y-113004652D01*
X127704179Y-112852691D01*
X127612799Y-112715931D01*
X127496493Y-112599625D01*
X127359733Y-112508245D01*
X127207772Y-112445301D01*
X127070523Y-112418000D01*
X146307056Y-112418000D01*
X146308528Y-112422851D01*
X146390595Y-112576387D01*
X146501038Y-112710962D01*
X146635613Y-112821405D01*
X146694001Y-112852614D01*
X146694000Y-116452447D01*
X146690203Y-116491000D01*
X146694000Y-116529553D01*
X146694000Y-116529560D01*
X146705359Y-116644886D01*
X146750246Y-116792859D01*
X146823138Y-116929232D01*
X146921236Y-117048764D01*
X146951190Y-117073347D01*
X148007658Y-118129815D01*
X148032236Y-118159764D01*
X148062184Y-118184342D01*
X148062187Y-118184345D01*
X148064194Y-118185992D01*
X148151767Y-118257862D01*
X148157873Y-118261126D01*
X148197528Y-118391851D01*
X148279595Y-118545387D01*
X148390038Y-118679962D01*
X148524613Y-118790405D01*
X148678149Y-118872472D01*
X148844745Y-118923008D01*
X149017999Y-118940072D01*
X149718001Y-118940072D01*
X149891255Y-118923008D01*
X150057851Y-118872472D01*
X150211387Y-118790405D01*
X150345962Y-118679962D01*
X150368000Y-118653109D01*
X150390038Y-118679962D01*
X150524613Y-118790405D01*
X150678149Y-118872472D01*
X150844745Y-118923008D01*
X151017999Y-118940072D01*
X151602588Y-118940072D01*
X151654606Y-118982763D01*
X152277122Y-119605280D01*
X152295033Y-119648521D01*
X152386413Y-119785281D01*
X152502719Y-119901587D01*
X152639479Y-119992967D01*
X152791440Y-120055911D01*
X152952760Y-120088000D01*
X153117240Y-120088000D01*
X153278560Y-120055911D01*
X153430521Y-119992967D01*
X153567281Y-119901587D01*
X153683587Y-119785281D01*
X153774967Y-119648521D01*
X153837911Y-119496560D01*
X153870000Y-119335240D01*
X153870000Y-119170760D01*
X153837911Y-119009440D01*
X153774967Y-118857479D01*
X153683587Y-118720719D01*
X153567281Y-118604413D01*
X153430521Y-118513033D01*
X153387280Y-118495122D01*
X152691532Y-117799375D01*
X152666949Y-117769421D01*
X152606072Y-117719460D01*
X152606072Y-117151999D01*
X152589008Y-116978745D01*
X152538472Y-116812149D01*
X152456405Y-116658613D01*
X152345962Y-116524038D01*
X152211387Y-116413595D01*
X152057851Y-116331528D01*
X151891255Y-116280992D01*
X151718001Y-116263928D01*
X151017999Y-116263928D01*
X150844745Y-116280992D01*
X150678149Y-116331528D01*
X150524613Y-116413595D01*
X150390038Y-116524038D01*
X150368000Y-116550891D01*
X150345962Y-116524038D01*
X150211387Y-116413595D01*
X150057851Y-116331528D01*
X149891255Y-116280992D01*
X149718001Y-116263928D01*
X149017999Y-116263928D01*
X148844745Y-116280992D01*
X148678149Y-116331528D01*
X148524613Y-116413595D01*
X148517549Y-116419392D01*
X148264000Y-116165843D01*
X148264000Y-112852614D01*
X148322387Y-112821405D01*
X148456962Y-112710962D01*
X148479000Y-112684109D01*
X148501038Y-112710962D01*
X148635613Y-112821405D01*
X148789149Y-112903472D01*
X148955745Y-112954008D01*
X149128999Y-112971072D01*
X149829001Y-112971072D01*
X150002255Y-112954008D01*
X150168851Y-112903472D01*
X150322387Y-112821405D01*
X150456962Y-112710962D01*
X150567405Y-112576387D01*
X150649472Y-112422851D01*
X150700008Y-112256255D01*
X150717072Y-112083001D01*
X150717072Y-111182999D01*
X150700008Y-111009745D01*
X150649472Y-110843149D01*
X150567405Y-110689613D01*
X150456962Y-110555038D01*
X150322387Y-110444595D01*
X150264000Y-110413386D01*
X150264000Y-109004556D01*
X150267797Y-108966000D01*
X150264000Y-108927440D01*
X150264000Y-108927439D01*
X150260020Y-108887026D01*
X150252642Y-108812113D01*
X150207754Y-108664140D01*
X150199557Y-108648804D01*
X150134862Y-108527767D01*
X150036764Y-108408236D01*
X150006811Y-108383654D01*
X149305919Y-107682762D01*
X149281336Y-107652808D01*
X149207242Y-107592000D01*
X156044447Y-107592000D01*
X156083000Y-107595797D01*
X156121553Y-107592000D01*
X156121561Y-107592000D01*
X156236887Y-107580641D01*
X156384860Y-107535754D01*
X156521233Y-107462862D01*
X156640764Y-107364764D01*
X156665347Y-107334810D01*
X157165091Y-106835066D01*
X175030539Y-106835066D01*
X175132339Y-107104579D01*
X175430477Y-107250463D01*
X175751346Y-107335380D01*
X176082617Y-107356066D01*
X176411557Y-107311728D01*
X176725527Y-107204069D01*
X176911661Y-107104579D01*
X177013461Y-106835066D01*
X176022000Y-105843605D01*
X175030539Y-106835066D01*
X157165091Y-106835066D01*
X158275540Y-105724617D01*
X174329934Y-105724617D01*
X174374272Y-106053557D01*
X174481931Y-106367527D01*
X174581421Y-106553661D01*
X174850934Y-106655461D01*
X175842395Y-105664000D01*
X176201605Y-105664000D01*
X177193066Y-106655461D01*
X177462579Y-106553661D01*
X177608463Y-106255523D01*
X177693380Y-105934654D01*
X177714066Y-105603383D01*
X177669728Y-105274443D01*
X177562069Y-104960473D01*
X177462579Y-104774339D01*
X177193066Y-104672539D01*
X176201605Y-105664000D01*
X175842395Y-105664000D01*
X174850934Y-104672539D01*
X174581421Y-104774339D01*
X174435537Y-105072477D01*
X174350620Y-105393346D01*
X174329934Y-105724617D01*
X158275540Y-105724617D01*
X158801816Y-105198342D01*
X158831764Y-105173764D01*
X158857494Y-105142413D01*
X158880450Y-105114441D01*
X158929862Y-105054233D01*
X159002754Y-104917860D01*
X159010732Y-104891560D01*
X159047642Y-104769887D01*
X159057613Y-104668641D01*
X159059000Y-104654561D01*
X159059000Y-104654556D01*
X159062797Y-104616000D01*
X159059000Y-104577444D01*
X159059000Y-103454614D01*
X159117387Y-103423405D01*
X159244000Y-103319496D01*
X159244000Y-103608198D01*
X159226089Y-103651440D01*
X159194000Y-103812760D01*
X159194000Y-103977240D01*
X159226089Y-104138560D01*
X159289033Y-104290521D01*
X159380413Y-104427281D01*
X159496719Y-104543587D01*
X159633479Y-104634967D01*
X159785440Y-104697911D01*
X159946760Y-104730000D01*
X160111240Y-104730000D01*
X160272560Y-104697911D01*
X160424521Y-104634967D01*
X160561281Y-104543587D01*
X160611934Y-104492934D01*
X175030539Y-104492934D01*
X176022000Y-105484395D01*
X177013461Y-104492934D01*
X176911661Y-104223421D01*
X176613523Y-104077537D01*
X176292654Y-103992620D01*
X175961383Y-103971934D01*
X175632443Y-104016272D01*
X175318473Y-104123931D01*
X175132339Y-104223421D01*
X175030539Y-104492934D01*
X160611934Y-104492934D01*
X160677587Y-104427281D01*
X160768967Y-104290521D01*
X160831911Y-104138560D01*
X160864000Y-103977240D01*
X160864000Y-103812760D01*
X160831911Y-103651440D01*
X160814000Y-103608199D01*
X160814000Y-103550928D01*
X160963851Y-103505472D01*
X161117387Y-103423405D01*
X161251962Y-103312962D01*
X161362405Y-103178387D01*
X161444472Y-103024851D01*
X161495008Y-102858255D01*
X161512072Y-102685001D01*
X161512072Y-101784999D01*
X161495008Y-101611745D01*
X161444472Y-101445149D01*
X161362405Y-101291613D01*
X161251962Y-101157038D01*
X161117387Y-101046595D01*
X160963851Y-100964528D01*
X160797255Y-100913992D01*
X160624001Y-100896928D01*
X159923999Y-100896928D01*
X159750745Y-100913992D01*
X159584149Y-100964528D01*
X159430613Y-101046595D01*
X159296038Y-101157038D01*
X159274000Y-101183891D01*
X159251962Y-101157038D01*
X159117387Y-101046595D01*
X158963851Y-100964528D01*
X158797255Y-100913992D01*
X158624001Y-100896928D01*
X157923999Y-100896928D01*
X157750745Y-100913992D01*
X157584149Y-100964528D01*
X157430613Y-101046595D01*
X157296038Y-101157038D01*
X157185595Y-101291613D01*
X157103528Y-101445149D01*
X157052992Y-101611745D01*
X157035928Y-101784999D01*
X157035928Y-102685001D01*
X157052992Y-102858255D01*
X157103528Y-103024851D01*
X157185595Y-103178387D01*
X157296038Y-103312962D01*
X157430613Y-103423405D01*
X157489001Y-103454614D01*
X157489001Y-104290841D01*
X155757843Y-106022000D01*
X151882157Y-106022000D01*
X153848817Y-104055341D01*
X153878764Y-104030764D01*
X153904494Y-103999413D01*
X153937016Y-103959785D01*
X153976862Y-103911233D01*
X154049754Y-103774860D01*
X154059419Y-103743000D01*
X154094642Y-103626887D01*
X154104424Y-103527561D01*
X154106000Y-103511561D01*
X154106000Y-103511556D01*
X154109797Y-103473000D01*
X154106000Y-103434444D01*
X154106000Y-101930614D01*
X154164387Y-101899405D01*
X154256075Y-101824159D01*
X154256074Y-103371125D01*
X154238163Y-103414366D01*
X154206074Y-103575686D01*
X154206074Y-103740166D01*
X154238163Y-103901486D01*
X154301107Y-104053447D01*
X154392487Y-104190207D01*
X154508793Y-104306513D01*
X154645553Y-104397893D01*
X154797514Y-104460837D01*
X154958834Y-104492926D01*
X155123314Y-104492926D01*
X155284634Y-104460837D01*
X155436595Y-104397893D01*
X155573355Y-104306513D01*
X155689661Y-104190207D01*
X155781041Y-104053447D01*
X155843985Y-103901486D01*
X155876074Y-103740166D01*
X155876074Y-103575686D01*
X155843985Y-103414366D01*
X155826074Y-103371125D01*
X155826074Y-102033799D01*
X155844255Y-102032008D01*
X156010851Y-101981472D01*
X156164387Y-101899405D01*
X156298962Y-101788962D01*
X156409405Y-101654387D01*
X156491472Y-101500851D01*
X156542008Y-101334255D01*
X156559072Y-101161001D01*
X156559072Y-100260999D01*
X156542008Y-100087745D01*
X156491472Y-99921149D01*
X156409405Y-99767613D01*
X156298962Y-99633038D01*
X156164387Y-99522595D01*
X156010851Y-99440528D01*
X155844255Y-99389992D01*
X155671001Y-99372928D01*
X154970999Y-99372928D01*
X154797745Y-99389992D01*
X154631149Y-99440528D01*
X154477613Y-99522595D01*
X154343038Y-99633038D01*
X154321000Y-99659891D01*
X154298962Y-99633038D01*
X154164387Y-99522595D01*
X154010851Y-99440528D01*
X153844255Y-99389992D01*
X153671001Y-99372928D01*
X152970999Y-99372928D01*
X152797745Y-99389992D01*
X152631149Y-99440528D01*
X152477613Y-99522595D01*
X152343038Y-99633038D01*
X152232595Y-99767613D01*
X152150528Y-99921149D01*
X152099992Y-100087745D01*
X152082928Y-100260999D01*
X152082928Y-101161001D01*
X152099992Y-101334255D01*
X152150528Y-101500851D01*
X152232595Y-101654387D01*
X152343038Y-101788962D01*
X152477613Y-101899405D01*
X152536001Y-101930614D01*
X152536000Y-103147842D01*
X150804843Y-104879000D01*
X147056157Y-104879000D01*
X148498810Y-103436347D01*
X148528764Y-103411764D01*
X148626862Y-103292233D01*
X148699754Y-103155860D01*
X148719099Y-103092089D01*
X148744642Y-103007887D01*
X148752191Y-102931236D01*
X148756000Y-102892561D01*
X148756000Y-102892556D01*
X148759797Y-102854000D01*
X148756000Y-102815444D01*
X148756000Y-99771614D01*
X148814387Y-99740405D01*
X148948962Y-99629962D01*
X148971000Y-99603109D01*
X148993038Y-99629962D01*
X149127613Y-99740405D01*
X149186000Y-99771614D01*
X149186001Y-101678197D01*
X149168089Y-101721440D01*
X149136000Y-101882760D01*
X149136000Y-102047240D01*
X149168089Y-102208560D01*
X149231033Y-102360521D01*
X149322413Y-102497281D01*
X149438719Y-102613587D01*
X149575479Y-102704967D01*
X149727440Y-102767911D01*
X149888760Y-102800000D01*
X150053240Y-102800000D01*
X150214560Y-102767911D01*
X150366521Y-102704967D01*
X150503281Y-102613587D01*
X150619587Y-102497281D01*
X150710967Y-102360521D01*
X150773911Y-102208560D01*
X150806000Y-102047240D01*
X150806000Y-101882760D01*
X150773911Y-101721440D01*
X150756000Y-101678199D01*
X150756000Y-99771614D01*
X150814387Y-99740405D01*
X150948962Y-99629962D01*
X151059405Y-99495387D01*
X151141472Y-99341851D01*
X151192008Y-99175255D01*
X151209072Y-99002001D01*
X151209072Y-98101999D01*
X151192008Y-97928745D01*
X151141472Y-97762149D01*
X151059405Y-97608613D01*
X150948962Y-97474038D01*
X150814387Y-97363595D01*
X150660851Y-97281528D01*
X150494255Y-97230992D01*
X150321001Y-97213928D01*
X149620999Y-97213928D01*
X149447745Y-97230992D01*
X149281149Y-97281528D01*
X149127613Y-97363595D01*
X148993038Y-97474038D01*
X148971000Y-97500891D01*
X148948962Y-97474038D01*
X148814387Y-97363595D01*
X148660851Y-97281528D01*
X148494255Y-97230992D01*
X148321001Y-97213928D01*
X147620999Y-97213928D01*
X147447745Y-97230992D01*
X147281149Y-97281528D01*
X147127613Y-97363595D01*
X146993038Y-97474038D01*
X146882595Y-97608613D01*
X146800528Y-97762149D01*
X146749992Y-97928745D01*
X146732928Y-98101999D01*
X146732928Y-99002001D01*
X146749992Y-99175255D01*
X146800528Y-99341851D01*
X146882595Y-99495387D01*
X146993038Y-99629962D01*
X147127613Y-99740405D01*
X147186000Y-99771614D01*
X147186001Y-102528842D01*
X145343843Y-104371000D01*
X143040552Y-104371000D01*
X143001999Y-104367203D01*
X142963446Y-104371000D01*
X142963439Y-104371000D01*
X142862490Y-104380943D01*
X142848112Y-104382359D01*
X142813672Y-104392806D01*
X142700140Y-104427246D01*
X142563767Y-104500138D01*
X142525190Y-104531798D01*
X142474187Y-104573655D01*
X142474184Y-104573658D01*
X142444236Y-104598236D01*
X142419658Y-104628184D01*
X140263843Y-106784000D01*
X140071157Y-106784000D01*
X142529810Y-104325347D01*
X142559764Y-104300764D01*
X142657862Y-104181233D01*
X142730754Y-104044860D01*
X142739426Y-104016272D01*
X142775642Y-103896887D01*
X142786084Y-103790860D01*
X142787000Y-103781561D01*
X142787000Y-103781556D01*
X142790797Y-103743000D01*
X142787000Y-103704444D01*
X142787000Y-100156044D01*
X142850719Y-100219763D01*
X142987479Y-100311143D01*
X143139440Y-100374087D01*
X143300760Y-100406176D01*
X143465240Y-100406176D01*
X143626560Y-100374087D01*
X143778521Y-100311143D01*
X143915281Y-100219763D01*
X144031587Y-100103457D01*
X144122967Y-99966697D01*
X144140879Y-99923454D01*
X144545811Y-99518522D01*
X144575764Y-99493940D01*
X144673862Y-99374409D01*
X144746754Y-99238036D01*
X144765677Y-99175655D01*
X144791642Y-99090063D01*
X144799020Y-99015150D01*
X144803000Y-98974737D01*
X144803000Y-98974732D01*
X144806797Y-98936176D01*
X144803000Y-98897620D01*
X144803000Y-97223061D01*
X144845387Y-97200405D01*
X144979962Y-97089962D01*
X145090405Y-96955387D01*
X145172472Y-96801851D01*
X145223008Y-96635255D01*
X145240072Y-96462001D01*
X145240072Y-95561999D01*
X145223008Y-95388745D01*
X145172472Y-95222149D01*
X145090405Y-95068613D01*
X144979962Y-94934038D01*
X144845387Y-94823595D01*
X144691851Y-94741528D01*
X144525255Y-94690992D01*
X144352001Y-94673928D01*
X143651999Y-94673928D01*
X143478745Y-94690992D01*
X143312149Y-94741528D01*
X143158613Y-94823595D01*
X143024038Y-94934038D01*
X143002000Y-94960891D01*
X142979962Y-94934038D01*
X142845387Y-94823595D01*
X142691851Y-94741528D01*
X142525255Y-94690992D01*
X142352001Y-94673928D01*
X141651999Y-94673928D01*
X141478745Y-94690992D01*
X141312149Y-94741528D01*
X141158613Y-94823595D01*
X141024038Y-94934038D01*
X140913595Y-95068613D01*
X140831528Y-95222149D01*
X140780992Y-95388745D01*
X140763928Y-95561999D01*
X140763928Y-96462001D01*
X140780992Y-96635255D01*
X140831528Y-96801851D01*
X140913595Y-96955387D01*
X141024038Y-97089962D01*
X141158613Y-97200405D01*
X141217000Y-97231614D01*
X141217001Y-103417842D01*
X139120843Y-105514000D01*
X112681801Y-105514000D01*
X112638560Y-105496089D01*
X112524999Y-105473500D01*
X112638560Y-105450911D01*
X112681801Y-105433000D01*
X135216447Y-105433000D01*
X135255000Y-105436797D01*
X135293553Y-105433000D01*
X135293561Y-105433000D01*
X135408887Y-105421641D01*
X135556860Y-105376754D01*
X135693233Y-105303862D01*
X135812764Y-105205764D01*
X135837347Y-105175810D01*
X136941810Y-104071347D01*
X136971764Y-104046764D01*
X137069862Y-103927233D01*
X137142754Y-103790860D01*
X137171382Y-103696487D01*
X137187642Y-103642887D01*
X137196198Y-103556008D01*
X137199000Y-103527561D01*
X137199000Y-103527556D01*
X137202797Y-103489000D01*
X137199000Y-103450444D01*
X137199000Y-94056614D01*
X137257387Y-94025405D01*
X137391962Y-93914962D01*
X137414000Y-93888109D01*
X137436038Y-93914962D01*
X137570613Y-94025405D01*
X137645001Y-94065166D01*
X137645000Y-96233199D01*
X137627089Y-96276440D01*
X137595000Y-96437760D01*
X137595000Y-96602240D01*
X137627089Y-96763560D01*
X137690033Y-96915521D01*
X137781413Y-97052281D01*
X137897719Y-97168587D01*
X138034479Y-97259967D01*
X138186440Y-97322911D01*
X138347760Y-97355000D01*
X138512240Y-97355000D01*
X138673560Y-97322911D01*
X138825521Y-97259967D01*
X138962281Y-97168587D01*
X139078587Y-97052281D01*
X139169967Y-96915521D01*
X139232911Y-96763560D01*
X139265000Y-96602240D01*
X139265000Y-96437760D01*
X139232911Y-96276440D01*
X139215000Y-96233199D01*
X139215000Y-94048061D01*
X139257387Y-94025405D01*
X139391962Y-93914962D01*
X139502405Y-93780387D01*
X139584472Y-93626851D01*
X139635008Y-93460255D01*
X139652072Y-93287001D01*
X139652072Y-92386999D01*
X139635008Y-92213745D01*
X139584472Y-92047149D01*
X139502405Y-91893613D01*
X139391962Y-91759038D01*
X139257387Y-91648595D01*
X139103851Y-91566528D01*
X138937255Y-91515992D01*
X138764001Y-91498928D01*
X138063999Y-91498928D01*
X137890745Y-91515992D01*
X137724149Y-91566528D01*
X137570613Y-91648595D01*
X137436038Y-91759038D01*
X137414000Y-91785891D01*
X137391962Y-91759038D01*
X137257387Y-91648595D01*
X137103851Y-91566528D01*
X136937255Y-91515992D01*
X136764001Y-91498928D01*
X136063999Y-91498928D01*
X135890745Y-91515992D01*
X135724149Y-91566528D01*
X135570613Y-91648595D01*
X135436038Y-91759038D01*
X135325595Y-91893613D01*
X135243528Y-92047149D01*
X135192992Y-92213745D01*
X135175928Y-92386999D01*
X135175928Y-93287001D01*
X135192992Y-93460255D01*
X135243528Y-93626851D01*
X135325595Y-93780387D01*
X135436038Y-93914962D01*
X135570613Y-94025405D01*
X135629000Y-94056614D01*
X135629001Y-103163842D01*
X134929843Y-103863000D01*
X112681801Y-103863000D01*
X112638560Y-103845089D01*
X112477240Y-103813000D01*
X112418000Y-103813000D01*
X112418000Y-93543157D01*
X112421085Y-93540072D01*
X112999001Y-93540072D01*
X113172255Y-93523008D01*
X113338851Y-93472472D01*
X113492387Y-93390405D01*
X113626962Y-93279962D01*
X113694054Y-93198211D01*
X114243928Y-93748086D01*
X114243928Y-94126000D01*
X114256188Y-94250482D01*
X114292498Y-94370180D01*
X114351463Y-94480494D01*
X114430815Y-94577185D01*
X114527506Y-94656537D01*
X114531001Y-94658405D01*
X114531000Y-98129947D01*
X114527203Y-98168500D01*
X114531000Y-98207053D01*
X114531000Y-98207060D01*
X114542359Y-98322386D01*
X114587246Y-98470359D01*
X114660138Y-98606732D01*
X114758236Y-98726264D01*
X114788190Y-98750847D01*
X117419928Y-101382585D01*
X117419928Y-102023000D01*
X117436992Y-102196254D01*
X117487528Y-102362850D01*
X117569595Y-102516386D01*
X117680038Y-102650962D01*
X117814614Y-102761405D01*
X117968150Y-102843472D01*
X118134746Y-102894008D01*
X118308000Y-102911072D01*
X120408000Y-102911072D01*
X120581254Y-102894008D01*
X120747850Y-102843472D01*
X120901386Y-102761405D01*
X121035962Y-102650962D01*
X121146405Y-102516386D01*
X121158000Y-102494693D01*
X121169595Y-102516386D01*
X121280038Y-102650962D01*
X121414614Y-102761405D01*
X121568150Y-102843472D01*
X121734746Y-102894008D01*
X121908000Y-102911072D01*
X124008000Y-102911072D01*
X124181254Y-102894008D01*
X124347850Y-102843472D01*
X124501386Y-102761405D01*
X124635962Y-102650962D01*
X124746405Y-102516386D01*
X124828472Y-102362850D01*
X124860278Y-102258000D01*
X129638056Y-102258000D01*
X129639528Y-102262851D01*
X129721595Y-102416387D01*
X129832038Y-102550962D01*
X129966613Y-102661405D01*
X130120149Y-102743472D01*
X130286745Y-102794008D01*
X130459999Y-102811072D01*
X131160001Y-102811072D01*
X131333255Y-102794008D01*
X131499851Y-102743472D01*
X131653387Y-102661405D01*
X131787962Y-102550962D01*
X131810000Y-102524109D01*
X131832038Y-102550962D01*
X131966613Y-102661405D01*
X132120149Y-102743472D01*
X132286745Y-102794008D01*
X132459999Y-102811072D01*
X133160001Y-102811072D01*
X133333255Y-102794008D01*
X133499851Y-102743472D01*
X133653387Y-102661405D01*
X133787962Y-102550962D01*
X133898405Y-102416387D01*
X133980472Y-102262851D01*
X134031008Y-102096255D01*
X134048072Y-101923001D01*
X134048072Y-101022999D01*
X134031008Y-100849745D01*
X133980472Y-100683149D01*
X133898405Y-100529613D01*
X133787962Y-100395038D01*
X133653387Y-100284595D01*
X133595000Y-100253386D01*
X133595000Y-87960614D01*
X133653387Y-87929405D01*
X133787962Y-87818962D01*
X133898405Y-87684387D01*
X133980472Y-87530851D01*
X133981944Y-87526000D01*
X150169843Y-87526000D01*
X150534925Y-87891082D01*
X150430465Y-87960880D01*
X150235880Y-88155465D01*
X150082995Y-88384273D01*
X150071000Y-88413231D01*
X150059005Y-88384273D01*
X149906120Y-88155465D01*
X149711535Y-87960880D01*
X149482727Y-87807995D01*
X149228490Y-87702686D01*
X148958592Y-87649000D01*
X148683408Y-87649000D01*
X148413510Y-87702686D01*
X148159273Y-87807995D01*
X147930465Y-87960880D01*
X147735880Y-88155465D01*
X147582995Y-88384273D01*
X147477686Y-88638510D01*
X147424000Y-88908408D01*
X147424000Y-89183592D01*
X147477686Y-89453490D01*
X147582995Y-89707727D01*
X147735880Y-89936535D01*
X147930465Y-90131120D01*
X148159273Y-90284005D01*
X148413510Y-90389314D01*
X148683408Y-90443000D01*
X148958592Y-90443000D01*
X149228490Y-90389314D01*
X149482727Y-90284005D01*
X149711535Y-90131120D01*
X149906120Y-89936535D01*
X150059005Y-89707727D01*
X150071000Y-89678769D01*
X150082995Y-89707727D01*
X150235880Y-89936535D01*
X150430465Y-90131120D01*
X150659273Y-90284005D01*
X150913510Y-90389314D01*
X151183408Y-90443000D01*
X151458592Y-90443000D01*
X151728490Y-90389314D01*
X151982727Y-90284005D01*
X152211535Y-90131120D01*
X152406120Y-89936535D01*
X152559005Y-89707727D01*
X152571000Y-89678769D01*
X152582995Y-89707727D01*
X152735880Y-89936535D01*
X152930465Y-90131120D01*
X153159273Y-90284005D01*
X153413510Y-90389314D01*
X153683408Y-90443000D01*
X153958592Y-90443000D01*
X154228490Y-90389314D01*
X154482727Y-90284005D01*
X154711535Y-90131120D01*
X154906120Y-89936535D01*
X154976636Y-89831000D01*
X159835447Y-89831000D01*
X159874000Y-89834797D01*
X159912553Y-89831000D01*
X159912561Y-89831000D01*
X160027887Y-89819641D01*
X160175860Y-89774754D01*
X160312233Y-89701862D01*
X160431764Y-89603764D01*
X160456347Y-89573810D01*
X163581158Y-86449000D01*
X174333928Y-86449000D01*
X174333928Y-86714000D01*
X174346188Y-86838482D01*
X174382498Y-86958180D01*
X174441463Y-87068494D01*
X174520815Y-87165185D01*
X174617506Y-87244537D01*
X174727820Y-87303502D01*
X174847518Y-87339812D01*
X174972000Y-87352072D01*
X177072000Y-87352072D01*
X177196482Y-87339812D01*
X177316180Y-87303502D01*
X177426494Y-87244537D01*
X177523185Y-87165185D01*
X177602537Y-87068494D01*
X177661502Y-86958180D01*
X177697812Y-86838482D01*
X177710072Y-86714000D01*
X177710072Y-84614000D01*
X177697812Y-84489518D01*
X177661502Y-84369820D01*
X177602537Y-84259506D01*
X177523185Y-84162815D01*
X177426494Y-84083463D01*
X177316180Y-84024498D01*
X177196482Y-83988188D01*
X177072000Y-83975928D01*
X174972000Y-83975928D01*
X174847518Y-83988188D01*
X174727820Y-84024498D01*
X174617506Y-84083463D01*
X174520815Y-84162815D01*
X174441463Y-84259506D01*
X174382498Y-84369820D01*
X174346188Y-84489518D01*
X174333928Y-84614000D01*
X174333928Y-84879000D01*
X163294552Y-84879000D01*
X163255999Y-84875203D01*
X163217446Y-84879000D01*
X163217439Y-84879000D01*
X163116490Y-84888943D01*
X163102112Y-84890359D01*
X163079347Y-84897265D01*
X162954140Y-84935246D01*
X162817767Y-85008138D01*
X162786523Y-85033780D01*
X162728187Y-85081655D01*
X162728184Y-85081658D01*
X162698236Y-85106236D01*
X162673658Y-85136184D01*
X159548843Y-88261000D01*
X154976636Y-88261000D01*
X154906120Y-88155465D01*
X154711535Y-87960880D01*
X154482727Y-87807995D01*
X154228490Y-87702686D01*
X153958592Y-87649000D01*
X153683408Y-87649000D01*
X153413510Y-87702686D01*
X153159273Y-87807995D01*
X152930465Y-87960880D01*
X152735880Y-88155465D01*
X152582995Y-88384273D01*
X152571000Y-88413231D01*
X152559005Y-88384273D01*
X152406120Y-88155465D01*
X152211535Y-87960880D01*
X152106000Y-87890364D01*
X152106000Y-87605552D01*
X152109797Y-87566999D01*
X152106000Y-87528446D01*
X152106000Y-87528439D01*
X152094641Y-87413113D01*
X152090470Y-87399361D01*
X152072405Y-87339812D01*
X152049754Y-87265140D01*
X151976862Y-87128767D01*
X151927450Y-87068559D01*
X151903345Y-87039187D01*
X151903342Y-87039184D01*
X151878764Y-87009236D01*
X151848815Y-86984657D01*
X151077347Y-86213190D01*
X151052764Y-86183236D01*
X150933233Y-86085138D01*
X150796860Y-86012246D01*
X150648887Y-85967359D01*
X150533561Y-85956000D01*
X150533553Y-85956000D01*
X150495000Y-85952203D01*
X150456447Y-85956000D01*
X133981944Y-85956000D01*
X133980472Y-85951149D01*
X133898405Y-85797613D01*
X133787962Y-85663038D01*
X133653387Y-85552595D01*
X133595000Y-85521386D01*
X133595000Y-84588552D01*
X133598797Y-84549999D01*
X133595000Y-84511446D01*
X133595000Y-84511439D01*
X133583641Y-84396113D01*
X133564980Y-84334594D01*
X133538754Y-84248140D01*
X133537839Y-84246429D01*
X133465862Y-84111767D01*
X133413713Y-84048224D01*
X133392345Y-84022187D01*
X133392342Y-84022184D01*
X133367764Y-83992236D01*
X133337817Y-83967659D01*
X132778566Y-83408408D01*
X147424000Y-83408408D01*
X147424000Y-83683592D01*
X147477686Y-83953490D01*
X147582995Y-84207727D01*
X147735880Y-84436535D01*
X147930465Y-84631120D01*
X148159273Y-84784005D01*
X148413510Y-84889314D01*
X148683408Y-84943000D01*
X148958592Y-84943000D01*
X149228490Y-84889314D01*
X149482727Y-84784005D01*
X149711535Y-84631120D01*
X149906120Y-84436535D01*
X150059005Y-84207727D01*
X150071000Y-84178769D01*
X150082995Y-84207727D01*
X150235880Y-84436535D01*
X150430465Y-84631120D01*
X150659273Y-84784005D01*
X150913510Y-84889314D01*
X151183408Y-84943000D01*
X151458592Y-84943000D01*
X151728490Y-84889314D01*
X151982727Y-84784005D01*
X152211535Y-84631120D01*
X152406120Y-84436535D01*
X152559005Y-84207727D01*
X152571000Y-84178769D01*
X152582995Y-84207727D01*
X152735880Y-84436535D01*
X152930465Y-84631120D01*
X153159273Y-84784005D01*
X153413510Y-84889314D01*
X153683408Y-84943000D01*
X153958592Y-84943000D01*
X154228490Y-84889314D01*
X154482727Y-84784005D01*
X154711535Y-84631120D01*
X154906120Y-84436535D01*
X155059005Y-84207727D01*
X155164314Y-83953490D01*
X155218000Y-83683592D01*
X155218000Y-83408408D01*
X155164314Y-83138510D01*
X155059005Y-82884273D01*
X154906120Y-82655465D01*
X154711535Y-82460880D01*
X154482727Y-82307995D01*
X154228490Y-82202686D01*
X153958592Y-82149000D01*
X153683408Y-82149000D01*
X153413510Y-82202686D01*
X153159273Y-82307995D01*
X152930465Y-82460880D01*
X152735880Y-82655465D01*
X152582995Y-82884273D01*
X152571000Y-82913231D01*
X152559005Y-82884273D01*
X152406120Y-82655465D01*
X152211535Y-82460880D01*
X151982727Y-82307995D01*
X151728490Y-82202686D01*
X151458592Y-82149000D01*
X151183408Y-82149000D01*
X150913510Y-82202686D01*
X150659273Y-82307995D01*
X150430465Y-82460880D01*
X150235880Y-82655465D01*
X150082995Y-82884273D01*
X150071000Y-82913231D01*
X150059005Y-82884273D01*
X149906120Y-82655465D01*
X149711535Y-82460880D01*
X149482727Y-82307995D01*
X149228490Y-82202686D01*
X148958592Y-82149000D01*
X148683408Y-82149000D01*
X148413510Y-82202686D01*
X148159273Y-82307995D01*
X147930465Y-82460880D01*
X147735880Y-82655465D01*
X147582995Y-82884273D01*
X147477686Y-83138510D01*
X147424000Y-83408408D01*
X132778566Y-83408408D01*
X131392347Y-82022190D01*
X131367764Y-81992236D01*
X131248233Y-81894138D01*
X131111860Y-81821246D01*
X130963887Y-81776359D01*
X130848561Y-81765000D01*
X130848553Y-81765000D01*
X130810000Y-81761203D01*
X130771447Y-81765000D01*
X112433552Y-81765000D01*
X112394999Y-81761203D01*
X112356446Y-81765000D01*
X112356439Y-81765000D01*
X112257977Y-81774698D01*
X112241112Y-81776359D01*
X112214249Y-81784508D01*
X112093140Y-81821246D01*
X111956767Y-81894138D01*
X111896559Y-81943550D01*
X111867187Y-81967655D01*
X111867184Y-81967658D01*
X111837236Y-81992236D01*
X111812658Y-82022184D01*
X109978185Y-83856658D01*
X109948237Y-83881236D01*
X109923659Y-83911184D01*
X109923655Y-83911188D01*
X109894198Y-83947082D01*
X109850139Y-84000767D01*
X109832545Y-84033684D01*
X109777246Y-84137141D01*
X109732359Y-84285114D01*
X109717203Y-84439000D01*
X109721001Y-84477563D01*
X109721001Y-85521386D01*
X109662613Y-85552595D01*
X109528038Y-85663038D01*
X109417595Y-85797613D01*
X109335528Y-85951149D01*
X109284992Y-86117745D01*
X109267928Y-86290999D01*
X109267928Y-86868914D01*
X108057185Y-88079658D01*
X108027237Y-88104236D01*
X108002659Y-88134184D01*
X108002655Y-88134188D01*
X107990216Y-88149345D01*
X107929139Y-88223767D01*
X107890662Y-88295753D01*
X107856246Y-88360141D01*
X107811359Y-88508114D01*
X107796203Y-88662000D01*
X107800001Y-88700563D01*
X107800000Y-106039828D01*
X107778240Y-106035500D01*
X107613760Y-106035500D01*
X107452440Y-106067589D01*
X107300479Y-106130533D01*
X107163719Y-106221913D01*
X107047413Y-106338219D01*
X106956033Y-106474979D01*
X106893089Y-106626940D01*
X106861000Y-106788260D01*
X106861000Y-106952740D01*
X106893089Y-107114060D01*
X106911000Y-107157301D01*
X106911001Y-117696196D01*
X106893089Y-117739440D01*
X106861000Y-117900760D01*
X106861000Y-118065240D01*
X106893089Y-118226560D01*
X106956033Y-118378521D01*
X107047413Y-118515281D01*
X107163719Y-118631587D01*
X107263870Y-118698506D01*
X106675000Y-118695928D01*
X106550518Y-118708188D01*
X106430820Y-118744498D01*
X106320506Y-118803463D01*
X106223815Y-118882815D01*
X106144463Y-118979506D01*
X106085498Y-119089820D01*
X106049188Y-119209518D01*
X106036928Y-119334000D01*
X106040000Y-119348250D01*
X106198750Y-119507000D01*
X107535500Y-119507000D01*
X107535500Y-119487000D01*
X107789500Y-119487000D01*
X107789500Y-119507000D01*
X107809500Y-119507000D01*
X107809500Y-119761000D01*
X107789500Y-119761000D01*
X107789500Y-119781000D01*
X107535500Y-119781000D01*
X107535500Y-119761000D01*
X106198750Y-119761000D01*
X106040000Y-119919750D01*
X106036928Y-119934000D01*
X106049188Y-120058482D01*
X106067053Y-120117375D01*
X106045000Y-120115203D01*
X106006444Y-120119000D01*
X106006439Y-120119000D01*
X105966026Y-120122980D01*
X105891113Y-120130358D01*
X105743140Y-120175246D01*
X105606767Y-120248138D01*
X105553322Y-120292000D01*
X105517187Y-120321655D01*
X105517184Y-120321658D01*
X105487236Y-120346236D01*
X105462657Y-120376185D01*
X104501185Y-121337658D01*
X104471237Y-121362236D01*
X104446659Y-121392184D01*
X104446655Y-121392188D01*
X104414136Y-121431813D01*
X104373139Y-121481767D01*
X104356919Y-121512113D01*
X104300246Y-121618141D01*
X104255359Y-121766114D01*
X104240203Y-121920000D01*
X96985149Y-121920000D01*
X96985149Y-106900224D01*
X99776200Y-106900224D01*
X99776200Y-107399576D01*
X99873618Y-107889332D01*
X100064712Y-108350673D01*
X100342137Y-108765868D01*
X100695232Y-109118963D01*
X101110427Y-109396388D01*
X101571768Y-109587482D01*
X102061524Y-109684900D01*
X102560876Y-109684900D01*
X103050632Y-109587482D01*
X103511973Y-109396388D01*
X103927168Y-109118963D01*
X104280263Y-108765868D01*
X104557688Y-108350673D01*
X104748782Y-107889332D01*
X104846200Y-107399576D01*
X104846200Y-106900224D01*
X104748782Y-106410468D01*
X104557688Y-105949127D01*
X104280263Y-105533932D01*
X103927168Y-105180837D01*
X103511973Y-104903412D01*
X103050632Y-104712318D01*
X102560876Y-104614900D01*
X102061524Y-104614900D01*
X101571768Y-104712318D01*
X101110427Y-104903412D01*
X100695232Y-105180837D01*
X100342137Y-105533932D01*
X100064712Y-105949127D01*
X99873618Y-106410468D01*
X99776200Y-106900224D01*
X96985149Y-106900224D01*
X96985149Y-84709938D01*
X96986679Y-84586524D01*
X96991103Y-84467621D01*
X96998446Y-84349184D01*
X97008690Y-84231235D01*
X97021820Y-84113737D01*
X97037808Y-83996820D01*
X97056640Y-83880484D01*
X97078290Y-83764810D01*
X97102741Y-83649837D01*
X97129970Y-83535616D01*
X97159971Y-83422148D01*
X97192693Y-83309588D01*
X97228153Y-83197864D01*
X97266302Y-83087117D01*
X97307123Y-82977376D01*
X97350615Y-82868644D01*
X97396752Y-82760992D01*
X97445486Y-82654526D01*
X97496823Y-82549240D01*
X97550733Y-82445198D01*
X97607211Y-82342423D01*
X97666213Y-82241006D01*
X97727732Y-82140976D01*
X97791750Y-82042375D01*
X97858215Y-81945301D01*
X97927162Y-81849721D01*
X97998545Y-81755721D01*
X98072327Y-81663376D01*
X98148497Y-81572718D01*
X98227058Y-81483770D01*
X98307977Y-81396598D01*
X98391240Y-81311244D01*
X98476572Y-81228002D01*
X98563763Y-81147065D01*
X98652709Y-81068505D01*
X98743392Y-80992316D01*
X98835709Y-80918557D01*
X98929708Y-80847174D01*
X99025294Y-80778221D01*
X99122368Y-80711757D01*
X99220969Y-80647739D01*
X99320999Y-80586220D01*
X99422416Y-80527218D01*
X99525191Y-80470740D01*
X99629233Y-80416830D01*
X99734532Y-80365488D01*
X99841030Y-80316740D01*
X99948623Y-80270628D01*
X100057370Y-80227130D01*
X100167110Y-80186309D01*
X100277868Y-80148156D01*
X100389570Y-80112703D01*
X100502151Y-80079975D01*
X100615608Y-80049977D01*
X100729830Y-80022747D01*
X100844795Y-79998299D01*
X100960490Y-79976645D01*
X101076812Y-79957815D01*
X101193735Y-79941826D01*
X101311235Y-79928696D01*
X101429177Y-79918453D01*
X101547614Y-79911110D01*
X101666518Y-79906686D01*
X101789931Y-79905156D01*
X185600902Y-79905156D01*
X185724315Y-79906686D01*
%TA.AperFunction,Conductor*%
D20*
G36*
X185724315Y-79906686D02*
G01*
X185843218Y-79911110D01*
X185961655Y-79918453D01*
X186079604Y-79928697D01*
X186197102Y-79941827D01*
X186314019Y-79957815D01*
X186430355Y-79976647D01*
X186546029Y-79998297D01*
X186661002Y-80022748D01*
X186775223Y-80049977D01*
X186888691Y-80079978D01*
X187001251Y-80112700D01*
X187112975Y-80148160D01*
X187223722Y-80186309D01*
X187333463Y-80227130D01*
X187442195Y-80270622D01*
X187549847Y-80316759D01*
X187656313Y-80365493D01*
X187761599Y-80416830D01*
X187865641Y-80470740D01*
X187968416Y-80527218D01*
X188069833Y-80586220D01*
X188169863Y-80647739D01*
X188268464Y-80711757D01*
X188365551Y-80778230D01*
X188461106Y-80847160D01*
X188555120Y-80918555D01*
X188647461Y-80992332D01*
X188738132Y-81068514D01*
X188827069Y-81147065D01*
X188914241Y-81227984D01*
X188999598Y-81311249D01*
X189082832Y-81396573D01*
X189163777Y-81483773D01*
X189242334Y-81572716D01*
X189318523Y-81663399D01*
X189392283Y-81755716D01*
X189463668Y-81849717D01*
X189532619Y-81945301D01*
X189599092Y-82042389D01*
X189663099Y-82140974D01*
X189724614Y-82240998D01*
X189783629Y-82342435D01*
X189840100Y-82445198D01*
X189894008Y-82549236D01*
X189945351Y-82654538D01*
X189994099Y-82761037D01*
X190040211Y-82868630D01*
X190083699Y-82977350D01*
X190124523Y-83087094D01*
X190162678Y-83197861D01*
X190198136Y-83309577D01*
X190230864Y-83422158D01*
X190260862Y-83535615D01*
X190288092Y-83649837D01*
X190312540Y-83764802D01*
X190334194Y-83880497D01*
X190353024Y-83996819D01*
X190369013Y-84113742D01*
X190382143Y-84231242D01*
X190392386Y-84349184D01*
X190399729Y-84467621D01*
X190404153Y-84586525D01*
X190405684Y-84709945D01*
X190405685Y-129720814D01*
X190404153Y-129844314D01*
X190399729Y-129963218D01*
X190392386Y-130081655D01*
X190382143Y-130199597D01*
X190369013Y-130317097D01*
X190353024Y-130434020D01*
X190334194Y-130550342D01*
X190312540Y-130666037D01*
X190288092Y-130781002D01*
X190260862Y-130895224D01*
X190230864Y-131008681D01*
X190198136Y-131121262D01*
X190162678Y-131232978D01*
X190124523Y-131343745D01*
X190083699Y-131453489D01*
X190040211Y-131562209D01*
X189994099Y-131669802D01*
X189945351Y-131776301D01*
X189894008Y-131881603D01*
X189840100Y-131985641D01*
X189783629Y-132088404D01*
X189724614Y-132189841D01*
X189663099Y-132289865D01*
X189599092Y-132388450D01*
X189532610Y-132485551D01*
X189463667Y-132581124D01*
X189392300Y-132675101D01*
X189318510Y-132767457D01*
X189242325Y-132858132D01*
X189163777Y-132947066D01*
X189082832Y-133034266D01*
X188999596Y-133119593D01*
X188914247Y-133202850D01*
X188827066Y-133283777D01*
X188738132Y-133362325D01*
X188647461Y-133438507D01*
X188555101Y-133512300D01*
X188461124Y-133583667D01*
X188365551Y-133652610D01*
X188268476Y-133719075D01*
X188169881Y-133783089D01*
X188069841Y-133844614D01*
X187968404Y-133903629D01*
X187865641Y-133960100D01*
X187761588Y-134014016D01*
X187656314Y-134065345D01*
X187549847Y-134114080D01*
X187442195Y-134160217D01*
X187333479Y-134203702D01*
X187223703Y-134244538D01*
X187112955Y-134282685D01*
X187001251Y-134318139D01*
X186888691Y-134350861D01*
X186775223Y-134380862D01*
X186661002Y-134408091D01*
X186546029Y-134432542D01*
X186430355Y-134454192D01*
X186314019Y-134473024D01*
X186197102Y-134489012D01*
X186079604Y-134502142D01*
X185961655Y-134512386D01*
X185843218Y-134519729D01*
X185724315Y-134524153D01*
X185600895Y-134525684D01*
X101789938Y-134525684D01*
X101666518Y-134524153D01*
X101547614Y-134519729D01*
X101429177Y-134512386D01*
X101311235Y-134502143D01*
X101193735Y-134489013D01*
X101076812Y-134473024D01*
X100960490Y-134454194D01*
X100844795Y-134432540D01*
X100729830Y-134408092D01*
X100615608Y-134380862D01*
X100502151Y-134350864D01*
X100389570Y-134318136D01*
X100277854Y-134282678D01*
X100167087Y-134244523D01*
X100057343Y-134203699D01*
X99948623Y-134160211D01*
X99841030Y-134114099D01*
X99734531Y-134065351D01*
X99629229Y-134014008D01*
X99525191Y-133960100D01*
X99422428Y-133903629D01*
X99320991Y-133844614D01*
X99220967Y-133783099D01*
X99122382Y-133719092D01*
X99025294Y-133652619D01*
X98929710Y-133583668D01*
X98835709Y-133512283D01*
X98743392Y-133438523D01*
X98652709Y-133362334D01*
X98563766Y-133283777D01*
X98476566Y-133202832D01*
X98391242Y-133119598D01*
X98307977Y-133034241D01*
X98227058Y-132947069D01*
X98148507Y-132858132D01*
X98072325Y-132767461D01*
X97998548Y-132675120D01*
X97927153Y-132581106D01*
X97858223Y-132485551D01*
X97791750Y-132388464D01*
X97727732Y-132289863D01*
X97666213Y-132189833D01*
X97607211Y-132088416D01*
X97550733Y-131985641D01*
X97496823Y-131881599D01*
X97445486Y-131776313D01*
X97396752Y-131669847D01*
X97350615Y-131562195D01*
X97307123Y-131453463D01*
X97266302Y-131343722D01*
X97228153Y-131232975D01*
X97192693Y-131121251D01*
X97159971Y-131008691D01*
X97129970Y-130895223D01*
X97102741Y-130781002D01*
X97078290Y-130666029D01*
X97056640Y-130550355D01*
X97037808Y-130434019D01*
X97021820Y-130317102D01*
X97008690Y-130199604D01*
X96998446Y-130081655D01*
X96991103Y-129963218D01*
X96986679Y-129844315D01*
X96985149Y-129720902D01*
X96985149Y-121920000D01*
X104240203Y-121920000D01*
X104244001Y-121958563D01*
X104244000Y-130136447D01*
X104240203Y-130175000D01*
X104244000Y-130213553D01*
X104244000Y-130213560D01*
X104255359Y-130328886D01*
X104300246Y-130476859D01*
X104373138Y-130613232D01*
X104471236Y-130732764D01*
X104501190Y-130757347D01*
X107113653Y-133369810D01*
X107138236Y-133399764D01*
X107257767Y-133497862D01*
X107382129Y-133564334D01*
X107394140Y-133570754D01*
X107542113Y-133615642D01*
X107617026Y-133623020D01*
X107657439Y-133627000D01*
X107657444Y-133627000D01*
X107696000Y-133630797D01*
X107734556Y-133627000D01*
X142328447Y-133627000D01*
X142367000Y-133630797D01*
X142405553Y-133627000D01*
X142405561Y-133627000D01*
X142520887Y-133615641D01*
X142668860Y-133570754D01*
X142805233Y-133497862D01*
X142924764Y-133399764D01*
X142949347Y-133369810D01*
X144942816Y-131376342D01*
X144972764Y-131351764D01*
X144999613Y-131319050D01*
X145029121Y-131283094D01*
X145070862Y-131232233D01*
X145143754Y-131095860D01*
X145181402Y-130971752D01*
X145188641Y-130947888D01*
X145191805Y-130915765D01*
X145200000Y-130832561D01*
X145200000Y-130832554D01*
X145203797Y-130794001D01*
X145200000Y-130755448D01*
X145200000Y-120726614D01*
X145258387Y-120695405D01*
X145392962Y-120584962D01*
X145415000Y-120558109D01*
X145437038Y-120584962D01*
X145571613Y-120695405D01*
X145725149Y-120777472D01*
X145891745Y-120828008D01*
X145946025Y-120833354D01*
X145941212Y-120857548D01*
X145941212Y-121022028D01*
X145973301Y-121183348D01*
X146036245Y-121335309D01*
X146127625Y-121472069D01*
X146243931Y-121588375D01*
X146380691Y-121679755D01*
X146532652Y-121742699D01*
X146693972Y-121774788D01*
X146858452Y-121774788D01*
X147019772Y-121742699D01*
X147171733Y-121679755D01*
X147308493Y-121588375D01*
X147424799Y-121472069D01*
X147516179Y-121335309D01*
X147579123Y-121183348D01*
X147611212Y-121022028D01*
X147611212Y-120857548D01*
X147579123Y-120696228D01*
X147561212Y-120652987D01*
X147561212Y-120342238D01*
X147585472Y-120296851D01*
X147636008Y-120130255D01*
X147653072Y-119957001D01*
X147653072Y-119056999D01*
X147636008Y-118883745D01*
X147585472Y-118717149D01*
X147503405Y-118563613D01*
X147392962Y-118429038D01*
X147258387Y-118318595D01*
X147104851Y-118236528D01*
X146938255Y-118185992D01*
X146765001Y-118168928D01*
X146064999Y-118168928D01*
X145891745Y-118185992D01*
X145725149Y-118236528D01*
X145571613Y-118318595D01*
X145437038Y-118429038D01*
X145415000Y-118455891D01*
X145392962Y-118429038D01*
X145258387Y-118318595D01*
X145104851Y-118236528D01*
X144938255Y-118185992D01*
X144765001Y-118168928D01*
X144064999Y-118168928D01*
X143891745Y-118185992D01*
X143725149Y-118236528D01*
X143571613Y-118318595D01*
X143437038Y-118429038D01*
X143326595Y-118563613D01*
X143271620Y-118666463D01*
X142676000Y-118070843D01*
X142676000Y-116789614D01*
X142734387Y-116758405D01*
X142868962Y-116647962D01*
X142891000Y-116621109D01*
X142913038Y-116647962D01*
X143047613Y-116758405D01*
X143201149Y-116840472D01*
X143367745Y-116891008D01*
X143540999Y-116908072D01*
X144241001Y-116908072D01*
X144414255Y-116891008D01*
X144580851Y-116840472D01*
X144734387Y-116758405D01*
X144868962Y-116647962D01*
X144979405Y-116513387D01*
X145061472Y-116359851D01*
X145112008Y-116193255D01*
X145129072Y-116020001D01*
X145129072Y-115119999D01*
X145112008Y-114946745D01*
X145061472Y-114780149D01*
X144979405Y-114626613D01*
X144868962Y-114492038D01*
X144734387Y-114381595D01*
X144676000Y-114350386D01*
X144676000Y-114196443D01*
X144727420Y-114145022D01*
X144770664Y-114127110D01*
X144907424Y-114035730D01*
X145023730Y-113919424D01*
X145115110Y-113782664D01*
X145178054Y-113630703D01*
X145210143Y-113469383D01*
X145210143Y-113304903D01*
X145178054Y-113143583D01*
X145115110Y-112991622D01*
X145023730Y-112854862D01*
X144907424Y-112738556D01*
X144770664Y-112647176D01*
X144618703Y-112584232D01*
X144457383Y-112552143D01*
X144292903Y-112552143D01*
X144131583Y-112584232D01*
X143979622Y-112647176D01*
X143842862Y-112738556D01*
X143726556Y-112854862D01*
X143635176Y-112991622D01*
X143617264Y-113034866D01*
X143363186Y-113288943D01*
X143333237Y-113313522D01*
X143308659Y-113343470D01*
X143308655Y-113343474D01*
X143280522Y-113377754D01*
X143235139Y-113433053D01*
X143196177Y-113505946D01*
X143162246Y-113569427D01*
X143117359Y-113717400D01*
X143102203Y-113871286D01*
X143106001Y-113909848D01*
X143106001Y-114350386D01*
X143047613Y-114381595D01*
X142913038Y-114492038D01*
X142891000Y-114518891D01*
X142868962Y-114492038D01*
X142734387Y-114381595D01*
X142580851Y-114299528D01*
X142414255Y-114248992D01*
X142241001Y-114231928D01*
X141540999Y-114231928D01*
X141367745Y-114248992D01*
X141201149Y-114299528D01*
X141047613Y-114381595D01*
X140913038Y-114492038D01*
X140802595Y-114626613D01*
X140720528Y-114780149D01*
X140669992Y-114946745D01*
X140652928Y-115119999D01*
X140652928Y-116020001D01*
X140669992Y-116193255D01*
X140720528Y-116359851D01*
X140802595Y-116513387D01*
X140913038Y-116647962D01*
X141047613Y-116758405D01*
X141106001Y-116789614D01*
X141106000Y-118357447D01*
X141102203Y-118396000D01*
X141106000Y-118434553D01*
X141106000Y-118434560D01*
X141117359Y-118549886D01*
X141162246Y-118697859D01*
X141235138Y-118834232D01*
X141333236Y-118953764D01*
X141363190Y-118978347D01*
X142419658Y-120034815D01*
X142444236Y-120064764D01*
X142474184Y-120089342D01*
X142474187Y-120089345D01*
X142503559Y-120113450D01*
X142563767Y-120162862D01*
X142700140Y-120235754D01*
X142808182Y-120268528D01*
X142848112Y-120280641D01*
X142862490Y-120282057D01*
X142963439Y-120292000D01*
X142963446Y-120292000D01*
X143001999Y-120295797D01*
X143040552Y-120292000D01*
X143243056Y-120292000D01*
X143244528Y-120296851D01*
X143326595Y-120450387D01*
X143437038Y-120584962D01*
X143571613Y-120695405D01*
X143630000Y-120726614D01*
X143630001Y-130468841D01*
X142041843Y-132057000D01*
X137023157Y-132057000D01*
X138100815Y-130979342D01*
X138130764Y-130954764D01*
X138159808Y-130919375D01*
X138188556Y-130884345D01*
X138228862Y-130835233D01*
X138301754Y-130698860D01*
X138306923Y-130681821D01*
X138346642Y-130550887D01*
X138354766Y-130468393D01*
X138358000Y-130435561D01*
X138358000Y-130435556D01*
X138361797Y-130397000D01*
X138358000Y-130358445D01*
X138358000Y-129292555D01*
X138361797Y-129254000D01*
X138358000Y-129215440D01*
X138358000Y-122758614D01*
X138416387Y-122727405D01*
X138550962Y-122616962D01*
X138573000Y-122590109D01*
X138595038Y-122616962D01*
X138729613Y-122727405D01*
X138883149Y-122809472D01*
X139049745Y-122860008D01*
X139222999Y-122877072D01*
X139364956Y-122877072D01*
X139337212Y-123016548D01*
X139337212Y-123181028D01*
X139369301Y-123342348D01*
X139432245Y-123494309D01*
X139523625Y-123631069D01*
X139639931Y-123747375D01*
X139776691Y-123838755D01*
X139928652Y-123901699D01*
X140089972Y-123933788D01*
X140254452Y-123933788D01*
X140415772Y-123901699D01*
X140567733Y-123838755D01*
X140704493Y-123747375D01*
X140820799Y-123631069D01*
X140912179Y-123494309D01*
X140975123Y-123342348D01*
X141007212Y-123181028D01*
X141007212Y-123016548D01*
X140975123Y-122855228D01*
X140957212Y-122811987D01*
X140957212Y-122176768D01*
X140961009Y-122138212D01*
X140957212Y-122099656D01*
X140957212Y-122099651D01*
X140949761Y-122024000D01*
X140945854Y-121984325D01*
X140900966Y-121836352D01*
X140875196Y-121788139D01*
X140828074Y-121699979D01*
X140811072Y-121679262D01*
X140811072Y-121088999D01*
X140794008Y-120915745D01*
X140743472Y-120749149D01*
X140661405Y-120595613D01*
X140550962Y-120461038D01*
X140416387Y-120350595D01*
X140262851Y-120268528D01*
X140096255Y-120217992D01*
X139923001Y-120200928D01*
X139222999Y-120200928D01*
X139049745Y-120217992D01*
X138883149Y-120268528D01*
X138729613Y-120350595D01*
X138595038Y-120461038D01*
X138573000Y-120487891D01*
X138550962Y-120461038D01*
X138416387Y-120350595D01*
X138262851Y-120268528D01*
X138096255Y-120217992D01*
X137923001Y-120200928D01*
X137222999Y-120200928D01*
X137049745Y-120217992D01*
X136883149Y-120268528D01*
X136729613Y-120350595D01*
X136595038Y-120461038D01*
X136484595Y-120595613D01*
X136402528Y-120749149D01*
X136401056Y-120754000D01*
X133580158Y-120754000D01*
X133389000Y-120562843D01*
X133389000Y-120218614D01*
X133447387Y-120187405D01*
X133581962Y-120076962D01*
X133604000Y-120050109D01*
X133626038Y-120076962D01*
X133760613Y-120187405D01*
X133914149Y-120269472D01*
X134080745Y-120320008D01*
X134253999Y-120337072D01*
X134954001Y-120337072D01*
X135127255Y-120320008D01*
X135293851Y-120269472D01*
X135447387Y-120187405D01*
X135581962Y-120076962D01*
X135692405Y-119942387D01*
X135774472Y-119788851D01*
X135825008Y-119622255D01*
X135842072Y-119449001D01*
X135842072Y-118548999D01*
X135825008Y-118375745D01*
X135774472Y-118209149D01*
X135692405Y-118055613D01*
X135581962Y-117921038D01*
X135447387Y-117810595D01*
X135389000Y-117779386D01*
X135389000Y-117720595D01*
X135507355Y-117641513D01*
X135623661Y-117525207D01*
X135715041Y-117388447D01*
X135777985Y-117236486D01*
X135810074Y-117075166D01*
X135810074Y-116910686D01*
X135777985Y-116749366D01*
X135715041Y-116597405D01*
X135623661Y-116460645D01*
X135507355Y-116344339D01*
X135370595Y-116252959D01*
X135218634Y-116190015D01*
X135057314Y-116157926D01*
X134892834Y-116157926D01*
X134731514Y-116190015D01*
X134579553Y-116252959D01*
X134442793Y-116344339D01*
X134326487Y-116460645D01*
X134235107Y-116597405D01*
X134217195Y-116640648D01*
X134076186Y-116781657D01*
X134046237Y-116806236D01*
X134021659Y-116836184D01*
X134021655Y-116836188D01*
X133988690Y-116876356D01*
X133948139Y-116925767D01*
X133937251Y-116946138D01*
X133875246Y-117062141D01*
X133830359Y-117210114D01*
X133815203Y-117364000D01*
X133819001Y-117402562D01*
X133819001Y-117779386D01*
X133760613Y-117810595D01*
X133626038Y-117921038D01*
X133604000Y-117947891D01*
X133581962Y-117921038D01*
X133447387Y-117810595D01*
X133293851Y-117728528D01*
X133127255Y-117677992D01*
X132954001Y-117660928D01*
X132253999Y-117660928D01*
X132080745Y-117677992D01*
X131914149Y-117728528D01*
X131760613Y-117810595D01*
X131626038Y-117921038D01*
X131515595Y-118055613D01*
X131433528Y-118209149D01*
X131382992Y-118375745D01*
X131365928Y-118548999D01*
X131365928Y-119449001D01*
X131382992Y-119622255D01*
X131433528Y-119788851D01*
X131515595Y-119942387D01*
X131626038Y-120076962D01*
X131760613Y-120187405D01*
X131819001Y-120218614D01*
X131819001Y-120849438D01*
X131815203Y-120888000D01*
X131830359Y-121041886D01*
X131875246Y-121189859D01*
X131900518Y-121237140D01*
X131948139Y-121326233D01*
X131979250Y-121364141D01*
X132021655Y-121415812D01*
X132021659Y-121415816D01*
X132046237Y-121445764D01*
X132076185Y-121470342D01*
X132672657Y-122066815D01*
X132697236Y-122096764D01*
X132727184Y-122121342D01*
X132727187Y-122121345D01*
X132745327Y-122136232D01*
X132816767Y-122194862D01*
X132887984Y-122232928D01*
X132491999Y-122232928D01*
X132318745Y-122249992D01*
X132152149Y-122300528D01*
X131998613Y-122382595D01*
X131864038Y-122493038D01*
X131842000Y-122519891D01*
X131819962Y-122493038D01*
X131685387Y-122382595D01*
X131531851Y-122300528D01*
X131365255Y-122249992D01*
X131192001Y-122232928D01*
X130491999Y-122232928D01*
X130318745Y-122249992D01*
X130152149Y-122300528D01*
X129998613Y-122382595D01*
X129864038Y-122493038D01*
X129753595Y-122627613D01*
X129671528Y-122781149D01*
X129670056Y-122786000D01*
X127706158Y-122786000D01*
X126293000Y-121372843D01*
X126293000Y-116662614D01*
X126351387Y-116631405D01*
X126485962Y-116520962D01*
X126508000Y-116494109D01*
X126530038Y-116520962D01*
X126664613Y-116631405D01*
X126818149Y-116713472D01*
X126984745Y-116764008D01*
X127157999Y-116781072D01*
X127858001Y-116781072D01*
X128031255Y-116764008D01*
X128197851Y-116713472D01*
X128351387Y-116631405D01*
X128485962Y-116520962D01*
X128596405Y-116386387D01*
X128678472Y-116232851D01*
X128729008Y-116066255D01*
X128746072Y-115893001D01*
X128746072Y-114992999D01*
X128729008Y-114819745D01*
X128678472Y-114653149D01*
X128596405Y-114499613D01*
X128485962Y-114365038D01*
X128351387Y-114254595D01*
X128197851Y-114172528D01*
X128031255Y-114121992D01*
X127858001Y-114104928D01*
X127749212Y-114104928D01*
X127749212Y-113535013D01*
X127767123Y-113491772D01*
X127799212Y-113330452D01*
X127799212Y-113165972D01*
X127767123Y-113004652D01*
X127704179Y-112852691D01*
X127612799Y-112715931D01*
X127496493Y-112599625D01*
X127359733Y-112508245D01*
X127207772Y-112445301D01*
X127070523Y-112418000D01*
X146307056Y-112418000D01*
X146308528Y-112422851D01*
X146390595Y-112576387D01*
X146501038Y-112710962D01*
X146635613Y-112821405D01*
X146694001Y-112852614D01*
X146694000Y-116452447D01*
X146690203Y-116491000D01*
X146694000Y-116529553D01*
X146694000Y-116529560D01*
X146705359Y-116644886D01*
X146750246Y-116792859D01*
X146823138Y-116929232D01*
X146921236Y-117048764D01*
X146951190Y-117073347D01*
X148007658Y-118129815D01*
X148032236Y-118159764D01*
X148062184Y-118184342D01*
X148062187Y-118184345D01*
X148064194Y-118185992D01*
X148151767Y-118257862D01*
X148157873Y-118261126D01*
X148197528Y-118391851D01*
X148279595Y-118545387D01*
X148390038Y-118679962D01*
X148524613Y-118790405D01*
X148678149Y-118872472D01*
X148844745Y-118923008D01*
X149017999Y-118940072D01*
X149718001Y-118940072D01*
X149891255Y-118923008D01*
X150057851Y-118872472D01*
X150211387Y-118790405D01*
X150345962Y-118679962D01*
X150368000Y-118653109D01*
X150390038Y-118679962D01*
X150524613Y-118790405D01*
X150678149Y-118872472D01*
X150844745Y-118923008D01*
X151017999Y-118940072D01*
X151602588Y-118940072D01*
X151654606Y-118982763D01*
X152277122Y-119605280D01*
X152295033Y-119648521D01*
X152386413Y-119785281D01*
X152502719Y-119901587D01*
X152639479Y-119992967D01*
X152791440Y-120055911D01*
X152952760Y-120088000D01*
X153117240Y-120088000D01*
X153278560Y-120055911D01*
X153430521Y-119992967D01*
X153567281Y-119901587D01*
X153683587Y-119785281D01*
X153774967Y-119648521D01*
X153837911Y-119496560D01*
X153870000Y-119335240D01*
X153870000Y-119170760D01*
X153837911Y-119009440D01*
X153774967Y-118857479D01*
X153683587Y-118720719D01*
X153567281Y-118604413D01*
X153430521Y-118513033D01*
X153387280Y-118495122D01*
X152691532Y-117799375D01*
X152666949Y-117769421D01*
X152606072Y-117719460D01*
X152606072Y-117151999D01*
X152589008Y-116978745D01*
X152538472Y-116812149D01*
X152456405Y-116658613D01*
X152345962Y-116524038D01*
X152211387Y-116413595D01*
X152057851Y-116331528D01*
X151891255Y-116280992D01*
X151718001Y-116263928D01*
X151017999Y-116263928D01*
X150844745Y-116280992D01*
X150678149Y-116331528D01*
X150524613Y-116413595D01*
X150390038Y-116524038D01*
X150368000Y-116550891D01*
X150345962Y-116524038D01*
X150211387Y-116413595D01*
X150057851Y-116331528D01*
X149891255Y-116280992D01*
X149718001Y-116263928D01*
X149017999Y-116263928D01*
X148844745Y-116280992D01*
X148678149Y-116331528D01*
X148524613Y-116413595D01*
X148517549Y-116419392D01*
X148264000Y-116165843D01*
X148264000Y-112852614D01*
X148322387Y-112821405D01*
X148456962Y-112710962D01*
X148479000Y-112684109D01*
X148501038Y-112710962D01*
X148635613Y-112821405D01*
X148789149Y-112903472D01*
X148955745Y-112954008D01*
X149128999Y-112971072D01*
X149829001Y-112971072D01*
X150002255Y-112954008D01*
X150168851Y-112903472D01*
X150322387Y-112821405D01*
X150456962Y-112710962D01*
X150567405Y-112576387D01*
X150649472Y-112422851D01*
X150700008Y-112256255D01*
X150717072Y-112083001D01*
X150717072Y-111182999D01*
X150700008Y-111009745D01*
X150649472Y-110843149D01*
X150567405Y-110689613D01*
X150456962Y-110555038D01*
X150322387Y-110444595D01*
X150264000Y-110413386D01*
X150264000Y-109004556D01*
X150267797Y-108966000D01*
X150264000Y-108927440D01*
X150264000Y-108927439D01*
X150260020Y-108887026D01*
X150252642Y-108812113D01*
X150207754Y-108664140D01*
X150199557Y-108648804D01*
X150134862Y-108527767D01*
X150036764Y-108408236D01*
X150006811Y-108383654D01*
X149305919Y-107682762D01*
X149281336Y-107652808D01*
X149207242Y-107592000D01*
X156044447Y-107592000D01*
X156083000Y-107595797D01*
X156121553Y-107592000D01*
X156121561Y-107592000D01*
X156236887Y-107580641D01*
X156384860Y-107535754D01*
X156521233Y-107462862D01*
X156640764Y-107364764D01*
X156665347Y-107334810D01*
X157165091Y-106835066D01*
X175030539Y-106835066D01*
X175132339Y-107104579D01*
X175430477Y-107250463D01*
X175751346Y-107335380D01*
X176082617Y-107356066D01*
X176411557Y-107311728D01*
X176725527Y-107204069D01*
X176911661Y-107104579D01*
X177013461Y-106835066D01*
X176022000Y-105843605D01*
X175030539Y-106835066D01*
X157165091Y-106835066D01*
X158275540Y-105724617D01*
X174329934Y-105724617D01*
X174374272Y-106053557D01*
X174481931Y-106367527D01*
X174581421Y-106553661D01*
X174850934Y-106655461D01*
X175842395Y-105664000D01*
X176201605Y-105664000D01*
X177193066Y-106655461D01*
X177462579Y-106553661D01*
X177608463Y-106255523D01*
X177693380Y-105934654D01*
X177714066Y-105603383D01*
X177669728Y-105274443D01*
X177562069Y-104960473D01*
X177462579Y-104774339D01*
X177193066Y-104672539D01*
X176201605Y-105664000D01*
X175842395Y-105664000D01*
X174850934Y-104672539D01*
X174581421Y-104774339D01*
X174435537Y-105072477D01*
X174350620Y-105393346D01*
X174329934Y-105724617D01*
X158275540Y-105724617D01*
X158801816Y-105198342D01*
X158831764Y-105173764D01*
X158857494Y-105142413D01*
X158880450Y-105114441D01*
X158929862Y-105054233D01*
X159002754Y-104917860D01*
X159010732Y-104891560D01*
X159047642Y-104769887D01*
X159057613Y-104668641D01*
X159059000Y-104654561D01*
X159059000Y-104654556D01*
X159062797Y-104616000D01*
X159059000Y-104577444D01*
X159059000Y-103454614D01*
X159117387Y-103423405D01*
X159244000Y-103319496D01*
X159244000Y-103608198D01*
X159226089Y-103651440D01*
X159194000Y-103812760D01*
X159194000Y-103977240D01*
X159226089Y-104138560D01*
X159289033Y-104290521D01*
X159380413Y-104427281D01*
X159496719Y-104543587D01*
X159633479Y-104634967D01*
X159785440Y-104697911D01*
X159946760Y-104730000D01*
X160111240Y-104730000D01*
X160272560Y-104697911D01*
X160424521Y-104634967D01*
X160561281Y-104543587D01*
X160611934Y-104492934D01*
X175030539Y-104492934D01*
X176022000Y-105484395D01*
X177013461Y-104492934D01*
X176911661Y-104223421D01*
X176613523Y-104077537D01*
X176292654Y-103992620D01*
X175961383Y-103971934D01*
X175632443Y-104016272D01*
X175318473Y-104123931D01*
X175132339Y-104223421D01*
X175030539Y-104492934D01*
X160611934Y-104492934D01*
X160677587Y-104427281D01*
X160768967Y-104290521D01*
X160831911Y-104138560D01*
X160864000Y-103977240D01*
X160864000Y-103812760D01*
X160831911Y-103651440D01*
X160814000Y-103608199D01*
X160814000Y-103550928D01*
X160963851Y-103505472D01*
X161117387Y-103423405D01*
X161251962Y-103312962D01*
X161362405Y-103178387D01*
X161444472Y-103024851D01*
X161495008Y-102858255D01*
X161512072Y-102685001D01*
X161512072Y-101784999D01*
X161495008Y-101611745D01*
X161444472Y-101445149D01*
X161362405Y-101291613D01*
X161251962Y-101157038D01*
X161117387Y-101046595D01*
X160963851Y-100964528D01*
X160797255Y-100913992D01*
X160624001Y-100896928D01*
X159923999Y-100896928D01*
X159750745Y-100913992D01*
X159584149Y-100964528D01*
X159430613Y-101046595D01*
X159296038Y-101157038D01*
X159274000Y-101183891D01*
X159251962Y-101157038D01*
X159117387Y-101046595D01*
X158963851Y-100964528D01*
X158797255Y-100913992D01*
X158624001Y-100896928D01*
X157923999Y-100896928D01*
X157750745Y-100913992D01*
X157584149Y-100964528D01*
X157430613Y-101046595D01*
X157296038Y-101157038D01*
X157185595Y-101291613D01*
X157103528Y-101445149D01*
X157052992Y-101611745D01*
X157035928Y-101784999D01*
X157035928Y-102685001D01*
X157052992Y-102858255D01*
X157103528Y-103024851D01*
X157185595Y-103178387D01*
X157296038Y-103312962D01*
X157430613Y-103423405D01*
X157489001Y-103454614D01*
X157489001Y-104290841D01*
X155757843Y-106022000D01*
X151882157Y-106022000D01*
X153848817Y-104055341D01*
X153878764Y-104030764D01*
X153904494Y-103999413D01*
X153937016Y-103959785D01*
X153976862Y-103911233D01*
X154049754Y-103774860D01*
X154059419Y-103743000D01*
X154094642Y-103626887D01*
X154104424Y-103527561D01*
X154106000Y-103511561D01*
X154106000Y-103511556D01*
X154109797Y-103473000D01*
X154106000Y-103434444D01*
X154106000Y-101930614D01*
X154164387Y-101899405D01*
X154256075Y-101824159D01*
X154256074Y-103371125D01*
X154238163Y-103414366D01*
X154206074Y-103575686D01*
X154206074Y-103740166D01*
X154238163Y-103901486D01*
X154301107Y-104053447D01*
X154392487Y-104190207D01*
X154508793Y-104306513D01*
X154645553Y-104397893D01*
X154797514Y-104460837D01*
X154958834Y-104492926D01*
X155123314Y-104492926D01*
X155284634Y-104460837D01*
X155436595Y-104397893D01*
X155573355Y-104306513D01*
X155689661Y-104190207D01*
X155781041Y-104053447D01*
X155843985Y-103901486D01*
X155876074Y-103740166D01*
X155876074Y-103575686D01*
X155843985Y-103414366D01*
X155826074Y-103371125D01*
X155826074Y-102033799D01*
X155844255Y-102032008D01*
X156010851Y-101981472D01*
X156164387Y-101899405D01*
X156298962Y-101788962D01*
X156409405Y-101654387D01*
X156491472Y-101500851D01*
X156542008Y-101334255D01*
X156559072Y-101161001D01*
X156559072Y-100260999D01*
X156542008Y-100087745D01*
X156491472Y-99921149D01*
X156409405Y-99767613D01*
X156298962Y-99633038D01*
X156164387Y-99522595D01*
X156010851Y-99440528D01*
X155844255Y-99389992D01*
X155671001Y-99372928D01*
X154970999Y-99372928D01*
X154797745Y-99389992D01*
X154631149Y-99440528D01*
X154477613Y-99522595D01*
X154343038Y-99633038D01*
X154321000Y-99659891D01*
X154298962Y-99633038D01*
X154164387Y-99522595D01*
X154010851Y-99440528D01*
X153844255Y-99389992D01*
X153671001Y-99372928D01*
X152970999Y-99372928D01*
X152797745Y-99389992D01*
X152631149Y-99440528D01*
X152477613Y-99522595D01*
X152343038Y-99633038D01*
X152232595Y-99767613D01*
X152150528Y-99921149D01*
X152099992Y-100087745D01*
X152082928Y-100260999D01*
X152082928Y-101161001D01*
X152099992Y-101334255D01*
X152150528Y-101500851D01*
X152232595Y-101654387D01*
X152343038Y-101788962D01*
X152477613Y-101899405D01*
X152536001Y-101930614D01*
X152536000Y-103147842D01*
X150804843Y-104879000D01*
X147056157Y-104879000D01*
X148498810Y-103436347D01*
X148528764Y-103411764D01*
X148626862Y-103292233D01*
X148699754Y-103155860D01*
X148719099Y-103092089D01*
X148744642Y-103007887D01*
X148752191Y-102931236D01*
X148756000Y-102892561D01*
X148756000Y-102892556D01*
X148759797Y-102854000D01*
X148756000Y-102815444D01*
X148756000Y-99771614D01*
X148814387Y-99740405D01*
X148948962Y-99629962D01*
X148971000Y-99603109D01*
X148993038Y-99629962D01*
X149127613Y-99740405D01*
X149186000Y-99771614D01*
X149186001Y-101678197D01*
X149168089Y-101721440D01*
X149136000Y-101882760D01*
X149136000Y-102047240D01*
X149168089Y-102208560D01*
X149231033Y-102360521D01*
X149322413Y-102497281D01*
X149438719Y-102613587D01*
X149575479Y-102704967D01*
X149727440Y-102767911D01*
X149888760Y-102800000D01*
X150053240Y-102800000D01*
X150214560Y-102767911D01*
X150366521Y-102704967D01*
X150503281Y-102613587D01*
X150619587Y-102497281D01*
X150710967Y-102360521D01*
X150773911Y-102208560D01*
X150806000Y-102047240D01*
X150806000Y-101882760D01*
X150773911Y-101721440D01*
X150756000Y-101678199D01*
X150756000Y-99771614D01*
X150814387Y-99740405D01*
X150948962Y-99629962D01*
X151059405Y-99495387D01*
X151141472Y-99341851D01*
X151192008Y-99175255D01*
X151209072Y-99002001D01*
X151209072Y-98101999D01*
X151192008Y-97928745D01*
X151141472Y-97762149D01*
X151059405Y-97608613D01*
X150948962Y-97474038D01*
X150814387Y-97363595D01*
X150660851Y-97281528D01*
X150494255Y-97230992D01*
X150321001Y-97213928D01*
X149620999Y-97213928D01*
X149447745Y-97230992D01*
X149281149Y-97281528D01*
X149127613Y-97363595D01*
X148993038Y-97474038D01*
X148971000Y-97500891D01*
X148948962Y-97474038D01*
X148814387Y-97363595D01*
X148660851Y-97281528D01*
X148494255Y-97230992D01*
X148321001Y-97213928D01*
X147620999Y-97213928D01*
X147447745Y-97230992D01*
X147281149Y-97281528D01*
X147127613Y-97363595D01*
X146993038Y-97474038D01*
X146882595Y-97608613D01*
X146800528Y-97762149D01*
X146749992Y-97928745D01*
X146732928Y-98101999D01*
X146732928Y-99002001D01*
X146749992Y-99175255D01*
X146800528Y-99341851D01*
X146882595Y-99495387D01*
X146993038Y-99629962D01*
X147127613Y-99740405D01*
X147186000Y-99771614D01*
X147186001Y-102528842D01*
X145343843Y-104371000D01*
X143040552Y-104371000D01*
X143001999Y-104367203D01*
X142963446Y-104371000D01*
X142963439Y-104371000D01*
X142862490Y-104380943D01*
X142848112Y-104382359D01*
X142813672Y-104392806D01*
X142700140Y-104427246D01*
X142563767Y-104500138D01*
X142525190Y-104531798D01*
X142474187Y-104573655D01*
X142474184Y-104573658D01*
X142444236Y-104598236D01*
X142419658Y-104628184D01*
X140263843Y-106784000D01*
X140071157Y-106784000D01*
X142529810Y-104325347D01*
X142559764Y-104300764D01*
X142657862Y-104181233D01*
X142730754Y-104044860D01*
X142739426Y-104016272D01*
X142775642Y-103896887D01*
X142786084Y-103790860D01*
X142787000Y-103781561D01*
X142787000Y-103781556D01*
X142790797Y-103743000D01*
X142787000Y-103704444D01*
X142787000Y-100156044D01*
X142850719Y-100219763D01*
X142987479Y-100311143D01*
X143139440Y-100374087D01*
X143300760Y-100406176D01*
X143465240Y-100406176D01*
X143626560Y-100374087D01*
X143778521Y-100311143D01*
X143915281Y-100219763D01*
X144031587Y-100103457D01*
X144122967Y-99966697D01*
X144140879Y-99923454D01*
X144545811Y-99518522D01*
X144575764Y-99493940D01*
X144673862Y-99374409D01*
X144746754Y-99238036D01*
X144765677Y-99175655D01*
X144791642Y-99090063D01*
X144799020Y-99015150D01*
X144803000Y-98974737D01*
X144803000Y-98974732D01*
X144806797Y-98936176D01*
X144803000Y-98897620D01*
X144803000Y-97223061D01*
X144845387Y-97200405D01*
X144979962Y-97089962D01*
X145090405Y-96955387D01*
X145172472Y-96801851D01*
X145223008Y-96635255D01*
X145240072Y-96462001D01*
X145240072Y-95561999D01*
X145223008Y-95388745D01*
X145172472Y-95222149D01*
X145090405Y-95068613D01*
X144979962Y-94934038D01*
X144845387Y-94823595D01*
X144691851Y-94741528D01*
X144525255Y-94690992D01*
X144352001Y-94673928D01*
X143651999Y-94673928D01*
X143478745Y-94690992D01*
X143312149Y-94741528D01*
X143158613Y-94823595D01*
X143024038Y-94934038D01*
X143002000Y-94960891D01*
X142979962Y-94934038D01*
X142845387Y-94823595D01*
X142691851Y-94741528D01*
X142525255Y-94690992D01*
X142352001Y-94673928D01*
X141651999Y-94673928D01*
X141478745Y-94690992D01*
X141312149Y-94741528D01*
X141158613Y-94823595D01*
X141024038Y-94934038D01*
X140913595Y-95068613D01*
X140831528Y-95222149D01*
X140780992Y-95388745D01*
X140763928Y-95561999D01*
X140763928Y-96462001D01*
X140780992Y-96635255D01*
X140831528Y-96801851D01*
X140913595Y-96955387D01*
X141024038Y-97089962D01*
X141158613Y-97200405D01*
X141217000Y-97231614D01*
X141217001Y-103417842D01*
X139120843Y-105514000D01*
X112681801Y-105514000D01*
X112638560Y-105496089D01*
X112524999Y-105473500D01*
X112638560Y-105450911D01*
X112681801Y-105433000D01*
X135216447Y-105433000D01*
X135255000Y-105436797D01*
X135293553Y-105433000D01*
X135293561Y-105433000D01*
X135408887Y-105421641D01*
X135556860Y-105376754D01*
X135693233Y-105303862D01*
X135812764Y-105205764D01*
X135837347Y-105175810D01*
X136941810Y-104071347D01*
X136971764Y-104046764D01*
X137069862Y-103927233D01*
X137142754Y-103790860D01*
X137171382Y-103696487D01*
X137187642Y-103642887D01*
X137196198Y-103556008D01*
X137199000Y-103527561D01*
X137199000Y-103527556D01*
X137202797Y-103489000D01*
X137199000Y-103450444D01*
X137199000Y-94056614D01*
X137257387Y-94025405D01*
X137391962Y-93914962D01*
X137414000Y-93888109D01*
X137436038Y-93914962D01*
X137570613Y-94025405D01*
X137645001Y-94065166D01*
X137645000Y-96233199D01*
X137627089Y-96276440D01*
X137595000Y-96437760D01*
X137595000Y-96602240D01*
X137627089Y-96763560D01*
X137690033Y-96915521D01*
X137781413Y-97052281D01*
X137897719Y-97168587D01*
X138034479Y-97259967D01*
X138186440Y-97322911D01*
X138347760Y-97355000D01*
X138512240Y-97355000D01*
X138673560Y-97322911D01*
X138825521Y-97259967D01*
X138962281Y-97168587D01*
X139078587Y-97052281D01*
X139169967Y-96915521D01*
X139232911Y-96763560D01*
X139265000Y-96602240D01*
X139265000Y-96437760D01*
X139232911Y-96276440D01*
X139215000Y-96233199D01*
X139215000Y-94048061D01*
X139257387Y-94025405D01*
X139391962Y-93914962D01*
X139502405Y-93780387D01*
X139584472Y-93626851D01*
X139635008Y-93460255D01*
X139652072Y-93287001D01*
X139652072Y-92386999D01*
X139635008Y-92213745D01*
X139584472Y-92047149D01*
X139502405Y-91893613D01*
X139391962Y-91759038D01*
X139257387Y-91648595D01*
X139103851Y-91566528D01*
X138937255Y-91515992D01*
X138764001Y-91498928D01*
X138063999Y-91498928D01*
X137890745Y-91515992D01*
X137724149Y-91566528D01*
X137570613Y-91648595D01*
X137436038Y-91759038D01*
X137414000Y-91785891D01*
X137391962Y-91759038D01*
X137257387Y-91648595D01*
X137103851Y-91566528D01*
X136937255Y-91515992D01*
X136764001Y-91498928D01*
X136063999Y-91498928D01*
X135890745Y-91515992D01*
X135724149Y-91566528D01*
X135570613Y-91648595D01*
X135436038Y-91759038D01*
X135325595Y-91893613D01*
X135243528Y-92047149D01*
X135192992Y-92213745D01*
X135175928Y-92386999D01*
X135175928Y-93287001D01*
X135192992Y-93460255D01*
X135243528Y-93626851D01*
X135325595Y-93780387D01*
X135436038Y-93914962D01*
X135570613Y-94025405D01*
X135629000Y-94056614D01*
X135629001Y-103163842D01*
X134929843Y-103863000D01*
X112681801Y-103863000D01*
X112638560Y-103845089D01*
X112477240Y-103813000D01*
X112418000Y-103813000D01*
X112418000Y-93543157D01*
X112421085Y-93540072D01*
X112999001Y-93540072D01*
X113172255Y-93523008D01*
X113338851Y-93472472D01*
X113492387Y-93390405D01*
X113626962Y-93279962D01*
X113694054Y-93198211D01*
X114243928Y-93748086D01*
X114243928Y-94126000D01*
X114256188Y-94250482D01*
X114292498Y-94370180D01*
X114351463Y-94480494D01*
X114430815Y-94577185D01*
X114527506Y-94656537D01*
X114531001Y-94658405D01*
X114531000Y-98129947D01*
X114527203Y-98168500D01*
X114531000Y-98207053D01*
X114531000Y-98207060D01*
X114542359Y-98322386D01*
X114587246Y-98470359D01*
X114660138Y-98606732D01*
X114758236Y-98726264D01*
X114788190Y-98750847D01*
X117419928Y-101382585D01*
X117419928Y-102023000D01*
X117436992Y-102196254D01*
X117487528Y-102362850D01*
X117569595Y-102516386D01*
X117680038Y-102650962D01*
X117814614Y-102761405D01*
X117968150Y-102843472D01*
X118134746Y-102894008D01*
X118308000Y-102911072D01*
X120408000Y-102911072D01*
X120581254Y-102894008D01*
X120747850Y-102843472D01*
X120901386Y-102761405D01*
X121035962Y-102650962D01*
X121146405Y-102516386D01*
X121158000Y-102494693D01*
X121169595Y-102516386D01*
X121280038Y-102650962D01*
X121414614Y-102761405D01*
X121568150Y-102843472D01*
X121734746Y-102894008D01*
X121908000Y-102911072D01*
X124008000Y-102911072D01*
X124181254Y-102894008D01*
X124347850Y-102843472D01*
X124501386Y-102761405D01*
X124635962Y-102650962D01*
X124746405Y-102516386D01*
X124828472Y-102362850D01*
X124860278Y-102258000D01*
X129638056Y-102258000D01*
X129639528Y-102262851D01*
X129721595Y-102416387D01*
X129832038Y-102550962D01*
X129966613Y-102661405D01*
X130120149Y-102743472D01*
X130286745Y-102794008D01*
X130459999Y-102811072D01*
X131160001Y-102811072D01*
X131333255Y-102794008D01*
X131499851Y-102743472D01*
X131653387Y-102661405D01*
X131787962Y-102550962D01*
X131810000Y-102524109D01*
X131832038Y-102550962D01*
X131966613Y-102661405D01*
X132120149Y-102743472D01*
X132286745Y-102794008D01*
X132459999Y-102811072D01*
X133160001Y-102811072D01*
X133333255Y-102794008D01*
X133499851Y-102743472D01*
X133653387Y-102661405D01*
X133787962Y-102550962D01*
X133898405Y-102416387D01*
X133980472Y-102262851D01*
X134031008Y-102096255D01*
X134048072Y-101923001D01*
X134048072Y-101022999D01*
X134031008Y-100849745D01*
X133980472Y-100683149D01*
X133898405Y-100529613D01*
X133787962Y-100395038D01*
X133653387Y-100284595D01*
X133595000Y-100253386D01*
X133595000Y-87960614D01*
X133653387Y-87929405D01*
X133787962Y-87818962D01*
X133898405Y-87684387D01*
X133980472Y-87530851D01*
X133981944Y-87526000D01*
X150169843Y-87526000D01*
X150534925Y-87891082D01*
X150430465Y-87960880D01*
X150235880Y-88155465D01*
X150082995Y-88384273D01*
X150071000Y-88413231D01*
X150059005Y-88384273D01*
X149906120Y-88155465D01*
X149711535Y-87960880D01*
X149482727Y-87807995D01*
X149228490Y-87702686D01*
X148958592Y-87649000D01*
X148683408Y-87649000D01*
X148413510Y-87702686D01*
X148159273Y-87807995D01*
X147930465Y-87960880D01*
X147735880Y-88155465D01*
X147582995Y-88384273D01*
X147477686Y-88638510D01*
X147424000Y-88908408D01*
X147424000Y-89183592D01*
X147477686Y-89453490D01*
X147582995Y-89707727D01*
X147735880Y-89936535D01*
X147930465Y-90131120D01*
X148159273Y-90284005D01*
X148413510Y-90389314D01*
X148683408Y-90443000D01*
X148958592Y-90443000D01*
X149228490Y-90389314D01*
X149482727Y-90284005D01*
X149711535Y-90131120D01*
X149906120Y-89936535D01*
X150059005Y-89707727D01*
X150071000Y-89678769D01*
X150082995Y-89707727D01*
X150235880Y-89936535D01*
X150430465Y-90131120D01*
X150659273Y-90284005D01*
X150913510Y-90389314D01*
X151183408Y-90443000D01*
X151458592Y-90443000D01*
X151728490Y-90389314D01*
X151982727Y-90284005D01*
X152211535Y-90131120D01*
X152406120Y-89936535D01*
X152559005Y-89707727D01*
X152571000Y-89678769D01*
X152582995Y-89707727D01*
X152735880Y-89936535D01*
X152930465Y-90131120D01*
X153159273Y-90284005D01*
X153413510Y-90389314D01*
X153683408Y-90443000D01*
X153958592Y-90443000D01*
X154228490Y-90389314D01*
X154482727Y-90284005D01*
X154711535Y-90131120D01*
X154906120Y-89936535D01*
X154976636Y-89831000D01*
X159835447Y-89831000D01*
X159874000Y-89834797D01*
X159912553Y-89831000D01*
X159912561Y-89831000D01*
X160027887Y-89819641D01*
X160175860Y-89774754D01*
X160312233Y-89701862D01*
X160431764Y-89603764D01*
X160456347Y-89573810D01*
X163581158Y-86449000D01*
X174333928Y-86449000D01*
X174333928Y-86714000D01*
X174346188Y-86838482D01*
X174382498Y-86958180D01*
X174441463Y-87068494D01*
X174520815Y-87165185D01*
X174617506Y-87244537D01*
X174727820Y-87303502D01*
X174847518Y-87339812D01*
X174972000Y-87352072D01*
X177072000Y-87352072D01*
X177196482Y-87339812D01*
X177316180Y-87303502D01*
X177426494Y-87244537D01*
X177523185Y-87165185D01*
X177602537Y-87068494D01*
X177661502Y-86958180D01*
X177697812Y-86838482D01*
X177710072Y-86714000D01*
X177710072Y-84614000D01*
X177697812Y-84489518D01*
X177661502Y-84369820D01*
X177602537Y-84259506D01*
X177523185Y-84162815D01*
X177426494Y-84083463D01*
X177316180Y-84024498D01*
X177196482Y-83988188D01*
X177072000Y-83975928D01*
X174972000Y-83975928D01*
X174847518Y-83988188D01*
X174727820Y-84024498D01*
X174617506Y-84083463D01*
X174520815Y-84162815D01*
X174441463Y-84259506D01*
X174382498Y-84369820D01*
X174346188Y-84489518D01*
X174333928Y-84614000D01*
X174333928Y-84879000D01*
X163294552Y-84879000D01*
X163255999Y-84875203D01*
X163217446Y-84879000D01*
X163217439Y-84879000D01*
X163116490Y-84888943D01*
X163102112Y-84890359D01*
X163079347Y-84897265D01*
X162954140Y-84935246D01*
X162817767Y-85008138D01*
X162786523Y-85033780D01*
X162728187Y-85081655D01*
X162728184Y-85081658D01*
X162698236Y-85106236D01*
X162673658Y-85136184D01*
X159548843Y-88261000D01*
X154976636Y-88261000D01*
X154906120Y-88155465D01*
X154711535Y-87960880D01*
X154482727Y-87807995D01*
X154228490Y-87702686D01*
X153958592Y-87649000D01*
X153683408Y-87649000D01*
X153413510Y-87702686D01*
X153159273Y-87807995D01*
X152930465Y-87960880D01*
X152735880Y-88155465D01*
X152582995Y-88384273D01*
X152571000Y-88413231D01*
X152559005Y-88384273D01*
X152406120Y-88155465D01*
X152211535Y-87960880D01*
X152106000Y-87890364D01*
X152106000Y-87605552D01*
X152109797Y-87566999D01*
X152106000Y-87528446D01*
X152106000Y-87528439D01*
X152094641Y-87413113D01*
X152090470Y-87399361D01*
X152072405Y-87339812D01*
X152049754Y-87265140D01*
X151976862Y-87128767D01*
X151927450Y-87068559D01*
X151903345Y-87039187D01*
X151903342Y-87039184D01*
X151878764Y-87009236D01*
X151848815Y-86984657D01*
X151077347Y-86213190D01*
X151052764Y-86183236D01*
X150933233Y-86085138D01*
X150796860Y-86012246D01*
X150648887Y-85967359D01*
X150533561Y-85956000D01*
X150533553Y-85956000D01*
X150495000Y-85952203D01*
X150456447Y-85956000D01*
X133981944Y-85956000D01*
X133980472Y-85951149D01*
X133898405Y-85797613D01*
X133787962Y-85663038D01*
X133653387Y-85552595D01*
X133595000Y-85521386D01*
X133595000Y-84588552D01*
X133598797Y-84549999D01*
X133595000Y-84511446D01*
X133595000Y-84511439D01*
X133583641Y-84396113D01*
X133564980Y-84334594D01*
X133538754Y-84248140D01*
X133537839Y-84246429D01*
X133465862Y-84111767D01*
X133413713Y-84048224D01*
X133392345Y-84022187D01*
X133392342Y-84022184D01*
X133367764Y-83992236D01*
X133337817Y-83967659D01*
X132778566Y-83408408D01*
X147424000Y-83408408D01*
X147424000Y-83683592D01*
X147477686Y-83953490D01*
X147582995Y-84207727D01*
X147735880Y-84436535D01*
X147930465Y-84631120D01*
X148159273Y-84784005D01*
X148413510Y-84889314D01*
X148683408Y-84943000D01*
X148958592Y-84943000D01*
X149228490Y-84889314D01*
X149482727Y-84784005D01*
X149711535Y-84631120D01*
X149906120Y-84436535D01*
X150059005Y-84207727D01*
X150071000Y-84178769D01*
X150082995Y-84207727D01*
X150235880Y-84436535D01*
X150430465Y-84631120D01*
X150659273Y-84784005D01*
X150913510Y-84889314D01*
X151183408Y-84943000D01*
X151458592Y-84943000D01*
X151728490Y-84889314D01*
X151982727Y-84784005D01*
X152211535Y-84631120D01*
X152406120Y-84436535D01*
X152559005Y-84207727D01*
X152571000Y-84178769D01*
X152582995Y-84207727D01*
X152735880Y-84436535D01*
X152930465Y-84631120D01*
X153159273Y-84784005D01*
X153413510Y-84889314D01*
X153683408Y-84943000D01*
X153958592Y-84943000D01*
X154228490Y-84889314D01*
X154482727Y-84784005D01*
X154711535Y-84631120D01*
X154906120Y-84436535D01*
X155059005Y-84207727D01*
X155164314Y-83953490D01*
X155218000Y-83683592D01*
X155218000Y-83408408D01*
X155164314Y-83138510D01*
X155059005Y-82884273D01*
X154906120Y-82655465D01*
X154711535Y-82460880D01*
X154482727Y-82307995D01*
X154228490Y-82202686D01*
X153958592Y-82149000D01*
X153683408Y-82149000D01*
X153413510Y-82202686D01*
X153159273Y-82307995D01*
X152930465Y-82460880D01*
X152735880Y-82655465D01*
X152582995Y-82884273D01*
X152571000Y-82913231D01*
X152559005Y-82884273D01*
X152406120Y-82655465D01*
X152211535Y-82460880D01*
X151982727Y-82307995D01*
X151728490Y-82202686D01*
X151458592Y-82149000D01*
X151183408Y-82149000D01*
X150913510Y-82202686D01*
X150659273Y-82307995D01*
X150430465Y-82460880D01*
X150235880Y-82655465D01*
X150082995Y-82884273D01*
X150071000Y-82913231D01*
X150059005Y-82884273D01*
X149906120Y-82655465D01*
X149711535Y-82460880D01*
X149482727Y-82307995D01*
X149228490Y-82202686D01*
X148958592Y-82149000D01*
X148683408Y-82149000D01*
X148413510Y-82202686D01*
X148159273Y-82307995D01*
X147930465Y-82460880D01*
X147735880Y-82655465D01*
X147582995Y-82884273D01*
X147477686Y-83138510D01*
X147424000Y-83408408D01*
X132778566Y-83408408D01*
X131392347Y-82022190D01*
X131367764Y-81992236D01*
X131248233Y-81894138D01*
X131111860Y-81821246D01*
X130963887Y-81776359D01*
X130848561Y-81765000D01*
X130848553Y-81765000D01*
X130810000Y-81761203D01*
X130771447Y-81765000D01*
X112433552Y-81765000D01*
X112394999Y-81761203D01*
X112356446Y-81765000D01*
X112356439Y-81765000D01*
X112257977Y-81774698D01*
X112241112Y-81776359D01*
X112214249Y-81784508D01*
X112093140Y-81821246D01*
X111956767Y-81894138D01*
X111896559Y-81943550D01*
X111867187Y-81967655D01*
X111867184Y-81967658D01*
X111837236Y-81992236D01*
X111812658Y-82022184D01*
X109978185Y-83856658D01*
X109948237Y-83881236D01*
X109923659Y-83911184D01*
X109923655Y-83911188D01*
X109894198Y-83947082D01*
X109850139Y-84000767D01*
X109832545Y-84033684D01*
X109777246Y-84137141D01*
X109732359Y-84285114D01*
X109717203Y-84439000D01*
X109721001Y-84477563D01*
X109721001Y-85521386D01*
X109662613Y-85552595D01*
X109528038Y-85663038D01*
X109417595Y-85797613D01*
X109335528Y-85951149D01*
X109284992Y-86117745D01*
X109267928Y-86290999D01*
X109267928Y-86868914D01*
X108057185Y-88079658D01*
X108027237Y-88104236D01*
X108002659Y-88134184D01*
X108002655Y-88134188D01*
X107990216Y-88149345D01*
X107929139Y-88223767D01*
X107890662Y-88295753D01*
X107856246Y-88360141D01*
X107811359Y-88508114D01*
X107796203Y-88662000D01*
X107800001Y-88700563D01*
X107800000Y-106039828D01*
X107778240Y-106035500D01*
X107613760Y-106035500D01*
X107452440Y-106067589D01*
X107300479Y-106130533D01*
X107163719Y-106221913D01*
X107047413Y-106338219D01*
X106956033Y-106474979D01*
X106893089Y-106626940D01*
X106861000Y-106788260D01*
X106861000Y-106952740D01*
X106893089Y-107114060D01*
X106911000Y-107157301D01*
X106911001Y-117696196D01*
X106893089Y-117739440D01*
X106861000Y-117900760D01*
X106861000Y-118065240D01*
X106893089Y-118226560D01*
X106956033Y-118378521D01*
X107047413Y-118515281D01*
X107163719Y-118631587D01*
X107263870Y-118698506D01*
X106675000Y-118695928D01*
X106550518Y-118708188D01*
X106430820Y-118744498D01*
X106320506Y-118803463D01*
X106223815Y-118882815D01*
X106144463Y-118979506D01*
X106085498Y-119089820D01*
X106049188Y-119209518D01*
X106036928Y-119334000D01*
X106040000Y-119348250D01*
X106198750Y-119507000D01*
X107535500Y-119507000D01*
X107535500Y-119487000D01*
X107789500Y-119487000D01*
X107789500Y-119507000D01*
X107809500Y-119507000D01*
X107809500Y-119761000D01*
X107789500Y-119761000D01*
X107789500Y-119781000D01*
X107535500Y-119781000D01*
X107535500Y-119761000D01*
X106198750Y-119761000D01*
X106040000Y-119919750D01*
X106036928Y-119934000D01*
X106049188Y-120058482D01*
X106067053Y-120117375D01*
X106045000Y-120115203D01*
X106006444Y-120119000D01*
X106006439Y-120119000D01*
X105966026Y-120122980D01*
X105891113Y-120130358D01*
X105743140Y-120175246D01*
X105606767Y-120248138D01*
X105553322Y-120292000D01*
X105517187Y-120321655D01*
X105517184Y-120321658D01*
X105487236Y-120346236D01*
X105462657Y-120376185D01*
X104501185Y-121337658D01*
X104471237Y-121362236D01*
X104446659Y-121392184D01*
X104446655Y-121392188D01*
X104414136Y-121431813D01*
X104373139Y-121481767D01*
X104356919Y-121512113D01*
X104300246Y-121618141D01*
X104255359Y-121766114D01*
X104240203Y-121920000D01*
X96985149Y-121920000D01*
X96985149Y-106900224D01*
X99776200Y-106900224D01*
X99776200Y-107399576D01*
X99873618Y-107889332D01*
X100064712Y-108350673D01*
X100342137Y-108765868D01*
X100695232Y-109118963D01*
X101110427Y-109396388D01*
X101571768Y-109587482D01*
X102061524Y-109684900D01*
X102560876Y-109684900D01*
X103050632Y-109587482D01*
X103511973Y-109396388D01*
X103927168Y-109118963D01*
X104280263Y-108765868D01*
X104557688Y-108350673D01*
X104748782Y-107889332D01*
X104846200Y-107399576D01*
X104846200Y-106900224D01*
X104748782Y-106410468D01*
X104557688Y-105949127D01*
X104280263Y-105533932D01*
X103927168Y-105180837D01*
X103511973Y-104903412D01*
X103050632Y-104712318D01*
X102560876Y-104614900D01*
X102061524Y-104614900D01*
X101571768Y-104712318D01*
X101110427Y-104903412D01*
X100695232Y-105180837D01*
X100342137Y-105533932D01*
X100064712Y-105949127D01*
X99873618Y-106410468D01*
X99776200Y-106900224D01*
X96985149Y-106900224D01*
X96985149Y-84709938D01*
X96986679Y-84586524D01*
X96991103Y-84467621D01*
X96998446Y-84349184D01*
X97008690Y-84231235D01*
X97021820Y-84113737D01*
X97037808Y-83996820D01*
X97056640Y-83880484D01*
X97078290Y-83764810D01*
X97102741Y-83649837D01*
X97129970Y-83535616D01*
X97159971Y-83422148D01*
X97192693Y-83309588D01*
X97228153Y-83197864D01*
X97266302Y-83087117D01*
X97307123Y-82977376D01*
X97350615Y-82868644D01*
X97396752Y-82760992D01*
X97445486Y-82654526D01*
X97496823Y-82549240D01*
X97550733Y-82445198D01*
X97607211Y-82342423D01*
X97666213Y-82241006D01*
X97727732Y-82140976D01*
X97791750Y-82042375D01*
X97858215Y-81945301D01*
X97927162Y-81849721D01*
X97998545Y-81755721D01*
X98072327Y-81663376D01*
X98148497Y-81572718D01*
X98227058Y-81483770D01*
X98307977Y-81396598D01*
X98391240Y-81311244D01*
X98476572Y-81228002D01*
X98563763Y-81147065D01*
X98652709Y-81068505D01*
X98743392Y-80992316D01*
X98835709Y-80918557D01*
X98929708Y-80847174D01*
X99025294Y-80778221D01*
X99122368Y-80711757D01*
X99220969Y-80647739D01*
X99320999Y-80586220D01*
X99422416Y-80527218D01*
X99525191Y-80470740D01*
X99629233Y-80416830D01*
X99734532Y-80365488D01*
X99841030Y-80316740D01*
X99948623Y-80270628D01*
X100057370Y-80227130D01*
X100167110Y-80186309D01*
X100277868Y-80148156D01*
X100389570Y-80112703D01*
X100502151Y-80079975D01*
X100615608Y-80049977D01*
X100729830Y-80022747D01*
X100844795Y-79998299D01*
X100960490Y-79976645D01*
X101076812Y-79957815D01*
X101193735Y-79941826D01*
X101311235Y-79928696D01*
X101429177Y-79918453D01*
X101547614Y-79911110D01*
X101666518Y-79906686D01*
X101789931Y-79905156D01*
X185600902Y-79905156D01*
X185724315Y-79906686D01*
G37*
%TD.AperFunction*%
D19*
X116452000Y-122405447D02*
X116448203Y-122444000D01*
X116452000Y-122482553D01*
X116452000Y-122482560D01*
X116463359Y-122597886D01*
X116508246Y-122745859D01*
X116581138Y-122882232D01*
X116679236Y-123001764D01*
X116709190Y-123026347D01*
X119559658Y-125876816D01*
X119584236Y-125906764D01*
X119614184Y-125931342D01*
X119614187Y-125931345D01*
X119643559Y-125955450D01*
X119703767Y-126004862D01*
X119840140Y-126077754D01*
X119953672Y-126112194D01*
X119988112Y-126122641D01*
X120002490Y-126124057D01*
X120103439Y-126134000D01*
X120103446Y-126134000D01*
X120141999Y-126137797D01*
X120180552Y-126134000D01*
X122812056Y-126134000D01*
X122813528Y-126138851D01*
X122895595Y-126292387D01*
X123006038Y-126426962D01*
X123140613Y-126537405D01*
X123199000Y-126568614D01*
X123199001Y-128801842D01*
X123118843Y-128882000D01*
X116181471Y-128882000D01*
X116197929Y-128827745D01*
X116213072Y-128674000D01*
X116213072Y-128374000D01*
X116197929Y-128220255D01*
X116153084Y-128072418D01*
X116081270Y-127938064D01*
X116105537Y-127908494D01*
X116164502Y-127798180D01*
X116200812Y-127678482D01*
X116213072Y-127554000D01*
X116210000Y-127539750D01*
X116051250Y-127381000D01*
X114714500Y-127381000D01*
X114714500Y-127401000D01*
X114460500Y-127401000D01*
X114460500Y-127381000D01*
X113123750Y-127381000D01*
X112965000Y-127539750D01*
X112961928Y-127554000D01*
X112974188Y-127678482D01*
X112977379Y-127689000D01*
X112820760Y-127689000D01*
X112659440Y-127721089D01*
X112507479Y-127784033D01*
X112370719Y-127875413D01*
X112296145Y-127949988D01*
X109802347Y-125456190D01*
X109777764Y-125426236D01*
X109658233Y-125328138D01*
X109521860Y-125255246D01*
X109373887Y-125210359D01*
X109258561Y-125199000D01*
X109258553Y-125199000D01*
X109220000Y-125195203D01*
X109211821Y-125196009D01*
X109228084Y-125165582D01*
X109272929Y-125017745D01*
X109288072Y-124864000D01*
X109288072Y-124564000D01*
X109272929Y-124410255D01*
X109228084Y-124262418D01*
X109171425Y-124156417D01*
X109277233Y-124099862D01*
X109396764Y-124001764D01*
X109421347Y-123971810D01*
X110848000Y-122545157D01*
X110848000Y-123978447D01*
X110844203Y-124017000D01*
X110848000Y-124055553D01*
X110848000Y-124055560D01*
X110859359Y-124170886D01*
X110904246Y-124318859D01*
X110977138Y-124455232D01*
X111075236Y-124574764D01*
X111105190Y-124599347D01*
X113017658Y-126511816D01*
X113042236Y-126541764D01*
X113072184Y-126566342D01*
X113072187Y-126566345D01*
X113086821Y-126578355D01*
X113069463Y-126599506D01*
X113010498Y-126709820D01*
X112974188Y-126829518D01*
X112961928Y-126954000D01*
X112965000Y-126968250D01*
X113123750Y-127127000D01*
X114460500Y-127127000D01*
X114460500Y-127107000D01*
X114714500Y-127107000D01*
X114714500Y-127127000D01*
X116051250Y-127127000D01*
X116210000Y-126968250D01*
X116213072Y-126954000D01*
X116200812Y-126829518D01*
X116164502Y-126709820D01*
X116105537Y-126599506D01*
X116081270Y-126569936D01*
X116153084Y-126435582D01*
X116197929Y-126287745D01*
X116213072Y-126134000D01*
X116213072Y-125834000D01*
X116197929Y-125680255D01*
X116153084Y-125532418D01*
X116081270Y-125398064D01*
X116105537Y-125368494D01*
X116164502Y-125258180D01*
X116200812Y-125138482D01*
X116213072Y-125014000D01*
X116210000Y-124999750D01*
X116051250Y-124841000D01*
X114714500Y-124841000D01*
X114714500Y-124861000D01*
X114460500Y-124861000D01*
X114460500Y-124841000D01*
X114440500Y-124841000D01*
X114440500Y-124587000D01*
X114460500Y-124587000D01*
X114460500Y-124567000D01*
X114714500Y-124567000D01*
X114714500Y-124587000D01*
X116051250Y-124587000D01*
X116210000Y-124428250D01*
X116213072Y-124414000D01*
X116200812Y-124289518D01*
X116164502Y-124169820D01*
X116105537Y-124059506D01*
X116081270Y-124029936D01*
X116153084Y-123895582D01*
X116197929Y-123747745D01*
X116213072Y-123594000D01*
X116213072Y-123294000D01*
X116197929Y-123140255D01*
X116153084Y-122992418D01*
X116080258Y-122856171D01*
X116041546Y-122809000D01*
X116080258Y-122761829D01*
X116153084Y-122625582D01*
X116197929Y-122477745D01*
X116213072Y-122324000D01*
X116213072Y-122024000D01*
X116197929Y-121870255D01*
X116153084Y-121722418D01*
X116080258Y-121586171D01*
X116041546Y-121539000D01*
X116080258Y-121491829D01*
X116153084Y-121355582D01*
X116197929Y-121207745D01*
X116206180Y-121123977D01*
X116452000Y-120878157D01*
X116452000Y-122405447D01*
%TA.AperFunction,Conductor*%
D20*
G36*
X116452000Y-122405447D02*
G01*
X116448203Y-122444000D01*
X116452000Y-122482553D01*
X116452000Y-122482560D01*
X116463359Y-122597886D01*
X116508246Y-122745859D01*
X116581138Y-122882232D01*
X116679236Y-123001764D01*
X116709190Y-123026347D01*
X119559658Y-125876816D01*
X119584236Y-125906764D01*
X119614184Y-125931342D01*
X119614187Y-125931345D01*
X119643559Y-125955450D01*
X119703767Y-126004862D01*
X119840140Y-126077754D01*
X119953672Y-126112194D01*
X119988112Y-126122641D01*
X120002490Y-126124057D01*
X120103439Y-126134000D01*
X120103446Y-126134000D01*
X120141999Y-126137797D01*
X120180552Y-126134000D01*
X122812056Y-126134000D01*
X122813528Y-126138851D01*
X122895595Y-126292387D01*
X123006038Y-126426962D01*
X123140613Y-126537405D01*
X123199000Y-126568614D01*
X123199001Y-128801842D01*
X123118843Y-128882000D01*
X116181471Y-128882000D01*
X116197929Y-128827745D01*
X116213072Y-128674000D01*
X116213072Y-128374000D01*
X116197929Y-128220255D01*
X116153084Y-128072418D01*
X116081270Y-127938064D01*
X116105537Y-127908494D01*
X116164502Y-127798180D01*
X116200812Y-127678482D01*
X116213072Y-127554000D01*
X116210000Y-127539750D01*
X116051250Y-127381000D01*
X114714500Y-127381000D01*
X114714500Y-127401000D01*
X114460500Y-127401000D01*
X114460500Y-127381000D01*
X113123750Y-127381000D01*
X112965000Y-127539750D01*
X112961928Y-127554000D01*
X112974188Y-127678482D01*
X112977379Y-127689000D01*
X112820760Y-127689000D01*
X112659440Y-127721089D01*
X112507479Y-127784033D01*
X112370719Y-127875413D01*
X112296145Y-127949988D01*
X109802347Y-125456190D01*
X109777764Y-125426236D01*
X109658233Y-125328138D01*
X109521860Y-125255246D01*
X109373887Y-125210359D01*
X109258561Y-125199000D01*
X109258553Y-125199000D01*
X109220000Y-125195203D01*
X109211821Y-125196009D01*
X109228084Y-125165582D01*
X109272929Y-125017745D01*
X109288072Y-124864000D01*
X109288072Y-124564000D01*
X109272929Y-124410255D01*
X109228084Y-124262418D01*
X109171425Y-124156417D01*
X109277233Y-124099862D01*
X109396764Y-124001764D01*
X109421347Y-123971810D01*
X110848000Y-122545157D01*
X110848000Y-123978447D01*
X110844203Y-124017000D01*
X110848000Y-124055553D01*
X110848000Y-124055560D01*
X110859359Y-124170886D01*
X110904246Y-124318859D01*
X110977138Y-124455232D01*
X111075236Y-124574764D01*
X111105190Y-124599347D01*
X113017658Y-126511816D01*
X113042236Y-126541764D01*
X113072184Y-126566342D01*
X113072187Y-126566345D01*
X113086821Y-126578355D01*
X113069463Y-126599506D01*
X113010498Y-126709820D01*
X112974188Y-126829518D01*
X112961928Y-126954000D01*
X112965000Y-126968250D01*
X113123750Y-127127000D01*
X114460500Y-127127000D01*
X114460500Y-127107000D01*
X114714500Y-127107000D01*
X114714500Y-127127000D01*
X116051250Y-127127000D01*
X116210000Y-126968250D01*
X116213072Y-126954000D01*
X116200812Y-126829518D01*
X116164502Y-126709820D01*
X116105537Y-126599506D01*
X116081270Y-126569936D01*
X116153084Y-126435582D01*
X116197929Y-126287745D01*
X116213072Y-126134000D01*
X116213072Y-125834000D01*
X116197929Y-125680255D01*
X116153084Y-125532418D01*
X116081270Y-125398064D01*
X116105537Y-125368494D01*
X116164502Y-125258180D01*
X116200812Y-125138482D01*
X116213072Y-125014000D01*
X116210000Y-124999750D01*
X116051250Y-124841000D01*
X114714500Y-124841000D01*
X114714500Y-124861000D01*
X114460500Y-124861000D01*
X114460500Y-124841000D01*
X114440500Y-124841000D01*
X114440500Y-124587000D01*
X114460500Y-124587000D01*
X114460500Y-124567000D01*
X114714500Y-124567000D01*
X114714500Y-124587000D01*
X116051250Y-124587000D01*
X116210000Y-124428250D01*
X116213072Y-124414000D01*
X116200812Y-124289518D01*
X116164502Y-124169820D01*
X116105537Y-124059506D01*
X116081270Y-124029936D01*
X116153084Y-123895582D01*
X116197929Y-123747745D01*
X116213072Y-123594000D01*
X116213072Y-123294000D01*
X116197929Y-123140255D01*
X116153084Y-122992418D01*
X116080258Y-122856171D01*
X116041546Y-122809000D01*
X116080258Y-122761829D01*
X116153084Y-122625582D01*
X116197929Y-122477745D01*
X116213072Y-122324000D01*
X116213072Y-122024000D01*
X116197929Y-121870255D01*
X116153084Y-121722418D01*
X116080258Y-121586171D01*
X116041546Y-121539000D01*
X116080258Y-121491829D01*
X116153084Y-121355582D01*
X116197929Y-121207745D01*
X116206180Y-121123977D01*
X116452000Y-120878157D01*
X116452000Y-122405447D01*
G37*
%TD.AperFunction*%
D19*
X124695039Y-91801197D02*
X124672000Y-91798928D01*
X124507750Y-91802000D01*
X124349000Y-91960750D01*
X124349000Y-92710000D01*
X125148250Y-92710000D01*
X125307000Y-92551250D01*
X125310072Y-92437000D01*
X125307803Y-92413961D01*
X125437001Y-92543159D01*
X125437001Y-92846043D01*
X125417506Y-92856463D01*
X125320815Y-92935815D01*
X125241463Y-93032506D01*
X125232857Y-93048607D01*
X125148250Y-92964000D01*
X124349000Y-92964000D01*
X124349000Y-92984000D01*
X124095000Y-92984000D01*
X124095000Y-92964000D01*
X123295750Y-92964000D01*
X123137000Y-93122750D01*
X123133928Y-93237000D01*
X123146188Y-93361482D01*
X123182498Y-93481180D01*
X123241463Y-93591494D01*
X123320815Y-93688185D01*
X123417506Y-93767537D01*
X123453918Y-93787000D01*
X123417506Y-93806463D01*
X123320815Y-93885815D01*
X123241463Y-93982506D01*
X123182498Y-94092820D01*
X123146188Y-94212518D01*
X123133928Y-94337000D01*
X123133928Y-94710377D01*
X123039639Y-94825267D01*
X122966747Y-94961640D01*
X122921860Y-95109613D01*
X122910501Y-95224939D01*
X122910500Y-100034928D01*
X121908000Y-100034928D01*
X121734746Y-100051992D01*
X121568150Y-100102528D01*
X121414614Y-100184595D01*
X121280038Y-100295038D01*
X121169595Y-100429614D01*
X121158000Y-100451307D01*
X121146405Y-100429614D01*
X121035962Y-100295038D01*
X120901386Y-100184595D01*
X120747850Y-100102528D01*
X120581254Y-100051992D01*
X120408000Y-100034928D01*
X118308000Y-100034928D01*
X118293967Y-100036310D01*
X116101000Y-97843343D01*
X116101000Y-95076000D01*
X116243928Y-95076000D01*
X116256188Y-95200482D01*
X116292498Y-95320180D01*
X116351463Y-95430494D01*
X116430815Y-95527185D01*
X116527506Y-95606537D01*
X116637820Y-95665502D01*
X116757518Y-95701812D01*
X116882000Y-95714072D01*
X117046250Y-95711000D01*
X117205000Y-95552250D01*
X117205000Y-94803000D01*
X117459000Y-94803000D01*
X117459000Y-95552250D01*
X117617750Y-95711000D01*
X117782000Y-95714072D01*
X117906482Y-95701812D01*
X118026180Y-95665502D01*
X118136494Y-95606537D01*
X118233185Y-95527185D01*
X118312537Y-95430494D01*
X118371502Y-95320180D01*
X118407812Y-95200482D01*
X118420072Y-95076000D01*
X118417000Y-94961750D01*
X118258250Y-94803000D01*
X117459000Y-94803000D01*
X117205000Y-94803000D01*
X116405750Y-94803000D01*
X116247000Y-94961750D01*
X116243928Y-95076000D01*
X116101000Y-95076000D01*
X116101000Y-94675509D01*
X116136494Y-94656537D01*
X116233185Y-94577185D01*
X116312537Y-94480494D01*
X116321143Y-94464393D01*
X116405750Y-94549000D01*
X117205000Y-94549000D01*
X117205000Y-94529000D01*
X117459000Y-94529000D01*
X117459000Y-94549000D01*
X118258250Y-94549000D01*
X118417000Y-94390250D01*
X118420072Y-94276000D01*
X118407812Y-94151518D01*
X118371502Y-94031820D01*
X118312537Y-93921506D01*
X118233185Y-93824815D01*
X118136494Y-93745463D01*
X118100082Y-93726000D01*
X118136494Y-93706537D01*
X118233185Y-93627185D01*
X118287501Y-93561000D01*
X120545447Y-93561000D01*
X120584000Y-93564797D01*
X120622553Y-93561000D01*
X120622561Y-93561000D01*
X120737887Y-93549641D01*
X120885860Y-93504754D01*
X121022233Y-93431862D01*
X121141764Y-93333764D01*
X121166347Y-93303810D01*
X122033157Y-92437000D01*
X123133928Y-92437000D01*
X123137000Y-92551250D01*
X123295750Y-92710000D01*
X124095000Y-92710000D01*
X124095000Y-91960750D01*
X123936250Y-91802000D01*
X123772000Y-91798928D01*
X123647518Y-91811188D01*
X123527820Y-91847498D01*
X123417506Y-91906463D01*
X123320815Y-91985815D01*
X123241463Y-92082506D01*
X123182498Y-92192820D01*
X123146188Y-92312518D01*
X123133928Y-92437000D01*
X122033157Y-92437000D01*
X123542278Y-90927879D01*
X123585521Y-90909967D01*
X123716376Y-90822533D01*
X124695039Y-91801197D01*
%TA.AperFunction,Conductor*%
D20*
G36*
X124695039Y-91801197D02*
G01*
X124672000Y-91798928D01*
X124507750Y-91802000D01*
X124349000Y-91960750D01*
X124349000Y-92710000D01*
X125148250Y-92710000D01*
X125307000Y-92551250D01*
X125310072Y-92437000D01*
X125307803Y-92413961D01*
X125437001Y-92543159D01*
X125437001Y-92846043D01*
X125417506Y-92856463D01*
X125320815Y-92935815D01*
X125241463Y-93032506D01*
X125232857Y-93048607D01*
X125148250Y-92964000D01*
X124349000Y-92964000D01*
X124349000Y-92984000D01*
X124095000Y-92984000D01*
X124095000Y-92964000D01*
X123295750Y-92964000D01*
X123137000Y-93122750D01*
X123133928Y-93237000D01*
X123146188Y-93361482D01*
X123182498Y-93481180D01*
X123241463Y-93591494D01*
X123320815Y-93688185D01*
X123417506Y-93767537D01*
X123453918Y-93787000D01*
X123417506Y-93806463D01*
X123320815Y-93885815D01*
X123241463Y-93982506D01*
X123182498Y-94092820D01*
X123146188Y-94212518D01*
X123133928Y-94337000D01*
X123133928Y-94710377D01*
X123039639Y-94825267D01*
X122966747Y-94961640D01*
X122921860Y-95109613D01*
X122910501Y-95224939D01*
X122910500Y-100034928D01*
X121908000Y-100034928D01*
X121734746Y-100051992D01*
X121568150Y-100102528D01*
X121414614Y-100184595D01*
X121280038Y-100295038D01*
X121169595Y-100429614D01*
X121158000Y-100451307D01*
X121146405Y-100429614D01*
X121035962Y-100295038D01*
X120901386Y-100184595D01*
X120747850Y-100102528D01*
X120581254Y-100051992D01*
X120408000Y-100034928D01*
X118308000Y-100034928D01*
X118293967Y-100036310D01*
X116101000Y-97843343D01*
X116101000Y-95076000D01*
X116243928Y-95076000D01*
X116256188Y-95200482D01*
X116292498Y-95320180D01*
X116351463Y-95430494D01*
X116430815Y-95527185D01*
X116527506Y-95606537D01*
X116637820Y-95665502D01*
X116757518Y-95701812D01*
X116882000Y-95714072D01*
X117046250Y-95711000D01*
X117205000Y-95552250D01*
X117205000Y-94803000D01*
X117459000Y-94803000D01*
X117459000Y-95552250D01*
X117617750Y-95711000D01*
X117782000Y-95714072D01*
X117906482Y-95701812D01*
X118026180Y-95665502D01*
X118136494Y-95606537D01*
X118233185Y-95527185D01*
X118312537Y-95430494D01*
X118371502Y-95320180D01*
X118407812Y-95200482D01*
X118420072Y-95076000D01*
X118417000Y-94961750D01*
X118258250Y-94803000D01*
X117459000Y-94803000D01*
X117205000Y-94803000D01*
X116405750Y-94803000D01*
X116247000Y-94961750D01*
X116243928Y-95076000D01*
X116101000Y-95076000D01*
X116101000Y-94675509D01*
X116136494Y-94656537D01*
X116233185Y-94577185D01*
X116312537Y-94480494D01*
X116321143Y-94464393D01*
X116405750Y-94549000D01*
X117205000Y-94549000D01*
X117205000Y-94529000D01*
X117459000Y-94529000D01*
X117459000Y-94549000D01*
X118258250Y-94549000D01*
X118417000Y-94390250D01*
X118420072Y-94276000D01*
X118407812Y-94151518D01*
X118371502Y-94031820D01*
X118312537Y-93921506D01*
X118233185Y-93824815D01*
X118136494Y-93745463D01*
X118100082Y-93726000D01*
X118136494Y-93706537D01*
X118233185Y-93627185D01*
X118287501Y-93561000D01*
X120545447Y-93561000D01*
X120584000Y-93564797D01*
X120622553Y-93561000D01*
X120622561Y-93561000D01*
X120737887Y-93549641D01*
X120885860Y-93504754D01*
X121022233Y-93431862D01*
X121141764Y-93333764D01*
X121166347Y-93303810D01*
X122033157Y-92437000D01*
X123133928Y-92437000D01*
X123137000Y-92551250D01*
X123295750Y-92710000D01*
X124095000Y-92710000D01*
X124095000Y-91960750D01*
X123936250Y-91802000D01*
X123772000Y-91798928D01*
X123647518Y-91811188D01*
X123527820Y-91847498D01*
X123417506Y-91906463D01*
X123320815Y-91985815D01*
X123241463Y-92082506D01*
X123182498Y-92192820D01*
X123146188Y-92312518D01*
X123133928Y-92437000D01*
X122033157Y-92437000D01*
X123542278Y-90927879D01*
X123585521Y-90909967D01*
X123716376Y-90822533D01*
X124695039Y-91801197D01*
G37*
%TD.AperFunction*%
M02*
