%TF.GenerationSoftware,KiCad,Pcbnew,5.1.9-1.fc33*%
%TF.CreationDate,2021-01-27T11:43:12-03:00*%
%TF.ProjectId,santas_sequencer,73616e74-6173-45f7-9365-7175656e6365,rev?*%
%TF.SameCoordinates,Original*%
%TF.FileFunction,Profile,NP*%
%FSLAX46Y46*%
G04 Gerber Fmt 4.6, Leading zero omitted, Abs format (unit mm)*
G04 Created by KiCad (PCBNEW 5.1.9-1.fc33) date 2021-01-27 11:43:12*
%MOMM*%
%LPD*%
G01*
G04 APERTURE LIST*
%TA.AperFunction,Profile*%
%ADD10C,0.100000*%
%TD*%
G04 APERTURE END LIST*
D10*
X97906833Y-133604000D02*
X97811713Y-133506490D01*
X97811713Y-133506490D02*
X97719257Y-133406890D01*
X97719257Y-133406890D02*
X97629490Y-133305254D01*
X97629490Y-133305254D02*
X97542434Y-133201640D01*
X97542434Y-133201640D02*
X97458112Y-133096102D01*
X97458112Y-133096102D02*
X97376549Y-132988698D01*
X97376549Y-132988698D02*
X97297766Y-132879483D01*
X97297766Y-132879483D02*
X97221788Y-132768514D01*
X97221788Y-132768514D02*
X97148637Y-132655847D01*
X97148637Y-132655847D02*
X97078337Y-132541538D01*
X97078337Y-132541538D02*
X97010912Y-132425644D01*
X97010912Y-132425644D02*
X96946384Y-132308220D01*
X96946384Y-132308220D02*
X96884777Y-132189323D01*
X96884777Y-132189323D02*
X96826113Y-132069009D01*
X96826113Y-132069009D02*
X96770417Y-131947334D01*
X96770417Y-131947334D02*
X96717712Y-131824355D01*
X96717712Y-131824355D02*
X96668021Y-131700127D01*
X96668021Y-131700127D02*
X96621367Y-131574707D01*
X96621367Y-131574707D02*
X96577773Y-131448151D01*
X96577773Y-131448151D02*
X96537263Y-131320515D01*
X96537263Y-131320515D02*
X96499860Y-131191856D01*
X96499860Y-131191856D02*
X96465587Y-131062229D01*
X96465587Y-131062229D02*
X96434468Y-130931691D01*
X96434468Y-130931691D02*
X96406526Y-130800298D01*
X96406526Y-130800298D02*
X96381784Y-130668107D01*
X96381784Y-130668107D02*
X96360265Y-130535172D01*
X96360265Y-130535172D02*
X96341993Y-130401552D01*
X96341993Y-130401552D02*
X96326991Y-130267301D01*
X96326991Y-130267301D02*
X96315282Y-130132476D01*
X96315282Y-130132476D02*
X96306890Y-129997134D01*
X96306890Y-129997134D02*
X96301838Y-129861330D01*
X96301838Y-129861330D02*
X96300149Y-129725121D01*
X101785712Y-135210684D02*
X101649502Y-135208994D01*
X101649502Y-135208994D02*
X101513698Y-135203942D01*
X101513698Y-135203942D02*
X101378356Y-135195550D01*
X101378356Y-135195550D02*
X101243531Y-135183841D01*
X101243531Y-135183841D02*
X101109280Y-135168839D01*
X101109280Y-135168839D02*
X100975660Y-135150567D01*
X100975660Y-135150567D02*
X100842725Y-135129048D01*
X100842725Y-135129048D02*
X100710534Y-135104306D01*
X100710534Y-135104306D02*
X100579141Y-135076364D01*
X100579141Y-135076364D02*
X100448603Y-135045245D01*
X100448603Y-135045245D02*
X100318976Y-135010972D01*
X100318976Y-135010972D02*
X100190317Y-134973569D01*
X100190317Y-134973569D02*
X100062681Y-134933059D01*
X100062681Y-134933059D02*
X99936125Y-134889466D01*
X99936125Y-134889466D02*
X99810705Y-134842811D01*
X99810705Y-134842811D02*
X99686477Y-134793120D01*
X99686477Y-134793120D02*
X99563498Y-134740415D01*
X99563498Y-134740415D02*
X99441823Y-134684719D01*
X99441823Y-134684719D02*
X99321509Y-134626056D01*
X99321509Y-134626056D02*
X99202612Y-134564449D01*
X99202612Y-134564449D02*
X99085188Y-134499921D01*
X99085188Y-134499921D02*
X98969294Y-134432495D01*
X98969294Y-134432495D02*
X98854985Y-134362195D01*
X98854985Y-134362195D02*
X98742318Y-134289045D01*
X98742318Y-134289045D02*
X98631349Y-134213067D01*
X98631349Y-134213067D02*
X98522135Y-134134284D01*
X98522135Y-134134284D02*
X98414730Y-134052720D01*
X98414730Y-134052720D02*
X98309193Y-133968398D01*
X98309193Y-133968398D02*
X98205578Y-133881342D01*
X98205578Y-133881342D02*
X98103942Y-133791575D01*
X98103942Y-133791575D02*
X98004342Y-133699120D01*
X98004342Y-133699120D02*
X97906833Y-133604000D01*
X191090684Y-129725121D02*
X191088994Y-129861330D01*
X191088994Y-129861330D02*
X191083942Y-129997134D01*
X191083942Y-129997134D02*
X191075550Y-130132476D01*
X191075550Y-130132476D02*
X191063841Y-130267301D01*
X191063841Y-130267301D02*
X191048839Y-130401552D01*
X191048839Y-130401552D02*
X191030567Y-130535172D01*
X191030567Y-130535172D02*
X191009048Y-130668107D01*
X191009048Y-130668107D02*
X190984306Y-130800298D01*
X190984306Y-130800298D02*
X190956364Y-130931691D01*
X190956364Y-130931691D02*
X190925245Y-131062229D01*
X190925245Y-131062229D02*
X190890972Y-131191856D01*
X190890972Y-131191856D02*
X190853569Y-131320515D01*
X190853569Y-131320515D02*
X190813059Y-131448151D01*
X190813059Y-131448151D02*
X190769466Y-131574707D01*
X190769466Y-131574707D02*
X190722811Y-131700127D01*
X190722811Y-131700127D02*
X190673120Y-131824355D01*
X190673120Y-131824355D02*
X190620415Y-131947334D01*
X190620415Y-131947334D02*
X190564719Y-132069009D01*
X190564719Y-132069009D02*
X190506056Y-132189323D01*
X190506056Y-132189323D02*
X190444449Y-132308220D01*
X190444449Y-132308220D02*
X190379921Y-132425644D01*
X190379921Y-132425644D02*
X190312495Y-132541538D01*
X190312495Y-132541538D02*
X190242195Y-132655847D01*
X190242195Y-132655847D02*
X190169045Y-132768514D01*
X190169045Y-132768514D02*
X190093067Y-132879483D01*
X190093067Y-132879483D02*
X190014284Y-132988698D01*
X190014284Y-132988698D02*
X189932720Y-133096102D01*
X189932720Y-133096102D02*
X189848398Y-133201640D01*
X189848398Y-133201640D02*
X189761342Y-133305254D01*
X189761342Y-133305254D02*
X189671575Y-133406890D01*
X189671575Y-133406890D02*
X189579120Y-133506490D01*
X189579120Y-133506490D02*
X189484000Y-133604000D01*
X96300149Y-84705719D02*
X96301838Y-84569509D01*
X96301838Y-84569509D02*
X96306890Y-84433705D01*
X96306890Y-84433705D02*
X96315282Y-84298363D01*
X96315282Y-84298363D02*
X96326991Y-84163538D01*
X96326991Y-84163538D02*
X96341993Y-84029287D01*
X96341993Y-84029287D02*
X96360265Y-83895667D01*
X96360265Y-83895667D02*
X96381784Y-83762732D01*
X96381784Y-83762732D02*
X96406526Y-83630541D01*
X96406526Y-83630541D02*
X96434468Y-83499148D01*
X96434468Y-83499148D02*
X96465587Y-83368610D01*
X96465587Y-83368610D02*
X96499860Y-83238983D01*
X96499860Y-83238983D02*
X96537263Y-83110324D01*
X96537263Y-83110324D02*
X96577773Y-82982688D01*
X96577773Y-82982688D02*
X96621367Y-82856132D01*
X96621367Y-82856132D02*
X96668021Y-82730712D01*
X96668021Y-82730712D02*
X96717712Y-82606484D01*
X96717712Y-82606484D02*
X96770417Y-82483505D01*
X96770417Y-82483505D02*
X96826113Y-82361830D01*
X96826113Y-82361830D02*
X96884777Y-82241516D01*
X96884777Y-82241516D02*
X96946384Y-82122619D01*
X96946384Y-82122619D02*
X97010912Y-82005195D01*
X97010912Y-82005195D02*
X97078337Y-81889301D01*
X97078337Y-81889301D02*
X97148637Y-81774992D01*
X97148637Y-81774992D02*
X97221788Y-81662325D01*
X97221788Y-81662325D02*
X97297766Y-81551356D01*
X97297766Y-81551356D02*
X97376549Y-81442142D01*
X97376549Y-81442142D02*
X97458112Y-81334737D01*
X97458112Y-81334737D02*
X97542434Y-81229200D01*
X97542434Y-81229200D02*
X97629490Y-81125585D01*
X97629490Y-81125585D02*
X97719257Y-81023949D01*
X97719257Y-81023949D02*
X97811713Y-80924349D01*
X97811713Y-80924349D02*
X97906833Y-80826840D01*
X101785712Y-79220156D02*
X185605121Y-79220156D01*
X189484000Y-80826840D02*
X189579120Y-80924349D01*
X189579120Y-80924349D02*
X189671575Y-81023949D01*
X189671575Y-81023949D02*
X189761342Y-81125585D01*
X189761342Y-81125585D02*
X189848398Y-81229200D01*
X189848398Y-81229200D02*
X189932720Y-81334737D01*
X189932720Y-81334737D02*
X190014284Y-81442142D01*
X190014284Y-81442142D02*
X190093067Y-81551356D01*
X190093067Y-81551356D02*
X190169045Y-81662325D01*
X190169045Y-81662325D02*
X190242195Y-81774992D01*
X190242195Y-81774992D02*
X190312495Y-81889301D01*
X190312495Y-81889301D02*
X190379921Y-82005195D01*
X190379921Y-82005195D02*
X190444449Y-82122619D01*
X190444449Y-82122619D02*
X190506056Y-82241516D01*
X190506056Y-82241516D02*
X190564719Y-82361830D01*
X190564719Y-82361830D02*
X190620415Y-82483505D01*
X190620415Y-82483505D02*
X190673120Y-82606484D01*
X190673120Y-82606484D02*
X190722811Y-82730712D01*
X190722811Y-82730712D02*
X190769466Y-82856132D01*
X190769466Y-82856132D02*
X190813059Y-82982688D01*
X190813059Y-82982688D02*
X190853569Y-83110324D01*
X190853569Y-83110324D02*
X190890972Y-83238983D01*
X190890972Y-83238983D02*
X190925245Y-83368610D01*
X190925245Y-83368610D02*
X190956364Y-83499148D01*
X190956364Y-83499148D02*
X190984306Y-83630541D01*
X190984306Y-83630541D02*
X191009048Y-83762732D01*
X191009048Y-83762732D02*
X191030567Y-83895667D01*
X191030567Y-83895667D02*
X191048839Y-84029287D01*
X191048839Y-84029287D02*
X191063841Y-84163538D01*
X191063841Y-84163538D02*
X191075550Y-84298363D01*
X191075550Y-84298363D02*
X191083942Y-84433705D01*
X191083942Y-84433705D02*
X191088994Y-84569509D01*
X191088994Y-84569509D02*
X191090684Y-84705719D01*
X185605121Y-135210684D02*
X101785712Y-135210684D01*
X191090684Y-84705719D02*
X191090684Y-129725121D01*
X97906833Y-80826840D02*
X98004342Y-80731720D01*
X98004342Y-80731720D02*
X98103942Y-80639264D01*
X98103942Y-80639264D02*
X98205578Y-80549497D01*
X98205578Y-80549497D02*
X98309193Y-80462441D01*
X98309193Y-80462441D02*
X98414730Y-80378119D01*
X98414730Y-80378119D02*
X98522135Y-80296556D01*
X98522135Y-80296556D02*
X98631349Y-80217773D01*
X98631349Y-80217773D02*
X98742318Y-80141795D01*
X98742318Y-80141795D02*
X98854985Y-80068644D01*
X98854985Y-80068644D02*
X98969294Y-79998344D01*
X98969294Y-79998344D02*
X99085188Y-79930919D01*
X99085188Y-79930919D02*
X99202612Y-79866391D01*
X99202612Y-79866391D02*
X99321509Y-79804784D01*
X99321509Y-79804784D02*
X99441823Y-79746120D01*
X99441823Y-79746120D02*
X99563498Y-79690424D01*
X99563498Y-79690424D02*
X99686477Y-79637719D01*
X99686477Y-79637719D02*
X99810705Y-79588028D01*
X99810705Y-79588028D02*
X99936125Y-79541374D01*
X99936125Y-79541374D02*
X100062681Y-79497780D01*
X100062681Y-79497780D02*
X100190317Y-79457270D01*
X100190317Y-79457270D02*
X100318976Y-79419867D01*
X100318976Y-79419867D02*
X100448603Y-79385594D01*
X100448603Y-79385594D02*
X100579141Y-79354475D01*
X100579141Y-79354475D02*
X100710534Y-79326533D01*
X100710534Y-79326533D02*
X100842725Y-79301791D01*
X100842725Y-79301791D02*
X100975660Y-79280272D01*
X100975660Y-79280272D02*
X101109280Y-79262000D01*
X101109280Y-79262000D02*
X101243531Y-79246998D01*
X101243531Y-79246998D02*
X101378356Y-79235289D01*
X101378356Y-79235289D02*
X101513698Y-79226897D01*
X101513698Y-79226897D02*
X101649502Y-79221845D01*
X101649502Y-79221845D02*
X101785712Y-79220156D01*
X101785712Y-79220156D02*
X101785712Y-79220156D01*
X185605121Y-79220156D02*
X185741330Y-79221845D01*
X185741330Y-79221845D02*
X185877134Y-79226897D01*
X185877134Y-79226897D02*
X186012476Y-79235289D01*
X186012476Y-79235289D02*
X186147301Y-79246998D01*
X186147301Y-79246998D02*
X186281552Y-79262000D01*
X186281552Y-79262000D02*
X186415172Y-79280272D01*
X186415172Y-79280272D02*
X186548107Y-79301791D01*
X186548107Y-79301791D02*
X186680298Y-79326533D01*
X186680298Y-79326533D02*
X186811691Y-79354475D01*
X186811691Y-79354475D02*
X186942229Y-79385594D01*
X186942229Y-79385594D02*
X187071856Y-79419867D01*
X187071856Y-79419867D02*
X187200515Y-79457270D01*
X187200515Y-79457270D02*
X187328151Y-79497780D01*
X187328151Y-79497780D02*
X187454707Y-79541374D01*
X187454707Y-79541374D02*
X187580127Y-79588028D01*
X187580127Y-79588028D02*
X187704355Y-79637719D01*
X187704355Y-79637719D02*
X187827334Y-79690424D01*
X187827334Y-79690424D02*
X187949009Y-79746120D01*
X187949009Y-79746120D02*
X188069323Y-79804784D01*
X188069323Y-79804784D02*
X188188220Y-79866391D01*
X188188220Y-79866391D02*
X188305644Y-79930919D01*
X188305644Y-79930919D02*
X188421538Y-79998344D01*
X188421538Y-79998344D02*
X188535847Y-80068644D01*
X188535847Y-80068644D02*
X188648514Y-80141795D01*
X188648514Y-80141795D02*
X188759483Y-80217773D01*
X188759483Y-80217773D02*
X188868698Y-80296556D01*
X188868698Y-80296556D02*
X188976102Y-80378119D01*
X188976102Y-80378119D02*
X189081640Y-80462441D01*
X189081640Y-80462441D02*
X189185254Y-80549497D01*
X189185254Y-80549497D02*
X189286890Y-80639264D01*
X189286890Y-80639264D02*
X189386490Y-80731720D01*
X189386490Y-80731720D02*
X189484000Y-80826840D01*
X96300149Y-129725121D02*
X96300149Y-84705719D01*
X189484000Y-133604000D02*
X189386490Y-133699120D01*
X189386490Y-133699120D02*
X189286890Y-133791575D01*
X189286890Y-133791575D02*
X189185254Y-133881342D01*
X189185254Y-133881342D02*
X189081640Y-133968398D01*
X189081640Y-133968398D02*
X188976102Y-134052720D01*
X188976102Y-134052720D02*
X188868698Y-134134284D01*
X188868698Y-134134284D02*
X188759483Y-134213067D01*
X188759483Y-134213067D02*
X188648514Y-134289045D01*
X188648514Y-134289045D02*
X188535847Y-134362195D01*
X188535847Y-134362195D02*
X188421538Y-134432495D01*
X188421538Y-134432495D02*
X188305644Y-134499921D01*
X188305644Y-134499921D02*
X188188220Y-134564449D01*
X188188220Y-134564449D02*
X188069323Y-134626056D01*
X188069323Y-134626056D02*
X187949009Y-134684719D01*
X187949009Y-134684719D02*
X187827334Y-134740415D01*
X187827334Y-134740415D02*
X187704355Y-134793120D01*
X187704355Y-134793120D02*
X187580127Y-134842811D01*
X187580127Y-134842811D02*
X187454707Y-134889466D01*
X187454707Y-134889466D02*
X187328151Y-134933059D01*
X187328151Y-134933059D02*
X187200515Y-134973569D01*
X187200515Y-134973569D02*
X187071856Y-135010972D01*
X187071856Y-135010972D02*
X186942229Y-135045245D01*
X186942229Y-135045245D02*
X186811691Y-135076364D01*
X186811691Y-135076364D02*
X186680298Y-135104306D01*
X186680298Y-135104306D02*
X186548107Y-135129048D01*
X186548107Y-135129048D02*
X186415172Y-135150567D01*
X186415172Y-135150567D02*
X186281552Y-135168839D01*
X186281552Y-135168839D02*
X186147301Y-135183841D01*
X186147301Y-135183841D02*
X186012476Y-135195550D01*
X186012476Y-135195550D02*
X185877134Y-135203942D01*
X185877134Y-135203942D02*
X185741330Y-135208994D01*
X185741330Y-135208994D02*
X185605121Y-135210684D01*
M02*
