M48
INCH,TZ
T1C0.0118
T2C0.0300
T3C0.0512
T4C0.1378
%
G90
G05
T1
X42400Y-42075
X42400Y-46450
X42700Y-51300
X42750Y-46450
X43150Y-42700
X43550Y-42050
X44250Y-41200
X44250Y-41850
X44250Y-42350
X44450Y-50600
X46786Y-44836
X47900Y-37100
X48400Y-50800
X48500Y-34950
X48500Y-35500
X49786Y-50164
X49986Y-44586
X52586Y-49264
X53140Y-46060
X54500Y-38000
X55186Y-48464
X56450Y-39201
X56841Y-44641
X57350Y-41650
X57786Y-47614
X57950Y-41850
X57997Y-42603
X59044Y-40144
X60250Y-46950
X61040Y-40810
X62200Y-42000
X63004Y-40904
T2
X58591Y-32892
X58591Y-35057
X59575Y-32892
X59575Y-35057
X60559Y-32892
X60559Y-35057
T3
X69300Y-33726
X69300Y-41600
T4
X40280Y-42185
T0
M30
