999
dxfrw 0.6.3
  0
SECTION
  2
HEADER
  9
$ACADVER
  1
AC1009
  9
$DWGCODEPAGE
  3
ANSI_1252
  9
$INSBASE
 10
0
 20
0
 30
0
  9
$EXTMIN
 10
0.495898
 20
2.446033
 30
0
  9
$EXTMAX
 10
26.606702
 20
18.568548
 30
0
  9
$LIMMIN
 10
0
 20
0
  9
$LIMMAX
 10
420
 20
297
  9
$ORTHOMODE
 70
    0
  9
$REGENMODE
 70
    1
  9
$FILLMODE
 70
    1
  9
$QTEXTMODE
 70
    0
  9
$MIRRTEXT
 70
    0
  9
$DRAGMODE
 70
    2
  9
$LTSCALE
 40
1
  9
$OSMODE
 70
    0
  9
$ATTMODE
 70
    0
  9
$TEXTSIZE
 40
2.5
  9
$TRACEWID
 40
15.68
  9
$TEXTSTYLE
  7
STANDARD
  9
$CLAYER
  8
0
  9
$CELTYPE
  6
BYLAYER
  9
$CECOLOR
 62
  256
  9
$DIMSCALE
 40
2.5
  9
$DIMASZ
 40
2.5
  9
$DIMEXO
 40
0.625
  9
$DIMDLI
 40
3.75
  9
$DIMRND
 40
0
  9
$DIMDLE
 40
0
  9
$DIMEXE
 40
1.25
  9
$DIMTP
 40
0
  9
$DIMTM
 40
0
  9
$DIMTXT
 40
2.5
  9
$DIMCEN
 40
2.5
  9
$DIMTSZ
 40
0
  9
$DIMTOL
 70
    0
  9
$DIMLIM
 70
    0
  9
$DIMTIH
 70
    0
  9
$DIMTOH
 70
    0
  9
$DIMSE1
 70
    0
  9
$DIMSE2
 70
    0
  9
$DIMTAD
 70
    1
  9
$DIMZIN
 70
    8
  9
$DIMBLK
  1

  9
$DIMASO
 70
    1
  9
$DIMSHO
 70
    1
  9
$DIMPOST
  1

  9
$DIMAPOST
  1

  9
$DIMALT
 70
    0
  9
$DIMALTD
 70
    3
  9
$DIMALTF
 40
0.03937
  9
$DIMLFAC
 40
1
  9
$DIMTOFL
 70
    1
  9
$DIMTVP
 40
0
  9
$DIMTIX
 70
    0
  9
$DIMSOXD
 70
    0
  9
$DIMSAH
 70
    0
  9
$DIMBLK1
  1

  9
$DIMBLK2
  1

  9
$DIMSTYLE
  2
STANDARD
  9
$DIMCLRD
 70
    0
  9
$DIMCLRE
 70
    0
  9
$DIMCLRT
 70
    0
  9
$DIMTFAC
 40
1
  9
$DIMGAP
 40
0.625
  9
$LUNITS
 70
    2
  9
$LUPREC
 70
    4
  9
$SKETCHINC
 40
1
  9
$FILLETRAD
 40
0
  9
$AUNITS
 70
    0
  9
$AUPREC
 70
    2
  9
$MENU
  1
.
  9
$ELEVATION
 40
0
  9
$PELEVATION
 40
0
  9
$THICKNESS
 40
0
  9
$LIMCHECK
 70
    0
  9
$BLIPMODE
 70
    0
  9
$CHAMFERA
 40
0
  9
$CHAMFERB
 40
0
  9
$SKPOLY
 70
    0
  9
$USRTIMER
 70
    1
  9
$ANGBASE
 50
0
  9
$ANGDIR
 70
    0
  9
$PDMODE
 70
   34
  9
$PDSIZE
 40
0
  9
$PLINEWID
 40
0
  9
$COORDS
 70
    2
  9
$SPLFRAME
 70
    0
  9
$SPLINETYPE
 70
    2
  9
$SPLINESEGS
 70
    8
  9
$ATTDIA
 70
    1
  9
$ATTREQ
 70
    1
  9
$HANDLING
 70
    1
  9
$HANDSEED
  5
20000
  9
$SURFTAB1
 70
    6
  9
$SURFTAB2
 70
    6
  9
$SURFTYPE
 70
    6
  9
$SURFU
 70
    6
  9
$SURFV
 70
    6
  9
$UCSNAME
  2

  9
$UCSORG
 10
0
 20
0
 30
0
  9
$UCSXDIR
 10
1
 20
0
 30
0
  9
$UCSYDIR
 10
0
 20
1
 30
0
  9
$PUCSNAME
  2

  9
$PUCSORG
 10
0
 20
0
 30
0
  9
$PUCSXDIR
 10
1
 20
0
 30
0
  9
$PUCSYDIR
 10
0
 20
1
 30
0
  9
$USERI1
 70
    0
  9
$USERI2
 70
    0
  9
$USERI3
 70
    0
  9
$USERI4
 70
    0
  9
$USERI5
 70
    0
  9
$USERR1
 40
0
  9
$USERR2
 40
0
  9
$USERR3
 40
0
  9
$USERR4
 40
0
  9
$USERR5
 40
0
  9
$WORLDVIEW
 70
    1
  9
$SHADEDGE
 70
    3
  9
$SHADEDIF
 70
   70
  9
$TILEMODE
 70
    1
  9
$MAXACTVP
 70
   64
  9
$PLIMCHECK
 70
    0
  9
$PEXTMIN
 10
0
 20
0
 30
0
  9
$PEXTMAX
 10
0
 20
0
 30
0
  9
$SNAPSTYLE
 70
    0
  9
$PLIMMIN
 10
0
 20
0
  9
$PLIMMAX
 10
210
 20
297
  9
$UNITMODE
 70
    0
  9
$VISRETAIN
 70
    1
  9
$PLINEGEN
 70
    0
  9
$PSLTSCALE
 70
    1
  0
ENDSEC
  0
SECTION
  2
TABLES
  0
TABLE
  2
VPORT
 70
    1
  0
VPORT
  2
*ACTIVE
 70
    0
 10
0
 20
0
 11
1
 21
1
 12
104.1116974494283
 22
42.21635883905013
 13
0
 23
0
 14
10
 24
10
 15
10
 25
10
 16
0
 26
0
 36
1
 17
0
 27
0
 37
0
 40
115.4353562005277
 41
1.908571428571429
 42
50
 43
0
 44
0
 50
0
 51
0
 71
    0
 72
  100
 73
    1
 74
    3
 75
    0
 76
    1
 77
    0
 78
    0
  0
ENDTAB
  0
TABLE
  2
LTYPE
 70
    4
  0
LTYPE
  2
BYBLOCK
 70
    0
  3

 72
   65
 73
    0
 40
0
  0
LTYPE
  2
BYLAYER
 70
    0
  3

 72
   65
 73
    0
 40
0
  0
LTYPE
  2
CONTINUOUS
 70
    0
  3
Solid line
 72
   65
 73
    0
 40
0
  0
LTYPE
  2
DOT
 70
    0
  3
Dot . . . . . . . . . . . . . . . . . . . . . .
 72
   65
 73
    2
 40
6.35
 49
0
 49
-6.35
  0
LTYPE
  2
DOTTINY
 70
    0
  3
Dot (.15x) .....................................
 72
   65
 73
    2
 40
0.9525
 49
0
 49
-0.9525
  0
LTYPE
  2
DOT2
 70
    0
  3
Dot (.5x) .....................................
 72
   65
 73
    2
 40
3.175
 49
0
 49
-3.175
  0
LTYPE
  2
DOTX2
 70
    0
  3
Dot (2x) .  .  .  .  .  .  .  .  .  .  .  .  .
 72
   65
 73
    2
 40
12.7
 49
0
 49
-12.7
  0
LTYPE
  2
DASHED
 70
    0
  3
Dashed _ _ _ _ _ _ _ _ _ _ _ _ _ _ _ _ _
 72
   65
 73
    2
 40
19.05
 49
12.7
 49
-6.35
  0
LTYPE
  2
DASHEDTINY
 70
    0
  3
Dashed (.15x) _ _ _ _ _ _ _ _ _ _ _ _ _ _ _ _ _
 72
   65
 73
    2
 40
2.8575
 49
1.905
 49
-0.9525
  0
LTYPE
  2
DASHED2
 70
    0
  3
Dashed (.5x) _ _ _ _ _ _ _ _ _ _ _ _ _ _ _ _ _
 72
   65
 73
    2
 40
9.524999999999999
 49
6.35
 49
-3.175
  0
LTYPE
  2
DASHEDX2
 70
    0
  3
Dashed (2x) ____  ____  ____  ____  ____  ___
 72
   65
 73
    2
 40
38.09999999999999
 49
25.4
 49
-12.7
  0
LTYPE
  2
DASHDOT
 70
    0
  3
Dash dot __ . __ . __ . __ . __ . __ . __ . __
 72
   65
 73
    4
 40
25.4
 49
12.7
 49
-6.35
 49
0
 49
-6.35
  0
LTYPE
  2
DASHDOTTINY
 70
    0
  3
Dash dot (.15x) _._._._._._._._._._._._._._._.
 72
   65
 73
    4
 40
3.81
 49
1.905
 49
-0.9525
 49
0
 49
-0.9525
  0
LTYPE
  2
DASHDOT2
 70
    0
  3
Dash dot (.5x) _._._._._._._._._._._._._._._.
 72
   65
 73
    4
 40
12.7
 49
6.35
 49
-3.175
 49
0
 49
-3.175
  0
LTYPE
  2
DASHDOTX2
 70
    0
  3
Dash dot (2x) ____  .  ____  .  ____  .  ___
 72
   65
 73
    4
 40
50.8
 49
25.4
 49
-12.7
 49
0
 49
-12.7
  0
LTYPE
  2
DIVIDE
 70
    0
  3
Divide ____ . . ____ . . ____ . . ____ . . ____
 72
   65
 73
    6
 40
31.75
 49
12.7
 49
-6.35
 49
0
 49
-6.35
 49
0
 49
-6.35
  0
LTYPE
  2
DIVIDETINY
 70
    0
  3
Divide (.15x) __..__..__..__..__..__..__..__.._
 72
   65
 73
    6
 40
4.7625
 49
1.905
 49
-0.9525
 49
0
 49
-0.9525
 49
0
 49
-0.9525
  0
LTYPE
  2
DIVIDE2
 70
    0
  3
Divide (.5x) __..__..__..__..__..__..__..__.._
 72
   65
 73
    6
 40
15.875
 49
6.35
 49
-3.175
 49
0
 49
-3.175
 49
0
 49
-3.175
  0
LTYPE
  2
DIVIDEX2
 70
    0
  3
Divide (2x) ________  .  .  ________  .  .  _
 72
   65
 73
    6
 40
63.5
 49
25.4
 49
-12.7
 49
0
 49
-12.7
 49
0
 49
-12.7
  0
LTYPE
  2
BORDER
 70
    0
  3
Border __ __ . __ __ . __ __ . __ __ . __ __ .
 72
   65
 73
    6
 40
44.45
 49
12.7
 49
-6.35
 49
12.7
 49
-6.35
 49
0
 49
-6.35
  0
LTYPE
  2
BORDERTINY
 70
    0
  3
Border (.15x) __.__.__.__.__.__.__.__.__.__.__.
 72
   65
 73
    6
 40
6.6675
 49
1.905
 49
-0.9525
 49
1.905
 49
-0.9525
 49
0
 49
-0.9525
  0
LTYPE
  2
BORDER2
 70
    0
  3
Border (.5x) __.__.__.__.__.__.__.__.__.__.__.
 72
   65
 73
    6
 40
22.225
 49
6.35
 49
-3.175
 49
6.35
 49
-3.175
 49
0
 49
-3.175
  0
LTYPE
  2
BORDERX2
 70
    0
  3
Border (2x) ____  ____  .  ____  ____  .  ___
 72
   65
 73
    6
 40
88.89999999999999
 49
25.4
 49
-12.7
 49
25.4
 49
-12.7
 49
0
 49
-12.7
  0
LTYPE
  2
CENTER
 70
    0
  3
Center ____ _ ____ _ ____ _ ____ _ ____ _ ____
 72
   65
 73
    4
 40
50.8
 49
31.75
 49
-6.35
 49
6.35
 49
-6.35
  0
LTYPE
  2
CENTERTINY
 70
    0
  3
Center (.15x) ___ _ ___ _ ___ _ ___ _ ___ _ ___
 72
   65
 73
    4
 40
7.619999999999999
 49
4.7625
 49
-0.9525
 49
0.9525
 49
-0.9525
  0
LTYPE
  2
CENTER2
 70
    0
  3
Center (.5x) ___ _ ___ _ ___ _ ___ _ ___ _ ___
 72
   65
 73
    4
 40
28.575
 49
19.05
 49
-3.175
 49
3.175
 49
-3.175
  0
LTYPE
  2
CENTERX2
 70
    0
  3
Center (2x) ________  __  ________  __  _____
 72
   65
 73
    4
 40
101.6
 49
63.5
 49
-12.7
 49
12.7
 49
-12.7
  0
ENDTAB
  0
TABLE
  2
LAYER
 70
    1
  0
LAYER
  2
0
 70
    0
 62
    7
  6
CONTINUOUS
  0
LAYER
  2
LAYER 1
 70
    0
 62
    7
  6
CONTINUOUS
  0
ENDTAB
  0
TABLE
  2
STYLE
 70
    3
  0
STYLE
  2
STANDARD
 70
    0
 40
0
 41
1
 50
0
 71
    0
 42
1
  3
TXT
  4

  0
ENDTAB
  0
TABLE
  2
VIEW
 70
    0
  0
ENDTAB
  0
TABLE
  2
UCS
 70
    0
  0
ENDTAB
  0
TABLE
  2
APPID
 70
    1
  0
APPID
  2
ACAD
 70
    0
  0
APPID
  2
LIBRECAD
 70
    0
  0
ENDTAB
  0
TABLE
  2
DIMSTYLE
 70
    1
  0
DIMSTYLE
  2
STANDARD
 70
    0
  3

  4

  5

  6

  7

 40
1
 41
2.5
 42
0.625
 43
0.38
 44
1.25
 45
0
 46
0
 47
0
 48
0
 49
1
140
2.5
141
0.09
142
2.5
143
25.4
144
1
145
0
146
1
147
0.625
 71
    0
 72
    0
 73
    0
 74
    1
 75
    0
 76
    0
 77
    0
 78
    1
170
    0
171
    2
172
    0
173
    0
174
    0
175
    0
176
    0
177
    0
178
    0
  0
ENDTAB
  0
ENDSEC
  0
SECTION
  2
BLOCKS
  0
BLOCK
  8
0
  2
$MODEL_SPACE
 70
    0
 10
0
 20
0
 30
0
  3
$MODEL_SPACE
  1

  0
ENDBLK
  8
0
  0
BLOCK
  8
0
  2
$PAPER_SPACE
 70
    0
 10
0
 20
0
 30
0
  3
$PAPER_SPACE
  1

  0
ENDBLK
  8
0
  0
ENDSEC
  0
SECTION
  2
ENTITIES
  0
LINE
  5
31
  8
LAYER 1
  6
BYLAYER
 62
  256
 10
23.1836
 20
15.3393
 11
23.960887
 21
13.88252
  0
LINE
  5
32
  8
LAYER 1
  6
BYLAYER
 62
  256
 10
23.960887
 20
13.88252
 11
24.121984
 21
13.349041
  0
LINE
  5
33
  8
LAYER 1
  6
BYLAYER
 62
  256
 10
24.121984
 20
13.349041
 11
24.093364
 21
12.749097
  0
LINE
  5
34
  8
LAYER 1
  6
BYLAYER
 62
  256
 10
24.093364
 20
12.749097
 11
23.916878
 21
12.123
  0
LINE
  5
35
  8
LAYER 1
  6
BYLAYER
 62
  256
 10
23.916878
 20
12.123
 11
24.69161
 21
12.110332
  0
LINE
  5
36
  8
LAYER 1
  6
BYLAYER
 62
  256
 10
24.69161
 20
12.110332
 11
25.426508
 21
11.914895
  0
LINE
  5
37
  8
LAYER 1
  6
BYLAYER
 62
  256
 10
25.426508
 20
11.914895
 11
24.843152
 21
11.016863
  0
LINE
  5
38
  8
LAYER 1
  6
BYLAYER
 62
  256
 10
24.843152
 20
11.016863
 11
25.935082
 21
10.127241
  0
LINE
  5
39
  8
LAYER 1
  6
BYLAYER
 62
  256
 10
25.935082
 20
10.127241
 11
26.4705
 21
9.714473
  0
LINE
  5
3A
  8
LAYER 1
  6
BYLAYER
 62
  256
 10
26.4705
 20
9.714473
 11
26.606702
 21
9.533313
  0
LINE
  5
3B
  8
LAYER 1
  6
BYLAYER
 62
  256
 10
26.606702
 20
9.533313
 11
26.046359
 21
9.488925999999999
  0
LINE
  5
3C
  8
LAYER 1
  6
BYLAYER
 62
  256
 10
26.046359
 20
9.488925999999999
 11
25.383272
 21
10.166912
  0
LINE
  5
3D
  8
LAYER 1
  6
BYLAYER
 62
  256
 10
25.383272
 20
10.166912
 11
24.605529
 21
10.737876
  0
LINE
  5
3E
  8
LAYER 1
  6
BYLAYER
 62
  256
 10
24.605529
 20
10.737876
 11
24.203013
 21
10.314106
  0
LINE
  5
3F
  8
LAYER 1
  6
BYLAYER
 62
  256
 10
24.203013
 20
10.314106
 11
23.417929
 21
10.023117
  0
LINE
  5
40
  8
LAYER 1
  6
BYLAYER
 62
  256
 10
23.417929
 20
10.023117
 11
23.439743
 21
10.26942
  0
LINE
  5
41
  8
LAYER 1
  6
BYLAYER
 62
  256
 10
23.439743
 20
10.26942
 11
23.598675
 21
10.491727
  0
LINE
  5
42
  8
LAYER 1
  6
BYLAYER
 62
  256
 10
23.598675
 20
10.491727
 11
23.961801
 21
10.509015
  0
LINE
  5
43
  8
LAYER 1
  6
BYLAYER
 62
  256
 10
23.961801
 20
10.509015
 11
24.135657
 21
10.662379
  0
LINE
  5
44
  8
LAYER 1
  6
BYLAYER
 62
  256
 10
24.135657
 20
10.662379
 11
24.383197
 21
10.89513
  0
LINE
  5
45
  8
LAYER 1
  6
BYLAYER
 62
  256
 10
24.383197
 20
10.89513
 11
23.694322
 21
11.392321
  0
LINE
  5
46
  8
LAYER 1
  6
BYLAYER
 62
  256
 10
23.694322
 20
11.392321
 11
23.396905
 21
11.382923
  0
LINE
  5
47
  8
LAYER 1
  6
BYLAYER
 62
  256
 10
23.396905
 20
11.382923
 11
23.163634
 21
11.58416
  0
LINE
  5
48
  8
LAYER 1
  6
BYLAYER
 62
  256
 10
23.163634
 20
11.58416
 11
22.517788
 21
11.400626
  0
LINE
  5
49
  8
LAYER 1
  6
BYLAYER
 62
  256
 10
22.517788
 20
11.400626
 11
21.307994
 21
11.450742
  0
LINE
  5
4A
  8
LAYER 1
  6
BYLAYER
 62
  256
 10
21.307994
 20
11.450742
 11
20.956119
 21
11.030587
  0
LINE
  5
4B
  8
LAYER 1
  6
BYLAYER
 62
  256
 10
20.956119
 20
11.030587
 11
20.447559
 21
10.804716
  0
LINE
  5
4C
  8
LAYER 1
  6
BYLAYER
 62
  256
 10
20.447559
 20
10.804716
 11
19.154904
 21
10.694621
  0
LINE
  5
4D
  8
LAYER 1
  6
BYLAYER
 62
  256
 10
19.154904
 20
10.694621
 11
19.063032
 21
9.515758
  0
LINE
  5
4E
  8
LAYER 1
  6
BYLAYER
 62
  256
 10
19.063032
 20
9.515758
 11
18.981838
 21
9.008815
  0
LINE
  5
4F
  8
LAYER 1
  6
BYLAYER
 62
  256
 10
18.981838
 20
9.008815
 11
18.92097
 21
8.935292
  0
LINE
  5
50
  8
LAYER 1
  6
BYLAYER
 62
  256
 10
18.92097
 20
8.935292
 11
18.842223
 21
9.042431000000001
  0
LINE
  5
51
  8
LAYER 1
  6
BYLAYER
 62
  256
 10
18.842223
 20
9.042431000000001
 11
18.700242
 21
9.382509000000001
  0
LINE
  5
52
  8
LAYER 1
  6
BYLAYER
 62
  256
 10
18.700242
 20
9.382509000000001
 11
18.843379
 21
9.529911
  0
LINE
  5
53
  8
LAYER 1
  6
BYLAYER
 62
  256
 10
18.843379
 20
9.529911
 11
18.823848
 21
10.11536
  0
LINE
  5
54
  8
LAYER 1
  6
BYLAYER
 62
  256
 10
18.823848
 20
10.11536
 11
18.702458
 21
10.417839
  0
LINE
  5
55
  8
LAYER 1
  6
BYLAYER
 62
  256
 10
18.702458
 20
10.417839
 11
18.072836
 21
10.013418
  0
LINE
  5
56
  8
LAYER 1
  6
BYLAYER
 62
  256
 10
18.072836
 20
10.013418
 11
17.469448
 21
9.584752
  0
LINE
  5
57
  8
LAYER 1
  6
BYLAYER
 62
  256
 10
17.469448
 20
9.584752
 11
16.921371
 21
9.072613
  0
LINE
  5
58
  8
LAYER 1
  6
BYLAYER
 62
  256
 10
16.921371
 20
9.072613
 11
16.155398
 21
8.732692999999999
  0
LINE
  5
59
  8
LAYER 1
  6
BYLAYER
 62
  256
 10
16.155398
 20
8.732692999999999
 11
16.675014
 21
7.770264
  0
LINE
  5
5A
  8
LAYER 1
  6
BYLAYER
 62
  256
 10
16.675014
 20
7.770264
 11
16.669631
 21
6.846665
  0
LINE
  5
5B
  8
LAYER 1
  6
BYLAYER
 62
  256
 10
16.669631
 20
6.846665
 11
16.233997
 21
6.08912
  0
LINE
  5
5C
  8
LAYER 1
  6
BYLAYER
 62
  256
 10
16.233997
 20
6.08912
 11
15.462858
 21
5.624853
  0
LINE
  5
5D
  8
LAYER 1
  6
BYLAYER
 62
  256
 10
15.462858
 20
5.624853
 11
11.542235
 21
4.352498
  0
LINE
  5
5E
  8
LAYER 1
  6
BYLAYER
 62
  256
 10
11.542235
 20
4.352498
 11
5.293358
 21
2.446033
  0
LINE
  5
5F
  8
LAYER 1
  6
BYLAYER
 62
  256
 10
5.293358
 20
2.446033
 11
4.812035
 21
2.494586
  0
LINE
  5
60
  8
LAYER 1
  6
BYLAYER
 62
  256
 10
4.812035
 20
2.494586
 11
4.339065
 21
2.816531
  0
LINE
  5
61
  8
LAYER 1
  6
BYLAYER
 62
  256
 10
4.339065
 20
2.816531
 11
3.98191
 21
3.308884
  0
LINE
  5
62
  8
LAYER 1
  6
BYLAYER
 62
  256
 10
3.98191
 20
3.308884
 11
3.848038
 21
3.868663
  0
LINE
  5
63
  8
LAYER 1
  6
BYLAYER
 62
  256
 10
3.848038
 20
3.868663
 11
3.957267
 21
4.316588
  0
LINE
  5
64
  8
LAYER 1
  6
BYLAYER
 62
  256
 10
3.957267
 20
4.316588
 11
4.362272
 21
4.671684
  0
LINE
  5
65
  8
LAYER 1
  6
BYLAYER
 62
  256
 10
4.362272
 20
4.671684
 11
4.887723
 21
4.723789
  0
LINE
  5
66
  8
LAYER 1
  6
BYLAYER
 62
  256
 10
4.887723
 20
4.723789
 11
5.301919
 21
4.590838
  0
LINE
  5
67
  8
LAYER 1
  6
BYLAYER
 62
  256
 10
5.301919
 20
4.590838
 11
5.485641
 21
4.225161
  0
LINE
  5
68
  8
LAYER 1
  6
BYLAYER
 62
  256
 10
5.485641
 20
4.225161
 11
5.413087
 21
3.750665
  0
LINE
  5
69
  8
LAYER 1
  6
BYLAYER
 62
  256
 10
5.413087
 20
3.750665
 11
5.411387
 21
3.388238
  0
LINE
  5
6A
  8
LAYER 1
  6
BYLAYER
 62
  256
 10
5.411387
 20
3.388238
 11
5.807672
 21
3.358767
  0
LINE
  5
6B
  8
LAYER 1
  6
BYLAYER
 62
  256
 10
5.807672
 20
3.358767
 11
6.291422
 21
3.688313
  0
LINE
  5
6C
  8
LAYER 1
  6
BYLAYER
 62
  256
 10
6.291422
 20
3.688313
 11
6.388151
 21
4.138925
  0
LINE
  5
6D
  8
LAYER 1
  6
BYLAYER
 62
  256
 10
6.388151
 20
4.138925
 11
6.228246
 21
4.550201
  0
LINE
  5
6E
  8
LAYER 1
  6
BYLAYER
 62
  256
 10
6.228246
 20
4.550201
 11
5.942096
 21
4.761737
  0
LINE
  5
6F
  8
LAYER 1
  6
BYLAYER
 62
  256
 10
5.942096
 20
4.761737
 11
5.291106
 21
5.112465
  0
LINE
  5
70
  8
LAYER 1
  6
BYLAYER
 62
  256
 10
5.291106
 20
5.112465
 11
4.864247
 21
5.692701
  0
LINE
  5
71
  8
LAYER 1
  6
BYLAYER
 62
  256
 10
4.864247
 20
5.692701
 11
4.55972
 21
6.47646
  0
LINE
  5
72
  8
LAYER 1
  6
BYLAYER
 62
  256
 10
4.55972
 20
6.47646
 11
4.075024
 21
6.6683
  0
LINE
  5
73
  8
LAYER 1
  6
BYLAYER
 62
  256
 10
4.075024
 20
6.6683
 11
3.685787
 21
7.023185
  0
LINE
  5
74
  8
LAYER 1
  6
BYLAYER
 62
  256
 10
3.685787
 20
7.023185
 11
3.122998
 21
7.972975
  0
LINE
  5
75
  8
LAYER 1
  6
BYLAYER
 62
  256
 10
3.122998
 20
7.972975
 11
2.729967
 21
8.827597000000001
  0
LINE
  5
76
  8
LAYER 1
  6
BYLAYER
 62
  256
 10
2.729967
 20
8.827597000000001
 11
2.552928
 21
9.063523
  0
LINE
  5
77
  8
LAYER 1
  6
BYLAYER
 62
  256
 10
2.552928
 20
9.063523
 11
2.36531
 21
9.08882
  0
LINE
  5
78
  8
LAYER 1
  6
BYLAYER
 62
  256
 10
2.36531
 20
9.08882
 11
2.168617
 21
8.566587
  0
LINE
  5
79
  8
LAYER 1
  6
BYLAYER
 62
  256
 10
2.168617
 20
8.566587
 11
1.805468
 21
8.502786
  0
LINE
  5
7A
  8
LAYER 1
  6
BYLAYER
 62
  256
 10
1.805468
 20
8.502786
 11
1.464109
 21
8.714838
  0
LINE
  5
7B
  8
LAYER 1
  6
BYLAYER
 62
  256
 10
1.464109
 20
8.714838
 11
1.33279
 21
9.020160000000001
  0
LINE
  5
7C
  8
LAYER 1
  6
BYLAYER
 62
  256
 10
1.33279
 20
9.020160000000001
 11
1.497842
 21
9.565293
  0
LINE
  5
7D
  8
LAYER 1
  6
BYLAYER
 62
  256
 10
1.497842
 20
9.565293
 11
1.784276
 21
9.873652
  0
LINE
  5
7E
  8
LAYER 1
  6
BYLAYER
 62
  256
 10
1.784276
 20
9.873652
 11
2.132655
 21
9.980536000000001
  0
LINE
  5
7F
  8
LAYER 1
  6
BYLAYER
 62
  256
 10
2.132655
 20
9.980536000000001
 11
2.48354
 21
9.921239999999999
  0
LINE
  5
80
  8
LAYER 1
  6
BYLAYER
 62
  256
 10
2.48354
 20
9.921239999999999
 11
3.81772
 21
9.396839
  0
LINE
  5
81
  8
LAYER 1
  6
BYLAYER
 62
  256
 10
3.81772
 20
9.396839
 11
4.130311
 21
9.367611999999999
  0
LINE
  5
82
  8
LAYER 1
  6
BYLAYER
 62
  256
 10
4.130311
 20
9.367611999999999
 11
4.29608
 21
9.493211000000001
  0
LINE
  5
83
  8
LAYER 1
  6
BYLAYER
 62
  256
 10
4.29608
 20
9.493211000000001
 11
3.706137
 21
10.393323
  0
LINE
  5
84
  8
LAYER 1
  6
BYLAYER
 62
  256
 10
3.706137
 20
10.393323
 11
3.374064
 21
11.352311
  0
LINE
  5
85
  8
LAYER 1
  6
BYLAYER
 62
  256
 10
3.374064
 20
11.352311
 11
3.058925
 21
11.302048
  0
LINE
  5
86
  8
LAYER 1
  6
BYLAYER
 62
  256
 10
3.058925
 20
11.302048
 11
2.864362
 21
11.452498
  0
LINE
  5
87
  8
LAYER 1
  6
BYLAYER
 62
  256
 10
2.864362
 20
11.452498
 11
2.933664
 21
11.62177
  0
LINE
  5
88
  8
LAYER 1
  6
BYLAYER
 62
  256
 10
2.933664
 20
11.62177
 11
3.041652
 21
11.723432
  0
LINE
  5
89
  8
LAYER 1
  6
BYLAYER
 62
  256
 10
3.041652
 20
11.723432
 11
3.038119
 21
12.286591
  0
LINE
  5
8A
  8
LAYER 1
  6
BYLAYER
 62
  256
 10
3.038119
 20
12.286591
 11
2.913146
 21
12.509155
  0
LINE
  5
8B
  8
LAYER 1
  6
BYLAYER
 62
  256
 10
2.913146
 20
12.509155
 11
2.708246
 21
12.591201
  0
LINE
  5
8C
  8
LAYER 1
  6
BYLAYER
 62
  256
 10
2.708246
 20
12.591201
 11
2.339799
 21
12.692127
  0
LINE
  5
8D
  8
LAYER 1
  6
BYLAYER
 62
  256
 10
2.339799
 20
12.692127
 11
2.34357
 21
12.9473
  0
LINE
  5
8E
  8
LAYER 1
  6
BYLAYER
 62
  256
 10
2.34357
 20
12.9473
 11
2.342235
 21
12.950791
  0
LINE
  5
8F
  8
LAYER 1
  6
BYLAYER
 62
  256
 10
2.342235
 20
12.950791
 11
1.672384
 21
13.23537
  0
LINE
  5
90
  8
LAYER 1
  6
BYLAYER
 62
  256
 10
1.672384
 20
13.23537
 11
1.32474
 21
13.19171
  0
LINE
  5
91
  8
LAYER 1
  6
BYLAYER
 62
  256
 10
1.32474
 20
13.19171
 11
0.978035
 21
12.940275
  0
LINE
  5
92
  8
LAYER 1
  6
BYLAYER
 62
  256
 10
0.978035
 20
12.940275
 11
0.894911
 21
12.784496
  0
LINE
  5
93
  8
LAYER 1
  6
BYLAYER
 62
  256
 10
0.894911
 20
12.784496
 11
0.7492490000000001
 21
12.763656
  0
LINE
  5
94
  8
LAYER 1
  6
BYLAYER
 62
  256
 10
0.7492490000000001
 20
12.763656
 11
0.495898
 21
12.953653
  0
LINE
  5
95
  8
LAYER 1
  6
BYLAYER
 62
  256
 10
0.495898
 20
12.953653
 11
0.556801
 21
13.259421
  0
LINE
  5
96
  8
LAYER 1
  6
BYLAYER
 62
  256
 10
0.556801
 20
13.259421
 11
0.684524
 21
13.351388
  0
LINE
  5
97
  8
LAYER 1
  6
BYLAYER
 62
  256
 10
0.684524
 20
13.351388
 11
0.855368
 21
13.295993
  0
LINE
  5
98
  8
LAYER 1
  6
BYLAYER
 62
  256
 10
0.855368
 20
13.295993
 11
1.485356
 21
14.008114
  0
LINE
  5
99
  8
LAYER 1
  6
BYLAYER
 62
  256
 10
1.485356
 20
14.008114
 11
2.208169
 21
14.329936
  0
LINE
  5
9A
  8
LAYER 1
  6
BYLAYER
 62
  256
 10
2.208169
 20
14.329936
 11
2.851459
 21
14.378357
  0
LINE
  5
9B
  8
LAYER 1
  6
BYLAYER
 62
  256
 10
2.851459
 20
14.378357
 11
3.242878
 21
14.270278
  0
LINE
  5
9C
  8
LAYER 1
  6
BYLAYER
 62
  256
 10
3.242878
 20
14.270278
 11
3.358549
 21
14.388338
  0
LINE
  5
9D
  8
LAYER 1
  6
BYLAYER
 62
  256
 10
3.358549
 20
14.388338
 11
3.590167
 21
14.53378
  0
LINE
  5
9E
  8
LAYER 1
  6
BYLAYER
 62
  256
 10
3.590167
 20
14.53378
 11
4.121129
 21
14.324331
  0
LINE
  5
9F
  8
LAYER 1
  6
BYLAYER
 62
  256
 10
4.121129
 20
14.324331
 11
4.324283
 21
13.870726
  0
LINE
  5
A0
  8
LAYER 1
  6
BYLAYER
 62
  256
 10
4.324283
 20
13.870726
 11
4.294133
 21
13.685181
  0
LINE
  5
A1
  8
LAYER 1
  6
BYLAYER
 62
  256
 10
4.294133
 20
13.685181
 11
4.382647
 21
13.505539
  0
LINE
  5
A2
  8
LAYER 1
  6
BYLAYER
 62
  256
 10
4.382647
 20
13.505539
 11
4.637963
 21
13.483898
  0
LINE
  5
A3
  8
LAYER 1
  6
BYLAYER
 62
  256
 10
4.637963
 20
13.483898
 11
4.656189
 21
13.267745
  0
LINE
  5
A4
  8
LAYER 1
  6
BYLAYER
 62
  256
 10
4.656189
 20
13.267745
 11
4.789756
 21
12.922537
  0
LINE
  5
A5
  8
LAYER 1
  6
BYLAYER
 62
  256
 10
4.789756
 20
12.922537
 11
5.278547
 21
12.808632
  0
LINE
  5
A6
  8
LAYER 1
  6
BYLAYER
 62
  256
 10
5.278547
 20
12.808632
 11
5.628954
 21
12.614703
  0
LINE
  5
A7
  8
LAYER 1
  6
BYLAYER
 62
  256
 10
5.628954
 20
12.614703
 11
6.106563
 21
12.563575
  0
LINE
  5
A8
  8
LAYER 1
  6
BYLAYER
 62
  256
 10
6.106563
 20
12.563575
 11
6.414868
 21
12.561377
  0
LINE
  5
A9
  8
LAYER 1
  6
BYLAYER
 62
  256
 10
6.414868
 20
12.561377
 11
6.695644
 21
12.693195
  0
LINE
  5
AA
  8
LAYER 1
  6
BYLAYER
 62
  256
 10
6.695644
 20
12.693195
 11
7.043321
 21
12.961251
  0
LINE
  5
AB
  8
LAYER 1
  6
BYLAYER
 62
  256
 10
7.043321
 20
12.961251
 11
6.992033
 21
13.195547
  0
LINE
  5
AC
  8
LAYER 1
  6
BYLAYER
 62
  256
 10
6.992033
 20
13.195547
 11
7.143538
 21
13.468692
  0
LINE
  5
AD
  8
LAYER 1
  6
BYLAYER
 62
  256
 10
7.143538
 20
13.468692
 11
7.23301
 21
13.712668
  0
LINE
  5
AE
  8
LAYER 1
  6
BYLAYER
 62
  256
 10
7.23301
 20
13.712668
 11
7.473405
 21
13.67196
  0
LINE
  5
AF
  8
LAYER 1
  6
BYLAYER
 62
  256
 10
7.473405
 20
13.67196
 11
7.66305
 21
14.10306
  0
LINE
  5
B0
  8
LAYER 1
  6
BYLAYER
 62
  256
 10
7.66305
 20
14.10306
 11
7.016373
 21
14.685765
  0
LINE
  5
B1
  8
LAYER 1
  6
BYLAYER
 62
  256
 10
7.016373
 20
14.685765
 11
6.975153
 21
14.831002
  0
LINE
  5
B2
  8
LAYER 1
  6
BYLAYER
 62
  256
 10
6.975153
 20
14.831002
 11
7.061367
 21
14.885801
  0
LINE
  5
B3
  8
LAYER 1
  6
BYLAYER
 62
  256
 10
7.061367
 20
14.885801
 11
7.434164
 21
14.744996
  0
LINE
  5
B4
  8
LAYER 1
  6
BYLAYER
 62
  256
 10
7.434164
 20
14.744996
 11
7.770898
 21
14.305176
  0
LINE
  5
B5
  8
LAYER 1
  6
BYLAYER
 62
  256
 10
7.770898
 20
14.305176
 11
7.970486
 21
14.48302
  0
LINE
  5
B6
  8
LAYER 1
  6
BYLAYER
 62
  256
 10
7.970486
 20
14.48302
 11
8.278508
 21
14.561942
  0
LINE
  5
B7
  8
LAYER 1
  6
BYLAYER
 62
  256
 10
8.278508
 20
14.561942
 11
8.33535
 21
14.334133
  0
LINE
  5
B8
  8
LAYER 1
  6
BYLAYER
 62
  256
 10
8.33535
 20
14.334133
 11
8.588061
 21
14.14698
  0
LINE
  5
B9
  8
LAYER 1
  6
BYLAYER
 62
  256
 10
8.588061
 20
14.14698
 11
12.982571
 21
12.31232
  0
LINE
  5
BA
  8
LAYER 1
  6
BYLAYER
 62
  256
 10
12.982571
 20
12.31232
 11
13.511136
 21
12.875979
  0
LINE
  5
BB
  8
LAYER 1
  6
BYLAYER
 62
  256
 10
13.511136
 20
12.875979
 11
14.013628
 21
13.147561
  0
LINE
  5
BC
  8
LAYER 1
  6
BYLAYER
 62
  256
 10
14.013628
 20
13.147561
 11
14.466798
 21
13.180472
  0
LINE
  5
BD
  8
LAYER 1
  6
BYLAYER
 62
  256
 10
14.466798
 20
13.180472
 11
14.847395
 21
13.02812
  0
LINE
  5
BE
  8
LAYER 1
  6
BYLAYER
 62
  256
 10
14.847395
 20
13.02812
 11
15.297865
 21
12.381252
  0
LINE
  5
BF
  8
LAYER 1
  6
BYLAYER
 62
  256
 10
15.297865
 20
12.381252
 11
15.321237
 21
11.993551
  0
LINE
  5
C0
  8
LAYER 1
  6
BYLAYER
 62
  256
 10
15.321237
 20
11.993551
 11
15.179031
 21
11.634213
  0
LINE
  5
C1
  8
LAYER 1
  6
BYLAYER
 62
  256
 10
15.179031
 20
11.634213
 11
16.274633
 21
11.43812
  0
LINE
  5
C2
  8
LAYER 1
  6
BYLAYER
 62
  256
 10
16.274633
 20
11.43812
 11
17.427076
 21
11.389776
  0
LINE
  5
C3
  8
LAYER 1
  6
BYLAYER
 62
  256
 10
17.427076
 20
11.389776
 11
19.106561
 21
11.545308
  0
LINE
  5
C4
  8
LAYER 1
  6
BYLAYER
 62
  256
 10
19.106561
 20
11.545308
 11
19.392471
 21
11.836804
  0
LINE
  5
C5
  8
LAYER 1
  6
BYLAYER
 62
  256
 10
19.392471
 20
11.836804
 11
19.537743
 21
12.244542
  0
LINE
  5
C6
  8
LAYER 1
  6
BYLAYER
 62
  256
 10
19.537743
 20
12.244542
 11
19.730941
 21
13.134048
  0
LINE
  5
C7
  8
LAYER 1
  6
BYLAYER
 62
  256
 10
19.730941
 20
13.134048
 11
19.371314
 21
13.565781
  0
LINE
  5
C8
  8
LAYER 1
  6
BYLAYER
 62
  256
 10
19.371314
 20
13.565781
 11
19.087882
 21
13.942122
  0
LINE
  5
C9
  8
LAYER 1
  6
BYLAYER
 62
  256
 10
19.087882
 20
13.942122
 11
19.053849
 21
14.036442
  0
LINE
  5
CA
  8
LAYER 1
  6
BYLAYER
 62
  256
 10
19.053849
 20
14.036442
 11
19.254302
 21
14.029308
  0
LINE
  5
CB
  8
LAYER 1
  6
BYLAYER
 62
  256
 10
19.254302
 20
14.029308
 11
19.690171
 21
13.821915
  0
LINE
  5
CC
  8
LAYER 1
  6
BYLAYER
 62
  256
 10
19.690171
 20
13.821915
 11
19.964271
 21
13.366491
  0
LINE
  5
CD
  8
LAYER 1
  6
BYLAYER
 62
  256
 10
19.964271
 20
13.366491
 11
20.427345
 21
13.510755
  0
LINE
  5
CE
  8
LAYER 1
  6
BYLAYER
 62
  256
 10
20.427345
 20
13.510755
 11
20.84029
 21
13.46464
  0
LINE
  5
CF
  8
LAYER 1
  6
BYLAYER
 62
  256
 10
20.84029
 20
13.46464
 11
21.506371
 21
13.24291
  0
LINE
  5
D0
  8
LAYER 1
  6
BYLAYER
 62
  256
 10
21.506371
 20
13.24291
 11
22.474616
 21
13.071259
  0
LINE
  5
D1
  8
LAYER 1
  6
BYLAYER
 62
  256
 10
22.474616
 20
13.071259
 11
22.793905
 21
13.151335
  0
LINE
  5
D2
  8
LAYER 1
  6
BYLAYER
 62
  256
 10
22.793905
 20
13.151335
 11
22.858991
 21
13.394931
  0
LINE
  5
D3
  8
LAYER 1
  6
BYLAYER
 62
  256
 10
22.858991
 20
13.394931
 11
22.373292
 21
15.182329
  0
LINE
  5
D4
  8
LAYER 1
  6
BYLAYER
 62
  256
 10
22.373292
 20
15.182329
 11
22.358483
 21
15.610096
  0
LINE
  5
D5
  8
LAYER 1
  6
BYLAYER
 62
  256
 10
22.358483
 20
15.610096
 11
22.455959
 21
15.808441
  0
LINE
  5
D6
  8
LAYER 1
  6
BYLAYER
 62
  256
 10
22.455959
 20
15.808441
 11
22.227914
 21
15.863599
  0
LINE
  5
D7
  8
LAYER 1
  6
BYLAYER
 62
  256
 10
22.227914
 20
15.863599
 11
22.024247
 21
16.038611
  0
LINE
  5
D8
  8
LAYER 1
  6
BYLAYER
 62
  256
 10
22.024247
 20
16.038611
 11
22.166472
 21
16.156012
  0
LINE
  5
D9
  8
LAYER 1
  6
BYLAYER
 62
  256
 10
22.166472
 20
16.156012
 11
22.429204
 21
16.167678
  0
LINE
  5
DA
  8
LAYER 1
  6
BYLAYER
 62
  256
 10
22.429204
 20
16.167678
 11
22.795574
 21
16.10704
  0
LINE
  5
DB
  8
LAYER 1
  6
BYLAYER
 62
  256
 10
22.795574
 20
16.10704
 11
22.438161
 21
16.476784
  0
LINE
  5
DC
  8
LAYER 1
  6
BYLAYER
 62
  256
 10
22.438161
 20
16.476784
 11
22.020334
 21
16.58845
  0
LINE
  5
DD
  8
LAYER 1
  6
BYLAYER
 62
  256
 10
22.020334
 20
16.58845
 11
21.090034
 21
16.40746
  0
LINE
  5
DE
  8
LAYER 1
  6
BYLAYER
 62
  256
 10
21.090034
 20
16.40746
 11
20.661962
 21
16.075471
  0
LINE
  5
DF
  8
LAYER 1
  6
BYLAYER
 62
  256
 10
20.661962
 20
16.075471
 11
20.432591
 21
16.174454
  0
LINE
  5
E0
  8
LAYER 1
  6
BYLAYER
 62
  256
 10
20.432591
 20
16.174454
 11
20.607409
 21
16.245028
  0
LINE
  5
E1
  8
LAYER 1
  6
BYLAYER
 62
  256
 10
20.607409
 20
16.245028
 11
20.806757
 21
16.546436
  0
LINE
  5
E2
  8
LAYER 1
  6
BYLAYER
 62
  256
 10
20.806757
 20
16.546436
 11
20.437695
 21
16.627216
  0
LINE
  5
E3
  8
LAYER 1
  6
BYLAYER
 62
  256
 10
20.437695
 20
16.627216
 11
20.026564
 21
16.578786
  0
LINE
  5
E4
  8
LAYER 1
  6
BYLAYER
 62
  256
 10
20.026564
 20
16.578786
 11
19.841343
 21
16.551117
  0
LINE
  5
E5
  8
LAYER 1
  6
BYLAYER
 62
  256
 10
19.841343
 20
16.551117
 11
19.5903
 21
16.668746
  0
LINE
  5
E6
  8
LAYER 1
  6
BYLAYER
 62
  256
 10
19.5903
 20
16.668746
 11
19.413175
 21
16.800425
  0
LINE
  5
E7
  8
LAYER 1
  6
BYLAYER
 62
  256
 10
19.413175
 20
16.800425
 11
19.449712
 21
16.814909
  0
LINE
  5
E8
  8
LAYER 1
  6
BYLAYER
 62
  256
 10
19.449712
 20
16.814909
 11
19.769313
 21
16.744699
  0
LINE
  5
E9
  8
LAYER 1
  6
BYLAYER
 62
  256
 10
19.769313
 20
16.744699
 11
19.822318
 21
16.882793
  0
LINE
  5
EA
  8
LAYER 1
  6
BYLAYER
 62
  256
 10
19.822318
 20
16.882793
 11
19.688202
 21
17.000902
  0
LINE
  5
EB
  8
LAYER 1
  6
BYLAYER
 62
  256
 10
19.688202
 20
17.000902
 11
19.522019
 21
17.316702
  0
LINE
  5
EC
  8
LAYER 1
  6
BYLAYER
 62
  256
 10
19.522019
 20
17.316702
 11
19.46466
 21
17.913885
  0
LINE
  5
ED
  8
LAYER 1
  6
BYLAYER
 62
  256
 10
19.46466
 20
17.913885
 11
19.573142
 21
18.489472
  0
LINE
  5
EE
  8
LAYER 1
  6
BYLAYER
 62
  256
 10
19.573142
 20
18.489472
 11
19.655867
 21
18.449999
  0
LINE
  5
EF
  8
LAYER 1
  6
BYLAYER
 62
  256
 10
19.655867
 20
18.449999
 11
19.713517
 21
18.107201
  0
LINE
  5
F0
  8
LAYER 1
  6
BYLAYER
 62
  256
 10
19.713517
 20
18.107201
 11
19.758242
 21
17.52804
  0
LINE
  5
F1
  8
LAYER 1
  6
BYLAYER
 62
  256
 10
19.758242
 20
17.52804
 11
19.911692
 21
17.297002
  0
LINE
  5
F2
  8
LAYER 1
  6
BYLAYER
 62
  256
 10
19.911692
 20
17.297002
 11
20.230375
 21
17.004795
  0
LINE
  5
F3
  8
LAYER 1
  6
BYLAYER
 62
  256
 10
20.230375
 20
17.004795
 11
20.363845
 21
16.927446
  0
LINE
  5
F4
  8
LAYER 1
  6
BYLAYER
 62
  256
 10
20.363845
 20
16.927446
 11
20.460492
 21
16.889417
  0
LINE
  5
F5
  8
LAYER 1
  6
BYLAYER
 62
  256
 10
20.460492
 20
16.889417
 11
21.193265
 21
16.745494
  0
LINE
  5
F6
  8
LAYER 1
  6
BYLAYER
 62
  256
 10
21.193265
 20
16.745494
 11
21.869737
 21
16.820609
  0
LINE
  5
F7
  8
LAYER 1
  6
BYLAYER
 62
  256
 10
21.869737
 20
16.820609
 11
22.367785
 21
16.679231
  0
LINE
  5
F8
  8
LAYER 1
  6
BYLAYER
 62
  256
 10
22.367785
 20
16.679231
 11
22.642544
 21
16.529476
  0
LINE
  5
F9
  8
LAYER 1
  6
BYLAYER
 62
  256
 10
22.642544
 20
16.529476
 11
22.649145
 21
16.579457
  0
LINE
  5
FA
  8
LAYER 1
  6
BYLAYER
 62
  256
 10
22.649145
 20
16.579457
 11
22.19238
 21
17.018765
  0
LINE
  5
FB
  8
LAYER 1
  6
BYLAYER
 62
  256
 10
22.19238
 20
17.018765
 11
21.652137
 21
17.213814
  0
LINE
  5
FC
  8
LAYER 1
  6
BYLAYER
 62
  256
 10
21.652137
 20
17.213814
 11
21.198359
 21
17.110167
  0
LINE
  5
FD
  8
LAYER 1
  6
BYLAYER
 62
  256
 10
21.198359
 20
17.110167
 11
20.860067
 21
17.058371
  0
LINE
  5
FE
  8
LAYER 1
  6
BYLAYER
 62
  256
 10
20.860067
 20
17.058371
 11
21.240605
 21
17.256606
  0
LINE
  5
FF
  8
LAYER 1
  6
BYLAYER
 62
  256
 10
21.240605
 20
17.256606
 11
21.41818
 21
17.345007
  0
LINE
  5
100
  8
LAYER 1
  6
BYLAYER
 62
  256
 10
21.41818
 20
17.345007
 11
20.597139
 21
17.721162
  0
LINE
  5
101
  8
LAYER 1
  6
BYLAYER
 62
  256
 10
20.597139
 20
17.721162
 11
20.11332
 21
18.333149
  0
LINE
  5
102
  8
LAYER 1
  6
BYLAYER
 62
  256
 10
20.11332
 20
18.333149
 11
20.202538
 21
18.339111
  0
LINE
  5
103
  8
LAYER 1
  6
BYLAYER
 62
  256
 10
20.202538
 20
18.339111
 11
20.387564
 21
18.184989
  0
LINE
  5
104
  8
LAYER 1
  6
BYLAYER
 62
  256
 10
20.387564
 20
18.184989
 11
20.465079
 21
18.123166
  0
LINE
  5
105
  8
LAYER 1
  6
BYLAYER
 62
  256
 10
20.465079
 20
18.123166
 11
20.567178
 21
18.043922
  0
LINE
  5
106
  8
LAYER 1
  6
BYLAYER
 62
  256
 10
20.567178
 20
18.043922
 11
20.88771
 21
17.766201
  0
LINE
  5
107
  8
LAYER 1
  6
BYLAYER
 62
  256
 10
20.88771
 20
17.766201
 11
21.059781
 21
17.671552
  0
LINE
  5
108
  8
LAYER 1
  6
BYLAYER
 62
  256
 10
21.059781
 20
17.671552
 11
21.162442
 21
17.733096
  0
LINE
  5
109
  8
LAYER 1
  6
BYLAYER
 62
  256
 10
21.162442
 20
17.733096
 11
21.098278
 21
18.124894
  0
LINE
  5
10A
  8
LAYER 1
  6
BYLAYER
 62
  256
 10
21.098278
 20
18.124894
 11
21.090269
 21
18.55117
  0
LINE
  5
10B
  8
LAYER 1
  6
BYLAYER
 62
  256
 10
21.090269
 20
18.55117
 11
21.179636
 21
18.568548
  0
LINE
  5
10C
  8
LAYER 1
  6
BYLAYER
 62
  256
 10
21.179636
 20
18.568548
 11
21.250787
 21
18.320221
  0
LINE
  5
10D
  8
LAYER 1
  6
BYLAYER
 62
  256
 10
21.250787
 20
18.320221
 11
21.466963
 21
17.673107
  0
LINE
  5
10E
  8
LAYER 1
  6
BYLAYER
 62
  256
 10
21.466963
 20
17.673107
 11
21.92107
 21
17.296533
  0
LINE
  5
10F
  8
LAYER 1
  6
BYLAYER
 62
  256
 10
21.92107
 20
17.296533
 11
22.504193
 21
17.119585
  0
LINE
  5
110
  8
LAYER 1
  6
BYLAYER
 62
  256
 10
22.504193
 20
17.119585
 11
22.600082
 21
17.553116
  0
LINE
  5
111
  8
LAYER 1
  6
BYLAYER
 62
  256
 10
22.600082
 20
17.553116
 11
22.723615
 21
17.157158
  0
LINE
  5
112
  8
LAYER 1
  6
BYLAYER
 62
  256
 10
22.723615
 20
17.157158
 11
22.794009
 21
16.714574
  0
LINE
  5
113
  8
LAYER 1
  6
BYLAYER
 62
  256
 10
22.794009
 20
16.714574
 11
23.157557
 21
16.116263
  0
LINE
  5
114
  8
LAYER 1
  6
BYLAYER
 62
  256
 10
23.157557
 20
16.116263
 11
23.470364
 21
15.942302
  0
LINE
  5
115
  8
LAYER 1
  6
BYLAYER
 62
  256
 10
23.470364
 20
15.942302
 11
23.898211
 21
15.781519
  0
LINE
  5
116
  8
LAYER 1
  6
BYLAYER
 62
  256
 10
23.898211
 20
15.781519
 11
23.893875
 21
15.668088
  0
LINE
  5
117
  8
LAYER 1
  6
BYLAYER
 62
  256
 10
23.893875
 20
15.668088
 11
23.697906
 21
15.541189
  0
LINE
  5
118
  8
LAYER 1
  6
BYLAYER
 62
  256
 10
23.697906
 20
15.541189
 11
23.183637
 21
15.339338
  0
ENDSEC
  0
EOF
