999
"DXF R12 Output" (www.mydxf.blogspot.com)
 0 
SECTION
 2 
HEADER
 9 
$ACADVER
 1 
AC1009
 9 
$EXTMIN
 10 
 0 
 20 
 0 
 9 
$EXTMAX
 10 
 8.5 
 20 
 11 
 0 
ENDSEC
 0 
SECTION
 2 
ENTITIES
0
LINE
8
Layer 1
10
23.183600
20
15.339300
11
23.960887
21
13.882520
0
LINE
8
Layer 1
10
23.960887
20
13.882520
11
24.121984
21
13.349041
0
LINE
8
Layer 1
10
24.121984
20
13.349041
11
24.093364
21
12.749097
0
LINE
8
Layer 1
10
24.093364
20
12.749097
11
23.916878
21
12.123000
0
LINE
8
Layer 1
10
23.916878
20
12.123000
11
24.691610
21
12.110332
0
LINE
8
Layer 1
10
24.691610
20
12.110332
11
25.426508
21
11.914895
0
LINE
8
Layer 1
10
25.426508
20
11.914895
11
24.843152
21
11.016863
0
LINE
8
Layer 1
10
24.843152
20
11.016863
11
25.935082
21
10.127241
0
LINE
8
Layer 1
10
25.935082
20
10.127241
11
26.470500
21
9.714473
0
LINE
8
Layer 1
10
26.470500
20
9.714473
11
26.606702
21
9.533313
0
LINE
8
Layer 1
10
26.606702
20
9.533313
11
26.046359
21
9.488926
0
LINE
8
Layer 1
10
26.046359
20
9.488926
11
25.383272
21
10.166912
0
LINE
8
Layer 1
10
25.383272
20
10.166912
11
24.605529
21
10.737876
0
LINE
8
Layer 1
10
24.605529
20
10.737876
11
24.203013
21
10.314106
0
LINE
8
Layer 1
10
24.203013
20
10.314106
11
23.417929
21
10.023117
0
LINE
8
Layer 1
10
23.417929
20
10.023117
11
23.439743
21
10.269420
0
LINE
8
Layer 1
10
23.439743
20
10.269420
11
23.598675
21
10.491727
0
LINE
8
Layer 1
10
23.598675
20
10.491727
11
23.961801
21
10.509015
0
LINE
8
Layer 1
10
23.961801
20
10.509015
11
24.135657
21
10.662379
0
LINE
8
Layer 1
10
24.135657
20
10.662379
11
24.383197
21
10.895130
0
LINE
8
Layer 1
10
24.383197
20
10.895130
11
23.694322
21
11.392321
0
LINE
8
Layer 1
10
23.694322
20
11.392321
11
23.396905
21
11.382923
0
LINE
8
Layer 1
10
23.396905
20
11.382923
11
23.163634
21
11.584160
0
LINE
8
Layer 1
10
23.163634
20
11.584160
11
22.517788
21
11.400626
0
LINE
8
Layer 1
10
22.517788
20
11.400626
11
21.307994
21
11.450742
0
LINE
8
Layer 1
10
21.307994
20
11.450742
11
20.956119
21
11.030587
0
LINE
8
Layer 1
10
20.956119
20
11.030587
11
20.447559
21
10.804716
0
LINE
8
Layer 1
10
20.447559
20
10.804716
11
19.154904
21
10.694621
0
LINE
8
Layer 1
10
19.154904
20
10.694621
11
19.063032
21
9.515758
0
LINE
8
Layer 1
10
19.063032
20
9.515758
11
18.981838
21
9.008815
0
LINE
8
Layer 1
10
18.981838
20
9.008815
11
18.920970
21
8.935292
0
LINE
8
Layer 1
10
18.920970
20
8.935292
11
18.842223
21
9.042431
0
LINE
8
Layer 1
10
18.842223
20
9.042431
11
18.700242
21
9.382509
0
LINE
8
Layer 1
10
18.700242
20
9.382509
11
18.843379
21
9.529911
0
LINE
8
Layer 1
10
18.843379
20
9.529911
11
18.823848
21
10.115360
0
LINE
8
Layer 1
10
18.823848
20
10.115360
11
18.702458
21
10.417839
0
LINE
8
Layer 1
10
18.702458
20
10.417839
11
18.072836
21
10.013418
0
LINE
8
Layer 1
10
18.072836
20
10.013418
11
17.469448
21
9.584752
0
LINE
8
Layer 1
10
17.469448
20
9.584752
11
16.921371
21
9.072613
0
LINE
8
Layer 1
10
16.921371
20
9.072613
11
16.155398
21
8.732693
0
LINE
8
Layer 1
10
16.155398
20
8.732693
11
16.675014
21
7.770264
0
LINE
8
Layer 1
10
16.675014
20
7.770264
11
16.669631
21
6.846665
0
LINE
8
Layer 1
10
16.669631
20
6.846665
11
16.233997
21
6.089120
0
LINE
8
Layer 1
10
16.233997
20
6.089120
11
15.462858
21
5.624853
0
LINE
8
Layer 1
10
15.462858
20
5.624853
11
11.542235
21
4.352498
0
LINE
8
Layer 1
10
11.542235
20
4.352498
11
5.293358
21
2.446033
0
LINE
8
Layer 1
10
5.293358
20
2.446033
11
4.812035
21
2.494586
0
LINE
8
Layer 1
10
4.812035
20
2.494586
11
4.339065
21
2.816531
0
LINE
8
Layer 1
10
4.339065
20
2.816531
11
3.981910
21
3.308884
0
LINE
8
Layer 1
10
3.981910
20
3.308884
11
3.848038
21
3.868663
0
LINE
8
Layer 1
10
3.848038
20
3.868663
11
3.957267
21
4.316588
0
LINE
8
Layer 1
10
3.957267
20
4.316588
11
4.362272
21
4.671684
0
LINE
8
Layer 1
10
4.362272
20
4.671684
11
4.887723
21
4.723789
0
LINE
8
Layer 1
10
4.887723
20
4.723789
11
5.301919
21
4.590838
0
LINE
8
Layer 1
10
5.301919
20
4.590838
11
5.485641
21
4.225161
0
LINE
8
Layer 1
10
5.485641
20
4.225161
11
5.413087
21
3.750665
0
LINE
8
Layer 1
10
5.413087
20
3.750665
11
5.411387
21
3.388238
0
LINE
8
Layer 1
10
5.411387
20
3.388238
11
5.807672
21
3.358767
0
LINE
8
Layer 1
10
5.807672
20
3.358767
11
6.291422
21
3.688313
0
LINE
8
Layer 1
10
6.291422
20
3.688313
11
6.388151
21
4.138925
0
LINE
8
Layer 1
10
6.388151
20
4.138925
11
6.228246
21
4.550201
0
LINE
8
Layer 1
10
6.228246
20
4.550201
11
5.942096
21
4.761737
0
LINE
8
Layer 1
10
5.942096
20
4.761737
11
5.291106
21
5.112465
0
LINE
8
Layer 1
10
5.291106
20
5.112465
11
4.864247
21
5.692701
0
LINE
8
Layer 1
10
4.864247
20
5.692701
11
4.559720
21
6.476460
0
LINE
8
Layer 1
10
4.559720
20
6.476460
11
4.075024
21
6.668300
0
LINE
8
Layer 1
10
4.075024
20
6.668300
11
3.685787
21
7.023185
0
LINE
8
Layer 1
10
3.685787
20
7.023185
11
3.122998
21
7.972975
0
LINE
8
Layer 1
10
3.122998
20
7.972975
11
2.729967
21
8.827597
0
LINE
8
Layer 1
10
2.729967
20
8.827597
11
2.552928
21
9.063523
0
LINE
8
Layer 1
10
2.552928
20
9.063523
11
2.365310
21
9.088820
0
LINE
8
Layer 1
10
2.365310
20
9.088820
11
2.168617
21
8.566587
0
LINE
8
Layer 1
10
2.168617
20
8.566587
11
1.805468
21
8.502786
0
LINE
8
Layer 1
10
1.805468
20
8.502786
11
1.464109
21
8.714838
0
LINE
8
Layer 1
10
1.464109
20
8.714838
11
1.332790
21
9.020160
0
LINE
8
Layer 1
10
1.332790
20
9.020160
11
1.497842
21
9.565293
0
LINE
8
Layer 1
10
1.497842
20
9.565293
11
1.784276
21
9.873652
0
LINE
8
Layer 1
10
1.784276
20
9.873652
11
2.132655
21
9.980536
0
LINE
8
Layer 1
10
2.132655
20
9.980536
11
2.483540
21
9.921240
0
LINE
8
Layer 1
10
2.483540
20
9.921240
11
3.817720
21
9.396839
0
LINE
8
Layer 1
10
3.817720
20
9.396839
11
4.130311
21
9.367612
0
LINE
8
Layer 1
10
4.130311
20
9.367612
11
4.296080
21
9.493211
0
LINE
8
Layer 1
10
4.296080
20
9.493211
11
3.706137
21
10.393323
0
LINE
8
Layer 1
10
3.706137
20
10.393323
11
3.374064
21
11.352311
0
LINE
8
Layer 1
10
3.374064
20
11.352311
11
3.058925
21
11.302048
0
LINE
8
Layer 1
10
3.058925
20
11.302048
11
2.864362
21
11.452498
0
LINE
8
Layer 1
10
2.864362
20
11.452498
11
2.933664
21
11.621770
0
LINE
8
Layer 1
10
2.933664
20
11.621770
11
3.041652
21
11.723432
0
LINE
8
Layer 1
10
3.041652
20
11.723432
11
3.038119
21
12.286591
0
LINE
8
Layer 1
10
3.038119
20
12.286591
11
2.913146
21
12.509155
0
LINE
8
Layer 1
10
2.913146
20
12.509155
11
2.708246
21
12.591201
0
LINE
8
Layer 1
10
2.708246
20
12.591201
11
2.339799
21
12.692127
0
LINE
8
Layer 1
10
2.339799
20
12.692127
11
2.343570
21
12.947300
0
LINE
8
Layer 1
10
2.343570
20
12.947300
11
2.342235
21
12.950791
0
LINE
8
Layer 1
10
2.342235
20
12.950791
11
1.672384
21
13.235370
0
LINE
8
Layer 1
10
1.672384
20
13.235370
11
1.324740
21
13.191710
0
LINE
8
Layer 1
10
1.324740
20
13.191710
11
0.978035
21
12.940275
0
LINE
8
Layer 1
10
0.978035
20
12.940275
11
0.894911
21
12.784496
0
LINE
8
Layer 1
10
0.894911
20
12.784496
11
0.749249
21
12.763656
0
LINE
8
Layer 1
10
0.749249
20
12.763656
11
0.495898
21
12.953653
0
LINE
8
Layer 1
10
0.495898
20
12.953653
11
0.556801
21
13.259421
0
LINE
8
Layer 1
10
0.556801
20
13.259421
11
0.684524
21
13.351388
0
LINE
8
Layer 1
10
0.684524
20
13.351388
11
0.855368
21
13.295993
0
LINE
8
Layer 1
10
0.855368
20
13.295993
11
1.485356
21
14.008114
0
LINE
8
Layer 1
10
1.485356
20
14.008114
11
2.208169
21
14.329936
0
LINE
8
Layer 1
10
2.208169
20
14.329936
11
2.851459
21
14.378357
0
LINE
8
Layer 1
10
2.851459
20
14.378357
11
3.242878
21
14.270278
0
LINE
8
Layer 1
10
3.242878
20
14.270278
11
3.358549
21
14.388338
0
LINE
8
Layer 1
10
3.358549
20
14.388338
11
3.590167
21
14.533780
0
LINE
8
Layer 1
10
3.590167
20
14.533780
11
4.121129
21
14.324331
0
LINE
8
Layer 1
10
4.121129
20
14.324331
11
4.324283
21
13.870726
0
LINE
8
Layer 1
10
4.324283
20
13.870726
11
4.294133
21
13.685181
0
LINE
8
Layer 1
10
4.294133
20
13.685181
11
4.382647
21
13.505539
0
LINE
8
Layer 1
10
4.382647
20
13.505539
11
4.637963
21
13.483898
0
LINE
8
Layer 1
10
4.637963
20
13.483898
11
4.656189
21
13.267745
0
LINE
8
Layer 1
10
4.656189
20
13.267745
11
4.789756
21
12.922537
0
LINE
8
Layer 1
10
4.789756
20
12.922537
11
5.278547
21
12.808632
0
LINE
8
Layer 1
10
5.278547
20
12.808632
11
5.628954
21
12.614703
0
LINE
8
Layer 1
10
5.628954
20
12.614703
11
6.106563
21
12.563575
0
LINE
8
Layer 1
10
6.106563
20
12.563575
11
6.414868
21
12.561377
0
LINE
8
Layer 1
10
6.414868
20
12.561377
11
6.695644
21
12.693195
0
LINE
8
Layer 1
10
6.695644
20
12.693195
11
7.043321
21
12.961251
0
LINE
8
Layer 1
10
7.043321
20
12.961251
11
6.992033
21
13.195547
0
LINE
8
Layer 1
10
6.992033
20
13.195547
11
7.143538
21
13.468692
0
LINE
8
Layer 1
10
7.143538
20
13.468692
11
7.233010
21
13.712668
0
LINE
8
Layer 1
10
7.233010
20
13.712668
11
7.473405
21
13.671960
0
LINE
8
Layer 1
10
7.473405
20
13.671960
11
7.663050
21
14.103060
0
LINE
8
Layer 1
10
7.663050
20
14.103060
11
7.016373
21
14.685765
0
LINE
8
Layer 1
10
7.016373
20
14.685765
11
6.975153
21
14.831002
0
LINE
8
Layer 1
10
6.975153
20
14.831002
11
7.061367
21
14.885801
0
LINE
8
Layer 1
10
7.061367
20
14.885801
11
7.434164
21
14.744996
0
LINE
8
Layer 1
10
7.434164
20
14.744996
11
7.770898
21
14.305176
0
LINE
8
Layer 1
10
7.770898
20
14.305176
11
7.970486
21
14.483020
0
LINE
8
Layer 1
10
7.970486
20
14.483020
11
8.278508
21
14.561942
0
LINE
8
Layer 1
10
8.278508
20
14.561942
11
8.335350
21
14.334133
0
LINE
8
Layer 1
10
8.335350
20
14.334133
11
8.588061
21
14.146980
0
LINE
8
Layer 1
10
8.588061
20
14.146980
11
12.982571
21
12.312320
0
LINE
8
Layer 1
10
12.982571
20
12.312320
11
13.511136
21
12.875979
0
LINE
8
Layer 1
10
13.511136
20
12.875979
11
14.013628
21
13.147561
0
LINE
8
Layer 1
10
14.013628
20
13.147561
11
14.466798
21
13.180472
0
LINE
8
Layer 1
10
14.466798
20
13.180472
11
14.847395
21
13.028120
0
LINE
8
Layer 1
10
14.847395
20
13.028120
11
15.297865
21
12.381252
0
LINE
8
Layer 1
10
15.297865
20
12.381252
11
15.321237
21
11.993551
0
LINE
8
Layer 1
10
15.321237
20
11.993551
11
15.179031
21
11.634213
0
LINE
8
Layer 1
10
15.179031
20
11.634213
11
16.274633
21
11.438120
0
LINE
8
Layer 1
10
16.274633
20
11.438120
11
17.427076
21
11.389776
0
LINE
8
Layer 1
10
17.427076
20
11.389776
11
19.106561
21
11.545308
0
LINE
8
Layer 1
10
19.106561
20
11.545308
11
19.392471
21
11.836804
0
LINE
8
Layer 1
10
19.392471
20
11.836804
11
19.537743
21
12.244542
0
LINE
8
Layer 1
10
19.537743
20
12.244542
11
19.730941
21
13.134048
0
LINE
8
Layer 1
10
19.730941
20
13.134048
11
19.371314
21
13.565781
0
LINE
8
Layer 1
10
19.371314
20
13.565781
11
19.087882
21
13.942122
0
LINE
8
Layer 1
10
19.087882
20
13.942122
11
19.053849
21
14.036442
0
LINE
8
Layer 1
10
19.053849
20
14.036442
11
19.254302
21
14.029308
0
LINE
8
Layer 1
10
19.254302
20
14.029308
11
19.690171
21
13.821915
0
LINE
8
Layer 1
10
19.690171
20
13.821915
11
19.964271
21
13.366491
0
LINE
8
Layer 1
10
19.964271
20
13.366491
11
20.427345
21
13.510755
0
LINE
8
Layer 1
10
20.427345
20
13.510755
11
20.840290
21
13.464640
0
LINE
8
Layer 1
10
20.840290
20
13.464640
11
21.506371
21
13.242910
0
LINE
8
Layer 1
10
21.506371
20
13.242910
11
22.474616
21
13.071259
0
LINE
8
Layer 1
10
22.474616
20
13.071259
11
22.793905
21
13.151335
0
LINE
8
Layer 1
10
22.793905
20
13.151335
11
22.858991
21
13.394931
0
LINE
8
Layer 1
10
22.858991
20
13.394931
11
22.373292
21
15.182329
0
LINE
8
Layer 1
10
22.373292
20
15.182329
11
22.358483
21
15.610096
0
LINE
8
Layer 1
10
22.358483
20
15.610096
11
22.455959
21
15.808441
0
LINE
8
Layer 1
10
22.455959
20
15.808441
11
22.227914
21
15.863599
0
LINE
8
Layer 1
10
22.227914
20
15.863599
11
22.024247
21
16.038611
0
LINE
8
Layer 1
10
22.024247
20
16.038611
11
22.166472
21
16.156012
0
LINE
8
Layer 1
10
22.166472
20
16.156012
11
22.429204
21
16.167678
0
LINE
8
Layer 1
10
22.429204
20
16.167678
11
22.795574
21
16.107040
0
LINE
8
Layer 1
10
22.795574
20
16.107040
11
22.438161
21
16.476784
0
LINE
8
Layer 1
10
22.438161
20
16.476784
11
22.020334
21
16.588450
0
LINE
8
Layer 1
10
22.020334
20
16.588450
11
21.090034
21
16.407460
0
LINE
8
Layer 1
10
21.090034
20
16.407460
11
20.661962
21
16.075471
0
LINE
8
Layer 1
10
20.661962
20
16.075471
11
20.432591
21
16.174454
0
LINE
8
Layer 1
10
20.432591
20
16.174454
11
20.607409
21
16.245028
0
LINE
8
Layer 1
10
20.607409
20
16.245028
11
20.806757
21
16.546436
0
LINE
8
Layer 1
10
20.806757
20
16.546436
11
20.437695
21
16.627216
0
LINE
8
Layer 1
10
20.437695
20
16.627216
11
20.026564
21
16.578786
0
LINE
8
Layer 1
10
20.026564
20
16.578786
11
19.841343
21
16.551117
0
LINE
8
Layer 1
10
19.841343
20
16.551117
11
19.590300
21
16.668746
0
LINE
8
Layer 1
10
19.590300
20
16.668746
11
19.413175
21
16.800425
0
LINE
8
Layer 1
10
19.413175
20
16.800425
11
19.449712
21
16.814909
0
LINE
8
Layer 1
10
19.449712
20
16.814909
11
19.769313
21
16.744699
0
LINE
8
Layer 1
10
19.769313
20
16.744699
11
19.822318
21
16.882793
0
LINE
8
Layer 1
10
19.822318
20
16.882793
11
19.688202
21
17.000902
0
LINE
8
Layer 1
10
19.688202
20
17.000902
11
19.522019
21
17.316702
0
LINE
8
Layer 1
10
19.522019
20
17.316702
11
19.464660
21
17.913885
0
LINE
8
Layer 1
10
19.464660
20
17.913885
11
19.573142
21
18.489472
0
LINE
8
Layer 1
10
19.573142
20
18.489472
11
19.655867
21
18.449999
0
LINE
8
Layer 1
10
19.655867
20
18.449999
11
19.713517
21
18.107201
0
LINE
8
Layer 1
10
19.713517
20
18.107201
11
19.758242
21
17.528040
0
LINE
8
Layer 1
10
19.758242
20
17.528040
11
19.911692
21
17.297002
0
LINE
8
Layer 1
10
19.911692
20
17.297002
11
20.230375
21
17.004795
0
LINE
8
Layer 1
10
20.230375
20
17.004795
11
20.363845
21
16.927446
0
LINE
8
Layer 1
10
20.363845
20
16.927446
11
20.460492
21
16.889417
0
LINE
8
Layer 1
10
20.460492
20
16.889417
11
21.193265
21
16.745494
0
LINE
8
Layer 1
10
21.193265
20
16.745494
11
21.869737
21
16.820609
0
LINE
8
Layer 1
10
21.869737
20
16.820609
11
22.367785
21
16.679231
0
LINE
8
Layer 1
10
22.367785
20
16.679231
11
22.642544
21
16.529476
0
LINE
8
Layer 1
10
22.642544
20
16.529476
11
22.649145
21
16.579457
0
LINE
8
Layer 1
10
22.649145
20
16.579457
11
22.192380
21
17.018765
0
LINE
8
Layer 1
10
22.192380
20
17.018765
11
21.652137
21
17.213814
0
LINE
8
Layer 1
10
21.652137
20
17.213814
11
21.198359
21
17.110167
0
LINE
8
Layer 1
10
21.198359
20
17.110167
11
20.860067
21
17.058371
0
LINE
8
Layer 1
10
20.860067
20
17.058371
11
21.240605
21
17.256606
0
LINE
8
Layer 1
10
21.240605
20
17.256606
11
21.418180
21
17.345007
0
LINE
8
Layer 1
10
21.418180
20
17.345007
11
20.597139
21
17.721162
0
LINE
8
Layer 1
10
20.597139
20
17.721162
11
20.113320
21
18.333149
0
LINE
8
Layer 1
10
20.113320
20
18.333149
11
20.202538
21
18.339111
0
LINE
8
Layer 1
10
20.202538
20
18.339111
11
20.387564
21
18.184989
0
LINE
8
Layer 1
10
20.387564
20
18.184989
11
20.465079
21
18.123166
0
LINE
8
Layer 1
10
20.465079
20
18.123166
11
20.567178
21
18.043922
0
LINE
8
Layer 1
10
20.567178
20
18.043922
11
20.887710
21
17.766201
0
LINE
8
Layer 1
10
20.887710
20
17.766201
11
21.059781
21
17.671552
0
LINE
8
Layer 1
10
21.059781
20
17.671552
11
21.162442
21
17.733096
0
LINE
8
Layer 1
10
21.162442
20
17.733096
11
21.098278
21
18.124894
0
LINE
8
Layer 1
10
21.098278
20
18.124894
11
21.090269
21
18.551170
0
LINE
8
Layer 1
10
21.090269
20
18.551170
11
21.179636
21
18.568548
0
LINE
8
Layer 1
10
21.179636
20
18.568548
11
21.250787
21
18.320221
0
LINE
8
Layer 1
10
21.250787
20
18.320221
11
21.466963
21
17.673107
0
LINE
8
Layer 1
10
21.466963
20
17.673107
11
21.921070
21
17.296533
0
LINE
8
Layer 1
10
21.921070
20
17.296533
11
22.504193
21
17.119585
0
LINE
8
Layer 1
10
22.504193
20
17.119585
11
22.600082
21
17.553116
0
LINE
8
Layer 1
10
22.600082
20
17.553116
11
22.723615
21
17.157158
0
LINE
8
Layer 1
10
22.723615
20
17.157158
11
22.794009
21
16.714574
0
LINE
8
Layer 1
10
22.794009
20
16.714574
11
23.157557
21
16.116263
0
LINE
8
Layer 1
10
23.157557
20
16.116263
11
23.470364
21
15.942302
0
LINE
8
Layer 1
10
23.470364
20
15.942302
11
23.898211
21
15.781519
0
LINE
8
Layer 1
10
23.898211
20
15.781519
11
23.893875
21
15.668088
0
LINE
8
Layer 1
10
23.893875
20
15.668088
11
23.697906
21
15.541189
0
LINE
8
Layer 1
10
23.697906
20
15.541189
11
23.183637
21
15.339338
 0 
ENDSEC
 0 
EOF