<?xml version="1.0" encoding="UTF-8" standalone="no"?>
<svg
   xmlns:dc="http://purl.org/dc/elements/1.1/"
   xmlns:cc="http://creativecommons.org/ns#"
   xmlns:rdf="http://www.w3.org/1999/02/22-rdf-syntax-ns#"
   xmlns:svg="http://www.w3.org/2000/svg"
   xmlns="http://www.w3.org/2000/svg"
   xmlns:sodipodi="http://sodipodi.sourceforge.net/DTD/sodipodi-0.dtd"
   xmlns:inkscape="http://www.inkscape.org/namespaces/inkscape"
   width="100mm"
   height="100mm"
   viewBox="0 0 100 100"
   version="1.1"
   id="svg8"
   inkscape:version="1.0.1 (3bc2e813f5, 2020-09-07)"
   sodipodi:docname="edge.svg"
   inkscape:export-filename="/home/guilherme/Ãrea de trabalho/papai_noel.png"
   inkscape:export-xdpi="100"
   inkscape:export-ydpi="100">
  <defs
     id="defs2" />
  <sodipodi:namedview
     id="base"
     pagecolor="#ffffff"
     bordercolor="#666666"
     borderopacity="1.0"
     inkscape:pageopacity="0.0"
     inkscape:pageshadow="2"
     inkscape:zoom="1.4"
     inkscape:cx="168.65626"
     inkscape:cy="206.1317"
     inkscape:document-units="mm"
     inkscape:current-layer="layer2"
     inkscape:document-rotation="0"
     showgrid="false"
     inkscape:window-width="1366"
     inkscape:window-height="713"
     inkscape:window-x="0"
     inkscape:window-y="26"
     inkscape:window-maximized="1"
     inkscape:lockguides="false"
     inkscape:snap-to-guides="true"
     inkscape:snap-grids="true" />
  <metadata
     id="metadata5">
    <rdf:RDF>
      <cc:Work
         rdf:about="">
        <dc:format>image/svg+xml</dc:format>
        <dc:type
           rdf:resource="http://purl.org/dc/dcmitype/StillImage" />
        <dc:title />
      </cc:Work>
    </rdf:RDF>
  </metadata>
  <g
     inkscape:groupmode="layer"
     id="layer2"
     inkscape:label="edge"
     style="display:inline">
    <g
       id="g33" />
    <a
       id="a35">
      <path
         style="fill:none;stroke:#000000;stroke-width:0.264583px;stroke-linecap:butt;stroke-linejoin:miter;stroke-opacity:1"
         d="m 82.146798,45.647961 c -0.19497,0.06126 1.665251,3.544612 2.754167,5.161817 1.386369,2.058968 -0.08264,6.572389 -0.155938,6.23452 -0.0733,-0.337869 5.610566,0.211774 5.349091,0.737381 -0.530618,1.066629 -1.149275,2.211398 -2.06701,3.182005 1.22295,1.457427 7.011575,5.196236 6.248793,5.25666 l -1.985469,0.157278 c -1.415596,-1.874073 -3.148033,-3.056966 -5.105307,-4.425404 0.434121,0.386969 -2.834742,2.772953 -4.208041,2.532613 -0.647801,-0.113371 0.640438,-1.660432 0.640438,-1.660432 0.982098,0.560224 1.814788,-0.52202 1.902693,-0.604673 l 0.877112,-0.824708 -2.440896,-1.761703 c -0.782532,0.284797 -1.400913,0.03058 -1.880391,-0.679746 -1.31284,0.521702 -2.59794,1.054897 -6.575094,0.472741 -1.215696,2.538888 -4.371392,2.672244 -7.629049,2.679171 -0.229687,1.324011 -0.269084,7.863455 -1.107926,5.854234 l -0.503084,-1.205002 c 0.239713,-0.135567 0.381858,-0.324341 0.507179,-0.52229 7.41e-4,-1.513177 -0.01884,-2.969899 -0.499327,-3.146203 -1.249096,1.288278 -3.243778,1.549065 -4.36894,2.951885 -1.03549,1.291018 -2.591169,2.541719 -4.65609,3.01911 3.844227,4.438287 1.83262,9.711793 -2.453885,11.012029 0,0 -25.034064,8.267733 -36.033702,11.263536 -2.124458,0.578606 -5.185438,-2.399104 -5.121217,-5.040814 0.02609,-1.073009 0.398638,-2.210904 1.822091,-2.845354 1.159095,-0.516623 2.695976,-0.0712 3.32946,0.286463 1.988523,1.122698 -1.535465,5.360759 1.792039,4.365609 3.404996,-1.018326 1.921078,-4.696192 0.476306,-4.97114 C 17.401184,82.43224 16.156494,77.051881 16.156494,77.051881 11.070057,76.20568 10.259449,66.84325 8.3810266,67.795494 8.1414427,71.633186 4.5502822,69.414032 4.722471,68.038779 5.1219175,64.848445 7.2299128,64.228859 8.7999394,64.845961 l 4.7274026,1.858116 c 0.924446,0.265221 1.464184,0.124766 1.694976,-0.341475 -1.338108,-2.138911 -3.147164,-4.170292 -3.266987,-6.587369 -0.660428,0.04703 -1.715251,0.546225 -1.806031,-0.354994 -0.06701,-0.665227 0.512433,-0.614198 0.628195,-0.960003 0.387546,-1.15768 -0.02714,-3.138587 -1.1813591,-3.074774 -1.6682301,0.09223 -1.382442,-0.625277 -1.2921607,-1.261768 l -0.00473,-0.01237 c -1.5088969,-0.960934 -3.2091511,-1.740421 -4.8337766,0.03726 -0.156167,1.122888 -1.4361419,0.561758 -1.7083608,-0.0474 -0.2394813,-0.535899 0.3903742,-1.948916 1.2737121,-1.213015 2.4856398,-4.470404 7.4768311,-4.148414 8.4596951,-3.452194 0.250356,0.177342 0.43242,-0.981653 1.230552,-0.93367 1.623758,0.22918 2.526146,0.966729 2.601199,2.349407 l -0.106832,0.657445 c 0.227503,0.166772 0.406262,0.351543 0.313632,0.636526 0,0 0.690715,-0.137363 0.904664,0.07668 0.181125,0.181204 0.06458,0.765898 0.06458,0.765898 0.401974,0.213081 0.608495,0.651351 0.473268,1.223179 1.410577,0.01799 2.216745,0.694695 2.973538,1.09075 0.59143,-0.128847 1.144866,0.0054 1.692315,0.181163 0.80212,0.08055 1.415238,0.09331 2.087298,-0.459285 0.67333,-0.203663 0.920488,-0.590552 1.231929,-0.949804 -0.24908,-0.46126 -0.353892,-1.153223 0.355101,-1.798019 0,0 0.01208,-0.63807 0.31703,-0.864481 0.252324,-0.18734 0.851793,0.144238 0.851793,0.144238 l 0.67197,-1.527521 c -5.262071,-3.72276 -0.55052,-3.434517 0.38214,-0.71616 l 0.707203,-0.630155 c 1.256634,-0.889886 1.222863,-0.03168 1.292825,0.527553 0.280486,0.0015 0.637857,0.344439 0.895435,0.663142 5.197733,2.188321 10.518227,4.733444 15.571115,6.500779 5.044271,-6.874034 9.981877,-0.690357 7.782737,2.402742 4.728452,1.350653 11.874129,0.853988 13.916444,0.315018 1.810754,-0.994409 1.525952,-3.736054 2.212373,-5.629404 -1.265677,-0.936921 -1.372862,-2.188024 -2.278557,-2.863257 -0.977887,-0.729055 1.838991,-0.236726 2.134095,0.425929 0.158233,0.355312 0.859029,1.611849 0.971222,1.613707 2.30246,-1.305147 4.153516,0.2318 5.464148,0.437885 2.295009,0.740488 5.256197,1.060971 4.792737,-0.538657 -2.006378,-5.977438 -2.106886,-8.060794 -1.428068,-8.551831 0,0 -1.644866,-0.24932 -1.529688,-0.815565 0.182301,-0.896242 2.733051,-0.242464 2.733051,-0.242464 -1.511772,-2.502094 -3.798917,-1.691837 -6.043248,-1.064482 -1.40928,1.574123 -1.858992,1.287577 -2.329525,0.825612 -0.05004,-0.07285 1.259936,-0.154643 1.325787,-1.318048 0.02083,-0.368008 -2.586544,-0.357064 -2.764466,-0.114624 -0.499509,0.680629 -2.941362,-1.251758 -2.043964,-0.836656 0.822215,0.380324 1.757546,0.363251 1.320258,-0.240535 0,0 -0.912562,-0.603496 -1.064052,-1.537475 -0.208525,-1.285613 -0.393839,-2.971904 0.181144,-4.155477 0.451887,-0.930189 0.655866,3.406652 0.655866,3.406652 0,0 0.892288,1.565027 1.672913,1.854018 l 0.472926,0.274071 0.342451,0.134747 c 0.737979,0.290379 2.538448,0.529486 2.596441,0.509963 3.546735,-1.194013 5.831527,1.624017 5.158631,0.588322 -0.95206,-1.465373 -2.186273,-1.936332 -3.532707,-2.247722 -0.371229,-0.08586 -2.980929,0.881612 -2.806549,0.550784 0.310832,-0.5897 2.625616,-0.94484 1.977568,-1.015641 -2.07613,-0.226823 -4.140578,-2.160297 -4.623532,-3.501294 -0.19973,-0.554581 0.718816,0.32326 0.971733,0.524978 l 0.274659,0.219058 0.361768,0.280788 c 0.446157,0.346287 1.879423,1.910732 2.109205,1.101352 0.201518,-0.709827 -0.722553,-2.025974 -0.255732,-2.898689 0.515834,-0.964344 0.555958,2.109459 1.334743,3.111249 0.79979,1.028809 2.265913,1.875605 3.675239,1.9613 0.209116,0.01272 0.155254,-1.63537 0.339763,-1.536134 0.420706,0.22627 0.517497,2.524657 0.687144,2.971213 0.29366,0.772992 1.288162,2.120003 1.288162,2.120003 0.543519,0.777294 1.537352,0.471063 2.624365,1.186102 0.610366,0.467716 -1.659025,1.280854 -2.531957,1.566785"
         id="path17"
         sodipodi:nodetypes="cszscsccscscccccscccscsssssssccsscccssscccscsccccscccccccsccccccccccssccccscccsssssscscsssssssscsssssssccc" />
    </a>
  </g>
</svg>
